M48
; DRILL file {KiCad (5.1.5)-3} date 20/08/2020 13:57:22
; FORMAT={-:-/ absolute / metric / decimal}
; #@! TF.CreationDate,2020-08-20T13:57:22+01:00
; #@! TF.GenerationSoftware,Kicad,Pcbnew,(5.1.5)-3
FMAT,2
METRIC
T1C0.800
T2C0.900
T3C1.016
T4C1.060
T5C1.100
T6C1.200
T7C1.300
T8C1.700
T9C2.500
T10C2.700
T11C2.700
%
G90
G05
T1
X147.71Y-86.48
X150.21Y-86.48
X140.84Y-93.73
X151.0Y-93.73
X171.33Y-95.36
X173.83Y-95.36
X138.65Y-86.78
X141.15Y-86.78
X141.0Y-79.84
X151.16Y-79.84
X171.23Y-63.86
X173.73Y-63.86
T2
X156.53Y-95.44
X166.69Y-95.44
X147.0Y-103.92
X149.54Y-103.92
X156.82Y-63.95
X166.98Y-63.95
X147.0Y-71.51
X149.54Y-71.51
T3
X159.05Y-74.2
X159.05Y-76.74
X159.05Y-79.28
X159.05Y-81.82
X159.05Y-84.36
X161.59Y-74.2
X161.59Y-76.74
X161.59Y-79.28
X161.59Y-81.82
X161.59Y-84.36
T4
X110.92Y-81.355
X110.92Y-85.22
X110.92Y-89.085
X110.92Y-92.95
T5
X142.0Y-58.03
X142.0Y-60.57
X142.0Y-63.11
X142.0Y-112.1
X142.0Y-114.64
X142.0Y-117.18
T6
X59.16Y-72.44
X59.16Y-102.44
X91.66Y-72.44
X91.66Y-77.44
X91.66Y-97.44
X91.66Y-102.44
X171.92Y-77.03
X171.92Y-79.57
X171.92Y-82.11
X129.0Y-93.78
X129.0Y-101.28
X129.0Y-72.57
X129.0Y-80.07
T7
X36.93Y-57.66
X36.93Y-80.16
X111.0Y-114.46
X133.5Y-114.46
X111.0Y-60.67
X133.5Y-60.67
T8
X36.93Y-108.73
X36.93Y-112.69
X36.93Y-116.65
T9
X75.41Y-62.44
X75.41Y-112.44
T10
X30.41Y-93.06
T11
X36.93Y-68.91
X122.25Y-114.46
X122.25Y-60.67
T0
M30
