G04 #@! TF.GenerationSoftware,KiCad,Pcbnew,(5.1.5)-3*
G04 #@! TF.CreationDate,2020-08-20T13:57:19+01:00*
G04 #@! TF.ProjectId,KOSMOPSU2,4b4f534d-4f50-4535-9532-2e6b69636164,rev?*
G04 #@! TF.SameCoordinates,Original*
G04 #@! TF.FileFunction,Copper,L1,Top*
G04 #@! TF.FilePolarity,Positive*
%FSLAX46Y46*%
G04 Gerber Fmt 4.6, Leading zero omitted, Abs format (unit mm)*
G04 Created by KiCad (PCBNEW (5.1.5)-3) date 2020-08-20 13:57:19*
%MOMM*%
%LPD*%
G04 APERTURE LIST*
%ADD10C,0.300000*%
%ADD11C,1.600000*%
%ADD12R,1.600000X1.600000*%
%ADD13C,3.000000*%
%ADD14O,1.800000X1.800000*%
%ADD15R,1.800000X1.800000*%
%ADD16O,2.000000X1.905000*%
%ADD17R,2.000000X1.905000*%
%ADD18R,3.000000X2.500000*%
%ADD19C,3.500000*%
%ADD20C,4.000000*%
%ADD21C,2.400000*%
%ADD22R,2.400000X2.400000*%
%ADD23C,1.590000*%
%ADD24R,1.590000X1.590000*%
%ADD25C,1.800000*%
%ADD26C,4.700000*%
%ADD27C,0.100000*%
%ADD28O,4.100000X3.160000*%
%ADD29R,1.727200X1.727200*%
%ADD30O,1.727200X1.727200*%
%ADD31O,2.200000X1.740000*%
%ADD32O,1.600000X1.600000*%
%ADD33C,0.500000*%
%ADD34C,0.254000*%
G04 APERTURE END LIST*
D10*
X71018571Y-96675714D02*
X69518571Y-96675714D01*
X69518571Y-96318571D01*
X69590000Y-96104285D01*
X69732857Y-95961428D01*
X69875714Y-95890000D01*
X70161428Y-95818571D01*
X70375714Y-95818571D01*
X70661428Y-95890000D01*
X70804285Y-95961428D01*
X70947142Y-96104285D01*
X71018571Y-96318571D01*
X71018571Y-96675714D01*
X70590000Y-95247142D02*
X70590000Y-94532857D01*
X71018571Y-95390000D02*
X69518571Y-94890000D01*
X71018571Y-94390000D01*
X71018571Y-93890000D02*
X69518571Y-93890000D01*
X71018571Y-93032857D01*
X69518571Y-93032857D01*
X69590000Y-91532857D02*
X69518571Y-91675714D01*
X69518571Y-91890000D01*
X69590000Y-92104285D01*
X69732857Y-92247142D01*
X69875714Y-92318571D01*
X70161428Y-92390000D01*
X70375714Y-92390000D01*
X70661428Y-92318571D01*
X70804285Y-92247142D01*
X70947142Y-92104285D01*
X71018571Y-91890000D01*
X71018571Y-91747142D01*
X70947142Y-91532857D01*
X70875714Y-91461428D01*
X70375714Y-91461428D01*
X70375714Y-91747142D01*
X70232857Y-90818571D02*
X70232857Y-90318571D01*
X71018571Y-90104285D02*
X71018571Y-90818571D01*
X69518571Y-90818571D01*
X69518571Y-90104285D01*
X71018571Y-88604285D02*
X70304285Y-89104285D01*
X71018571Y-89461428D02*
X69518571Y-89461428D01*
X69518571Y-88890000D01*
X69590000Y-88747142D01*
X69661428Y-88675714D01*
X69804285Y-88604285D01*
X70018571Y-88604285D01*
X70161428Y-88675714D01*
X70232857Y-88747142D01*
X70304285Y-88890000D01*
X70304285Y-89461428D01*
X71018571Y-86104285D02*
X71018571Y-86818571D01*
X69518571Y-86818571D01*
X71018571Y-85604285D02*
X69518571Y-85604285D01*
X69518571Y-85104285D02*
X71018571Y-84604285D01*
X69518571Y-84104285D01*
X70232857Y-83604285D02*
X70232857Y-83104285D01*
X71018571Y-82890000D02*
X71018571Y-83604285D01*
X69518571Y-83604285D01*
X69518571Y-82890000D01*
X71018571Y-81104285D02*
X69518571Y-81104285D01*
X70590000Y-80604285D01*
X69518571Y-80104285D01*
X71018571Y-80104285D01*
X70590000Y-79461428D02*
X70590000Y-78747142D01*
X71018571Y-79604285D02*
X69518571Y-79104285D01*
X71018571Y-78604285D01*
X71018571Y-78104285D02*
X69518571Y-78104285D01*
X71018571Y-77390000D02*
X69518571Y-77390000D01*
X71018571Y-76532857D01*
X69518571Y-76532857D01*
X70947142Y-75890000D02*
X71018571Y-75675714D01*
X71018571Y-75318571D01*
X70947142Y-75175714D01*
X70875714Y-75104285D01*
X70732857Y-75032857D01*
X70590000Y-75032857D01*
X70447142Y-75104285D01*
X70375714Y-75175714D01*
X70304285Y-75318571D01*
X70232857Y-75604285D01*
X70161428Y-75747142D01*
X70090000Y-75818571D01*
X69947142Y-75890000D01*
X69804285Y-75890000D01*
X69661428Y-75818571D01*
X69590000Y-75747142D01*
X69518571Y-75604285D01*
X69518571Y-75247142D01*
X69590000Y-75032857D01*
X33818571Y-93262857D02*
X34318571Y-93262857D01*
X34532857Y-94048571D02*
X33818571Y-94048571D01*
X33818571Y-92548571D01*
X34532857Y-92548571D01*
X35104285Y-93620000D02*
X35818571Y-93620000D01*
X34961428Y-94048571D02*
X35461428Y-92548571D01*
X35961428Y-94048571D01*
X37318571Y-94048571D02*
X36818571Y-93334285D01*
X36461428Y-94048571D02*
X36461428Y-92548571D01*
X37032857Y-92548571D01*
X37175714Y-92620000D01*
X37247142Y-92691428D01*
X37318571Y-92834285D01*
X37318571Y-93048571D01*
X37247142Y-93191428D01*
X37175714Y-93262857D01*
X37032857Y-93334285D01*
X36461428Y-93334285D01*
X37747142Y-92548571D02*
X38604285Y-92548571D01*
X38175714Y-94048571D02*
X38175714Y-92548571D01*
X39104285Y-94048571D02*
X39104285Y-92548571D01*
X39104285Y-93262857D02*
X39961428Y-93262857D01*
X39961428Y-94048571D02*
X39961428Y-92548571D01*
X29692857Y-116121428D02*
X29692857Y-115621428D01*
X30478571Y-115407142D02*
X30478571Y-116121428D01*
X28978571Y-116121428D01*
X28978571Y-115407142D01*
X30050000Y-114835714D02*
X30050000Y-114121428D01*
X30478571Y-114978571D02*
X28978571Y-114478571D01*
X30478571Y-113978571D01*
X30478571Y-112621428D02*
X29764285Y-113121428D01*
X30478571Y-113478571D02*
X28978571Y-113478571D01*
X28978571Y-112907142D01*
X29050000Y-112764285D01*
X29121428Y-112692857D01*
X29264285Y-112621428D01*
X29478571Y-112621428D01*
X29621428Y-112692857D01*
X29692857Y-112764285D01*
X29764285Y-112907142D01*
X29764285Y-113478571D01*
X28978571Y-112192857D02*
X28978571Y-111335714D01*
X30478571Y-111764285D02*
X28978571Y-111764285D01*
X30478571Y-110835714D02*
X28978571Y-110835714D01*
X29692857Y-110835714D02*
X29692857Y-109978571D01*
X30478571Y-109978571D02*
X28978571Y-109978571D01*
X36855714Y-121448571D02*
X36855714Y-119948571D01*
X37712857Y-121448571D01*
X37712857Y-119948571D01*
X38427142Y-120662857D02*
X38927142Y-120662857D01*
X39141428Y-121448571D02*
X38427142Y-121448571D01*
X38427142Y-119948571D01*
X39141428Y-119948571D01*
X39784285Y-119948571D02*
X39784285Y-121162857D01*
X39855714Y-121305714D01*
X39927142Y-121377142D01*
X40070000Y-121448571D01*
X40355714Y-121448571D01*
X40498571Y-121377142D01*
X40570000Y-121305714D01*
X40641428Y-121162857D01*
X40641428Y-119948571D01*
X41141428Y-119948571D02*
X41998571Y-119948571D01*
X41570000Y-121448571D02*
X41570000Y-119948571D01*
X43355714Y-121448571D02*
X42855714Y-120734285D01*
X42498571Y-121448571D02*
X42498571Y-119948571D01*
X43070000Y-119948571D01*
X43212857Y-120020000D01*
X43284285Y-120091428D01*
X43355714Y-120234285D01*
X43355714Y-120448571D01*
X43284285Y-120591428D01*
X43212857Y-120662857D01*
X43070000Y-120734285D01*
X42498571Y-120734285D01*
X43927142Y-121020000D02*
X44641428Y-121020000D01*
X43784285Y-121448571D02*
X44284285Y-119948571D01*
X44784285Y-121448571D01*
X45998571Y-121448571D02*
X45284285Y-121448571D01*
X45284285Y-119948571D01*
X38775714Y-104688571D02*
X38061428Y-104688571D01*
X38061428Y-103188571D01*
X39275714Y-104688571D02*
X39275714Y-103188571D01*
X39775714Y-103188571D02*
X40275714Y-104688571D01*
X40775714Y-103188571D01*
X41275714Y-103902857D02*
X41775714Y-103902857D01*
X41990000Y-104688571D02*
X41275714Y-104688571D01*
X41275714Y-103188571D01*
X41990000Y-103188571D01*
X168396190Y-85647142D02*
X169920000Y-85647142D01*
X169158095Y-86218571D02*
X169158095Y-85075714D01*
X171920000Y-86218571D02*
X170777142Y-86218571D01*
X171348571Y-86218571D02*
X171348571Y-84718571D01*
X171158095Y-84932857D01*
X170967619Y-85075714D01*
X170777142Y-85147142D01*
X172681904Y-84861428D02*
X172777142Y-84790000D01*
X172967619Y-84718571D01*
X173443809Y-84718571D01*
X173634285Y-84790000D01*
X173729523Y-84861428D01*
X173824761Y-85004285D01*
X173824761Y-85147142D01*
X173729523Y-85361428D01*
X172586666Y-86218571D01*
X173824761Y-86218571D01*
X174396190Y-84718571D02*
X175062857Y-86218571D01*
X175729523Y-84718571D01*
X167736190Y-72557142D02*
X169260000Y-72557142D01*
X171260000Y-73128571D02*
X170117142Y-73128571D01*
X170688571Y-73128571D02*
X170688571Y-71628571D01*
X170498095Y-71842857D01*
X170307619Y-71985714D01*
X170117142Y-72057142D01*
X172021904Y-71771428D02*
X172117142Y-71700000D01*
X172307619Y-71628571D01*
X172783809Y-71628571D01*
X172974285Y-71700000D01*
X173069523Y-71771428D01*
X173164761Y-71914285D01*
X173164761Y-72057142D01*
X173069523Y-72271428D01*
X171926666Y-73128571D01*
X173164761Y-73128571D01*
X173736190Y-71628571D02*
X174402857Y-73128571D01*
X175069523Y-71628571D01*
D11*
X173730000Y-63860000D03*
D12*
X171230000Y-63860000D03*
D13*
X111000000Y-114460000D03*
X133500000Y-114460000D03*
X111000000Y-60670000D03*
X133500000Y-60670000D03*
X36930000Y-80160000D03*
X36930000Y-57660000D03*
D11*
X150210000Y-86480000D03*
D12*
X147710000Y-86480000D03*
D11*
X141150000Y-86780000D03*
D12*
X138650000Y-86780000D03*
D11*
X173830000Y-95360000D03*
D12*
X171330000Y-95360000D03*
D14*
X156820000Y-63950000D03*
D15*
X166980000Y-63950000D03*
D14*
X166690000Y-95440000D03*
D15*
X156530000Y-95440000D03*
D16*
X142000000Y-63110000D03*
X142000000Y-60570000D03*
D17*
X142000000Y-58030000D03*
D16*
X142000000Y-117180000D03*
X142000000Y-114640000D03*
D17*
X142000000Y-112100000D03*
D18*
X59160000Y-102440000D03*
D19*
X59160000Y-72440000D03*
D13*
X91660000Y-77440000D03*
X91660000Y-72440000D03*
X91660000Y-102440000D03*
X91660000Y-97440000D03*
D20*
X75410000Y-62440000D03*
X75410000Y-112440000D03*
D21*
X129000000Y-93780000D03*
D22*
X129000000Y-101280000D03*
X129000000Y-80070000D03*
D21*
X129000000Y-72570000D03*
D23*
X110920000Y-81355000D03*
X110920000Y-85220000D03*
X110920000Y-89085000D03*
D24*
X110920000Y-92950000D03*
D25*
X149540000Y-103920000D03*
D15*
X147000000Y-103920000D03*
X147000000Y-71510000D03*
D25*
X149540000Y-71510000D03*
D26*
X30410000Y-93060000D03*
G04 #@! TA.AperFunction,ComponentPad*
D27*
G36*
X38754504Y-115071204D02*
G01*
X38778773Y-115074804D01*
X38802571Y-115080765D01*
X38825671Y-115089030D01*
X38847849Y-115099520D01*
X38868893Y-115112133D01*
X38888598Y-115126747D01*
X38906777Y-115143223D01*
X38923253Y-115161402D01*
X38937867Y-115181107D01*
X38950480Y-115202151D01*
X38960970Y-115224329D01*
X38969235Y-115247429D01*
X38975196Y-115271227D01*
X38978796Y-115295496D01*
X38980000Y-115320000D01*
X38980000Y-117980000D01*
X38978796Y-118004504D01*
X38975196Y-118028773D01*
X38969235Y-118052571D01*
X38960970Y-118075671D01*
X38950480Y-118097849D01*
X38937867Y-118118893D01*
X38923253Y-118138598D01*
X38906777Y-118156777D01*
X38888598Y-118173253D01*
X38868893Y-118187867D01*
X38847849Y-118200480D01*
X38825671Y-118210970D01*
X38802571Y-118219235D01*
X38778773Y-118225196D01*
X38754504Y-118228796D01*
X38730000Y-118230000D01*
X35130000Y-118230000D01*
X35105496Y-118228796D01*
X35081227Y-118225196D01*
X35057429Y-118219235D01*
X35034329Y-118210970D01*
X35012151Y-118200480D01*
X34991107Y-118187867D01*
X34971402Y-118173253D01*
X34953223Y-118156777D01*
X34936747Y-118138598D01*
X34922133Y-118118893D01*
X34909520Y-118097849D01*
X34899030Y-118075671D01*
X34890765Y-118052571D01*
X34884804Y-118028773D01*
X34881204Y-118004504D01*
X34880000Y-117980000D01*
X34880000Y-115320000D01*
X34881204Y-115295496D01*
X34884804Y-115271227D01*
X34890765Y-115247429D01*
X34899030Y-115224329D01*
X34909520Y-115202151D01*
X34922133Y-115181107D01*
X34936747Y-115161402D01*
X34953223Y-115143223D01*
X34971402Y-115126747D01*
X34991107Y-115112133D01*
X35012151Y-115099520D01*
X35034329Y-115089030D01*
X35057429Y-115080765D01*
X35081227Y-115074804D01*
X35105496Y-115071204D01*
X35130000Y-115070000D01*
X38730000Y-115070000D01*
X38754504Y-115071204D01*
G37*
G04 #@! TD.AperFunction*
D28*
X36930000Y-112690000D03*
X36930000Y-108730000D03*
D29*
X159050000Y-74200000D03*
D30*
X161590000Y-74200000D03*
X159050000Y-76740000D03*
X161590000Y-76740000D03*
X159050000Y-79280000D03*
X161590000Y-79280000D03*
X159050000Y-81820000D03*
X161590000Y-81820000D03*
X159050000Y-84360000D03*
X161590000Y-84360000D03*
G04 #@! TA.AperFunction,ComponentPad*
D27*
G36*
X172794505Y-76161204D02*
G01*
X172818773Y-76164804D01*
X172842572Y-76170765D01*
X172865671Y-76179030D01*
X172887850Y-76189520D01*
X172908893Y-76202132D01*
X172928599Y-76216747D01*
X172946777Y-76233223D01*
X172963253Y-76251401D01*
X172977868Y-76271107D01*
X172990480Y-76292150D01*
X173000970Y-76314329D01*
X173009235Y-76337428D01*
X173015196Y-76361227D01*
X173018796Y-76385495D01*
X173020000Y-76409999D01*
X173020000Y-77650001D01*
X173018796Y-77674505D01*
X173015196Y-77698773D01*
X173009235Y-77722572D01*
X173000970Y-77745671D01*
X172990480Y-77767850D01*
X172977868Y-77788893D01*
X172963253Y-77808599D01*
X172946777Y-77826777D01*
X172928599Y-77843253D01*
X172908893Y-77857868D01*
X172887850Y-77870480D01*
X172865671Y-77880970D01*
X172842572Y-77889235D01*
X172818773Y-77895196D01*
X172794505Y-77898796D01*
X172770001Y-77900000D01*
X171069999Y-77900000D01*
X171045495Y-77898796D01*
X171021227Y-77895196D01*
X170997428Y-77889235D01*
X170974329Y-77880970D01*
X170952150Y-77870480D01*
X170931107Y-77857868D01*
X170911401Y-77843253D01*
X170893223Y-77826777D01*
X170876747Y-77808599D01*
X170862132Y-77788893D01*
X170849520Y-77767850D01*
X170839030Y-77745671D01*
X170830765Y-77722572D01*
X170824804Y-77698773D01*
X170821204Y-77674505D01*
X170820000Y-77650001D01*
X170820000Y-76409999D01*
X170821204Y-76385495D01*
X170824804Y-76361227D01*
X170830765Y-76337428D01*
X170839030Y-76314329D01*
X170849520Y-76292150D01*
X170862132Y-76271107D01*
X170876747Y-76251401D01*
X170893223Y-76233223D01*
X170911401Y-76216747D01*
X170931107Y-76202132D01*
X170952150Y-76189520D01*
X170974329Y-76179030D01*
X170997428Y-76170765D01*
X171021227Y-76164804D01*
X171045495Y-76161204D01*
X171069999Y-76160000D01*
X172770001Y-76160000D01*
X172794505Y-76161204D01*
G37*
G04 #@! TD.AperFunction*
D31*
X171920000Y-79570000D03*
X171920000Y-82110000D03*
D32*
X140840000Y-93730000D03*
D11*
X151000000Y-93730000D03*
X141000000Y-79840000D03*
D32*
X151160000Y-79840000D03*
D33*
X142000000Y-112100000D02*
X143500000Y-112100000D01*
X143500000Y-112100000D02*
X156530000Y-99070000D01*
X156530000Y-99070000D02*
X156530000Y-95440000D01*
X135860000Y-112100000D02*
X142000000Y-112100000D01*
X135860000Y-112100000D02*
X133500000Y-114460000D01*
X129000000Y-101280000D02*
X129000000Y-105240000D01*
X129000000Y-105240000D02*
X135860000Y-112100000D01*
X171330000Y-95360000D02*
X170030000Y-95360000D01*
X156530000Y-95440000D02*
X157930000Y-95440000D01*
X157930000Y-95440000D02*
X159314200Y-96824200D01*
X159314200Y-96824200D02*
X168565800Y-96824200D01*
X168565800Y-96824200D02*
X170030000Y-95360000D01*
X142000000Y-60570000D02*
X140500000Y-60570000D01*
X133500000Y-60670000D02*
X140400000Y-60670000D01*
X140400000Y-60670000D02*
X140500000Y-60570000D01*
X156820000Y-63950000D02*
X155420000Y-63950000D01*
X142000000Y-60570000D02*
X152040000Y-60570000D01*
X152040000Y-60570000D02*
X155420000Y-63950000D01*
X161590000Y-74200000D02*
X159050000Y-74200000D01*
X161590000Y-84360000D02*
X160226400Y-84360000D01*
X159050000Y-85041800D02*
X159544600Y-85041800D01*
X159544600Y-85041800D02*
X160226400Y-84360000D01*
X159050000Y-85041800D02*
X159050000Y-85723600D01*
X159050000Y-84360000D02*
X159050000Y-85041800D01*
X151000000Y-93730000D02*
X159006400Y-85723600D01*
X159006400Y-85723600D02*
X159050000Y-85723600D01*
D34*
G36*
X66753000Y-50896726D02*
G01*
X66753000Y-57079587D01*
X66393831Y-57119059D01*
X66335336Y-57131356D01*
X66276587Y-57142851D01*
X66267778Y-57145557D01*
X65874972Y-57269193D01*
X65819951Y-57292629D01*
X65764580Y-57315306D01*
X65756464Y-57319671D01*
X65395153Y-57517250D01*
X65345692Y-57550954D01*
X65295821Y-57583927D01*
X65288707Y-57589785D01*
X64972655Y-57853780D01*
X64930717Y-57896414D01*
X64888166Y-57938480D01*
X64882326Y-57945608D01*
X64623569Y-58265963D01*
X64590717Y-58315922D01*
X64557141Y-58365459D01*
X64552797Y-58373586D01*
X64361191Y-58738099D01*
X64338661Y-58793503D01*
X64315352Y-58848607D01*
X64312669Y-58857423D01*
X64195514Y-59252210D01*
X64184167Y-59310977D01*
X64172014Y-59369515D01*
X64171094Y-59378684D01*
X64133000Y-59787121D01*
X64130000Y-59817582D01*
X64130001Y-115522419D01*
X64130380Y-115526270D01*
X64130391Y-115527187D01*
X64131158Y-115534166D01*
X64133679Y-115559764D01*
X64133808Y-115586974D01*
X64134815Y-115596134D01*
X64182657Y-116005150D01*
X64195372Y-116063606D01*
X64207268Y-116122227D01*
X64210035Y-116131017D01*
X64336411Y-116522951D01*
X64360226Y-116577796D01*
X64383293Y-116633016D01*
X64387715Y-116641101D01*
X64587811Y-117001025D01*
X64621840Y-117050221D01*
X64655179Y-117099889D01*
X64661087Y-117106961D01*
X64927282Y-117421164D01*
X64970226Y-117462821D01*
X65012570Y-117505060D01*
X65019739Y-117510850D01*
X65341893Y-117767364D01*
X65392072Y-117799861D01*
X65441851Y-117833096D01*
X65450008Y-117837383D01*
X65815850Y-118026439D01*
X65871394Y-118048575D01*
X65926674Y-118071505D01*
X65935505Y-118074125D01*
X65935511Y-118074127D01*
X66331105Y-118188522D01*
X66389920Y-118199453D01*
X66448570Y-118211203D01*
X66457746Y-118212059D01*
X66753000Y-118237519D01*
X66753000Y-122920000D01*
X25067861Y-122920000D01*
X25081994Y-118980000D01*
X35713572Y-118980000D01*
X35713572Y-122800000D01*
X46926429Y-122800000D01*
X46926429Y-118980000D01*
X35713572Y-118980000D01*
X25081994Y-118980000D01*
X25118381Y-108836428D01*
X28010000Y-108836428D01*
X28010000Y-117263571D01*
X31830000Y-117263571D01*
X31830000Y-115320000D01*
X34241928Y-115320000D01*
X34241928Y-117980000D01*
X34258992Y-118153254D01*
X34309528Y-118319850D01*
X34391595Y-118473386D01*
X34502038Y-118607962D01*
X34636614Y-118718405D01*
X34790150Y-118800472D01*
X34956746Y-118851008D01*
X35130000Y-118868072D01*
X38730000Y-118868072D01*
X38903254Y-118851008D01*
X39069850Y-118800472D01*
X39223386Y-118718405D01*
X39357962Y-118607962D01*
X39468405Y-118473386D01*
X39550472Y-118319850D01*
X39601008Y-118153254D01*
X39618072Y-117980000D01*
X39618072Y-115320000D01*
X39601008Y-115146746D01*
X39550472Y-114980150D01*
X39468405Y-114826614D01*
X39357962Y-114692038D01*
X39223386Y-114581595D01*
X39069850Y-114499528D01*
X38903254Y-114448992D01*
X38764238Y-114435300D01*
X39056044Y-114166438D01*
X39312262Y-113814991D01*
X39494993Y-113420311D01*
X39564263Y-113161369D01*
X39452324Y-112817000D01*
X37057000Y-112817000D01*
X37057000Y-112837000D01*
X36803000Y-112837000D01*
X36803000Y-112817000D01*
X34407676Y-112817000D01*
X34295737Y-113161369D01*
X34365007Y-113420311D01*
X34547738Y-113814991D01*
X34803956Y-114166438D01*
X35095762Y-114435300D01*
X34956746Y-114448992D01*
X34790150Y-114499528D01*
X34636614Y-114581595D01*
X34502038Y-114692038D01*
X34391595Y-114826614D01*
X34309528Y-114980150D01*
X34258992Y-115146746D01*
X34241928Y-115320000D01*
X31830000Y-115320000D01*
X31830000Y-108836428D01*
X28010000Y-108836428D01*
X25118381Y-108836428D01*
X25118762Y-108730000D01*
X34234283Y-108730000D01*
X34277050Y-109164216D01*
X34403706Y-109581745D01*
X34609384Y-109966542D01*
X34886180Y-110303820D01*
X35223458Y-110580616D01*
X35465713Y-110710104D01*
X35123815Y-110918853D01*
X34803956Y-111213562D01*
X34547738Y-111565009D01*
X34365007Y-111959689D01*
X34295737Y-112218631D01*
X34407676Y-112563000D01*
X36803000Y-112563000D01*
X36803000Y-112543000D01*
X37057000Y-112543000D01*
X37057000Y-112563000D01*
X39452324Y-112563000D01*
X39564263Y-112218631D01*
X39494993Y-111959689D01*
X39312262Y-111565009D01*
X39056044Y-111213562D01*
X38736185Y-110918853D01*
X38394287Y-110710104D01*
X38636542Y-110580616D01*
X38973820Y-110303820D01*
X39250616Y-109966542D01*
X39456294Y-109581745D01*
X39582950Y-109164216D01*
X39625717Y-108730000D01*
X39582950Y-108295784D01*
X39456294Y-107878255D01*
X39250616Y-107493458D01*
X38973820Y-107156180D01*
X38636542Y-106879384D01*
X38251745Y-106673706D01*
X37834216Y-106547050D01*
X37508810Y-106515000D01*
X36351190Y-106515000D01*
X36025784Y-106547050D01*
X35608255Y-106673706D01*
X35223458Y-106879384D01*
X34886180Y-107156180D01*
X34609384Y-107493458D01*
X34403706Y-107878255D01*
X34277050Y-108295784D01*
X34234283Y-108730000D01*
X25118762Y-108730000D01*
X25142114Y-102220000D01*
X36919286Y-102220000D01*
X36919286Y-106040000D01*
X43060715Y-106040000D01*
X43060715Y-102220000D01*
X36919286Y-102220000D01*
X25142114Y-102220000D01*
X25145808Y-101190000D01*
X57021928Y-101190000D01*
X57021928Y-103690000D01*
X57034188Y-103814482D01*
X57070498Y-103934180D01*
X57129463Y-104044494D01*
X57208815Y-104141185D01*
X57305506Y-104220537D01*
X57415820Y-104279502D01*
X57535518Y-104315812D01*
X57660000Y-104328072D01*
X60660000Y-104328072D01*
X60784482Y-104315812D01*
X60904180Y-104279502D01*
X61014494Y-104220537D01*
X61111185Y-104141185D01*
X61190537Y-104044494D01*
X61249502Y-103934180D01*
X61285812Y-103814482D01*
X61298072Y-103690000D01*
X61298072Y-101190000D01*
X61285812Y-101065518D01*
X61249502Y-100945820D01*
X61190537Y-100835506D01*
X61111185Y-100738815D01*
X61014494Y-100659463D01*
X60904180Y-100600498D01*
X60784482Y-100564188D01*
X60660000Y-100551928D01*
X57660000Y-100551928D01*
X57535518Y-100564188D01*
X57415820Y-100600498D01*
X57305506Y-100659463D01*
X57208815Y-100738815D01*
X57129463Y-100835506D01*
X57070498Y-100945820D01*
X57034188Y-101065518D01*
X57021928Y-101190000D01*
X25145808Y-101190000D01*
X25167453Y-95156468D01*
X28493137Y-95156468D01*
X28751298Y-95559073D01*
X29270715Y-95834651D01*
X29833913Y-96003601D01*
X30419250Y-96059430D01*
X31004233Y-95999992D01*
X31566379Y-95827571D01*
X32068702Y-95559073D01*
X32326863Y-95156468D01*
X30410000Y-93239605D01*
X28493137Y-95156468D01*
X25167453Y-95156468D01*
X25174941Y-93069250D01*
X27410570Y-93069250D01*
X27470008Y-93654233D01*
X27642429Y-94216379D01*
X27910927Y-94718702D01*
X28313532Y-94976863D01*
X30230395Y-93060000D01*
X30589605Y-93060000D01*
X32506468Y-94976863D01*
X32676429Y-94867880D01*
X32676429Y-95400000D01*
X41103572Y-95400000D01*
X41103572Y-91580000D01*
X33004591Y-91580000D01*
X32909073Y-91401298D01*
X32506468Y-91143137D01*
X30589605Y-93060000D01*
X30230395Y-93060000D01*
X28313532Y-91143137D01*
X27910927Y-91401298D01*
X27635349Y-91920715D01*
X27466399Y-92483913D01*
X27410570Y-93069250D01*
X25174941Y-93069250D01*
X25182494Y-90963532D01*
X28493137Y-90963532D01*
X30410000Y-92880395D01*
X32326863Y-90963532D01*
X32068702Y-90560927D01*
X31549285Y-90285349D01*
X30986087Y-90116399D01*
X30400750Y-90060570D01*
X29815767Y-90120008D01*
X29253621Y-90292429D01*
X28751298Y-90560927D01*
X28493137Y-90963532D01*
X25182494Y-90963532D01*
X25222003Y-79949721D01*
X34795000Y-79949721D01*
X34795000Y-80370279D01*
X34877047Y-80782756D01*
X35037988Y-81171302D01*
X35271637Y-81520983D01*
X35569017Y-81818363D01*
X35918698Y-82052012D01*
X36307244Y-82212953D01*
X36719721Y-82295000D01*
X37140279Y-82295000D01*
X37552756Y-82212953D01*
X37941302Y-82052012D01*
X38290983Y-81818363D01*
X38588363Y-81520983D01*
X38822012Y-81171302D01*
X38982953Y-80782756D01*
X39065000Y-80370279D01*
X39065000Y-79949721D01*
X38982953Y-79537244D01*
X38822012Y-79148698D01*
X38588363Y-78799017D01*
X38290983Y-78501637D01*
X37941302Y-78267988D01*
X37552756Y-78107047D01*
X37140279Y-78025000D01*
X36719721Y-78025000D01*
X36307244Y-78107047D01*
X35918698Y-78267988D01*
X35569017Y-78501637D01*
X35271637Y-78799017D01*
X35037988Y-79148698D01*
X34877047Y-79537244D01*
X34795000Y-79949721D01*
X25222003Y-79949721D01*
X25249784Y-72205098D01*
X56775000Y-72205098D01*
X56775000Y-72674902D01*
X56866654Y-73135679D01*
X57046440Y-73569721D01*
X57307450Y-73960349D01*
X57639651Y-74292550D01*
X58030279Y-74553560D01*
X58464321Y-74733346D01*
X58925098Y-74825000D01*
X59394902Y-74825000D01*
X59855679Y-74733346D01*
X60289721Y-74553560D01*
X60680349Y-74292550D01*
X61012550Y-73960349D01*
X61273560Y-73569721D01*
X61453346Y-73135679D01*
X61545000Y-72674902D01*
X61545000Y-72205098D01*
X61453346Y-71744321D01*
X61273560Y-71310279D01*
X61012550Y-70919651D01*
X60680349Y-70587450D01*
X60289721Y-70326440D01*
X59855679Y-70146654D01*
X59394902Y-70055000D01*
X58925098Y-70055000D01*
X58464321Y-70146654D01*
X58030279Y-70326440D01*
X57639651Y-70587450D01*
X57307450Y-70919651D01*
X57046440Y-71310279D01*
X56866654Y-71744321D01*
X56775000Y-72205098D01*
X25249784Y-72205098D01*
X25262306Y-68714495D01*
X34945000Y-68714495D01*
X34945000Y-69105505D01*
X35021282Y-69489003D01*
X35170915Y-69850250D01*
X35388149Y-70175364D01*
X35664636Y-70451851D01*
X35989750Y-70669085D01*
X36350997Y-70818718D01*
X36734495Y-70895000D01*
X37125505Y-70895000D01*
X37509003Y-70818718D01*
X37870250Y-70669085D01*
X38195364Y-70451851D01*
X38471851Y-70175364D01*
X38689085Y-69850250D01*
X38838718Y-69489003D01*
X38915000Y-69105505D01*
X38915000Y-68714495D01*
X38838718Y-68330997D01*
X38689085Y-67969750D01*
X38471851Y-67644636D01*
X38195364Y-67368149D01*
X37870250Y-67150915D01*
X37509003Y-67001282D01*
X37125505Y-66925000D01*
X36734495Y-66925000D01*
X36350997Y-67001282D01*
X35989750Y-67150915D01*
X35664636Y-67368149D01*
X35388149Y-67644636D01*
X35170915Y-67969750D01*
X35021282Y-68330997D01*
X34945000Y-68714495D01*
X25262306Y-68714495D01*
X25302715Y-57449721D01*
X34795000Y-57449721D01*
X34795000Y-57870279D01*
X34877047Y-58282756D01*
X35037988Y-58671302D01*
X35271637Y-59020983D01*
X35569017Y-59318363D01*
X35918698Y-59552012D01*
X36307244Y-59712953D01*
X36719721Y-59795000D01*
X37140279Y-59795000D01*
X37552756Y-59712953D01*
X37941302Y-59552012D01*
X38290983Y-59318363D01*
X38588363Y-59020983D01*
X38822012Y-58671302D01*
X38982953Y-58282756D01*
X39065000Y-57870279D01*
X39065000Y-57449721D01*
X38982953Y-57037244D01*
X38822012Y-56648698D01*
X38588363Y-56299017D01*
X38290983Y-56001637D01*
X37941302Y-55767988D01*
X37552756Y-55607047D01*
X37140279Y-55525000D01*
X36719721Y-55525000D01*
X36307244Y-55607047D01*
X35918698Y-55767988D01*
X35569017Y-56001637D01*
X35271637Y-56299017D01*
X35037988Y-56648698D01*
X34877047Y-57037244D01*
X34795000Y-57449721D01*
X25302715Y-57449721D01*
X25326544Y-50807274D01*
X66753000Y-50896726D01*
G37*
X66753000Y-50896726D02*
X66753000Y-57079587D01*
X66393831Y-57119059D01*
X66335336Y-57131356D01*
X66276587Y-57142851D01*
X66267778Y-57145557D01*
X65874972Y-57269193D01*
X65819951Y-57292629D01*
X65764580Y-57315306D01*
X65756464Y-57319671D01*
X65395153Y-57517250D01*
X65345692Y-57550954D01*
X65295821Y-57583927D01*
X65288707Y-57589785D01*
X64972655Y-57853780D01*
X64930717Y-57896414D01*
X64888166Y-57938480D01*
X64882326Y-57945608D01*
X64623569Y-58265963D01*
X64590717Y-58315922D01*
X64557141Y-58365459D01*
X64552797Y-58373586D01*
X64361191Y-58738099D01*
X64338661Y-58793503D01*
X64315352Y-58848607D01*
X64312669Y-58857423D01*
X64195514Y-59252210D01*
X64184167Y-59310977D01*
X64172014Y-59369515D01*
X64171094Y-59378684D01*
X64133000Y-59787121D01*
X64130000Y-59817582D01*
X64130001Y-115522419D01*
X64130380Y-115526270D01*
X64130391Y-115527187D01*
X64131158Y-115534166D01*
X64133679Y-115559764D01*
X64133808Y-115586974D01*
X64134815Y-115596134D01*
X64182657Y-116005150D01*
X64195372Y-116063606D01*
X64207268Y-116122227D01*
X64210035Y-116131017D01*
X64336411Y-116522951D01*
X64360226Y-116577796D01*
X64383293Y-116633016D01*
X64387715Y-116641101D01*
X64587811Y-117001025D01*
X64621840Y-117050221D01*
X64655179Y-117099889D01*
X64661087Y-117106961D01*
X64927282Y-117421164D01*
X64970226Y-117462821D01*
X65012570Y-117505060D01*
X65019739Y-117510850D01*
X65341893Y-117767364D01*
X65392072Y-117799861D01*
X65441851Y-117833096D01*
X65450008Y-117837383D01*
X65815850Y-118026439D01*
X65871394Y-118048575D01*
X65926674Y-118071505D01*
X65935505Y-118074125D01*
X65935511Y-118074127D01*
X66331105Y-118188522D01*
X66389920Y-118199453D01*
X66448570Y-118211203D01*
X66457746Y-118212059D01*
X66753000Y-118237519D01*
X66753000Y-122920000D01*
X25067861Y-122920000D01*
X25081994Y-118980000D01*
X35713572Y-118980000D01*
X35713572Y-122800000D01*
X46926429Y-122800000D01*
X46926429Y-118980000D01*
X35713572Y-118980000D01*
X25081994Y-118980000D01*
X25118381Y-108836428D01*
X28010000Y-108836428D01*
X28010000Y-117263571D01*
X31830000Y-117263571D01*
X31830000Y-115320000D01*
X34241928Y-115320000D01*
X34241928Y-117980000D01*
X34258992Y-118153254D01*
X34309528Y-118319850D01*
X34391595Y-118473386D01*
X34502038Y-118607962D01*
X34636614Y-118718405D01*
X34790150Y-118800472D01*
X34956746Y-118851008D01*
X35130000Y-118868072D01*
X38730000Y-118868072D01*
X38903254Y-118851008D01*
X39069850Y-118800472D01*
X39223386Y-118718405D01*
X39357962Y-118607962D01*
X39468405Y-118473386D01*
X39550472Y-118319850D01*
X39601008Y-118153254D01*
X39618072Y-117980000D01*
X39618072Y-115320000D01*
X39601008Y-115146746D01*
X39550472Y-114980150D01*
X39468405Y-114826614D01*
X39357962Y-114692038D01*
X39223386Y-114581595D01*
X39069850Y-114499528D01*
X38903254Y-114448992D01*
X38764238Y-114435300D01*
X39056044Y-114166438D01*
X39312262Y-113814991D01*
X39494993Y-113420311D01*
X39564263Y-113161369D01*
X39452324Y-112817000D01*
X37057000Y-112817000D01*
X37057000Y-112837000D01*
X36803000Y-112837000D01*
X36803000Y-112817000D01*
X34407676Y-112817000D01*
X34295737Y-113161369D01*
X34365007Y-113420311D01*
X34547738Y-113814991D01*
X34803956Y-114166438D01*
X35095762Y-114435300D01*
X34956746Y-114448992D01*
X34790150Y-114499528D01*
X34636614Y-114581595D01*
X34502038Y-114692038D01*
X34391595Y-114826614D01*
X34309528Y-114980150D01*
X34258992Y-115146746D01*
X34241928Y-115320000D01*
X31830000Y-115320000D01*
X31830000Y-108836428D01*
X28010000Y-108836428D01*
X25118381Y-108836428D01*
X25118762Y-108730000D01*
X34234283Y-108730000D01*
X34277050Y-109164216D01*
X34403706Y-109581745D01*
X34609384Y-109966542D01*
X34886180Y-110303820D01*
X35223458Y-110580616D01*
X35465713Y-110710104D01*
X35123815Y-110918853D01*
X34803956Y-111213562D01*
X34547738Y-111565009D01*
X34365007Y-111959689D01*
X34295737Y-112218631D01*
X34407676Y-112563000D01*
X36803000Y-112563000D01*
X36803000Y-112543000D01*
X37057000Y-112543000D01*
X37057000Y-112563000D01*
X39452324Y-112563000D01*
X39564263Y-112218631D01*
X39494993Y-111959689D01*
X39312262Y-111565009D01*
X39056044Y-111213562D01*
X38736185Y-110918853D01*
X38394287Y-110710104D01*
X38636542Y-110580616D01*
X38973820Y-110303820D01*
X39250616Y-109966542D01*
X39456294Y-109581745D01*
X39582950Y-109164216D01*
X39625717Y-108730000D01*
X39582950Y-108295784D01*
X39456294Y-107878255D01*
X39250616Y-107493458D01*
X38973820Y-107156180D01*
X38636542Y-106879384D01*
X38251745Y-106673706D01*
X37834216Y-106547050D01*
X37508810Y-106515000D01*
X36351190Y-106515000D01*
X36025784Y-106547050D01*
X35608255Y-106673706D01*
X35223458Y-106879384D01*
X34886180Y-107156180D01*
X34609384Y-107493458D01*
X34403706Y-107878255D01*
X34277050Y-108295784D01*
X34234283Y-108730000D01*
X25118762Y-108730000D01*
X25142114Y-102220000D01*
X36919286Y-102220000D01*
X36919286Y-106040000D01*
X43060715Y-106040000D01*
X43060715Y-102220000D01*
X36919286Y-102220000D01*
X25142114Y-102220000D01*
X25145808Y-101190000D01*
X57021928Y-101190000D01*
X57021928Y-103690000D01*
X57034188Y-103814482D01*
X57070498Y-103934180D01*
X57129463Y-104044494D01*
X57208815Y-104141185D01*
X57305506Y-104220537D01*
X57415820Y-104279502D01*
X57535518Y-104315812D01*
X57660000Y-104328072D01*
X60660000Y-104328072D01*
X60784482Y-104315812D01*
X60904180Y-104279502D01*
X61014494Y-104220537D01*
X61111185Y-104141185D01*
X61190537Y-104044494D01*
X61249502Y-103934180D01*
X61285812Y-103814482D01*
X61298072Y-103690000D01*
X61298072Y-101190000D01*
X61285812Y-101065518D01*
X61249502Y-100945820D01*
X61190537Y-100835506D01*
X61111185Y-100738815D01*
X61014494Y-100659463D01*
X60904180Y-100600498D01*
X60784482Y-100564188D01*
X60660000Y-100551928D01*
X57660000Y-100551928D01*
X57535518Y-100564188D01*
X57415820Y-100600498D01*
X57305506Y-100659463D01*
X57208815Y-100738815D01*
X57129463Y-100835506D01*
X57070498Y-100945820D01*
X57034188Y-101065518D01*
X57021928Y-101190000D01*
X25145808Y-101190000D01*
X25167453Y-95156468D01*
X28493137Y-95156468D01*
X28751298Y-95559073D01*
X29270715Y-95834651D01*
X29833913Y-96003601D01*
X30419250Y-96059430D01*
X31004233Y-95999992D01*
X31566379Y-95827571D01*
X32068702Y-95559073D01*
X32326863Y-95156468D01*
X30410000Y-93239605D01*
X28493137Y-95156468D01*
X25167453Y-95156468D01*
X25174941Y-93069250D01*
X27410570Y-93069250D01*
X27470008Y-93654233D01*
X27642429Y-94216379D01*
X27910927Y-94718702D01*
X28313532Y-94976863D01*
X30230395Y-93060000D01*
X30589605Y-93060000D01*
X32506468Y-94976863D01*
X32676429Y-94867880D01*
X32676429Y-95400000D01*
X41103572Y-95400000D01*
X41103572Y-91580000D01*
X33004591Y-91580000D01*
X32909073Y-91401298D01*
X32506468Y-91143137D01*
X30589605Y-93060000D01*
X30230395Y-93060000D01*
X28313532Y-91143137D01*
X27910927Y-91401298D01*
X27635349Y-91920715D01*
X27466399Y-92483913D01*
X27410570Y-93069250D01*
X25174941Y-93069250D01*
X25182494Y-90963532D01*
X28493137Y-90963532D01*
X30410000Y-92880395D01*
X32326863Y-90963532D01*
X32068702Y-90560927D01*
X31549285Y-90285349D01*
X30986087Y-90116399D01*
X30400750Y-90060570D01*
X29815767Y-90120008D01*
X29253621Y-90292429D01*
X28751298Y-90560927D01*
X28493137Y-90963532D01*
X25182494Y-90963532D01*
X25222003Y-79949721D01*
X34795000Y-79949721D01*
X34795000Y-80370279D01*
X34877047Y-80782756D01*
X35037988Y-81171302D01*
X35271637Y-81520983D01*
X35569017Y-81818363D01*
X35918698Y-82052012D01*
X36307244Y-82212953D01*
X36719721Y-82295000D01*
X37140279Y-82295000D01*
X37552756Y-82212953D01*
X37941302Y-82052012D01*
X38290983Y-81818363D01*
X38588363Y-81520983D01*
X38822012Y-81171302D01*
X38982953Y-80782756D01*
X39065000Y-80370279D01*
X39065000Y-79949721D01*
X38982953Y-79537244D01*
X38822012Y-79148698D01*
X38588363Y-78799017D01*
X38290983Y-78501637D01*
X37941302Y-78267988D01*
X37552756Y-78107047D01*
X37140279Y-78025000D01*
X36719721Y-78025000D01*
X36307244Y-78107047D01*
X35918698Y-78267988D01*
X35569017Y-78501637D01*
X35271637Y-78799017D01*
X35037988Y-79148698D01*
X34877047Y-79537244D01*
X34795000Y-79949721D01*
X25222003Y-79949721D01*
X25249784Y-72205098D01*
X56775000Y-72205098D01*
X56775000Y-72674902D01*
X56866654Y-73135679D01*
X57046440Y-73569721D01*
X57307450Y-73960349D01*
X57639651Y-74292550D01*
X58030279Y-74553560D01*
X58464321Y-74733346D01*
X58925098Y-74825000D01*
X59394902Y-74825000D01*
X59855679Y-74733346D01*
X60289721Y-74553560D01*
X60680349Y-74292550D01*
X61012550Y-73960349D01*
X61273560Y-73569721D01*
X61453346Y-73135679D01*
X61545000Y-72674902D01*
X61545000Y-72205098D01*
X61453346Y-71744321D01*
X61273560Y-71310279D01*
X61012550Y-70919651D01*
X60680349Y-70587450D01*
X60289721Y-70326440D01*
X59855679Y-70146654D01*
X59394902Y-70055000D01*
X58925098Y-70055000D01*
X58464321Y-70146654D01*
X58030279Y-70326440D01*
X57639651Y-70587450D01*
X57307450Y-70919651D01*
X57046440Y-71310279D01*
X56866654Y-71744321D01*
X56775000Y-72205098D01*
X25249784Y-72205098D01*
X25262306Y-68714495D01*
X34945000Y-68714495D01*
X34945000Y-69105505D01*
X35021282Y-69489003D01*
X35170915Y-69850250D01*
X35388149Y-70175364D01*
X35664636Y-70451851D01*
X35989750Y-70669085D01*
X36350997Y-70818718D01*
X36734495Y-70895000D01*
X37125505Y-70895000D01*
X37509003Y-70818718D01*
X37870250Y-70669085D01*
X38195364Y-70451851D01*
X38471851Y-70175364D01*
X38689085Y-69850250D01*
X38838718Y-69489003D01*
X38915000Y-69105505D01*
X38915000Y-68714495D01*
X38838718Y-68330997D01*
X38689085Y-67969750D01*
X38471851Y-67644636D01*
X38195364Y-67368149D01*
X37870250Y-67150915D01*
X37509003Y-67001282D01*
X37125505Y-66925000D01*
X36734495Y-66925000D01*
X36350997Y-67001282D01*
X35989750Y-67150915D01*
X35664636Y-67368149D01*
X35388149Y-67644636D01*
X35170915Y-67969750D01*
X35021282Y-68330997D01*
X34945000Y-68714495D01*
X25262306Y-68714495D01*
X25302715Y-57449721D01*
X34795000Y-57449721D01*
X34795000Y-57870279D01*
X34877047Y-58282756D01*
X35037988Y-58671302D01*
X35271637Y-59020983D01*
X35569017Y-59318363D01*
X35918698Y-59552012D01*
X36307244Y-59712953D01*
X36719721Y-59795000D01*
X37140279Y-59795000D01*
X37552756Y-59712953D01*
X37941302Y-59552012D01*
X38290983Y-59318363D01*
X38588363Y-59020983D01*
X38822012Y-58671302D01*
X38982953Y-58282756D01*
X39065000Y-57870279D01*
X39065000Y-57449721D01*
X38982953Y-57037244D01*
X38822012Y-56648698D01*
X38588363Y-56299017D01*
X38290983Y-56001637D01*
X37941302Y-55767988D01*
X37552756Y-55607047D01*
X37140279Y-55525000D01*
X36719721Y-55525000D01*
X36307244Y-55607047D01*
X35918698Y-55767988D01*
X35569017Y-56001637D01*
X35271637Y-56299017D01*
X35037988Y-56648698D01*
X34877047Y-57037244D01*
X34795000Y-57449721D01*
X25302715Y-57449721D01*
X25326544Y-50807274D01*
X66753000Y-50896726D01*
G36*
X177083000Y-122920000D02*
G01*
X86537000Y-122920000D01*
X86537000Y-117180000D01*
X140357319Y-117180000D01*
X140387970Y-117491204D01*
X140478745Y-117790449D01*
X140626155Y-118066235D01*
X140824537Y-118307963D01*
X141066265Y-118506345D01*
X141342051Y-118653755D01*
X141641296Y-118744530D01*
X141874514Y-118767500D01*
X142125486Y-118767500D01*
X142358704Y-118744530D01*
X142657949Y-118653755D01*
X142933735Y-118506345D01*
X143175463Y-118307963D01*
X143373845Y-118066235D01*
X143521255Y-117790449D01*
X143612030Y-117491204D01*
X143642681Y-117180000D01*
X143612030Y-116868796D01*
X143521255Y-116569551D01*
X143373845Y-116293765D01*
X143175463Y-116052037D01*
X142996101Y-115904837D01*
X143181315Y-115749437D01*
X143375969Y-115506923D01*
X143519571Y-115231094D01*
X143590563Y-115012980D01*
X143470594Y-114767000D01*
X142127000Y-114767000D01*
X142127000Y-114787000D01*
X141873000Y-114787000D01*
X141873000Y-114767000D01*
X140529406Y-114767000D01*
X140409437Y-115012980D01*
X140480429Y-115231094D01*
X140624031Y-115506923D01*
X140818685Y-115749437D01*
X141003899Y-115904837D01*
X140824537Y-116052037D01*
X140626155Y-116293765D01*
X140478745Y-116569551D01*
X140387970Y-116868796D01*
X140357319Y-117180000D01*
X86537000Y-117180000D01*
X86537000Y-114249721D01*
X108865000Y-114249721D01*
X108865000Y-114670279D01*
X108947047Y-115082756D01*
X109107988Y-115471302D01*
X109341637Y-115820983D01*
X109639017Y-116118363D01*
X109988698Y-116352012D01*
X110377244Y-116512953D01*
X110789721Y-116595000D01*
X111210279Y-116595000D01*
X111622756Y-116512953D01*
X112011302Y-116352012D01*
X112360983Y-116118363D01*
X112658363Y-115820983D01*
X112892012Y-115471302D01*
X113052953Y-115082756D01*
X113135000Y-114670279D01*
X113135000Y-114264495D01*
X120265000Y-114264495D01*
X120265000Y-114655505D01*
X120341282Y-115039003D01*
X120490915Y-115400250D01*
X120708149Y-115725364D01*
X120984636Y-116001851D01*
X121309750Y-116219085D01*
X121670997Y-116368718D01*
X122054495Y-116445000D01*
X122445505Y-116445000D01*
X122829003Y-116368718D01*
X123190250Y-116219085D01*
X123515364Y-116001851D01*
X123791851Y-115725364D01*
X124009085Y-115400250D01*
X124158718Y-115039003D01*
X124235000Y-114655505D01*
X124235000Y-114264495D01*
X124158718Y-113880997D01*
X124009085Y-113519750D01*
X123791851Y-113194636D01*
X123515364Y-112918149D01*
X123190250Y-112700915D01*
X122829003Y-112551282D01*
X122445505Y-112475000D01*
X122054495Y-112475000D01*
X121670997Y-112551282D01*
X121309750Y-112700915D01*
X120984636Y-112918149D01*
X120708149Y-113194636D01*
X120490915Y-113519750D01*
X120341282Y-113880997D01*
X120265000Y-114264495D01*
X113135000Y-114264495D01*
X113135000Y-114249721D01*
X113052953Y-113837244D01*
X112892012Y-113448698D01*
X112658363Y-113099017D01*
X112360983Y-112801637D01*
X112011302Y-112567988D01*
X111622756Y-112407047D01*
X111210279Y-112325000D01*
X110789721Y-112325000D01*
X110377244Y-112407047D01*
X109988698Y-112567988D01*
X109639017Y-112801637D01*
X109341637Y-113099017D01*
X109107988Y-113448698D01*
X108947047Y-113837244D01*
X108865000Y-114249721D01*
X86537000Y-114249721D01*
X86537000Y-102229721D01*
X89525000Y-102229721D01*
X89525000Y-102650279D01*
X89607047Y-103062756D01*
X89767988Y-103451302D01*
X90001637Y-103800983D01*
X90299017Y-104098363D01*
X90648698Y-104332012D01*
X91037244Y-104492953D01*
X91449721Y-104575000D01*
X91870279Y-104575000D01*
X92282756Y-104492953D01*
X92671302Y-104332012D01*
X93020983Y-104098363D01*
X93318363Y-103800983D01*
X93552012Y-103451302D01*
X93712953Y-103062756D01*
X93795000Y-102650279D01*
X93795000Y-102229721D01*
X93712953Y-101817244D01*
X93552012Y-101428698D01*
X93318363Y-101079017D01*
X93020983Y-100781637D01*
X92671302Y-100547988D01*
X92282756Y-100387047D01*
X91870279Y-100305000D01*
X91449721Y-100305000D01*
X91037244Y-100387047D01*
X90648698Y-100547988D01*
X90299017Y-100781637D01*
X90001637Y-101079017D01*
X89767988Y-101428698D01*
X89607047Y-101817244D01*
X89525000Y-102229721D01*
X86537000Y-102229721D01*
X86537000Y-100080000D01*
X127161928Y-100080000D01*
X127161928Y-102480000D01*
X127174188Y-102604482D01*
X127210498Y-102724180D01*
X127269463Y-102834494D01*
X127348815Y-102931185D01*
X127445506Y-103010537D01*
X127555820Y-103069502D01*
X127675518Y-103105812D01*
X127800000Y-103118072D01*
X128115000Y-103118072D01*
X128115001Y-105196521D01*
X128110719Y-105240000D01*
X128127805Y-105413490D01*
X128178412Y-105580313D01*
X128260590Y-105734059D01*
X128343468Y-105835046D01*
X128343471Y-105835049D01*
X128371184Y-105868817D01*
X128404952Y-105896530D01*
X134608421Y-112100000D01*
X134249058Y-112459363D01*
X134122756Y-112407047D01*
X133710279Y-112325000D01*
X133289721Y-112325000D01*
X132877244Y-112407047D01*
X132488698Y-112567988D01*
X132139017Y-112801637D01*
X131841637Y-113099017D01*
X131607988Y-113448698D01*
X131447047Y-113837244D01*
X131365000Y-114249721D01*
X131365000Y-114670279D01*
X131447047Y-115082756D01*
X131607988Y-115471302D01*
X131841637Y-115820983D01*
X132139017Y-116118363D01*
X132488698Y-116352012D01*
X132877244Y-116512953D01*
X133289721Y-116595000D01*
X133710279Y-116595000D01*
X134122756Y-116512953D01*
X134511302Y-116352012D01*
X134860983Y-116118363D01*
X135158363Y-115820983D01*
X135392012Y-115471302D01*
X135552953Y-115082756D01*
X135635000Y-114670279D01*
X135635000Y-114249721D01*
X135552953Y-113837244D01*
X135500637Y-113710942D01*
X136226579Y-112985000D01*
X140361928Y-112985000D01*
X140361928Y-113052500D01*
X140374188Y-113176982D01*
X140410498Y-113296680D01*
X140469463Y-113406994D01*
X140548815Y-113503685D01*
X140645506Y-113583037D01*
X140737219Y-113632059D01*
X140624031Y-113773077D01*
X140480429Y-114048906D01*
X140409437Y-114267020D01*
X140529406Y-114513000D01*
X141873000Y-114513000D01*
X141873000Y-114493000D01*
X142127000Y-114493000D01*
X142127000Y-114513000D01*
X143470594Y-114513000D01*
X143590563Y-114267020D01*
X143519571Y-114048906D01*
X143375969Y-113773077D01*
X143262781Y-113632059D01*
X143354494Y-113583037D01*
X143451185Y-113503685D01*
X143530537Y-113406994D01*
X143589502Y-113296680D01*
X143625812Y-113176982D01*
X143638072Y-113052500D01*
X143638072Y-112975683D01*
X143673490Y-112972195D01*
X143840313Y-112921589D01*
X143994059Y-112839411D01*
X144128817Y-112728817D01*
X144156534Y-112695044D01*
X157125051Y-99726528D01*
X157158817Y-99698817D01*
X157252306Y-99584902D01*
X157269411Y-99564059D01*
X157284765Y-99535334D01*
X157351589Y-99410313D01*
X157402195Y-99243490D01*
X157415000Y-99113477D01*
X157415000Y-99113469D01*
X157419281Y-99070000D01*
X157415000Y-99026531D01*
X157415000Y-96978072D01*
X157430000Y-96978072D01*
X157554482Y-96965812D01*
X157674180Y-96929502D01*
X157784494Y-96870537D01*
X157881185Y-96791185D01*
X157948087Y-96709665D01*
X158657670Y-97419249D01*
X158685383Y-97453017D01*
X158719151Y-97480730D01*
X158719153Y-97480732D01*
X158790652Y-97539410D01*
X158820141Y-97563611D01*
X158973887Y-97645789D01*
X159140710Y-97696395D01*
X159270723Y-97709200D01*
X159270733Y-97709200D01*
X159314199Y-97713481D01*
X159357665Y-97709200D01*
X168522331Y-97709200D01*
X168565800Y-97713481D01*
X168609269Y-97709200D01*
X168609277Y-97709200D01*
X168739290Y-97696395D01*
X168906113Y-97645789D01*
X169059859Y-97563611D01*
X169194617Y-97453017D01*
X169222334Y-97419244D01*
X170056989Y-96584590D01*
X170078815Y-96611185D01*
X170175506Y-96690537D01*
X170285820Y-96749502D01*
X170405518Y-96785812D01*
X170530000Y-96798072D01*
X172130000Y-96798072D01*
X172254482Y-96785812D01*
X172374180Y-96749502D01*
X172484494Y-96690537D01*
X172581185Y-96611185D01*
X172660537Y-96514494D01*
X172719502Y-96404180D01*
X172735117Y-96352702D01*
X173016903Y-96352702D01*
X173088486Y-96596671D01*
X173343996Y-96717571D01*
X173618184Y-96786300D01*
X173900512Y-96800217D01*
X174180130Y-96758787D01*
X174446292Y-96663603D01*
X174571514Y-96596671D01*
X174643097Y-96352702D01*
X173830000Y-95539605D01*
X173016903Y-96352702D01*
X172735117Y-96352702D01*
X172755812Y-96284482D01*
X172768072Y-96160000D01*
X172768072Y-96152785D01*
X172837298Y-96173097D01*
X173650395Y-95360000D01*
X174009605Y-95360000D01*
X174822702Y-96173097D01*
X175066671Y-96101514D01*
X175187571Y-95846004D01*
X175256300Y-95571816D01*
X175270217Y-95289488D01*
X175228787Y-95009870D01*
X175133603Y-94743708D01*
X175066671Y-94618486D01*
X174822702Y-94546903D01*
X174009605Y-95360000D01*
X173650395Y-95360000D01*
X172837298Y-94546903D01*
X172768072Y-94567215D01*
X172768072Y-94560000D01*
X172755812Y-94435518D01*
X172735118Y-94367298D01*
X173016903Y-94367298D01*
X173830000Y-95180395D01*
X174643097Y-94367298D01*
X174571514Y-94123329D01*
X174316004Y-94002429D01*
X174041816Y-93933700D01*
X173759488Y-93919783D01*
X173479870Y-93961213D01*
X173213708Y-94056397D01*
X173088486Y-94123329D01*
X173016903Y-94367298D01*
X172735118Y-94367298D01*
X172719502Y-94315820D01*
X172660537Y-94205506D01*
X172581185Y-94108815D01*
X172484494Y-94029463D01*
X172374180Y-93970498D01*
X172254482Y-93934188D01*
X172130000Y-93921928D01*
X170530000Y-93921928D01*
X170405518Y-93934188D01*
X170285820Y-93970498D01*
X170175506Y-94029463D01*
X170078815Y-94108815D01*
X169999463Y-94205506D01*
X169940498Y-94315820D01*
X169904188Y-94435518D01*
X169899455Y-94483575D01*
X169856510Y-94487805D01*
X169689687Y-94538411D01*
X169535941Y-94620589D01*
X169535939Y-94620590D01*
X169535940Y-94620590D01*
X169434953Y-94703468D01*
X169434951Y-94703470D01*
X169401183Y-94731183D01*
X169373470Y-94764951D01*
X168199222Y-95939200D01*
X168144697Y-95939200D01*
X168166011Y-95887743D01*
X168225000Y-95591184D01*
X168225000Y-95288816D01*
X168166011Y-94992257D01*
X168050299Y-94712905D01*
X167882312Y-94461495D01*
X167668505Y-94247688D01*
X167417095Y-94079701D01*
X167137743Y-93963989D01*
X166841184Y-93905000D01*
X166538816Y-93905000D01*
X166242257Y-93963989D01*
X165962905Y-94079701D01*
X165711495Y-94247688D01*
X165497688Y-94461495D01*
X165329701Y-94712905D01*
X165213989Y-94992257D01*
X165155000Y-95288816D01*
X165155000Y-95591184D01*
X165213989Y-95887743D01*
X165235303Y-95939200D01*
X159680779Y-95939200D01*
X158586534Y-94844956D01*
X158558817Y-94811183D01*
X158424059Y-94700589D01*
X158270313Y-94618411D01*
X158103490Y-94567805D01*
X158068072Y-94564317D01*
X158068072Y-94540000D01*
X158055812Y-94415518D01*
X158019502Y-94295820D01*
X157960537Y-94185506D01*
X157881185Y-94088815D01*
X157784494Y-94009463D01*
X157674180Y-93950498D01*
X157554482Y-93914188D01*
X157430000Y-93901928D01*
X155630000Y-93901928D01*
X155505518Y-93914188D01*
X155385820Y-93950498D01*
X155275506Y-94009463D01*
X155178815Y-94088815D01*
X155099463Y-94185506D01*
X155040498Y-94295820D01*
X155004188Y-94415518D01*
X154991928Y-94540000D01*
X154991928Y-96340000D01*
X155004188Y-96464482D01*
X155040498Y-96584180D01*
X155099463Y-96694494D01*
X155178815Y-96791185D01*
X155275506Y-96870537D01*
X155385820Y-96929502D01*
X155505518Y-96965812D01*
X155630000Y-96978072D01*
X155645001Y-96978072D01*
X155645000Y-98703421D01*
X150975051Y-103373371D01*
X150900299Y-103192905D01*
X150732312Y-102941495D01*
X150518505Y-102727688D01*
X150267095Y-102559701D01*
X149987743Y-102443989D01*
X149691184Y-102385000D01*
X149388816Y-102385000D01*
X149092257Y-102443989D01*
X148812905Y-102559701D01*
X148561495Y-102727688D01*
X148495056Y-102794127D01*
X148489502Y-102775820D01*
X148430537Y-102665506D01*
X148351185Y-102568815D01*
X148254494Y-102489463D01*
X148144180Y-102430498D01*
X148024482Y-102394188D01*
X147900000Y-102381928D01*
X147285750Y-102385000D01*
X147127000Y-102543750D01*
X147127000Y-103793000D01*
X147147000Y-103793000D01*
X147147000Y-104047000D01*
X147127000Y-104047000D01*
X147127000Y-105296250D01*
X147285750Y-105455000D01*
X147900000Y-105458072D01*
X148024482Y-105445812D01*
X148144180Y-105409502D01*
X148254494Y-105350537D01*
X148351185Y-105271185D01*
X148430537Y-105174494D01*
X148489502Y-105064180D01*
X148495056Y-105045873D01*
X148561495Y-105112312D01*
X148812905Y-105280299D01*
X148993371Y-105355051D01*
X143539203Y-110809219D01*
X143530537Y-110793006D01*
X143451185Y-110696315D01*
X143354494Y-110616963D01*
X143244180Y-110557998D01*
X143124482Y-110521688D01*
X143000000Y-110509428D01*
X141000000Y-110509428D01*
X140875518Y-110521688D01*
X140755820Y-110557998D01*
X140645506Y-110616963D01*
X140548815Y-110696315D01*
X140469463Y-110793006D01*
X140410498Y-110903320D01*
X140374188Y-111023018D01*
X140361928Y-111147500D01*
X140361928Y-111215000D01*
X136226579Y-111215000D01*
X129885000Y-104873422D01*
X129885000Y-104820000D01*
X145461928Y-104820000D01*
X145474188Y-104944482D01*
X145510498Y-105064180D01*
X145569463Y-105174494D01*
X145648815Y-105271185D01*
X145745506Y-105350537D01*
X145855820Y-105409502D01*
X145975518Y-105445812D01*
X146100000Y-105458072D01*
X146714250Y-105455000D01*
X146873000Y-105296250D01*
X146873000Y-104047000D01*
X145623750Y-104047000D01*
X145465000Y-104205750D01*
X145461928Y-104820000D01*
X129885000Y-104820000D01*
X129885000Y-103118072D01*
X130200000Y-103118072D01*
X130324482Y-103105812D01*
X130444180Y-103069502D01*
X130536790Y-103020000D01*
X145461928Y-103020000D01*
X145465000Y-103634250D01*
X145623750Y-103793000D01*
X146873000Y-103793000D01*
X146873000Y-102543750D01*
X146714250Y-102385000D01*
X146100000Y-102381928D01*
X145975518Y-102394188D01*
X145855820Y-102430498D01*
X145745506Y-102489463D01*
X145648815Y-102568815D01*
X145569463Y-102665506D01*
X145510498Y-102775820D01*
X145474188Y-102895518D01*
X145461928Y-103020000D01*
X130536790Y-103020000D01*
X130554494Y-103010537D01*
X130651185Y-102931185D01*
X130730537Y-102834494D01*
X130789502Y-102724180D01*
X130825812Y-102604482D01*
X130838072Y-102480000D01*
X130838072Y-100080000D01*
X130825812Y-99955518D01*
X130789502Y-99835820D01*
X130730537Y-99725506D01*
X130651185Y-99628815D01*
X130554494Y-99549463D01*
X130444180Y-99490498D01*
X130324482Y-99454188D01*
X130200000Y-99441928D01*
X127800000Y-99441928D01*
X127675518Y-99454188D01*
X127555820Y-99490498D01*
X127445506Y-99549463D01*
X127348815Y-99628815D01*
X127269463Y-99725506D01*
X127210498Y-99835820D01*
X127174188Y-99955518D01*
X127161928Y-100080000D01*
X86537000Y-100080000D01*
X86537000Y-98931653D01*
X90347952Y-98931653D01*
X90503962Y-99247214D01*
X90878745Y-99438020D01*
X91283551Y-99552044D01*
X91702824Y-99584902D01*
X92120451Y-99535334D01*
X92520383Y-99405243D01*
X92816038Y-99247214D01*
X92972048Y-98931653D01*
X91660000Y-97619605D01*
X90347952Y-98931653D01*
X86537000Y-98931653D01*
X86537000Y-97482824D01*
X89515098Y-97482824D01*
X89564666Y-97900451D01*
X89694757Y-98300383D01*
X89852786Y-98596038D01*
X90168347Y-98752048D01*
X91480395Y-97440000D01*
X91839605Y-97440000D01*
X93151653Y-98752048D01*
X93467214Y-98596038D01*
X93658020Y-98221255D01*
X93772044Y-97816449D01*
X93804902Y-97397176D01*
X93755334Y-96979549D01*
X93625243Y-96579617D01*
X93467214Y-96283962D01*
X93151653Y-96127952D01*
X91839605Y-97440000D01*
X91480395Y-97440000D01*
X90168347Y-96127952D01*
X89852786Y-96283962D01*
X89661980Y-96658745D01*
X89547956Y-97063551D01*
X89515098Y-97482824D01*
X86537000Y-97482824D01*
X86537000Y-95948347D01*
X90347952Y-95948347D01*
X91660000Y-97260395D01*
X92972048Y-95948347D01*
X92816038Y-95632786D01*
X92441255Y-95441980D01*
X92036449Y-95327956D01*
X91617176Y-95295098D01*
X91199549Y-95344666D01*
X90799617Y-95474757D01*
X90503962Y-95632786D01*
X90347952Y-95948347D01*
X86537000Y-95948347D01*
X86537000Y-95057980D01*
X127901626Y-95057980D01*
X128021514Y-95342836D01*
X128345210Y-95503699D01*
X128694069Y-95598322D01*
X129054684Y-95623067D01*
X129413198Y-95576985D01*
X129755833Y-95461846D01*
X129978486Y-95342836D01*
X130098374Y-95057980D01*
X129000000Y-93959605D01*
X127901626Y-95057980D01*
X86537000Y-95057980D01*
X86537000Y-92155000D01*
X109486928Y-92155000D01*
X109486928Y-93745000D01*
X109499188Y-93869482D01*
X109535498Y-93989180D01*
X109594463Y-94099494D01*
X109673815Y-94196185D01*
X109770506Y-94275537D01*
X109880820Y-94334502D01*
X110000518Y-94370812D01*
X110125000Y-94383072D01*
X111715000Y-94383072D01*
X111839482Y-94370812D01*
X111959180Y-94334502D01*
X112069494Y-94275537D01*
X112166185Y-94196185D01*
X112245537Y-94099494D01*
X112304502Y-93989180D01*
X112340812Y-93869482D01*
X112344239Y-93834684D01*
X127156933Y-93834684D01*
X127203015Y-94193198D01*
X127318154Y-94535833D01*
X127437164Y-94758486D01*
X127722020Y-94878374D01*
X128820395Y-93780000D01*
X129179605Y-93780000D01*
X130277980Y-94878374D01*
X130562836Y-94758486D01*
X130723699Y-94434790D01*
X130818322Y-94085931D01*
X130843067Y-93725316D01*
X130825503Y-93588665D01*
X139405000Y-93588665D01*
X139405000Y-93871335D01*
X139460147Y-94148574D01*
X139568320Y-94409727D01*
X139725363Y-94644759D01*
X139925241Y-94844637D01*
X140160273Y-95001680D01*
X140421426Y-95109853D01*
X140698665Y-95165000D01*
X140981335Y-95165000D01*
X141258574Y-95109853D01*
X141519727Y-95001680D01*
X141754759Y-94844637D01*
X141954637Y-94644759D01*
X142111680Y-94409727D01*
X142219853Y-94148574D01*
X142275000Y-93871335D01*
X142275000Y-93588665D01*
X149565000Y-93588665D01*
X149565000Y-93871335D01*
X149620147Y-94148574D01*
X149728320Y-94409727D01*
X149885363Y-94644759D01*
X150085241Y-94844637D01*
X150320273Y-95001680D01*
X150581426Y-95109853D01*
X150858665Y-95165000D01*
X151141335Y-95165000D01*
X151418574Y-95109853D01*
X151679727Y-95001680D01*
X151914759Y-94844637D01*
X152114637Y-94644759D01*
X152271680Y-94409727D01*
X152379853Y-94148574D01*
X152435000Y-93871335D01*
X152435000Y-93588665D01*
X152428017Y-93553561D01*
X159489298Y-86492281D01*
X159544059Y-86463011D01*
X159678817Y-86352417D01*
X159789411Y-86217659D01*
X159871589Y-86063913D01*
X159922195Y-85897090D01*
X159927770Y-85840482D01*
X160038659Y-85781211D01*
X160173417Y-85670617D01*
X160201134Y-85636844D01*
X160474319Y-85363660D01*
X160634698Y-85524039D01*
X160880147Y-85688042D01*
X161152875Y-85801010D01*
X161442401Y-85858600D01*
X161737599Y-85858600D01*
X162027125Y-85801010D01*
X162299853Y-85688042D01*
X162545302Y-85524039D01*
X162754039Y-85315302D01*
X162918042Y-85069853D01*
X163031010Y-84797125D01*
X163088600Y-84507599D01*
X163088600Y-84212401D01*
X163031010Y-83922875D01*
X162959403Y-83750000D01*
X167135000Y-83750000D01*
X167135000Y-87570000D01*
X176705000Y-87570000D01*
X176705000Y-83750000D01*
X167135000Y-83750000D01*
X162959403Y-83750000D01*
X162918042Y-83650147D01*
X162754039Y-83404698D01*
X162545302Y-83195961D01*
X162379897Y-83085441D01*
X162478488Y-83026817D01*
X162696854Y-82830293D01*
X162872684Y-82594944D01*
X162999222Y-82329814D01*
X163044958Y-82179026D01*
X163008920Y-82110000D01*
X170177718Y-82110000D01*
X170206776Y-82405032D01*
X170292834Y-82688725D01*
X170432583Y-82950179D01*
X170620655Y-83179345D01*
X170849821Y-83367417D01*
X171111275Y-83507166D01*
X171394968Y-83593224D01*
X171616064Y-83615000D01*
X172223936Y-83615000D01*
X172445032Y-83593224D01*
X172728725Y-83507166D01*
X172990179Y-83367417D01*
X173219345Y-83179345D01*
X173407417Y-82950179D01*
X173547166Y-82688725D01*
X173633224Y-82405032D01*
X173662282Y-82110000D01*
X173633224Y-81814968D01*
X173547166Y-81531275D01*
X173407417Y-81269821D01*
X173219345Y-81040655D01*
X172990179Y-80852583D01*
X172962331Y-80837698D01*
X173098903Y-80748256D01*
X173310536Y-80540494D01*
X173477571Y-80295437D01*
X173593588Y-80022502D01*
X173611302Y-79930031D01*
X173490246Y-79697000D01*
X172047000Y-79697000D01*
X172047000Y-79717000D01*
X171793000Y-79717000D01*
X171793000Y-79697000D01*
X170349754Y-79697000D01*
X170228698Y-79930031D01*
X170246412Y-80022502D01*
X170362429Y-80295437D01*
X170529464Y-80540494D01*
X170741097Y-80748256D01*
X170877669Y-80837698D01*
X170849821Y-80852583D01*
X170620655Y-81040655D01*
X170432583Y-81269821D01*
X170292834Y-81531275D01*
X170206776Y-81814968D01*
X170177718Y-82110000D01*
X163008920Y-82110000D01*
X162923817Y-81947000D01*
X161717000Y-81947000D01*
X161717000Y-81967000D01*
X161463000Y-81967000D01*
X161463000Y-81947000D01*
X159177000Y-81947000D01*
X159177000Y-81967000D01*
X158923000Y-81967000D01*
X158923000Y-81947000D01*
X157716183Y-81947000D01*
X157595042Y-82179026D01*
X157640778Y-82329814D01*
X157767316Y-82594944D01*
X157943146Y-82830293D01*
X158161512Y-83026817D01*
X158260103Y-83085441D01*
X158094698Y-83195961D01*
X157885961Y-83404698D01*
X157721958Y-83650147D01*
X157608990Y-83922875D01*
X157551400Y-84212401D01*
X157551400Y-84507599D01*
X157608990Y-84797125D01*
X157721958Y-85069853D01*
X157885961Y-85315302D01*
X158024540Y-85453881D01*
X151176439Y-92301983D01*
X151141335Y-92295000D01*
X150858665Y-92295000D01*
X150581426Y-92350147D01*
X150320273Y-92458320D01*
X150085241Y-92615363D01*
X149885363Y-92815241D01*
X149728320Y-93050273D01*
X149620147Y-93311426D01*
X149565000Y-93588665D01*
X142275000Y-93588665D01*
X142219853Y-93311426D01*
X142111680Y-93050273D01*
X141954637Y-92815241D01*
X141754759Y-92615363D01*
X141519727Y-92458320D01*
X141258574Y-92350147D01*
X140981335Y-92295000D01*
X140698665Y-92295000D01*
X140421426Y-92350147D01*
X140160273Y-92458320D01*
X139925241Y-92615363D01*
X139725363Y-92815241D01*
X139568320Y-93050273D01*
X139460147Y-93311426D01*
X139405000Y-93588665D01*
X130825503Y-93588665D01*
X130796985Y-93366802D01*
X130681846Y-93024167D01*
X130562836Y-92801514D01*
X130277980Y-92681626D01*
X129179605Y-93780000D01*
X128820395Y-93780000D01*
X127722020Y-92681626D01*
X127437164Y-92801514D01*
X127276301Y-93125210D01*
X127181678Y-93474069D01*
X127156933Y-93834684D01*
X112344239Y-93834684D01*
X112353072Y-93745000D01*
X112353072Y-92502020D01*
X127901626Y-92502020D01*
X129000000Y-93600395D01*
X130098374Y-92502020D01*
X129978486Y-92217164D01*
X129654790Y-92056301D01*
X129305931Y-91961678D01*
X128945316Y-91936933D01*
X128586802Y-91983015D01*
X128244167Y-92098154D01*
X128021514Y-92217164D01*
X127901626Y-92502020D01*
X112353072Y-92502020D01*
X112353072Y-92155000D01*
X112340812Y-92030518D01*
X112304502Y-91910820D01*
X112245537Y-91800506D01*
X112166185Y-91703815D01*
X112069494Y-91624463D01*
X111959180Y-91565498D01*
X111839482Y-91529188D01*
X111715000Y-91516928D01*
X110125000Y-91516928D01*
X110000518Y-91529188D01*
X109880820Y-91565498D01*
X109770506Y-91624463D01*
X109673815Y-91703815D01*
X109594463Y-91800506D01*
X109535498Y-91910820D01*
X109499188Y-92030518D01*
X109486928Y-92155000D01*
X86537000Y-92155000D01*
X86537000Y-88944157D01*
X109490000Y-88944157D01*
X109490000Y-89225843D01*
X109544954Y-89502116D01*
X109652751Y-89762359D01*
X109809247Y-89996572D01*
X110008428Y-90195753D01*
X110242641Y-90352249D01*
X110502884Y-90460046D01*
X110779157Y-90515000D01*
X111060843Y-90515000D01*
X111337116Y-90460046D01*
X111597359Y-90352249D01*
X111831572Y-90195753D01*
X112030753Y-89996572D01*
X112187249Y-89762359D01*
X112295046Y-89502116D01*
X112350000Y-89225843D01*
X112350000Y-88944157D01*
X112295046Y-88667884D01*
X112187249Y-88407641D01*
X112030753Y-88173428D01*
X111831572Y-87974247D01*
X111597359Y-87817751D01*
X111337116Y-87709954D01*
X111060843Y-87655000D01*
X110779157Y-87655000D01*
X110502884Y-87709954D01*
X110242641Y-87817751D01*
X110008428Y-87974247D01*
X109809247Y-88173428D01*
X109652751Y-88407641D01*
X109544954Y-88667884D01*
X109490000Y-88944157D01*
X86537000Y-88944157D01*
X86537000Y-87580000D01*
X137211928Y-87580000D01*
X137224188Y-87704482D01*
X137260498Y-87824180D01*
X137319463Y-87934494D01*
X137398815Y-88031185D01*
X137495506Y-88110537D01*
X137605820Y-88169502D01*
X137725518Y-88205812D01*
X137850000Y-88218072D01*
X138364250Y-88215000D01*
X138523000Y-88056250D01*
X138523000Y-86907000D01*
X137373750Y-86907000D01*
X137215000Y-87065750D01*
X137211928Y-87580000D01*
X86537000Y-87580000D01*
X86537000Y-85079157D01*
X109490000Y-85079157D01*
X109490000Y-85360843D01*
X109544954Y-85637116D01*
X109652751Y-85897359D01*
X109809247Y-86131572D01*
X110008428Y-86330753D01*
X110242641Y-86487249D01*
X110502884Y-86595046D01*
X110779157Y-86650000D01*
X111060843Y-86650000D01*
X111337116Y-86595046D01*
X111597359Y-86487249D01*
X111831572Y-86330753D01*
X112030753Y-86131572D01*
X112132030Y-85980000D01*
X137211928Y-85980000D01*
X137215000Y-86494250D01*
X137373750Y-86653000D01*
X138523000Y-86653000D01*
X138523000Y-85503750D01*
X138777000Y-85503750D01*
X138777000Y-86653000D01*
X138797000Y-86653000D01*
X138797000Y-86907000D01*
X138777000Y-86907000D01*
X138777000Y-88056250D01*
X138935750Y-88215000D01*
X139450000Y-88218072D01*
X139574482Y-88205812D01*
X139694180Y-88169502D01*
X139804494Y-88110537D01*
X139901185Y-88031185D01*
X139980537Y-87934494D01*
X140039502Y-87824180D01*
X140068661Y-87728057D01*
X140235241Y-87894637D01*
X140470273Y-88051680D01*
X140731426Y-88159853D01*
X141008665Y-88215000D01*
X141291335Y-88215000D01*
X141568574Y-88159853D01*
X141829727Y-88051680D01*
X142064759Y-87894637D01*
X142264637Y-87694759D01*
X142421680Y-87459727D01*
X142529853Y-87198574D01*
X142585000Y-86921335D01*
X142585000Y-86638665D01*
X142529853Y-86361426D01*
X142421680Y-86100273D01*
X142264637Y-85865241D01*
X142079396Y-85680000D01*
X146271928Y-85680000D01*
X146271928Y-87280000D01*
X146284188Y-87404482D01*
X146320498Y-87524180D01*
X146379463Y-87634494D01*
X146458815Y-87731185D01*
X146555506Y-87810537D01*
X146665820Y-87869502D01*
X146785518Y-87905812D01*
X146910000Y-87918072D01*
X148510000Y-87918072D01*
X148634482Y-87905812D01*
X148754180Y-87869502D01*
X148864494Y-87810537D01*
X148961185Y-87731185D01*
X149040537Y-87634494D01*
X149099502Y-87524180D01*
X149115117Y-87472702D01*
X149396903Y-87472702D01*
X149468486Y-87716671D01*
X149723996Y-87837571D01*
X149998184Y-87906300D01*
X150280512Y-87920217D01*
X150560130Y-87878787D01*
X150826292Y-87783603D01*
X150951514Y-87716671D01*
X151023097Y-87472702D01*
X150210000Y-86659605D01*
X149396903Y-87472702D01*
X149115117Y-87472702D01*
X149135812Y-87404482D01*
X149148072Y-87280000D01*
X149148072Y-87272785D01*
X149217298Y-87293097D01*
X150030395Y-86480000D01*
X150389605Y-86480000D01*
X151202702Y-87293097D01*
X151446671Y-87221514D01*
X151567571Y-86966004D01*
X151636300Y-86691816D01*
X151650217Y-86409488D01*
X151608787Y-86129870D01*
X151513603Y-85863708D01*
X151446671Y-85738486D01*
X151202702Y-85666903D01*
X150389605Y-86480000D01*
X150030395Y-86480000D01*
X149217298Y-85666903D01*
X149148072Y-85687215D01*
X149148072Y-85680000D01*
X149135812Y-85555518D01*
X149115118Y-85487298D01*
X149396903Y-85487298D01*
X150210000Y-86300395D01*
X151023097Y-85487298D01*
X150951514Y-85243329D01*
X150696004Y-85122429D01*
X150421816Y-85053700D01*
X150139488Y-85039783D01*
X149859870Y-85081213D01*
X149593708Y-85176397D01*
X149468486Y-85243329D01*
X149396903Y-85487298D01*
X149115118Y-85487298D01*
X149099502Y-85435820D01*
X149040537Y-85325506D01*
X148961185Y-85228815D01*
X148864494Y-85149463D01*
X148754180Y-85090498D01*
X148634482Y-85054188D01*
X148510000Y-85041928D01*
X146910000Y-85041928D01*
X146785518Y-85054188D01*
X146665820Y-85090498D01*
X146555506Y-85149463D01*
X146458815Y-85228815D01*
X146379463Y-85325506D01*
X146320498Y-85435820D01*
X146284188Y-85555518D01*
X146271928Y-85680000D01*
X142079396Y-85680000D01*
X142064759Y-85665363D01*
X141829727Y-85508320D01*
X141568574Y-85400147D01*
X141291335Y-85345000D01*
X141008665Y-85345000D01*
X140731426Y-85400147D01*
X140470273Y-85508320D01*
X140235241Y-85665363D01*
X140068661Y-85831943D01*
X140039502Y-85735820D01*
X139980537Y-85625506D01*
X139901185Y-85528815D01*
X139804494Y-85449463D01*
X139694180Y-85390498D01*
X139574482Y-85354188D01*
X139450000Y-85341928D01*
X138935750Y-85345000D01*
X138777000Y-85503750D01*
X138523000Y-85503750D01*
X138364250Y-85345000D01*
X137850000Y-85341928D01*
X137725518Y-85354188D01*
X137605820Y-85390498D01*
X137495506Y-85449463D01*
X137398815Y-85528815D01*
X137319463Y-85625506D01*
X137260498Y-85735820D01*
X137224188Y-85855518D01*
X137211928Y-85980000D01*
X112132030Y-85980000D01*
X112187249Y-85897359D01*
X112295046Y-85637116D01*
X112350000Y-85360843D01*
X112350000Y-85079157D01*
X112295046Y-84802884D01*
X112187249Y-84542641D01*
X112030753Y-84308428D01*
X111831572Y-84109247D01*
X111597359Y-83952751D01*
X111337116Y-83844954D01*
X111060843Y-83790000D01*
X110779157Y-83790000D01*
X110502884Y-83844954D01*
X110242641Y-83952751D01*
X110008428Y-84109247D01*
X109809247Y-84308428D01*
X109652751Y-84542641D01*
X109544954Y-84802884D01*
X109490000Y-85079157D01*
X86537000Y-85079157D01*
X86537000Y-81214157D01*
X109490000Y-81214157D01*
X109490000Y-81495843D01*
X109544954Y-81772116D01*
X109652751Y-82032359D01*
X109809247Y-82266572D01*
X110008428Y-82465753D01*
X110242641Y-82622249D01*
X110502884Y-82730046D01*
X110779157Y-82785000D01*
X111060843Y-82785000D01*
X111337116Y-82730046D01*
X111597359Y-82622249D01*
X111831572Y-82465753D01*
X112030753Y-82266572D01*
X112187249Y-82032359D01*
X112295046Y-81772116D01*
X112350000Y-81495843D01*
X112350000Y-81270000D01*
X127161928Y-81270000D01*
X127174188Y-81394482D01*
X127210498Y-81514180D01*
X127269463Y-81624494D01*
X127348815Y-81721185D01*
X127445506Y-81800537D01*
X127555820Y-81859502D01*
X127675518Y-81895812D01*
X127800000Y-81908072D01*
X128714250Y-81905000D01*
X128873000Y-81746250D01*
X128873000Y-80197000D01*
X129127000Y-80197000D01*
X129127000Y-81746250D01*
X129285750Y-81905000D01*
X130200000Y-81908072D01*
X130324482Y-81895812D01*
X130444180Y-81859502D01*
X130554494Y-81800537D01*
X130651185Y-81721185D01*
X130730537Y-81624494D01*
X130789502Y-81514180D01*
X130825812Y-81394482D01*
X130838072Y-81270000D01*
X130836603Y-80832702D01*
X140186903Y-80832702D01*
X140258486Y-81076671D01*
X140513996Y-81197571D01*
X140788184Y-81266300D01*
X141070512Y-81280217D01*
X141350130Y-81238787D01*
X141616292Y-81143603D01*
X141741514Y-81076671D01*
X141813097Y-80832702D01*
X141000000Y-80019605D01*
X140186903Y-80832702D01*
X130836603Y-80832702D01*
X130835000Y-80355750D01*
X130676250Y-80197000D01*
X129127000Y-80197000D01*
X128873000Y-80197000D01*
X127323750Y-80197000D01*
X127165000Y-80355750D01*
X127161928Y-81270000D01*
X112350000Y-81270000D01*
X112350000Y-81214157D01*
X112295046Y-80937884D01*
X112187249Y-80677641D01*
X112030753Y-80443428D01*
X111831572Y-80244247D01*
X111597359Y-80087751D01*
X111337116Y-79979954D01*
X111060843Y-79925000D01*
X110779157Y-79925000D01*
X110502884Y-79979954D01*
X110242641Y-80087751D01*
X110008428Y-80244247D01*
X109809247Y-80443428D01*
X109652751Y-80677641D01*
X109544954Y-80937884D01*
X109490000Y-81214157D01*
X86537000Y-81214157D01*
X86537000Y-78931653D01*
X90347952Y-78931653D01*
X90503962Y-79247214D01*
X90878745Y-79438020D01*
X91283551Y-79552044D01*
X91702824Y-79584902D01*
X92120451Y-79535334D01*
X92520383Y-79405243D01*
X92816038Y-79247214D01*
X92972048Y-78931653D01*
X92910395Y-78870000D01*
X127161928Y-78870000D01*
X127165000Y-79784250D01*
X127323750Y-79943000D01*
X128873000Y-79943000D01*
X128873000Y-78393750D01*
X129127000Y-78393750D01*
X129127000Y-79943000D01*
X130676250Y-79943000D01*
X130708738Y-79910512D01*
X139559783Y-79910512D01*
X139601213Y-80190130D01*
X139696397Y-80456292D01*
X139763329Y-80581514D01*
X140007298Y-80653097D01*
X140820395Y-79840000D01*
X141179605Y-79840000D01*
X141992702Y-80653097D01*
X142236671Y-80581514D01*
X142357571Y-80326004D01*
X142426300Y-80051816D01*
X142440217Y-79769488D01*
X142429724Y-79698665D01*
X149725000Y-79698665D01*
X149725000Y-79981335D01*
X149780147Y-80258574D01*
X149888320Y-80519727D01*
X150045363Y-80754759D01*
X150245241Y-80954637D01*
X150480273Y-81111680D01*
X150741426Y-81219853D01*
X151018665Y-81275000D01*
X151301335Y-81275000D01*
X151578574Y-81219853D01*
X151839727Y-81111680D01*
X152074759Y-80954637D01*
X152274637Y-80754759D01*
X152431680Y-80519727D01*
X152539853Y-80258574D01*
X152595000Y-79981335D01*
X152595000Y-79698665D01*
X152583137Y-79639026D01*
X157595042Y-79639026D01*
X157640778Y-79789814D01*
X157767316Y-80054944D01*
X157943146Y-80290293D01*
X158161512Y-80486817D01*
X158267770Y-80550000D01*
X158161512Y-80613183D01*
X157943146Y-80809707D01*
X157767316Y-81045056D01*
X157640778Y-81310186D01*
X157595042Y-81460974D01*
X157716183Y-81693000D01*
X158923000Y-81693000D01*
X158923000Y-79407000D01*
X159177000Y-79407000D01*
X159177000Y-81693000D01*
X161463000Y-81693000D01*
X161463000Y-79407000D01*
X161717000Y-79407000D01*
X161717000Y-81693000D01*
X162923817Y-81693000D01*
X163044958Y-81460974D01*
X162999222Y-81310186D01*
X162872684Y-81045056D01*
X162696854Y-80809707D01*
X162478488Y-80613183D01*
X162372230Y-80550000D01*
X162478488Y-80486817D01*
X162696854Y-80290293D01*
X162872684Y-80054944D01*
X162999222Y-79789814D01*
X163044958Y-79639026D01*
X162923817Y-79407000D01*
X161717000Y-79407000D01*
X161463000Y-79407000D01*
X159177000Y-79407000D01*
X158923000Y-79407000D01*
X157716183Y-79407000D01*
X157595042Y-79639026D01*
X152583137Y-79639026D01*
X152539853Y-79421426D01*
X152431680Y-79160273D01*
X152274637Y-78925241D01*
X152074759Y-78725363D01*
X151839727Y-78568320D01*
X151578574Y-78460147D01*
X151301335Y-78405000D01*
X151018665Y-78405000D01*
X150741426Y-78460147D01*
X150480273Y-78568320D01*
X150245241Y-78725363D01*
X150045363Y-78925241D01*
X149888320Y-79160273D01*
X149780147Y-79421426D01*
X149725000Y-79698665D01*
X142429724Y-79698665D01*
X142398787Y-79489870D01*
X142303603Y-79223708D01*
X142236671Y-79098486D01*
X141992702Y-79026903D01*
X141179605Y-79840000D01*
X140820395Y-79840000D01*
X140007298Y-79026903D01*
X139763329Y-79098486D01*
X139642429Y-79353996D01*
X139573700Y-79628184D01*
X139559783Y-79910512D01*
X130708738Y-79910512D01*
X130835000Y-79784250D01*
X130838072Y-78870000D01*
X130835837Y-78847298D01*
X140186903Y-78847298D01*
X141000000Y-79660395D01*
X141813097Y-78847298D01*
X141741514Y-78603329D01*
X141486004Y-78482429D01*
X141211816Y-78413700D01*
X140929488Y-78399783D01*
X140649870Y-78441213D01*
X140383708Y-78536397D01*
X140258486Y-78603329D01*
X140186903Y-78847298D01*
X130835837Y-78847298D01*
X130825812Y-78745518D01*
X130789502Y-78625820D01*
X130730537Y-78515506D01*
X130651185Y-78418815D01*
X130554494Y-78339463D01*
X130444180Y-78280498D01*
X130324482Y-78244188D01*
X130200000Y-78231928D01*
X129285750Y-78235000D01*
X129127000Y-78393750D01*
X128873000Y-78393750D01*
X128714250Y-78235000D01*
X127800000Y-78231928D01*
X127675518Y-78244188D01*
X127555820Y-78280498D01*
X127445506Y-78339463D01*
X127348815Y-78418815D01*
X127269463Y-78515506D01*
X127210498Y-78625820D01*
X127174188Y-78745518D01*
X127161928Y-78870000D01*
X92910395Y-78870000D01*
X91660000Y-77619605D01*
X90347952Y-78931653D01*
X86537000Y-78931653D01*
X86537000Y-77482824D01*
X89515098Y-77482824D01*
X89564666Y-77900451D01*
X89694757Y-78300383D01*
X89852786Y-78596038D01*
X90168347Y-78752048D01*
X91480395Y-77440000D01*
X91839605Y-77440000D01*
X93151653Y-78752048D01*
X93467214Y-78596038D01*
X93658020Y-78221255D01*
X93772044Y-77816449D01*
X93804902Y-77397176D01*
X93769515Y-77099026D01*
X157595042Y-77099026D01*
X157640778Y-77249814D01*
X157767316Y-77514944D01*
X157943146Y-77750293D01*
X158161512Y-77946817D01*
X158267770Y-78010000D01*
X158161512Y-78073183D01*
X157943146Y-78269707D01*
X157767316Y-78505056D01*
X157640778Y-78770186D01*
X157595042Y-78920974D01*
X157716183Y-79153000D01*
X158923000Y-79153000D01*
X158923000Y-76867000D01*
X159177000Y-76867000D01*
X159177000Y-79153000D01*
X161463000Y-79153000D01*
X161463000Y-76867000D01*
X161717000Y-76867000D01*
X161717000Y-79153000D01*
X162923817Y-79153000D01*
X163044958Y-78920974D01*
X162999222Y-78770186D01*
X162872684Y-78505056D01*
X162696854Y-78269707D01*
X162478488Y-78073183D01*
X162372230Y-78010000D01*
X162478488Y-77946817D01*
X162696854Y-77750293D01*
X162872684Y-77514944D01*
X162999222Y-77249814D01*
X163044958Y-77099026D01*
X162923817Y-76867000D01*
X161717000Y-76867000D01*
X161463000Y-76867000D01*
X159177000Y-76867000D01*
X158923000Y-76867000D01*
X157716183Y-76867000D01*
X157595042Y-77099026D01*
X93769515Y-77099026D01*
X93755334Y-76979549D01*
X93625243Y-76579617D01*
X93467214Y-76283962D01*
X93151653Y-76127952D01*
X91839605Y-77440000D01*
X91480395Y-77440000D01*
X90168347Y-76127952D01*
X89852786Y-76283962D01*
X89661980Y-76658745D01*
X89547956Y-77063551D01*
X89515098Y-77482824D01*
X86537000Y-77482824D01*
X86537000Y-75948347D01*
X90347952Y-75948347D01*
X91660000Y-77260395D01*
X92972048Y-75948347D01*
X92816038Y-75632786D01*
X92441255Y-75441980D01*
X92036449Y-75327956D01*
X91617176Y-75295098D01*
X91199549Y-75344666D01*
X90799617Y-75474757D01*
X90503962Y-75632786D01*
X90347952Y-75948347D01*
X86537000Y-75948347D01*
X86537000Y-72229721D01*
X89525000Y-72229721D01*
X89525000Y-72650279D01*
X89607047Y-73062756D01*
X89767988Y-73451302D01*
X90001637Y-73800983D01*
X90299017Y-74098363D01*
X90648698Y-74332012D01*
X91037244Y-74492953D01*
X91449721Y-74575000D01*
X91870279Y-74575000D01*
X92282756Y-74492953D01*
X92671302Y-74332012D01*
X93020983Y-74098363D01*
X93318363Y-73800983D01*
X93552012Y-73451302D01*
X93712953Y-73062756D01*
X93795000Y-72650279D01*
X93795000Y-72389268D01*
X127165000Y-72389268D01*
X127165000Y-72750732D01*
X127235518Y-73105250D01*
X127373844Y-73439199D01*
X127574662Y-73739744D01*
X127830256Y-73995338D01*
X128130801Y-74196156D01*
X128464750Y-74334482D01*
X128819268Y-74405000D01*
X129180732Y-74405000D01*
X129535250Y-74334482D01*
X129869199Y-74196156D01*
X130169744Y-73995338D01*
X130425338Y-73739744D01*
X130626156Y-73439199D01*
X130668736Y-73336400D01*
X157548328Y-73336400D01*
X157548328Y-75063600D01*
X157560588Y-75188082D01*
X157596898Y-75307780D01*
X157655863Y-75418094D01*
X157735215Y-75514785D01*
X157831906Y-75594137D01*
X157942220Y-75653102D01*
X158006574Y-75672624D01*
X157943146Y-75729707D01*
X157767316Y-75965056D01*
X157640778Y-76230186D01*
X157595042Y-76380974D01*
X157716183Y-76613000D01*
X158923000Y-76613000D01*
X158923000Y-76593000D01*
X159177000Y-76593000D01*
X159177000Y-76613000D01*
X161463000Y-76613000D01*
X161463000Y-76593000D01*
X161717000Y-76593000D01*
X161717000Y-76613000D01*
X162923817Y-76613000D01*
X163029804Y-76409999D01*
X170181928Y-76409999D01*
X170181928Y-77650001D01*
X170198992Y-77823255D01*
X170249528Y-77989851D01*
X170331595Y-78143387D01*
X170442038Y-78277962D01*
X170576613Y-78388405D01*
X170685314Y-78446507D01*
X170529464Y-78599506D01*
X170362429Y-78844563D01*
X170246412Y-79117498D01*
X170228698Y-79209969D01*
X170349754Y-79443000D01*
X171793000Y-79443000D01*
X171793000Y-79423000D01*
X172047000Y-79423000D01*
X172047000Y-79443000D01*
X173490246Y-79443000D01*
X173611302Y-79209969D01*
X173593588Y-79117498D01*
X173477571Y-78844563D01*
X173310536Y-78599506D01*
X173154686Y-78446507D01*
X173263387Y-78388405D01*
X173397962Y-78277962D01*
X173508405Y-78143387D01*
X173590472Y-77989851D01*
X173641008Y-77823255D01*
X173658072Y-77650001D01*
X173658072Y-76409999D01*
X173641008Y-76236745D01*
X173590472Y-76070149D01*
X173508405Y-75916613D01*
X173397962Y-75782038D01*
X173263387Y-75671595D01*
X173109851Y-75589528D01*
X172943255Y-75538992D01*
X172770001Y-75521928D01*
X171069999Y-75521928D01*
X170896745Y-75538992D01*
X170730149Y-75589528D01*
X170576613Y-75671595D01*
X170442038Y-75782038D01*
X170331595Y-75916613D01*
X170249528Y-76070149D01*
X170198992Y-76236745D01*
X170181928Y-76409999D01*
X163029804Y-76409999D01*
X163044958Y-76380974D01*
X162999222Y-76230186D01*
X162872684Y-75965056D01*
X162696854Y-75729707D01*
X162478488Y-75533183D01*
X162379897Y-75474559D01*
X162545302Y-75364039D01*
X162754039Y-75155302D01*
X162918042Y-74909853D01*
X163031010Y-74637125D01*
X163088600Y-74347599D01*
X163088600Y-74052401D01*
X163031010Y-73762875D01*
X162918042Y-73490147D01*
X162754039Y-73244698D01*
X162545302Y-73035961D01*
X162299853Y-72871958D01*
X162027125Y-72758990D01*
X161737599Y-72701400D01*
X161442401Y-72701400D01*
X161152875Y-72758990D01*
X160880147Y-72871958D01*
X160634698Y-73035961D01*
X160520636Y-73150023D01*
X160503102Y-73092220D01*
X160444137Y-72981906D01*
X160364785Y-72885215D01*
X160268094Y-72805863D01*
X160157780Y-72746898D01*
X160038082Y-72710588D01*
X159913600Y-72698328D01*
X158186400Y-72698328D01*
X158061918Y-72710588D01*
X157942220Y-72746898D01*
X157831906Y-72805863D01*
X157735215Y-72885215D01*
X157655863Y-72981906D01*
X157596898Y-73092220D01*
X157560588Y-73211918D01*
X157548328Y-73336400D01*
X130668736Y-73336400D01*
X130764482Y-73105250D01*
X130835000Y-72750732D01*
X130835000Y-72389268D01*
X130764482Y-72034750D01*
X130626156Y-71700801D01*
X130425338Y-71400256D01*
X130169744Y-71144662D01*
X129869199Y-70943844D01*
X129535250Y-70805518D01*
X129180732Y-70735000D01*
X128819268Y-70735000D01*
X128464750Y-70805518D01*
X128130801Y-70943844D01*
X127830256Y-71144662D01*
X127574662Y-71400256D01*
X127373844Y-71700801D01*
X127235518Y-72034750D01*
X127165000Y-72389268D01*
X93795000Y-72389268D01*
X93795000Y-72229721D01*
X93712953Y-71817244D01*
X93552012Y-71428698D01*
X93318363Y-71079017D01*
X93020983Y-70781637D01*
X92764110Y-70610000D01*
X145461928Y-70610000D01*
X145461928Y-72410000D01*
X145474188Y-72534482D01*
X145510498Y-72654180D01*
X145569463Y-72764494D01*
X145648815Y-72861185D01*
X145745506Y-72940537D01*
X145855820Y-72999502D01*
X145975518Y-73035812D01*
X146100000Y-73048072D01*
X147900000Y-73048072D01*
X148024482Y-73035812D01*
X148144180Y-72999502D01*
X148254494Y-72940537D01*
X148351185Y-72861185D01*
X148430537Y-72764494D01*
X148489502Y-72654180D01*
X148495056Y-72635873D01*
X148561495Y-72702312D01*
X148812905Y-72870299D01*
X149092257Y-72986011D01*
X149388816Y-73045000D01*
X149691184Y-73045000D01*
X149987743Y-72986011D01*
X150267095Y-72870299D01*
X150518505Y-72702312D01*
X150732312Y-72488505D01*
X150900299Y-72237095D01*
X151016011Y-71957743D01*
X151075000Y-71661184D01*
X151075000Y-71358816D01*
X151016011Y-71062257D01*
X150900299Y-70782905D01*
X150818177Y-70660000D01*
X166475000Y-70660000D01*
X166475000Y-74480000D01*
X176045000Y-74480000D01*
X176045000Y-70660000D01*
X166475000Y-70660000D01*
X150818177Y-70660000D01*
X150732312Y-70531495D01*
X150518505Y-70317688D01*
X150267095Y-70149701D01*
X149987743Y-70033989D01*
X149691184Y-69975000D01*
X149388816Y-69975000D01*
X149092257Y-70033989D01*
X148812905Y-70149701D01*
X148561495Y-70317688D01*
X148495056Y-70384127D01*
X148489502Y-70365820D01*
X148430537Y-70255506D01*
X148351185Y-70158815D01*
X148254494Y-70079463D01*
X148144180Y-70020498D01*
X148024482Y-69984188D01*
X147900000Y-69971928D01*
X146100000Y-69971928D01*
X145975518Y-69984188D01*
X145855820Y-70020498D01*
X145745506Y-70079463D01*
X145648815Y-70158815D01*
X145569463Y-70255506D01*
X145510498Y-70365820D01*
X145474188Y-70485518D01*
X145461928Y-70610000D01*
X92764110Y-70610000D01*
X92671302Y-70547988D01*
X92282756Y-70387047D01*
X91870279Y-70305000D01*
X91449721Y-70305000D01*
X91037244Y-70387047D01*
X90648698Y-70547988D01*
X90299017Y-70781637D01*
X90001637Y-71079017D01*
X89767988Y-71428698D01*
X89607047Y-71817244D01*
X89525000Y-72229721D01*
X86537000Y-72229721D01*
X86537000Y-60459721D01*
X108865000Y-60459721D01*
X108865000Y-60880279D01*
X108947047Y-61292756D01*
X109107988Y-61681302D01*
X109341637Y-62030983D01*
X109639017Y-62328363D01*
X109988698Y-62562012D01*
X110377244Y-62722953D01*
X110789721Y-62805000D01*
X111210279Y-62805000D01*
X111622756Y-62722953D01*
X112011302Y-62562012D01*
X112360983Y-62328363D01*
X112658363Y-62030983D01*
X112892012Y-61681302D01*
X113052953Y-61292756D01*
X113135000Y-60880279D01*
X113135000Y-60474495D01*
X120265000Y-60474495D01*
X120265000Y-60865505D01*
X120341282Y-61249003D01*
X120490915Y-61610250D01*
X120708149Y-61935364D01*
X120984636Y-62211851D01*
X121309750Y-62429085D01*
X121670997Y-62578718D01*
X122054495Y-62655000D01*
X122445505Y-62655000D01*
X122829003Y-62578718D01*
X123190250Y-62429085D01*
X123515364Y-62211851D01*
X123791851Y-61935364D01*
X124009085Y-61610250D01*
X124158718Y-61249003D01*
X124235000Y-60865505D01*
X124235000Y-60474495D01*
X124232062Y-60459721D01*
X131365000Y-60459721D01*
X131365000Y-60880279D01*
X131447047Y-61292756D01*
X131607988Y-61681302D01*
X131841637Y-62030983D01*
X132139017Y-62328363D01*
X132488698Y-62562012D01*
X132877244Y-62722953D01*
X133289721Y-62805000D01*
X133710279Y-62805000D01*
X134122756Y-62722953D01*
X134511302Y-62562012D01*
X134860983Y-62328363D01*
X135158363Y-62030983D01*
X135392012Y-61681302D01*
X135444328Y-61555000D01*
X140356531Y-61555000D01*
X140400000Y-61559281D01*
X140443469Y-61555000D01*
X140443477Y-61555000D01*
X140573490Y-61542195D01*
X140672141Y-61512269D01*
X140824537Y-61697963D01*
X140997609Y-61840000D01*
X140824537Y-61982037D01*
X140626155Y-62223765D01*
X140478745Y-62499551D01*
X140387970Y-62798796D01*
X140357319Y-63110000D01*
X140387970Y-63421204D01*
X140478745Y-63720449D01*
X140626155Y-63996235D01*
X140824537Y-64237963D01*
X141066265Y-64436345D01*
X141342051Y-64583755D01*
X141641296Y-64674530D01*
X141874514Y-64697500D01*
X142125486Y-64697500D01*
X142358704Y-64674530D01*
X142657949Y-64583755D01*
X142933735Y-64436345D01*
X143175463Y-64237963D01*
X143373845Y-63996235D01*
X143521255Y-63720449D01*
X143612030Y-63421204D01*
X143642681Y-63110000D01*
X143612030Y-62798796D01*
X143521255Y-62499551D01*
X143373845Y-62223765D01*
X143175463Y-61982037D01*
X143002391Y-61840000D01*
X143175463Y-61697963D01*
X143373845Y-61456235D01*
X143374505Y-61455000D01*
X151673422Y-61455000D01*
X154763470Y-64545049D01*
X154791183Y-64578817D01*
X154824951Y-64606530D01*
X154824953Y-64606532D01*
X154890104Y-64660000D01*
X154925941Y-64689411D01*
X155079687Y-64771589D01*
X155246510Y-64822195D01*
X155376523Y-64835000D01*
X155376531Y-64835000D01*
X155420000Y-64839281D01*
X155463469Y-64835000D01*
X155565210Y-64835000D01*
X155627688Y-64928505D01*
X155841495Y-65142312D01*
X156092905Y-65310299D01*
X156372257Y-65426011D01*
X156668816Y-65485000D01*
X156971184Y-65485000D01*
X157267743Y-65426011D01*
X157547095Y-65310299D01*
X157798505Y-65142312D01*
X158012312Y-64928505D01*
X158180299Y-64677095D01*
X158296011Y-64397743D01*
X158355000Y-64101184D01*
X158355000Y-63798816D01*
X158296011Y-63502257D01*
X158180299Y-63222905D01*
X158064768Y-63050000D01*
X165441928Y-63050000D01*
X165441928Y-64850000D01*
X165454188Y-64974482D01*
X165490498Y-65094180D01*
X165549463Y-65204494D01*
X165628815Y-65301185D01*
X165725506Y-65380537D01*
X165835820Y-65439502D01*
X165955518Y-65475812D01*
X166080000Y-65488072D01*
X167880000Y-65488072D01*
X168004482Y-65475812D01*
X168124180Y-65439502D01*
X168234494Y-65380537D01*
X168331185Y-65301185D01*
X168410537Y-65204494D01*
X168469502Y-65094180D01*
X168505812Y-64974482D01*
X168518072Y-64850000D01*
X168518072Y-64660000D01*
X169791928Y-64660000D01*
X169804188Y-64784482D01*
X169840498Y-64904180D01*
X169899463Y-65014494D01*
X169978815Y-65111185D01*
X170075506Y-65190537D01*
X170185820Y-65249502D01*
X170305518Y-65285812D01*
X170430000Y-65298072D01*
X170944250Y-65295000D01*
X171103000Y-65136250D01*
X171103000Y-63987000D01*
X169953750Y-63987000D01*
X169795000Y-64145750D01*
X169791928Y-64660000D01*
X168518072Y-64660000D01*
X168518072Y-63060000D01*
X169791928Y-63060000D01*
X169795000Y-63574250D01*
X169953750Y-63733000D01*
X171103000Y-63733000D01*
X171103000Y-62583750D01*
X171357000Y-62583750D01*
X171357000Y-63733000D01*
X171377000Y-63733000D01*
X171377000Y-63987000D01*
X171357000Y-63987000D01*
X171357000Y-65136250D01*
X171515750Y-65295000D01*
X172030000Y-65298072D01*
X172154482Y-65285812D01*
X172274180Y-65249502D01*
X172384494Y-65190537D01*
X172481185Y-65111185D01*
X172560537Y-65014494D01*
X172619502Y-64904180D01*
X172648661Y-64808057D01*
X172815241Y-64974637D01*
X173050273Y-65131680D01*
X173311426Y-65239853D01*
X173588665Y-65295000D01*
X173871335Y-65295000D01*
X174148574Y-65239853D01*
X174409727Y-65131680D01*
X174644759Y-64974637D01*
X174844637Y-64774759D01*
X175001680Y-64539727D01*
X175109853Y-64278574D01*
X175165000Y-64001335D01*
X175165000Y-63718665D01*
X175109853Y-63441426D01*
X175001680Y-63180273D01*
X174844637Y-62945241D01*
X174644759Y-62745363D01*
X174409727Y-62588320D01*
X174148574Y-62480147D01*
X173871335Y-62425000D01*
X173588665Y-62425000D01*
X173311426Y-62480147D01*
X173050273Y-62588320D01*
X172815241Y-62745363D01*
X172648661Y-62911943D01*
X172619502Y-62815820D01*
X172560537Y-62705506D01*
X172481185Y-62608815D01*
X172384494Y-62529463D01*
X172274180Y-62470498D01*
X172154482Y-62434188D01*
X172030000Y-62421928D01*
X171515750Y-62425000D01*
X171357000Y-62583750D01*
X171103000Y-62583750D01*
X170944250Y-62425000D01*
X170430000Y-62421928D01*
X170305518Y-62434188D01*
X170185820Y-62470498D01*
X170075506Y-62529463D01*
X169978815Y-62608815D01*
X169899463Y-62705506D01*
X169840498Y-62815820D01*
X169804188Y-62935518D01*
X169791928Y-63060000D01*
X168518072Y-63060000D01*
X168518072Y-63050000D01*
X168505812Y-62925518D01*
X168469502Y-62805820D01*
X168410537Y-62695506D01*
X168331185Y-62598815D01*
X168234494Y-62519463D01*
X168124180Y-62460498D01*
X168004482Y-62424188D01*
X167880000Y-62411928D01*
X166080000Y-62411928D01*
X165955518Y-62424188D01*
X165835820Y-62460498D01*
X165725506Y-62519463D01*
X165628815Y-62598815D01*
X165549463Y-62695506D01*
X165490498Y-62805820D01*
X165454188Y-62925518D01*
X165441928Y-63050000D01*
X158064768Y-63050000D01*
X158012312Y-62971495D01*
X157798505Y-62757688D01*
X157547095Y-62589701D01*
X157267743Y-62473989D01*
X156971184Y-62415000D01*
X156668816Y-62415000D01*
X156372257Y-62473989D01*
X156092905Y-62589701D01*
X155841495Y-62757688D01*
X155660381Y-62938802D01*
X152696534Y-59974956D01*
X152668817Y-59941183D01*
X152534059Y-59830589D01*
X152380313Y-59748411D01*
X152213490Y-59697805D01*
X152083477Y-59685000D01*
X152083469Y-59685000D01*
X152040000Y-59680719D01*
X151996531Y-59685000D01*
X143374505Y-59685000D01*
X143373845Y-59683765D01*
X143270554Y-59557905D01*
X143354494Y-59513037D01*
X143451185Y-59433685D01*
X143530537Y-59336994D01*
X143589502Y-59226680D01*
X143625812Y-59106982D01*
X143638072Y-58982500D01*
X143635000Y-58315750D01*
X143476250Y-58157000D01*
X142127000Y-58157000D01*
X142127000Y-58177000D01*
X141873000Y-58177000D01*
X141873000Y-58157000D01*
X140523750Y-58157000D01*
X140365000Y-58315750D01*
X140361928Y-58982500D01*
X140374188Y-59106982D01*
X140410498Y-59226680D01*
X140469463Y-59336994D01*
X140548815Y-59433685D01*
X140645506Y-59513037D01*
X140729446Y-59557905D01*
X140626155Y-59683765D01*
X140625495Y-59685000D01*
X140543465Y-59685000D01*
X140499999Y-59680719D01*
X140456533Y-59685000D01*
X140456523Y-59685000D01*
X140326510Y-59697805D01*
X140159687Y-59748411D01*
X140091233Y-59785000D01*
X135444328Y-59785000D01*
X135392012Y-59658698D01*
X135158363Y-59309017D01*
X134860983Y-59011637D01*
X134511302Y-58777988D01*
X134122756Y-58617047D01*
X133710279Y-58535000D01*
X133289721Y-58535000D01*
X132877244Y-58617047D01*
X132488698Y-58777988D01*
X132139017Y-59011637D01*
X131841637Y-59309017D01*
X131607988Y-59658698D01*
X131447047Y-60047244D01*
X131365000Y-60459721D01*
X124232062Y-60459721D01*
X124158718Y-60090997D01*
X124009085Y-59729750D01*
X123791851Y-59404636D01*
X123515364Y-59128149D01*
X123190250Y-58910915D01*
X122829003Y-58761282D01*
X122445505Y-58685000D01*
X122054495Y-58685000D01*
X121670997Y-58761282D01*
X121309750Y-58910915D01*
X120984636Y-59128149D01*
X120708149Y-59404636D01*
X120490915Y-59729750D01*
X120341282Y-60090997D01*
X120265000Y-60474495D01*
X113135000Y-60474495D01*
X113135000Y-60459721D01*
X113052953Y-60047244D01*
X112892012Y-59658698D01*
X112658363Y-59309017D01*
X112360983Y-59011637D01*
X112011302Y-58777988D01*
X111622756Y-58617047D01*
X111210279Y-58535000D01*
X110789721Y-58535000D01*
X110377244Y-58617047D01*
X109988698Y-58777988D01*
X109639017Y-59011637D01*
X109341637Y-59309017D01*
X109107988Y-59658698D01*
X108947047Y-60047244D01*
X108865000Y-60459721D01*
X86537000Y-60459721D01*
X86537000Y-57077500D01*
X140361928Y-57077500D01*
X140365000Y-57744250D01*
X140523750Y-57903000D01*
X141873000Y-57903000D01*
X141873000Y-56601250D01*
X142127000Y-56601250D01*
X142127000Y-57903000D01*
X143476250Y-57903000D01*
X143635000Y-57744250D01*
X143638072Y-57077500D01*
X143625812Y-56953018D01*
X143589502Y-56833320D01*
X143530537Y-56723006D01*
X143451185Y-56626315D01*
X143354494Y-56546963D01*
X143244180Y-56487998D01*
X143124482Y-56451688D01*
X143000000Y-56439428D01*
X142285750Y-56442500D01*
X142127000Y-56601250D01*
X141873000Y-56601250D01*
X141714250Y-56442500D01*
X141000000Y-56439428D01*
X140875518Y-56451688D01*
X140755820Y-56487998D01*
X140645506Y-56546963D01*
X140548815Y-56626315D01*
X140469463Y-56723006D01*
X140410498Y-56833320D01*
X140374188Y-56953018D01*
X140361928Y-57077500D01*
X86537000Y-57077500D01*
X86537000Y-50867000D01*
X177083000Y-50867000D01*
X177083000Y-122920000D01*
G37*
X177083000Y-122920000D02*
X86537000Y-122920000D01*
X86537000Y-117180000D01*
X140357319Y-117180000D01*
X140387970Y-117491204D01*
X140478745Y-117790449D01*
X140626155Y-118066235D01*
X140824537Y-118307963D01*
X141066265Y-118506345D01*
X141342051Y-118653755D01*
X141641296Y-118744530D01*
X141874514Y-118767500D01*
X142125486Y-118767500D01*
X142358704Y-118744530D01*
X142657949Y-118653755D01*
X142933735Y-118506345D01*
X143175463Y-118307963D01*
X143373845Y-118066235D01*
X143521255Y-117790449D01*
X143612030Y-117491204D01*
X143642681Y-117180000D01*
X143612030Y-116868796D01*
X143521255Y-116569551D01*
X143373845Y-116293765D01*
X143175463Y-116052037D01*
X142996101Y-115904837D01*
X143181315Y-115749437D01*
X143375969Y-115506923D01*
X143519571Y-115231094D01*
X143590563Y-115012980D01*
X143470594Y-114767000D01*
X142127000Y-114767000D01*
X142127000Y-114787000D01*
X141873000Y-114787000D01*
X141873000Y-114767000D01*
X140529406Y-114767000D01*
X140409437Y-115012980D01*
X140480429Y-115231094D01*
X140624031Y-115506923D01*
X140818685Y-115749437D01*
X141003899Y-115904837D01*
X140824537Y-116052037D01*
X140626155Y-116293765D01*
X140478745Y-116569551D01*
X140387970Y-116868796D01*
X140357319Y-117180000D01*
X86537000Y-117180000D01*
X86537000Y-114249721D01*
X108865000Y-114249721D01*
X108865000Y-114670279D01*
X108947047Y-115082756D01*
X109107988Y-115471302D01*
X109341637Y-115820983D01*
X109639017Y-116118363D01*
X109988698Y-116352012D01*
X110377244Y-116512953D01*
X110789721Y-116595000D01*
X111210279Y-116595000D01*
X111622756Y-116512953D01*
X112011302Y-116352012D01*
X112360983Y-116118363D01*
X112658363Y-115820983D01*
X112892012Y-115471302D01*
X113052953Y-115082756D01*
X113135000Y-114670279D01*
X113135000Y-114264495D01*
X120265000Y-114264495D01*
X120265000Y-114655505D01*
X120341282Y-115039003D01*
X120490915Y-115400250D01*
X120708149Y-115725364D01*
X120984636Y-116001851D01*
X121309750Y-116219085D01*
X121670997Y-116368718D01*
X122054495Y-116445000D01*
X122445505Y-116445000D01*
X122829003Y-116368718D01*
X123190250Y-116219085D01*
X123515364Y-116001851D01*
X123791851Y-115725364D01*
X124009085Y-115400250D01*
X124158718Y-115039003D01*
X124235000Y-114655505D01*
X124235000Y-114264495D01*
X124158718Y-113880997D01*
X124009085Y-113519750D01*
X123791851Y-113194636D01*
X123515364Y-112918149D01*
X123190250Y-112700915D01*
X122829003Y-112551282D01*
X122445505Y-112475000D01*
X122054495Y-112475000D01*
X121670997Y-112551282D01*
X121309750Y-112700915D01*
X120984636Y-112918149D01*
X120708149Y-113194636D01*
X120490915Y-113519750D01*
X120341282Y-113880997D01*
X120265000Y-114264495D01*
X113135000Y-114264495D01*
X113135000Y-114249721D01*
X113052953Y-113837244D01*
X112892012Y-113448698D01*
X112658363Y-113099017D01*
X112360983Y-112801637D01*
X112011302Y-112567988D01*
X111622756Y-112407047D01*
X111210279Y-112325000D01*
X110789721Y-112325000D01*
X110377244Y-112407047D01*
X109988698Y-112567988D01*
X109639017Y-112801637D01*
X109341637Y-113099017D01*
X109107988Y-113448698D01*
X108947047Y-113837244D01*
X108865000Y-114249721D01*
X86537000Y-114249721D01*
X86537000Y-102229721D01*
X89525000Y-102229721D01*
X89525000Y-102650279D01*
X89607047Y-103062756D01*
X89767988Y-103451302D01*
X90001637Y-103800983D01*
X90299017Y-104098363D01*
X90648698Y-104332012D01*
X91037244Y-104492953D01*
X91449721Y-104575000D01*
X91870279Y-104575000D01*
X92282756Y-104492953D01*
X92671302Y-104332012D01*
X93020983Y-104098363D01*
X93318363Y-103800983D01*
X93552012Y-103451302D01*
X93712953Y-103062756D01*
X93795000Y-102650279D01*
X93795000Y-102229721D01*
X93712953Y-101817244D01*
X93552012Y-101428698D01*
X93318363Y-101079017D01*
X93020983Y-100781637D01*
X92671302Y-100547988D01*
X92282756Y-100387047D01*
X91870279Y-100305000D01*
X91449721Y-100305000D01*
X91037244Y-100387047D01*
X90648698Y-100547988D01*
X90299017Y-100781637D01*
X90001637Y-101079017D01*
X89767988Y-101428698D01*
X89607047Y-101817244D01*
X89525000Y-102229721D01*
X86537000Y-102229721D01*
X86537000Y-100080000D01*
X127161928Y-100080000D01*
X127161928Y-102480000D01*
X127174188Y-102604482D01*
X127210498Y-102724180D01*
X127269463Y-102834494D01*
X127348815Y-102931185D01*
X127445506Y-103010537D01*
X127555820Y-103069502D01*
X127675518Y-103105812D01*
X127800000Y-103118072D01*
X128115000Y-103118072D01*
X128115001Y-105196521D01*
X128110719Y-105240000D01*
X128127805Y-105413490D01*
X128178412Y-105580313D01*
X128260590Y-105734059D01*
X128343468Y-105835046D01*
X128343471Y-105835049D01*
X128371184Y-105868817D01*
X128404952Y-105896530D01*
X134608421Y-112100000D01*
X134249058Y-112459363D01*
X134122756Y-112407047D01*
X133710279Y-112325000D01*
X133289721Y-112325000D01*
X132877244Y-112407047D01*
X132488698Y-112567988D01*
X132139017Y-112801637D01*
X131841637Y-113099017D01*
X131607988Y-113448698D01*
X131447047Y-113837244D01*
X131365000Y-114249721D01*
X131365000Y-114670279D01*
X131447047Y-115082756D01*
X131607988Y-115471302D01*
X131841637Y-115820983D01*
X132139017Y-116118363D01*
X132488698Y-116352012D01*
X132877244Y-116512953D01*
X133289721Y-116595000D01*
X133710279Y-116595000D01*
X134122756Y-116512953D01*
X134511302Y-116352012D01*
X134860983Y-116118363D01*
X135158363Y-115820983D01*
X135392012Y-115471302D01*
X135552953Y-115082756D01*
X135635000Y-114670279D01*
X135635000Y-114249721D01*
X135552953Y-113837244D01*
X135500637Y-113710942D01*
X136226579Y-112985000D01*
X140361928Y-112985000D01*
X140361928Y-113052500D01*
X140374188Y-113176982D01*
X140410498Y-113296680D01*
X140469463Y-113406994D01*
X140548815Y-113503685D01*
X140645506Y-113583037D01*
X140737219Y-113632059D01*
X140624031Y-113773077D01*
X140480429Y-114048906D01*
X140409437Y-114267020D01*
X140529406Y-114513000D01*
X141873000Y-114513000D01*
X141873000Y-114493000D01*
X142127000Y-114493000D01*
X142127000Y-114513000D01*
X143470594Y-114513000D01*
X143590563Y-114267020D01*
X143519571Y-114048906D01*
X143375969Y-113773077D01*
X143262781Y-113632059D01*
X143354494Y-113583037D01*
X143451185Y-113503685D01*
X143530537Y-113406994D01*
X143589502Y-113296680D01*
X143625812Y-113176982D01*
X143638072Y-113052500D01*
X143638072Y-112975683D01*
X143673490Y-112972195D01*
X143840313Y-112921589D01*
X143994059Y-112839411D01*
X144128817Y-112728817D01*
X144156534Y-112695044D01*
X157125051Y-99726528D01*
X157158817Y-99698817D01*
X157252306Y-99584902D01*
X157269411Y-99564059D01*
X157284765Y-99535334D01*
X157351589Y-99410313D01*
X157402195Y-99243490D01*
X157415000Y-99113477D01*
X157415000Y-99113469D01*
X157419281Y-99070000D01*
X157415000Y-99026531D01*
X157415000Y-96978072D01*
X157430000Y-96978072D01*
X157554482Y-96965812D01*
X157674180Y-96929502D01*
X157784494Y-96870537D01*
X157881185Y-96791185D01*
X157948087Y-96709665D01*
X158657670Y-97419249D01*
X158685383Y-97453017D01*
X158719151Y-97480730D01*
X158719153Y-97480732D01*
X158790652Y-97539410D01*
X158820141Y-97563611D01*
X158973887Y-97645789D01*
X159140710Y-97696395D01*
X159270723Y-97709200D01*
X159270733Y-97709200D01*
X159314199Y-97713481D01*
X159357665Y-97709200D01*
X168522331Y-97709200D01*
X168565800Y-97713481D01*
X168609269Y-97709200D01*
X168609277Y-97709200D01*
X168739290Y-97696395D01*
X168906113Y-97645789D01*
X169059859Y-97563611D01*
X169194617Y-97453017D01*
X169222334Y-97419244D01*
X170056989Y-96584590D01*
X170078815Y-96611185D01*
X170175506Y-96690537D01*
X170285820Y-96749502D01*
X170405518Y-96785812D01*
X170530000Y-96798072D01*
X172130000Y-96798072D01*
X172254482Y-96785812D01*
X172374180Y-96749502D01*
X172484494Y-96690537D01*
X172581185Y-96611185D01*
X172660537Y-96514494D01*
X172719502Y-96404180D01*
X172735117Y-96352702D01*
X173016903Y-96352702D01*
X173088486Y-96596671D01*
X173343996Y-96717571D01*
X173618184Y-96786300D01*
X173900512Y-96800217D01*
X174180130Y-96758787D01*
X174446292Y-96663603D01*
X174571514Y-96596671D01*
X174643097Y-96352702D01*
X173830000Y-95539605D01*
X173016903Y-96352702D01*
X172735117Y-96352702D01*
X172755812Y-96284482D01*
X172768072Y-96160000D01*
X172768072Y-96152785D01*
X172837298Y-96173097D01*
X173650395Y-95360000D01*
X174009605Y-95360000D01*
X174822702Y-96173097D01*
X175066671Y-96101514D01*
X175187571Y-95846004D01*
X175256300Y-95571816D01*
X175270217Y-95289488D01*
X175228787Y-95009870D01*
X175133603Y-94743708D01*
X175066671Y-94618486D01*
X174822702Y-94546903D01*
X174009605Y-95360000D01*
X173650395Y-95360000D01*
X172837298Y-94546903D01*
X172768072Y-94567215D01*
X172768072Y-94560000D01*
X172755812Y-94435518D01*
X172735118Y-94367298D01*
X173016903Y-94367298D01*
X173830000Y-95180395D01*
X174643097Y-94367298D01*
X174571514Y-94123329D01*
X174316004Y-94002429D01*
X174041816Y-93933700D01*
X173759488Y-93919783D01*
X173479870Y-93961213D01*
X173213708Y-94056397D01*
X173088486Y-94123329D01*
X173016903Y-94367298D01*
X172735118Y-94367298D01*
X172719502Y-94315820D01*
X172660537Y-94205506D01*
X172581185Y-94108815D01*
X172484494Y-94029463D01*
X172374180Y-93970498D01*
X172254482Y-93934188D01*
X172130000Y-93921928D01*
X170530000Y-93921928D01*
X170405518Y-93934188D01*
X170285820Y-93970498D01*
X170175506Y-94029463D01*
X170078815Y-94108815D01*
X169999463Y-94205506D01*
X169940498Y-94315820D01*
X169904188Y-94435518D01*
X169899455Y-94483575D01*
X169856510Y-94487805D01*
X169689687Y-94538411D01*
X169535941Y-94620589D01*
X169535939Y-94620590D01*
X169535940Y-94620590D01*
X169434953Y-94703468D01*
X169434951Y-94703470D01*
X169401183Y-94731183D01*
X169373470Y-94764951D01*
X168199222Y-95939200D01*
X168144697Y-95939200D01*
X168166011Y-95887743D01*
X168225000Y-95591184D01*
X168225000Y-95288816D01*
X168166011Y-94992257D01*
X168050299Y-94712905D01*
X167882312Y-94461495D01*
X167668505Y-94247688D01*
X167417095Y-94079701D01*
X167137743Y-93963989D01*
X166841184Y-93905000D01*
X166538816Y-93905000D01*
X166242257Y-93963989D01*
X165962905Y-94079701D01*
X165711495Y-94247688D01*
X165497688Y-94461495D01*
X165329701Y-94712905D01*
X165213989Y-94992257D01*
X165155000Y-95288816D01*
X165155000Y-95591184D01*
X165213989Y-95887743D01*
X165235303Y-95939200D01*
X159680779Y-95939200D01*
X158586534Y-94844956D01*
X158558817Y-94811183D01*
X158424059Y-94700589D01*
X158270313Y-94618411D01*
X158103490Y-94567805D01*
X158068072Y-94564317D01*
X158068072Y-94540000D01*
X158055812Y-94415518D01*
X158019502Y-94295820D01*
X157960537Y-94185506D01*
X157881185Y-94088815D01*
X157784494Y-94009463D01*
X157674180Y-93950498D01*
X157554482Y-93914188D01*
X157430000Y-93901928D01*
X155630000Y-93901928D01*
X155505518Y-93914188D01*
X155385820Y-93950498D01*
X155275506Y-94009463D01*
X155178815Y-94088815D01*
X155099463Y-94185506D01*
X155040498Y-94295820D01*
X155004188Y-94415518D01*
X154991928Y-94540000D01*
X154991928Y-96340000D01*
X155004188Y-96464482D01*
X155040498Y-96584180D01*
X155099463Y-96694494D01*
X155178815Y-96791185D01*
X155275506Y-96870537D01*
X155385820Y-96929502D01*
X155505518Y-96965812D01*
X155630000Y-96978072D01*
X155645001Y-96978072D01*
X155645000Y-98703421D01*
X150975051Y-103373371D01*
X150900299Y-103192905D01*
X150732312Y-102941495D01*
X150518505Y-102727688D01*
X150267095Y-102559701D01*
X149987743Y-102443989D01*
X149691184Y-102385000D01*
X149388816Y-102385000D01*
X149092257Y-102443989D01*
X148812905Y-102559701D01*
X148561495Y-102727688D01*
X148495056Y-102794127D01*
X148489502Y-102775820D01*
X148430537Y-102665506D01*
X148351185Y-102568815D01*
X148254494Y-102489463D01*
X148144180Y-102430498D01*
X148024482Y-102394188D01*
X147900000Y-102381928D01*
X147285750Y-102385000D01*
X147127000Y-102543750D01*
X147127000Y-103793000D01*
X147147000Y-103793000D01*
X147147000Y-104047000D01*
X147127000Y-104047000D01*
X147127000Y-105296250D01*
X147285750Y-105455000D01*
X147900000Y-105458072D01*
X148024482Y-105445812D01*
X148144180Y-105409502D01*
X148254494Y-105350537D01*
X148351185Y-105271185D01*
X148430537Y-105174494D01*
X148489502Y-105064180D01*
X148495056Y-105045873D01*
X148561495Y-105112312D01*
X148812905Y-105280299D01*
X148993371Y-105355051D01*
X143539203Y-110809219D01*
X143530537Y-110793006D01*
X143451185Y-110696315D01*
X143354494Y-110616963D01*
X143244180Y-110557998D01*
X143124482Y-110521688D01*
X143000000Y-110509428D01*
X141000000Y-110509428D01*
X140875518Y-110521688D01*
X140755820Y-110557998D01*
X140645506Y-110616963D01*
X140548815Y-110696315D01*
X140469463Y-110793006D01*
X140410498Y-110903320D01*
X140374188Y-111023018D01*
X140361928Y-111147500D01*
X140361928Y-111215000D01*
X136226579Y-111215000D01*
X129885000Y-104873422D01*
X129885000Y-104820000D01*
X145461928Y-104820000D01*
X145474188Y-104944482D01*
X145510498Y-105064180D01*
X145569463Y-105174494D01*
X145648815Y-105271185D01*
X145745506Y-105350537D01*
X145855820Y-105409502D01*
X145975518Y-105445812D01*
X146100000Y-105458072D01*
X146714250Y-105455000D01*
X146873000Y-105296250D01*
X146873000Y-104047000D01*
X145623750Y-104047000D01*
X145465000Y-104205750D01*
X145461928Y-104820000D01*
X129885000Y-104820000D01*
X129885000Y-103118072D01*
X130200000Y-103118072D01*
X130324482Y-103105812D01*
X130444180Y-103069502D01*
X130536790Y-103020000D01*
X145461928Y-103020000D01*
X145465000Y-103634250D01*
X145623750Y-103793000D01*
X146873000Y-103793000D01*
X146873000Y-102543750D01*
X146714250Y-102385000D01*
X146100000Y-102381928D01*
X145975518Y-102394188D01*
X145855820Y-102430498D01*
X145745506Y-102489463D01*
X145648815Y-102568815D01*
X145569463Y-102665506D01*
X145510498Y-102775820D01*
X145474188Y-102895518D01*
X145461928Y-103020000D01*
X130536790Y-103020000D01*
X130554494Y-103010537D01*
X130651185Y-102931185D01*
X130730537Y-102834494D01*
X130789502Y-102724180D01*
X130825812Y-102604482D01*
X130838072Y-102480000D01*
X130838072Y-100080000D01*
X130825812Y-99955518D01*
X130789502Y-99835820D01*
X130730537Y-99725506D01*
X130651185Y-99628815D01*
X130554494Y-99549463D01*
X130444180Y-99490498D01*
X130324482Y-99454188D01*
X130200000Y-99441928D01*
X127800000Y-99441928D01*
X127675518Y-99454188D01*
X127555820Y-99490498D01*
X127445506Y-99549463D01*
X127348815Y-99628815D01*
X127269463Y-99725506D01*
X127210498Y-99835820D01*
X127174188Y-99955518D01*
X127161928Y-100080000D01*
X86537000Y-100080000D01*
X86537000Y-98931653D01*
X90347952Y-98931653D01*
X90503962Y-99247214D01*
X90878745Y-99438020D01*
X91283551Y-99552044D01*
X91702824Y-99584902D01*
X92120451Y-99535334D01*
X92520383Y-99405243D01*
X92816038Y-99247214D01*
X92972048Y-98931653D01*
X91660000Y-97619605D01*
X90347952Y-98931653D01*
X86537000Y-98931653D01*
X86537000Y-97482824D01*
X89515098Y-97482824D01*
X89564666Y-97900451D01*
X89694757Y-98300383D01*
X89852786Y-98596038D01*
X90168347Y-98752048D01*
X91480395Y-97440000D01*
X91839605Y-97440000D01*
X93151653Y-98752048D01*
X93467214Y-98596038D01*
X93658020Y-98221255D01*
X93772044Y-97816449D01*
X93804902Y-97397176D01*
X93755334Y-96979549D01*
X93625243Y-96579617D01*
X93467214Y-96283962D01*
X93151653Y-96127952D01*
X91839605Y-97440000D01*
X91480395Y-97440000D01*
X90168347Y-96127952D01*
X89852786Y-96283962D01*
X89661980Y-96658745D01*
X89547956Y-97063551D01*
X89515098Y-97482824D01*
X86537000Y-97482824D01*
X86537000Y-95948347D01*
X90347952Y-95948347D01*
X91660000Y-97260395D01*
X92972048Y-95948347D01*
X92816038Y-95632786D01*
X92441255Y-95441980D01*
X92036449Y-95327956D01*
X91617176Y-95295098D01*
X91199549Y-95344666D01*
X90799617Y-95474757D01*
X90503962Y-95632786D01*
X90347952Y-95948347D01*
X86537000Y-95948347D01*
X86537000Y-95057980D01*
X127901626Y-95057980D01*
X128021514Y-95342836D01*
X128345210Y-95503699D01*
X128694069Y-95598322D01*
X129054684Y-95623067D01*
X129413198Y-95576985D01*
X129755833Y-95461846D01*
X129978486Y-95342836D01*
X130098374Y-95057980D01*
X129000000Y-93959605D01*
X127901626Y-95057980D01*
X86537000Y-95057980D01*
X86537000Y-92155000D01*
X109486928Y-92155000D01*
X109486928Y-93745000D01*
X109499188Y-93869482D01*
X109535498Y-93989180D01*
X109594463Y-94099494D01*
X109673815Y-94196185D01*
X109770506Y-94275537D01*
X109880820Y-94334502D01*
X110000518Y-94370812D01*
X110125000Y-94383072D01*
X111715000Y-94383072D01*
X111839482Y-94370812D01*
X111959180Y-94334502D01*
X112069494Y-94275537D01*
X112166185Y-94196185D01*
X112245537Y-94099494D01*
X112304502Y-93989180D01*
X112340812Y-93869482D01*
X112344239Y-93834684D01*
X127156933Y-93834684D01*
X127203015Y-94193198D01*
X127318154Y-94535833D01*
X127437164Y-94758486D01*
X127722020Y-94878374D01*
X128820395Y-93780000D01*
X129179605Y-93780000D01*
X130277980Y-94878374D01*
X130562836Y-94758486D01*
X130723699Y-94434790D01*
X130818322Y-94085931D01*
X130843067Y-93725316D01*
X130825503Y-93588665D01*
X139405000Y-93588665D01*
X139405000Y-93871335D01*
X139460147Y-94148574D01*
X139568320Y-94409727D01*
X139725363Y-94644759D01*
X139925241Y-94844637D01*
X140160273Y-95001680D01*
X140421426Y-95109853D01*
X140698665Y-95165000D01*
X140981335Y-95165000D01*
X141258574Y-95109853D01*
X141519727Y-95001680D01*
X141754759Y-94844637D01*
X141954637Y-94644759D01*
X142111680Y-94409727D01*
X142219853Y-94148574D01*
X142275000Y-93871335D01*
X142275000Y-93588665D01*
X149565000Y-93588665D01*
X149565000Y-93871335D01*
X149620147Y-94148574D01*
X149728320Y-94409727D01*
X149885363Y-94644759D01*
X150085241Y-94844637D01*
X150320273Y-95001680D01*
X150581426Y-95109853D01*
X150858665Y-95165000D01*
X151141335Y-95165000D01*
X151418574Y-95109853D01*
X151679727Y-95001680D01*
X151914759Y-94844637D01*
X152114637Y-94644759D01*
X152271680Y-94409727D01*
X152379853Y-94148574D01*
X152435000Y-93871335D01*
X152435000Y-93588665D01*
X152428017Y-93553561D01*
X159489298Y-86492281D01*
X159544059Y-86463011D01*
X159678817Y-86352417D01*
X159789411Y-86217659D01*
X159871589Y-86063913D01*
X159922195Y-85897090D01*
X159927770Y-85840482D01*
X160038659Y-85781211D01*
X160173417Y-85670617D01*
X160201134Y-85636844D01*
X160474319Y-85363660D01*
X160634698Y-85524039D01*
X160880147Y-85688042D01*
X161152875Y-85801010D01*
X161442401Y-85858600D01*
X161737599Y-85858600D01*
X162027125Y-85801010D01*
X162299853Y-85688042D01*
X162545302Y-85524039D01*
X162754039Y-85315302D01*
X162918042Y-85069853D01*
X163031010Y-84797125D01*
X163088600Y-84507599D01*
X163088600Y-84212401D01*
X163031010Y-83922875D01*
X162959403Y-83750000D01*
X167135000Y-83750000D01*
X167135000Y-87570000D01*
X176705000Y-87570000D01*
X176705000Y-83750000D01*
X167135000Y-83750000D01*
X162959403Y-83750000D01*
X162918042Y-83650147D01*
X162754039Y-83404698D01*
X162545302Y-83195961D01*
X162379897Y-83085441D01*
X162478488Y-83026817D01*
X162696854Y-82830293D01*
X162872684Y-82594944D01*
X162999222Y-82329814D01*
X163044958Y-82179026D01*
X163008920Y-82110000D01*
X170177718Y-82110000D01*
X170206776Y-82405032D01*
X170292834Y-82688725D01*
X170432583Y-82950179D01*
X170620655Y-83179345D01*
X170849821Y-83367417D01*
X171111275Y-83507166D01*
X171394968Y-83593224D01*
X171616064Y-83615000D01*
X172223936Y-83615000D01*
X172445032Y-83593224D01*
X172728725Y-83507166D01*
X172990179Y-83367417D01*
X173219345Y-83179345D01*
X173407417Y-82950179D01*
X173547166Y-82688725D01*
X173633224Y-82405032D01*
X173662282Y-82110000D01*
X173633224Y-81814968D01*
X173547166Y-81531275D01*
X173407417Y-81269821D01*
X173219345Y-81040655D01*
X172990179Y-80852583D01*
X172962331Y-80837698D01*
X173098903Y-80748256D01*
X173310536Y-80540494D01*
X173477571Y-80295437D01*
X173593588Y-80022502D01*
X173611302Y-79930031D01*
X173490246Y-79697000D01*
X172047000Y-79697000D01*
X172047000Y-79717000D01*
X171793000Y-79717000D01*
X171793000Y-79697000D01*
X170349754Y-79697000D01*
X170228698Y-79930031D01*
X170246412Y-80022502D01*
X170362429Y-80295437D01*
X170529464Y-80540494D01*
X170741097Y-80748256D01*
X170877669Y-80837698D01*
X170849821Y-80852583D01*
X170620655Y-81040655D01*
X170432583Y-81269821D01*
X170292834Y-81531275D01*
X170206776Y-81814968D01*
X170177718Y-82110000D01*
X163008920Y-82110000D01*
X162923817Y-81947000D01*
X161717000Y-81947000D01*
X161717000Y-81967000D01*
X161463000Y-81967000D01*
X161463000Y-81947000D01*
X159177000Y-81947000D01*
X159177000Y-81967000D01*
X158923000Y-81967000D01*
X158923000Y-81947000D01*
X157716183Y-81947000D01*
X157595042Y-82179026D01*
X157640778Y-82329814D01*
X157767316Y-82594944D01*
X157943146Y-82830293D01*
X158161512Y-83026817D01*
X158260103Y-83085441D01*
X158094698Y-83195961D01*
X157885961Y-83404698D01*
X157721958Y-83650147D01*
X157608990Y-83922875D01*
X157551400Y-84212401D01*
X157551400Y-84507599D01*
X157608990Y-84797125D01*
X157721958Y-85069853D01*
X157885961Y-85315302D01*
X158024540Y-85453881D01*
X151176439Y-92301983D01*
X151141335Y-92295000D01*
X150858665Y-92295000D01*
X150581426Y-92350147D01*
X150320273Y-92458320D01*
X150085241Y-92615363D01*
X149885363Y-92815241D01*
X149728320Y-93050273D01*
X149620147Y-93311426D01*
X149565000Y-93588665D01*
X142275000Y-93588665D01*
X142219853Y-93311426D01*
X142111680Y-93050273D01*
X141954637Y-92815241D01*
X141754759Y-92615363D01*
X141519727Y-92458320D01*
X141258574Y-92350147D01*
X140981335Y-92295000D01*
X140698665Y-92295000D01*
X140421426Y-92350147D01*
X140160273Y-92458320D01*
X139925241Y-92615363D01*
X139725363Y-92815241D01*
X139568320Y-93050273D01*
X139460147Y-93311426D01*
X139405000Y-93588665D01*
X130825503Y-93588665D01*
X130796985Y-93366802D01*
X130681846Y-93024167D01*
X130562836Y-92801514D01*
X130277980Y-92681626D01*
X129179605Y-93780000D01*
X128820395Y-93780000D01*
X127722020Y-92681626D01*
X127437164Y-92801514D01*
X127276301Y-93125210D01*
X127181678Y-93474069D01*
X127156933Y-93834684D01*
X112344239Y-93834684D01*
X112353072Y-93745000D01*
X112353072Y-92502020D01*
X127901626Y-92502020D01*
X129000000Y-93600395D01*
X130098374Y-92502020D01*
X129978486Y-92217164D01*
X129654790Y-92056301D01*
X129305931Y-91961678D01*
X128945316Y-91936933D01*
X128586802Y-91983015D01*
X128244167Y-92098154D01*
X128021514Y-92217164D01*
X127901626Y-92502020D01*
X112353072Y-92502020D01*
X112353072Y-92155000D01*
X112340812Y-92030518D01*
X112304502Y-91910820D01*
X112245537Y-91800506D01*
X112166185Y-91703815D01*
X112069494Y-91624463D01*
X111959180Y-91565498D01*
X111839482Y-91529188D01*
X111715000Y-91516928D01*
X110125000Y-91516928D01*
X110000518Y-91529188D01*
X109880820Y-91565498D01*
X109770506Y-91624463D01*
X109673815Y-91703815D01*
X109594463Y-91800506D01*
X109535498Y-91910820D01*
X109499188Y-92030518D01*
X109486928Y-92155000D01*
X86537000Y-92155000D01*
X86537000Y-88944157D01*
X109490000Y-88944157D01*
X109490000Y-89225843D01*
X109544954Y-89502116D01*
X109652751Y-89762359D01*
X109809247Y-89996572D01*
X110008428Y-90195753D01*
X110242641Y-90352249D01*
X110502884Y-90460046D01*
X110779157Y-90515000D01*
X111060843Y-90515000D01*
X111337116Y-90460046D01*
X111597359Y-90352249D01*
X111831572Y-90195753D01*
X112030753Y-89996572D01*
X112187249Y-89762359D01*
X112295046Y-89502116D01*
X112350000Y-89225843D01*
X112350000Y-88944157D01*
X112295046Y-88667884D01*
X112187249Y-88407641D01*
X112030753Y-88173428D01*
X111831572Y-87974247D01*
X111597359Y-87817751D01*
X111337116Y-87709954D01*
X111060843Y-87655000D01*
X110779157Y-87655000D01*
X110502884Y-87709954D01*
X110242641Y-87817751D01*
X110008428Y-87974247D01*
X109809247Y-88173428D01*
X109652751Y-88407641D01*
X109544954Y-88667884D01*
X109490000Y-88944157D01*
X86537000Y-88944157D01*
X86537000Y-87580000D01*
X137211928Y-87580000D01*
X137224188Y-87704482D01*
X137260498Y-87824180D01*
X137319463Y-87934494D01*
X137398815Y-88031185D01*
X137495506Y-88110537D01*
X137605820Y-88169502D01*
X137725518Y-88205812D01*
X137850000Y-88218072D01*
X138364250Y-88215000D01*
X138523000Y-88056250D01*
X138523000Y-86907000D01*
X137373750Y-86907000D01*
X137215000Y-87065750D01*
X137211928Y-87580000D01*
X86537000Y-87580000D01*
X86537000Y-85079157D01*
X109490000Y-85079157D01*
X109490000Y-85360843D01*
X109544954Y-85637116D01*
X109652751Y-85897359D01*
X109809247Y-86131572D01*
X110008428Y-86330753D01*
X110242641Y-86487249D01*
X110502884Y-86595046D01*
X110779157Y-86650000D01*
X111060843Y-86650000D01*
X111337116Y-86595046D01*
X111597359Y-86487249D01*
X111831572Y-86330753D01*
X112030753Y-86131572D01*
X112132030Y-85980000D01*
X137211928Y-85980000D01*
X137215000Y-86494250D01*
X137373750Y-86653000D01*
X138523000Y-86653000D01*
X138523000Y-85503750D01*
X138777000Y-85503750D01*
X138777000Y-86653000D01*
X138797000Y-86653000D01*
X138797000Y-86907000D01*
X138777000Y-86907000D01*
X138777000Y-88056250D01*
X138935750Y-88215000D01*
X139450000Y-88218072D01*
X139574482Y-88205812D01*
X139694180Y-88169502D01*
X139804494Y-88110537D01*
X139901185Y-88031185D01*
X139980537Y-87934494D01*
X140039502Y-87824180D01*
X140068661Y-87728057D01*
X140235241Y-87894637D01*
X140470273Y-88051680D01*
X140731426Y-88159853D01*
X141008665Y-88215000D01*
X141291335Y-88215000D01*
X141568574Y-88159853D01*
X141829727Y-88051680D01*
X142064759Y-87894637D01*
X142264637Y-87694759D01*
X142421680Y-87459727D01*
X142529853Y-87198574D01*
X142585000Y-86921335D01*
X142585000Y-86638665D01*
X142529853Y-86361426D01*
X142421680Y-86100273D01*
X142264637Y-85865241D01*
X142079396Y-85680000D01*
X146271928Y-85680000D01*
X146271928Y-87280000D01*
X146284188Y-87404482D01*
X146320498Y-87524180D01*
X146379463Y-87634494D01*
X146458815Y-87731185D01*
X146555506Y-87810537D01*
X146665820Y-87869502D01*
X146785518Y-87905812D01*
X146910000Y-87918072D01*
X148510000Y-87918072D01*
X148634482Y-87905812D01*
X148754180Y-87869502D01*
X148864494Y-87810537D01*
X148961185Y-87731185D01*
X149040537Y-87634494D01*
X149099502Y-87524180D01*
X149115117Y-87472702D01*
X149396903Y-87472702D01*
X149468486Y-87716671D01*
X149723996Y-87837571D01*
X149998184Y-87906300D01*
X150280512Y-87920217D01*
X150560130Y-87878787D01*
X150826292Y-87783603D01*
X150951514Y-87716671D01*
X151023097Y-87472702D01*
X150210000Y-86659605D01*
X149396903Y-87472702D01*
X149115117Y-87472702D01*
X149135812Y-87404482D01*
X149148072Y-87280000D01*
X149148072Y-87272785D01*
X149217298Y-87293097D01*
X150030395Y-86480000D01*
X150389605Y-86480000D01*
X151202702Y-87293097D01*
X151446671Y-87221514D01*
X151567571Y-86966004D01*
X151636300Y-86691816D01*
X151650217Y-86409488D01*
X151608787Y-86129870D01*
X151513603Y-85863708D01*
X151446671Y-85738486D01*
X151202702Y-85666903D01*
X150389605Y-86480000D01*
X150030395Y-86480000D01*
X149217298Y-85666903D01*
X149148072Y-85687215D01*
X149148072Y-85680000D01*
X149135812Y-85555518D01*
X149115118Y-85487298D01*
X149396903Y-85487298D01*
X150210000Y-86300395D01*
X151023097Y-85487298D01*
X150951514Y-85243329D01*
X150696004Y-85122429D01*
X150421816Y-85053700D01*
X150139488Y-85039783D01*
X149859870Y-85081213D01*
X149593708Y-85176397D01*
X149468486Y-85243329D01*
X149396903Y-85487298D01*
X149115118Y-85487298D01*
X149099502Y-85435820D01*
X149040537Y-85325506D01*
X148961185Y-85228815D01*
X148864494Y-85149463D01*
X148754180Y-85090498D01*
X148634482Y-85054188D01*
X148510000Y-85041928D01*
X146910000Y-85041928D01*
X146785518Y-85054188D01*
X146665820Y-85090498D01*
X146555506Y-85149463D01*
X146458815Y-85228815D01*
X146379463Y-85325506D01*
X146320498Y-85435820D01*
X146284188Y-85555518D01*
X146271928Y-85680000D01*
X142079396Y-85680000D01*
X142064759Y-85665363D01*
X141829727Y-85508320D01*
X141568574Y-85400147D01*
X141291335Y-85345000D01*
X141008665Y-85345000D01*
X140731426Y-85400147D01*
X140470273Y-85508320D01*
X140235241Y-85665363D01*
X140068661Y-85831943D01*
X140039502Y-85735820D01*
X139980537Y-85625506D01*
X139901185Y-85528815D01*
X139804494Y-85449463D01*
X139694180Y-85390498D01*
X139574482Y-85354188D01*
X139450000Y-85341928D01*
X138935750Y-85345000D01*
X138777000Y-85503750D01*
X138523000Y-85503750D01*
X138364250Y-85345000D01*
X137850000Y-85341928D01*
X137725518Y-85354188D01*
X137605820Y-85390498D01*
X137495506Y-85449463D01*
X137398815Y-85528815D01*
X137319463Y-85625506D01*
X137260498Y-85735820D01*
X137224188Y-85855518D01*
X137211928Y-85980000D01*
X112132030Y-85980000D01*
X112187249Y-85897359D01*
X112295046Y-85637116D01*
X112350000Y-85360843D01*
X112350000Y-85079157D01*
X112295046Y-84802884D01*
X112187249Y-84542641D01*
X112030753Y-84308428D01*
X111831572Y-84109247D01*
X111597359Y-83952751D01*
X111337116Y-83844954D01*
X111060843Y-83790000D01*
X110779157Y-83790000D01*
X110502884Y-83844954D01*
X110242641Y-83952751D01*
X110008428Y-84109247D01*
X109809247Y-84308428D01*
X109652751Y-84542641D01*
X109544954Y-84802884D01*
X109490000Y-85079157D01*
X86537000Y-85079157D01*
X86537000Y-81214157D01*
X109490000Y-81214157D01*
X109490000Y-81495843D01*
X109544954Y-81772116D01*
X109652751Y-82032359D01*
X109809247Y-82266572D01*
X110008428Y-82465753D01*
X110242641Y-82622249D01*
X110502884Y-82730046D01*
X110779157Y-82785000D01*
X111060843Y-82785000D01*
X111337116Y-82730046D01*
X111597359Y-82622249D01*
X111831572Y-82465753D01*
X112030753Y-82266572D01*
X112187249Y-82032359D01*
X112295046Y-81772116D01*
X112350000Y-81495843D01*
X112350000Y-81270000D01*
X127161928Y-81270000D01*
X127174188Y-81394482D01*
X127210498Y-81514180D01*
X127269463Y-81624494D01*
X127348815Y-81721185D01*
X127445506Y-81800537D01*
X127555820Y-81859502D01*
X127675518Y-81895812D01*
X127800000Y-81908072D01*
X128714250Y-81905000D01*
X128873000Y-81746250D01*
X128873000Y-80197000D01*
X129127000Y-80197000D01*
X129127000Y-81746250D01*
X129285750Y-81905000D01*
X130200000Y-81908072D01*
X130324482Y-81895812D01*
X130444180Y-81859502D01*
X130554494Y-81800537D01*
X130651185Y-81721185D01*
X130730537Y-81624494D01*
X130789502Y-81514180D01*
X130825812Y-81394482D01*
X130838072Y-81270000D01*
X130836603Y-80832702D01*
X140186903Y-80832702D01*
X140258486Y-81076671D01*
X140513996Y-81197571D01*
X140788184Y-81266300D01*
X141070512Y-81280217D01*
X141350130Y-81238787D01*
X141616292Y-81143603D01*
X141741514Y-81076671D01*
X141813097Y-80832702D01*
X141000000Y-80019605D01*
X140186903Y-80832702D01*
X130836603Y-80832702D01*
X130835000Y-80355750D01*
X130676250Y-80197000D01*
X129127000Y-80197000D01*
X128873000Y-80197000D01*
X127323750Y-80197000D01*
X127165000Y-80355750D01*
X127161928Y-81270000D01*
X112350000Y-81270000D01*
X112350000Y-81214157D01*
X112295046Y-80937884D01*
X112187249Y-80677641D01*
X112030753Y-80443428D01*
X111831572Y-80244247D01*
X111597359Y-80087751D01*
X111337116Y-79979954D01*
X111060843Y-79925000D01*
X110779157Y-79925000D01*
X110502884Y-79979954D01*
X110242641Y-80087751D01*
X110008428Y-80244247D01*
X109809247Y-80443428D01*
X109652751Y-80677641D01*
X109544954Y-80937884D01*
X109490000Y-81214157D01*
X86537000Y-81214157D01*
X86537000Y-78931653D01*
X90347952Y-78931653D01*
X90503962Y-79247214D01*
X90878745Y-79438020D01*
X91283551Y-79552044D01*
X91702824Y-79584902D01*
X92120451Y-79535334D01*
X92520383Y-79405243D01*
X92816038Y-79247214D01*
X92972048Y-78931653D01*
X92910395Y-78870000D01*
X127161928Y-78870000D01*
X127165000Y-79784250D01*
X127323750Y-79943000D01*
X128873000Y-79943000D01*
X128873000Y-78393750D01*
X129127000Y-78393750D01*
X129127000Y-79943000D01*
X130676250Y-79943000D01*
X130708738Y-79910512D01*
X139559783Y-79910512D01*
X139601213Y-80190130D01*
X139696397Y-80456292D01*
X139763329Y-80581514D01*
X140007298Y-80653097D01*
X140820395Y-79840000D01*
X141179605Y-79840000D01*
X141992702Y-80653097D01*
X142236671Y-80581514D01*
X142357571Y-80326004D01*
X142426300Y-80051816D01*
X142440217Y-79769488D01*
X142429724Y-79698665D01*
X149725000Y-79698665D01*
X149725000Y-79981335D01*
X149780147Y-80258574D01*
X149888320Y-80519727D01*
X150045363Y-80754759D01*
X150245241Y-80954637D01*
X150480273Y-81111680D01*
X150741426Y-81219853D01*
X151018665Y-81275000D01*
X151301335Y-81275000D01*
X151578574Y-81219853D01*
X151839727Y-81111680D01*
X152074759Y-80954637D01*
X152274637Y-80754759D01*
X152431680Y-80519727D01*
X152539853Y-80258574D01*
X152595000Y-79981335D01*
X152595000Y-79698665D01*
X152583137Y-79639026D01*
X157595042Y-79639026D01*
X157640778Y-79789814D01*
X157767316Y-80054944D01*
X157943146Y-80290293D01*
X158161512Y-80486817D01*
X158267770Y-80550000D01*
X158161512Y-80613183D01*
X157943146Y-80809707D01*
X157767316Y-81045056D01*
X157640778Y-81310186D01*
X157595042Y-81460974D01*
X157716183Y-81693000D01*
X158923000Y-81693000D01*
X158923000Y-79407000D01*
X159177000Y-79407000D01*
X159177000Y-81693000D01*
X161463000Y-81693000D01*
X161463000Y-79407000D01*
X161717000Y-79407000D01*
X161717000Y-81693000D01*
X162923817Y-81693000D01*
X163044958Y-81460974D01*
X162999222Y-81310186D01*
X162872684Y-81045056D01*
X162696854Y-80809707D01*
X162478488Y-80613183D01*
X162372230Y-80550000D01*
X162478488Y-80486817D01*
X162696854Y-80290293D01*
X162872684Y-80054944D01*
X162999222Y-79789814D01*
X163044958Y-79639026D01*
X162923817Y-79407000D01*
X161717000Y-79407000D01*
X161463000Y-79407000D01*
X159177000Y-79407000D01*
X158923000Y-79407000D01*
X157716183Y-79407000D01*
X157595042Y-79639026D01*
X152583137Y-79639026D01*
X152539853Y-79421426D01*
X152431680Y-79160273D01*
X152274637Y-78925241D01*
X152074759Y-78725363D01*
X151839727Y-78568320D01*
X151578574Y-78460147D01*
X151301335Y-78405000D01*
X151018665Y-78405000D01*
X150741426Y-78460147D01*
X150480273Y-78568320D01*
X150245241Y-78725363D01*
X150045363Y-78925241D01*
X149888320Y-79160273D01*
X149780147Y-79421426D01*
X149725000Y-79698665D01*
X142429724Y-79698665D01*
X142398787Y-79489870D01*
X142303603Y-79223708D01*
X142236671Y-79098486D01*
X141992702Y-79026903D01*
X141179605Y-79840000D01*
X140820395Y-79840000D01*
X140007298Y-79026903D01*
X139763329Y-79098486D01*
X139642429Y-79353996D01*
X139573700Y-79628184D01*
X139559783Y-79910512D01*
X130708738Y-79910512D01*
X130835000Y-79784250D01*
X130838072Y-78870000D01*
X130835837Y-78847298D01*
X140186903Y-78847298D01*
X141000000Y-79660395D01*
X141813097Y-78847298D01*
X141741514Y-78603329D01*
X141486004Y-78482429D01*
X141211816Y-78413700D01*
X140929488Y-78399783D01*
X140649870Y-78441213D01*
X140383708Y-78536397D01*
X140258486Y-78603329D01*
X140186903Y-78847298D01*
X130835837Y-78847298D01*
X130825812Y-78745518D01*
X130789502Y-78625820D01*
X130730537Y-78515506D01*
X130651185Y-78418815D01*
X130554494Y-78339463D01*
X130444180Y-78280498D01*
X130324482Y-78244188D01*
X130200000Y-78231928D01*
X129285750Y-78235000D01*
X129127000Y-78393750D01*
X128873000Y-78393750D01*
X128714250Y-78235000D01*
X127800000Y-78231928D01*
X127675518Y-78244188D01*
X127555820Y-78280498D01*
X127445506Y-78339463D01*
X127348815Y-78418815D01*
X127269463Y-78515506D01*
X127210498Y-78625820D01*
X127174188Y-78745518D01*
X127161928Y-78870000D01*
X92910395Y-78870000D01*
X91660000Y-77619605D01*
X90347952Y-78931653D01*
X86537000Y-78931653D01*
X86537000Y-77482824D01*
X89515098Y-77482824D01*
X89564666Y-77900451D01*
X89694757Y-78300383D01*
X89852786Y-78596038D01*
X90168347Y-78752048D01*
X91480395Y-77440000D01*
X91839605Y-77440000D01*
X93151653Y-78752048D01*
X93467214Y-78596038D01*
X93658020Y-78221255D01*
X93772044Y-77816449D01*
X93804902Y-77397176D01*
X93769515Y-77099026D01*
X157595042Y-77099026D01*
X157640778Y-77249814D01*
X157767316Y-77514944D01*
X157943146Y-77750293D01*
X158161512Y-77946817D01*
X158267770Y-78010000D01*
X158161512Y-78073183D01*
X157943146Y-78269707D01*
X157767316Y-78505056D01*
X157640778Y-78770186D01*
X157595042Y-78920974D01*
X157716183Y-79153000D01*
X158923000Y-79153000D01*
X158923000Y-76867000D01*
X159177000Y-76867000D01*
X159177000Y-79153000D01*
X161463000Y-79153000D01*
X161463000Y-76867000D01*
X161717000Y-76867000D01*
X161717000Y-79153000D01*
X162923817Y-79153000D01*
X163044958Y-78920974D01*
X162999222Y-78770186D01*
X162872684Y-78505056D01*
X162696854Y-78269707D01*
X162478488Y-78073183D01*
X162372230Y-78010000D01*
X162478488Y-77946817D01*
X162696854Y-77750293D01*
X162872684Y-77514944D01*
X162999222Y-77249814D01*
X163044958Y-77099026D01*
X162923817Y-76867000D01*
X161717000Y-76867000D01*
X161463000Y-76867000D01*
X159177000Y-76867000D01*
X158923000Y-76867000D01*
X157716183Y-76867000D01*
X157595042Y-77099026D01*
X93769515Y-77099026D01*
X93755334Y-76979549D01*
X93625243Y-76579617D01*
X93467214Y-76283962D01*
X93151653Y-76127952D01*
X91839605Y-77440000D01*
X91480395Y-77440000D01*
X90168347Y-76127952D01*
X89852786Y-76283962D01*
X89661980Y-76658745D01*
X89547956Y-77063551D01*
X89515098Y-77482824D01*
X86537000Y-77482824D01*
X86537000Y-75948347D01*
X90347952Y-75948347D01*
X91660000Y-77260395D01*
X92972048Y-75948347D01*
X92816038Y-75632786D01*
X92441255Y-75441980D01*
X92036449Y-75327956D01*
X91617176Y-75295098D01*
X91199549Y-75344666D01*
X90799617Y-75474757D01*
X90503962Y-75632786D01*
X90347952Y-75948347D01*
X86537000Y-75948347D01*
X86537000Y-72229721D01*
X89525000Y-72229721D01*
X89525000Y-72650279D01*
X89607047Y-73062756D01*
X89767988Y-73451302D01*
X90001637Y-73800983D01*
X90299017Y-74098363D01*
X90648698Y-74332012D01*
X91037244Y-74492953D01*
X91449721Y-74575000D01*
X91870279Y-74575000D01*
X92282756Y-74492953D01*
X92671302Y-74332012D01*
X93020983Y-74098363D01*
X93318363Y-73800983D01*
X93552012Y-73451302D01*
X93712953Y-73062756D01*
X93795000Y-72650279D01*
X93795000Y-72389268D01*
X127165000Y-72389268D01*
X127165000Y-72750732D01*
X127235518Y-73105250D01*
X127373844Y-73439199D01*
X127574662Y-73739744D01*
X127830256Y-73995338D01*
X128130801Y-74196156D01*
X128464750Y-74334482D01*
X128819268Y-74405000D01*
X129180732Y-74405000D01*
X129535250Y-74334482D01*
X129869199Y-74196156D01*
X130169744Y-73995338D01*
X130425338Y-73739744D01*
X130626156Y-73439199D01*
X130668736Y-73336400D01*
X157548328Y-73336400D01*
X157548328Y-75063600D01*
X157560588Y-75188082D01*
X157596898Y-75307780D01*
X157655863Y-75418094D01*
X157735215Y-75514785D01*
X157831906Y-75594137D01*
X157942220Y-75653102D01*
X158006574Y-75672624D01*
X157943146Y-75729707D01*
X157767316Y-75965056D01*
X157640778Y-76230186D01*
X157595042Y-76380974D01*
X157716183Y-76613000D01*
X158923000Y-76613000D01*
X158923000Y-76593000D01*
X159177000Y-76593000D01*
X159177000Y-76613000D01*
X161463000Y-76613000D01*
X161463000Y-76593000D01*
X161717000Y-76593000D01*
X161717000Y-76613000D01*
X162923817Y-76613000D01*
X163029804Y-76409999D01*
X170181928Y-76409999D01*
X170181928Y-77650001D01*
X170198992Y-77823255D01*
X170249528Y-77989851D01*
X170331595Y-78143387D01*
X170442038Y-78277962D01*
X170576613Y-78388405D01*
X170685314Y-78446507D01*
X170529464Y-78599506D01*
X170362429Y-78844563D01*
X170246412Y-79117498D01*
X170228698Y-79209969D01*
X170349754Y-79443000D01*
X171793000Y-79443000D01*
X171793000Y-79423000D01*
X172047000Y-79423000D01*
X172047000Y-79443000D01*
X173490246Y-79443000D01*
X173611302Y-79209969D01*
X173593588Y-79117498D01*
X173477571Y-78844563D01*
X173310536Y-78599506D01*
X173154686Y-78446507D01*
X173263387Y-78388405D01*
X173397962Y-78277962D01*
X173508405Y-78143387D01*
X173590472Y-77989851D01*
X173641008Y-77823255D01*
X173658072Y-77650001D01*
X173658072Y-76409999D01*
X173641008Y-76236745D01*
X173590472Y-76070149D01*
X173508405Y-75916613D01*
X173397962Y-75782038D01*
X173263387Y-75671595D01*
X173109851Y-75589528D01*
X172943255Y-75538992D01*
X172770001Y-75521928D01*
X171069999Y-75521928D01*
X170896745Y-75538992D01*
X170730149Y-75589528D01*
X170576613Y-75671595D01*
X170442038Y-75782038D01*
X170331595Y-75916613D01*
X170249528Y-76070149D01*
X170198992Y-76236745D01*
X170181928Y-76409999D01*
X163029804Y-76409999D01*
X163044958Y-76380974D01*
X162999222Y-76230186D01*
X162872684Y-75965056D01*
X162696854Y-75729707D01*
X162478488Y-75533183D01*
X162379897Y-75474559D01*
X162545302Y-75364039D01*
X162754039Y-75155302D01*
X162918042Y-74909853D01*
X163031010Y-74637125D01*
X163088600Y-74347599D01*
X163088600Y-74052401D01*
X163031010Y-73762875D01*
X162918042Y-73490147D01*
X162754039Y-73244698D01*
X162545302Y-73035961D01*
X162299853Y-72871958D01*
X162027125Y-72758990D01*
X161737599Y-72701400D01*
X161442401Y-72701400D01*
X161152875Y-72758990D01*
X160880147Y-72871958D01*
X160634698Y-73035961D01*
X160520636Y-73150023D01*
X160503102Y-73092220D01*
X160444137Y-72981906D01*
X160364785Y-72885215D01*
X160268094Y-72805863D01*
X160157780Y-72746898D01*
X160038082Y-72710588D01*
X159913600Y-72698328D01*
X158186400Y-72698328D01*
X158061918Y-72710588D01*
X157942220Y-72746898D01*
X157831906Y-72805863D01*
X157735215Y-72885215D01*
X157655863Y-72981906D01*
X157596898Y-73092220D01*
X157560588Y-73211918D01*
X157548328Y-73336400D01*
X130668736Y-73336400D01*
X130764482Y-73105250D01*
X130835000Y-72750732D01*
X130835000Y-72389268D01*
X130764482Y-72034750D01*
X130626156Y-71700801D01*
X130425338Y-71400256D01*
X130169744Y-71144662D01*
X129869199Y-70943844D01*
X129535250Y-70805518D01*
X129180732Y-70735000D01*
X128819268Y-70735000D01*
X128464750Y-70805518D01*
X128130801Y-70943844D01*
X127830256Y-71144662D01*
X127574662Y-71400256D01*
X127373844Y-71700801D01*
X127235518Y-72034750D01*
X127165000Y-72389268D01*
X93795000Y-72389268D01*
X93795000Y-72229721D01*
X93712953Y-71817244D01*
X93552012Y-71428698D01*
X93318363Y-71079017D01*
X93020983Y-70781637D01*
X92764110Y-70610000D01*
X145461928Y-70610000D01*
X145461928Y-72410000D01*
X145474188Y-72534482D01*
X145510498Y-72654180D01*
X145569463Y-72764494D01*
X145648815Y-72861185D01*
X145745506Y-72940537D01*
X145855820Y-72999502D01*
X145975518Y-73035812D01*
X146100000Y-73048072D01*
X147900000Y-73048072D01*
X148024482Y-73035812D01*
X148144180Y-72999502D01*
X148254494Y-72940537D01*
X148351185Y-72861185D01*
X148430537Y-72764494D01*
X148489502Y-72654180D01*
X148495056Y-72635873D01*
X148561495Y-72702312D01*
X148812905Y-72870299D01*
X149092257Y-72986011D01*
X149388816Y-73045000D01*
X149691184Y-73045000D01*
X149987743Y-72986011D01*
X150267095Y-72870299D01*
X150518505Y-72702312D01*
X150732312Y-72488505D01*
X150900299Y-72237095D01*
X151016011Y-71957743D01*
X151075000Y-71661184D01*
X151075000Y-71358816D01*
X151016011Y-71062257D01*
X150900299Y-70782905D01*
X150818177Y-70660000D01*
X166475000Y-70660000D01*
X166475000Y-74480000D01*
X176045000Y-74480000D01*
X176045000Y-70660000D01*
X166475000Y-70660000D01*
X150818177Y-70660000D01*
X150732312Y-70531495D01*
X150518505Y-70317688D01*
X150267095Y-70149701D01*
X149987743Y-70033989D01*
X149691184Y-69975000D01*
X149388816Y-69975000D01*
X149092257Y-70033989D01*
X148812905Y-70149701D01*
X148561495Y-70317688D01*
X148495056Y-70384127D01*
X148489502Y-70365820D01*
X148430537Y-70255506D01*
X148351185Y-70158815D01*
X148254494Y-70079463D01*
X148144180Y-70020498D01*
X148024482Y-69984188D01*
X147900000Y-69971928D01*
X146100000Y-69971928D01*
X145975518Y-69984188D01*
X145855820Y-70020498D01*
X145745506Y-70079463D01*
X145648815Y-70158815D01*
X145569463Y-70255506D01*
X145510498Y-70365820D01*
X145474188Y-70485518D01*
X145461928Y-70610000D01*
X92764110Y-70610000D01*
X92671302Y-70547988D01*
X92282756Y-70387047D01*
X91870279Y-70305000D01*
X91449721Y-70305000D01*
X91037244Y-70387047D01*
X90648698Y-70547988D01*
X90299017Y-70781637D01*
X90001637Y-71079017D01*
X89767988Y-71428698D01*
X89607047Y-71817244D01*
X89525000Y-72229721D01*
X86537000Y-72229721D01*
X86537000Y-60459721D01*
X108865000Y-60459721D01*
X108865000Y-60880279D01*
X108947047Y-61292756D01*
X109107988Y-61681302D01*
X109341637Y-62030983D01*
X109639017Y-62328363D01*
X109988698Y-62562012D01*
X110377244Y-62722953D01*
X110789721Y-62805000D01*
X111210279Y-62805000D01*
X111622756Y-62722953D01*
X112011302Y-62562012D01*
X112360983Y-62328363D01*
X112658363Y-62030983D01*
X112892012Y-61681302D01*
X113052953Y-61292756D01*
X113135000Y-60880279D01*
X113135000Y-60474495D01*
X120265000Y-60474495D01*
X120265000Y-60865505D01*
X120341282Y-61249003D01*
X120490915Y-61610250D01*
X120708149Y-61935364D01*
X120984636Y-62211851D01*
X121309750Y-62429085D01*
X121670997Y-62578718D01*
X122054495Y-62655000D01*
X122445505Y-62655000D01*
X122829003Y-62578718D01*
X123190250Y-62429085D01*
X123515364Y-62211851D01*
X123791851Y-61935364D01*
X124009085Y-61610250D01*
X124158718Y-61249003D01*
X124235000Y-60865505D01*
X124235000Y-60474495D01*
X124232062Y-60459721D01*
X131365000Y-60459721D01*
X131365000Y-60880279D01*
X131447047Y-61292756D01*
X131607988Y-61681302D01*
X131841637Y-62030983D01*
X132139017Y-62328363D01*
X132488698Y-62562012D01*
X132877244Y-62722953D01*
X133289721Y-62805000D01*
X133710279Y-62805000D01*
X134122756Y-62722953D01*
X134511302Y-62562012D01*
X134860983Y-62328363D01*
X135158363Y-62030983D01*
X135392012Y-61681302D01*
X135444328Y-61555000D01*
X140356531Y-61555000D01*
X140400000Y-61559281D01*
X140443469Y-61555000D01*
X140443477Y-61555000D01*
X140573490Y-61542195D01*
X140672141Y-61512269D01*
X140824537Y-61697963D01*
X140997609Y-61840000D01*
X140824537Y-61982037D01*
X140626155Y-62223765D01*
X140478745Y-62499551D01*
X140387970Y-62798796D01*
X140357319Y-63110000D01*
X140387970Y-63421204D01*
X140478745Y-63720449D01*
X140626155Y-63996235D01*
X140824537Y-64237963D01*
X141066265Y-64436345D01*
X141342051Y-64583755D01*
X141641296Y-64674530D01*
X141874514Y-64697500D01*
X142125486Y-64697500D01*
X142358704Y-64674530D01*
X142657949Y-64583755D01*
X142933735Y-64436345D01*
X143175463Y-64237963D01*
X143373845Y-63996235D01*
X143521255Y-63720449D01*
X143612030Y-63421204D01*
X143642681Y-63110000D01*
X143612030Y-62798796D01*
X143521255Y-62499551D01*
X143373845Y-62223765D01*
X143175463Y-61982037D01*
X143002391Y-61840000D01*
X143175463Y-61697963D01*
X143373845Y-61456235D01*
X143374505Y-61455000D01*
X151673422Y-61455000D01*
X154763470Y-64545049D01*
X154791183Y-64578817D01*
X154824951Y-64606530D01*
X154824953Y-64606532D01*
X154890104Y-64660000D01*
X154925941Y-64689411D01*
X155079687Y-64771589D01*
X155246510Y-64822195D01*
X155376523Y-64835000D01*
X155376531Y-64835000D01*
X155420000Y-64839281D01*
X155463469Y-64835000D01*
X155565210Y-64835000D01*
X155627688Y-64928505D01*
X155841495Y-65142312D01*
X156092905Y-65310299D01*
X156372257Y-65426011D01*
X156668816Y-65485000D01*
X156971184Y-65485000D01*
X157267743Y-65426011D01*
X157547095Y-65310299D01*
X157798505Y-65142312D01*
X158012312Y-64928505D01*
X158180299Y-64677095D01*
X158296011Y-64397743D01*
X158355000Y-64101184D01*
X158355000Y-63798816D01*
X158296011Y-63502257D01*
X158180299Y-63222905D01*
X158064768Y-63050000D01*
X165441928Y-63050000D01*
X165441928Y-64850000D01*
X165454188Y-64974482D01*
X165490498Y-65094180D01*
X165549463Y-65204494D01*
X165628815Y-65301185D01*
X165725506Y-65380537D01*
X165835820Y-65439502D01*
X165955518Y-65475812D01*
X166080000Y-65488072D01*
X167880000Y-65488072D01*
X168004482Y-65475812D01*
X168124180Y-65439502D01*
X168234494Y-65380537D01*
X168331185Y-65301185D01*
X168410537Y-65204494D01*
X168469502Y-65094180D01*
X168505812Y-64974482D01*
X168518072Y-64850000D01*
X168518072Y-64660000D01*
X169791928Y-64660000D01*
X169804188Y-64784482D01*
X169840498Y-64904180D01*
X169899463Y-65014494D01*
X169978815Y-65111185D01*
X170075506Y-65190537D01*
X170185820Y-65249502D01*
X170305518Y-65285812D01*
X170430000Y-65298072D01*
X170944250Y-65295000D01*
X171103000Y-65136250D01*
X171103000Y-63987000D01*
X169953750Y-63987000D01*
X169795000Y-64145750D01*
X169791928Y-64660000D01*
X168518072Y-64660000D01*
X168518072Y-63060000D01*
X169791928Y-63060000D01*
X169795000Y-63574250D01*
X169953750Y-63733000D01*
X171103000Y-63733000D01*
X171103000Y-62583750D01*
X171357000Y-62583750D01*
X171357000Y-63733000D01*
X171377000Y-63733000D01*
X171377000Y-63987000D01*
X171357000Y-63987000D01*
X171357000Y-65136250D01*
X171515750Y-65295000D01*
X172030000Y-65298072D01*
X172154482Y-65285812D01*
X172274180Y-65249502D01*
X172384494Y-65190537D01*
X172481185Y-65111185D01*
X172560537Y-65014494D01*
X172619502Y-64904180D01*
X172648661Y-64808057D01*
X172815241Y-64974637D01*
X173050273Y-65131680D01*
X173311426Y-65239853D01*
X173588665Y-65295000D01*
X173871335Y-65295000D01*
X174148574Y-65239853D01*
X174409727Y-65131680D01*
X174644759Y-64974637D01*
X174844637Y-64774759D01*
X175001680Y-64539727D01*
X175109853Y-64278574D01*
X175165000Y-64001335D01*
X175165000Y-63718665D01*
X175109853Y-63441426D01*
X175001680Y-63180273D01*
X174844637Y-62945241D01*
X174644759Y-62745363D01*
X174409727Y-62588320D01*
X174148574Y-62480147D01*
X173871335Y-62425000D01*
X173588665Y-62425000D01*
X173311426Y-62480147D01*
X173050273Y-62588320D01*
X172815241Y-62745363D01*
X172648661Y-62911943D01*
X172619502Y-62815820D01*
X172560537Y-62705506D01*
X172481185Y-62608815D01*
X172384494Y-62529463D01*
X172274180Y-62470498D01*
X172154482Y-62434188D01*
X172030000Y-62421928D01*
X171515750Y-62425000D01*
X171357000Y-62583750D01*
X171103000Y-62583750D01*
X170944250Y-62425000D01*
X170430000Y-62421928D01*
X170305518Y-62434188D01*
X170185820Y-62470498D01*
X170075506Y-62529463D01*
X169978815Y-62608815D01*
X169899463Y-62705506D01*
X169840498Y-62815820D01*
X169804188Y-62935518D01*
X169791928Y-63060000D01*
X168518072Y-63060000D01*
X168518072Y-63050000D01*
X168505812Y-62925518D01*
X168469502Y-62805820D01*
X168410537Y-62695506D01*
X168331185Y-62598815D01*
X168234494Y-62519463D01*
X168124180Y-62460498D01*
X168004482Y-62424188D01*
X167880000Y-62411928D01*
X166080000Y-62411928D01*
X165955518Y-62424188D01*
X165835820Y-62460498D01*
X165725506Y-62519463D01*
X165628815Y-62598815D01*
X165549463Y-62695506D01*
X165490498Y-62805820D01*
X165454188Y-62925518D01*
X165441928Y-63050000D01*
X158064768Y-63050000D01*
X158012312Y-62971495D01*
X157798505Y-62757688D01*
X157547095Y-62589701D01*
X157267743Y-62473989D01*
X156971184Y-62415000D01*
X156668816Y-62415000D01*
X156372257Y-62473989D01*
X156092905Y-62589701D01*
X155841495Y-62757688D01*
X155660381Y-62938802D01*
X152696534Y-59974956D01*
X152668817Y-59941183D01*
X152534059Y-59830589D01*
X152380313Y-59748411D01*
X152213490Y-59697805D01*
X152083477Y-59685000D01*
X152083469Y-59685000D01*
X152040000Y-59680719D01*
X151996531Y-59685000D01*
X143374505Y-59685000D01*
X143373845Y-59683765D01*
X143270554Y-59557905D01*
X143354494Y-59513037D01*
X143451185Y-59433685D01*
X143530537Y-59336994D01*
X143589502Y-59226680D01*
X143625812Y-59106982D01*
X143638072Y-58982500D01*
X143635000Y-58315750D01*
X143476250Y-58157000D01*
X142127000Y-58157000D01*
X142127000Y-58177000D01*
X141873000Y-58177000D01*
X141873000Y-58157000D01*
X140523750Y-58157000D01*
X140365000Y-58315750D01*
X140361928Y-58982500D01*
X140374188Y-59106982D01*
X140410498Y-59226680D01*
X140469463Y-59336994D01*
X140548815Y-59433685D01*
X140645506Y-59513037D01*
X140729446Y-59557905D01*
X140626155Y-59683765D01*
X140625495Y-59685000D01*
X140543465Y-59685000D01*
X140499999Y-59680719D01*
X140456533Y-59685000D01*
X140456523Y-59685000D01*
X140326510Y-59697805D01*
X140159687Y-59748411D01*
X140091233Y-59785000D01*
X135444328Y-59785000D01*
X135392012Y-59658698D01*
X135158363Y-59309017D01*
X134860983Y-59011637D01*
X134511302Y-58777988D01*
X134122756Y-58617047D01*
X133710279Y-58535000D01*
X133289721Y-58535000D01*
X132877244Y-58617047D01*
X132488698Y-58777988D01*
X132139017Y-59011637D01*
X131841637Y-59309017D01*
X131607988Y-59658698D01*
X131447047Y-60047244D01*
X131365000Y-60459721D01*
X124232062Y-60459721D01*
X124158718Y-60090997D01*
X124009085Y-59729750D01*
X123791851Y-59404636D01*
X123515364Y-59128149D01*
X123190250Y-58910915D01*
X122829003Y-58761282D01*
X122445505Y-58685000D01*
X122054495Y-58685000D01*
X121670997Y-58761282D01*
X121309750Y-58910915D01*
X120984636Y-59128149D01*
X120708149Y-59404636D01*
X120490915Y-59729750D01*
X120341282Y-60090997D01*
X120265000Y-60474495D01*
X113135000Y-60474495D01*
X113135000Y-60459721D01*
X113052953Y-60047244D01*
X112892012Y-59658698D01*
X112658363Y-59309017D01*
X112360983Y-59011637D01*
X112011302Y-58777988D01*
X111622756Y-58617047D01*
X111210279Y-58535000D01*
X110789721Y-58535000D01*
X110377244Y-58617047D01*
X109988698Y-58777988D01*
X109639017Y-59011637D01*
X109341637Y-59309017D01*
X109107988Y-59658698D01*
X108947047Y-60047244D01*
X108865000Y-60459721D01*
X86537000Y-60459721D01*
X86537000Y-57077500D01*
X140361928Y-57077500D01*
X140365000Y-57744250D01*
X140523750Y-57903000D01*
X141873000Y-57903000D01*
X141873000Y-56601250D01*
X142127000Y-56601250D01*
X142127000Y-57903000D01*
X143476250Y-57903000D01*
X143635000Y-57744250D01*
X143638072Y-57077500D01*
X143625812Y-56953018D01*
X143589502Y-56833320D01*
X143530537Y-56723006D01*
X143451185Y-56626315D01*
X143354494Y-56546963D01*
X143244180Y-56487998D01*
X143124482Y-56451688D01*
X143000000Y-56439428D01*
X142285750Y-56442500D01*
X142127000Y-56601250D01*
X141873000Y-56601250D01*
X141714250Y-56442500D01*
X141000000Y-56439428D01*
X140875518Y-56451688D01*
X140755820Y-56487998D01*
X140645506Y-56546963D01*
X140548815Y-56626315D01*
X140469463Y-56723006D01*
X140410498Y-56833320D01*
X140374188Y-56953018D01*
X140361928Y-57077500D01*
X86537000Y-57077500D01*
X86537000Y-50867000D01*
X177083000Y-50867000D01*
X177083000Y-122920000D01*
M02*
