G04 #@! TF.GenerationSoftware,KiCad,Pcbnew,(5.1.5)-3*
G04 #@! TF.CreationDate,2020-08-20T13:57:19+01:00*
G04 #@! TF.ProjectId,KOSMOPSU2,4b4f534d-4f50-4535-9532-2e6b69636164,rev?*
G04 #@! TF.SameCoordinates,Original*
G04 #@! TF.FileFunction,Soldermask,Top*
G04 #@! TF.FilePolarity,Negative*
%FSLAX46Y46*%
G04 Gerber Fmt 4.6, Leading zero omitted, Abs format (unit mm)*
G04 Created by KiCad (PCBNEW (5.1.5)-3) date 2020-08-20 13:57:19*
%MOMM*%
%LPD*%
G04 APERTURE LIST*
%ADD10C,0.100000*%
G04 APERTURE END LIST*
D10*
G36*
X38907850Y-115022530D02*
G01*
X38936413Y-115031194D01*
X38962734Y-115045263D01*
X38985804Y-115064196D01*
X39004737Y-115087266D01*
X39018806Y-115113587D01*
X39027470Y-115142150D01*
X39031000Y-115177990D01*
X39031000Y-118122010D01*
X39027470Y-118157850D01*
X39018806Y-118186413D01*
X39004737Y-118212734D01*
X38985804Y-118235804D01*
X38962734Y-118254737D01*
X38936413Y-118268806D01*
X38907850Y-118277470D01*
X38872010Y-118281000D01*
X34987990Y-118281000D01*
X34952150Y-118277470D01*
X34923587Y-118268806D01*
X34897266Y-118254737D01*
X34874196Y-118235804D01*
X34855263Y-118212734D01*
X34841194Y-118186413D01*
X34832530Y-118157850D01*
X34829000Y-118122010D01*
X34829000Y-115177990D01*
X34832530Y-115142150D01*
X34841194Y-115113587D01*
X34855263Y-115087266D01*
X34874196Y-115064196D01*
X34897266Y-115045263D01*
X34923587Y-115031194D01*
X34952150Y-115022530D01*
X34987990Y-115019000D01*
X38872010Y-115019000D01*
X38907850Y-115022530D01*
G37*
G36*
X142145936Y-116181340D02*
G01*
X142244220Y-116191020D01*
X142433381Y-116248401D01*
X142607712Y-116341583D01*
X142760515Y-116466985D01*
X142885917Y-116619788D01*
X142979099Y-116794119D01*
X143036480Y-116983280D01*
X143055855Y-117180000D01*
X143036480Y-117376720D01*
X142979099Y-117565881D01*
X142885917Y-117740212D01*
X142760515Y-117893015D01*
X142607712Y-118018417D01*
X142433381Y-118111599D01*
X142244220Y-118168980D01*
X142145936Y-118178660D01*
X142096795Y-118183500D01*
X141903205Y-118183500D01*
X141854064Y-118178660D01*
X141755780Y-118168980D01*
X141566619Y-118111599D01*
X141392288Y-118018417D01*
X141239485Y-117893015D01*
X141114083Y-117740212D01*
X141020901Y-117565881D01*
X140963520Y-117376720D01*
X140944145Y-117180000D01*
X140963520Y-116983280D01*
X141020901Y-116794119D01*
X141114083Y-116619788D01*
X141239485Y-116466985D01*
X141392288Y-116341583D01*
X141566619Y-116248401D01*
X141755780Y-116191020D01*
X141854064Y-116181340D01*
X141903205Y-116176500D01*
X142096795Y-116176500D01*
X142145936Y-116181340D01*
G37*
G36*
X111302585Y-112938802D02*
G01*
X111452410Y-112968604D01*
X111734674Y-113085521D01*
X111988705Y-113255259D01*
X112204741Y-113471295D01*
X112374479Y-113725326D01*
X112491396Y-114007590D01*
X112551000Y-114307240D01*
X112551000Y-114612760D01*
X112491396Y-114912410D01*
X112374479Y-115194674D01*
X112204741Y-115448705D01*
X111988705Y-115664741D01*
X111734674Y-115834479D01*
X111452410Y-115951396D01*
X111302585Y-115981198D01*
X111152761Y-116011000D01*
X110847239Y-116011000D01*
X110697415Y-115981198D01*
X110547590Y-115951396D01*
X110265326Y-115834479D01*
X110011295Y-115664741D01*
X109795259Y-115448705D01*
X109625521Y-115194674D01*
X109508604Y-114912410D01*
X109449000Y-114612760D01*
X109449000Y-114307240D01*
X109508604Y-114007590D01*
X109625521Y-113725326D01*
X109795259Y-113471295D01*
X110011295Y-113255259D01*
X110265326Y-113085521D01*
X110547590Y-112968604D01*
X110697415Y-112938802D01*
X110847239Y-112909000D01*
X111152761Y-112909000D01*
X111302585Y-112938802D01*
G37*
G36*
X133802585Y-112938802D02*
G01*
X133952410Y-112968604D01*
X134234674Y-113085521D01*
X134488705Y-113255259D01*
X134704741Y-113471295D01*
X134874479Y-113725326D01*
X134991396Y-114007590D01*
X135051000Y-114307240D01*
X135051000Y-114612760D01*
X134991396Y-114912410D01*
X134874479Y-115194674D01*
X134704741Y-115448705D01*
X134488705Y-115664741D01*
X134234674Y-115834479D01*
X133952410Y-115951396D01*
X133802585Y-115981198D01*
X133652761Y-116011000D01*
X133347239Y-116011000D01*
X133197415Y-115981198D01*
X133047590Y-115951396D01*
X132765326Y-115834479D01*
X132511295Y-115664741D01*
X132295259Y-115448705D01*
X132125521Y-115194674D01*
X132008604Y-114912410D01*
X131949000Y-114612760D01*
X131949000Y-114307240D01*
X132008604Y-114007590D01*
X132125521Y-113725326D01*
X132295259Y-113471295D01*
X132511295Y-113255259D01*
X132765326Y-113085521D01*
X133047590Y-112968604D01*
X133197415Y-112938802D01*
X133347239Y-112909000D01*
X133652761Y-112909000D01*
X133802585Y-112938802D01*
G37*
G36*
X122568433Y-113094893D02*
G01*
X122658657Y-113112839D01*
X122764267Y-113156585D01*
X122913621Y-113218449D01*
X122989763Y-113269325D01*
X123143086Y-113371772D01*
X123338228Y-113566914D01*
X123394425Y-113651020D01*
X123491551Y-113796379D01*
X123513294Y-113848871D01*
X123597161Y-114051343D01*
X123597429Y-114052689D01*
X123651000Y-114322012D01*
X123651000Y-114597988D01*
X123648061Y-114612761D01*
X123597161Y-114868657D01*
X123553415Y-114974267D01*
X123491551Y-115123621D01*
X123491550Y-115123622D01*
X123338228Y-115353086D01*
X123143086Y-115548228D01*
X123022231Y-115628980D01*
X122913621Y-115701551D01*
X122764267Y-115763415D01*
X122658657Y-115807161D01*
X122568433Y-115825107D01*
X122387988Y-115861000D01*
X122112012Y-115861000D01*
X121931567Y-115825107D01*
X121841343Y-115807161D01*
X121735733Y-115763415D01*
X121586379Y-115701551D01*
X121477769Y-115628980D01*
X121356914Y-115548228D01*
X121161772Y-115353086D01*
X121008450Y-115123622D01*
X121008449Y-115123621D01*
X120946585Y-114974267D01*
X120902839Y-114868657D01*
X120851939Y-114612761D01*
X120849000Y-114597988D01*
X120849000Y-114322012D01*
X120902571Y-114052689D01*
X120902839Y-114051343D01*
X120986706Y-113848871D01*
X121008449Y-113796379D01*
X121105575Y-113651020D01*
X121161772Y-113566914D01*
X121356914Y-113371772D01*
X121510237Y-113269325D01*
X121586379Y-113218449D01*
X121735733Y-113156585D01*
X121841343Y-113112839D01*
X121931567Y-113094893D01*
X122112012Y-113059000D01*
X122387988Y-113059000D01*
X122568433Y-113094893D01*
G37*
G36*
X142145936Y-113641340D02*
G01*
X142244220Y-113651020D01*
X142433381Y-113708401D01*
X142607712Y-113801583D01*
X142760515Y-113926985D01*
X142885917Y-114079788D01*
X142979099Y-114254119D01*
X143036480Y-114443280D01*
X143055855Y-114640000D01*
X143036480Y-114836720D01*
X142979099Y-115025881D01*
X142885917Y-115200212D01*
X142760515Y-115353015D01*
X142607712Y-115478417D01*
X142433381Y-115571599D01*
X142244220Y-115628980D01*
X142145936Y-115638660D01*
X142096795Y-115643500D01*
X141903205Y-115643500D01*
X141854064Y-115638660D01*
X141755780Y-115628980D01*
X141566619Y-115571599D01*
X141392288Y-115478417D01*
X141239485Y-115353015D01*
X141114083Y-115200212D01*
X141020901Y-115025881D01*
X140963520Y-114836720D01*
X140944145Y-114640000D01*
X140963520Y-114443280D01*
X141020901Y-114254119D01*
X141114083Y-114079788D01*
X141239485Y-113926985D01*
X141392288Y-113801583D01*
X141566619Y-113708401D01*
X141755780Y-113651020D01*
X141854064Y-113641340D01*
X141903205Y-113636500D01*
X142096795Y-113636500D01*
X142145936Y-113641340D01*
G37*
G36*
X76008254Y-110467818D02*
G01*
X76381511Y-110622426D01*
X76381513Y-110622427D01*
X76717436Y-110846884D01*
X77003116Y-111132564D01*
X77032048Y-111175863D01*
X77227574Y-111468489D01*
X77382182Y-111841746D01*
X77461000Y-112237993D01*
X77461000Y-112642007D01*
X77382182Y-113038254D01*
X77244034Y-113371772D01*
X77227573Y-113411513D01*
X77003116Y-113747436D01*
X76717436Y-114033116D01*
X76381513Y-114257573D01*
X76381512Y-114257574D01*
X76381511Y-114257574D01*
X76008254Y-114412182D01*
X75612007Y-114491000D01*
X75207993Y-114491000D01*
X74811746Y-114412182D01*
X74438489Y-114257574D01*
X74438488Y-114257574D01*
X74438487Y-114257573D01*
X74102564Y-114033116D01*
X73816884Y-113747436D01*
X73592427Y-113411513D01*
X73575966Y-113371772D01*
X73437818Y-113038254D01*
X73359000Y-112642007D01*
X73359000Y-112237993D01*
X73437818Y-111841746D01*
X73592426Y-111468489D01*
X73787953Y-111175863D01*
X73816884Y-111132564D01*
X74102564Y-110846884D01*
X74438487Y-110622427D01*
X74438489Y-110622426D01*
X74811746Y-110467818D01*
X75207993Y-110389000D01*
X75612007Y-110389000D01*
X76008254Y-110467818D01*
G37*
G36*
X37719730Y-111082599D02*
G01*
X38027179Y-111175863D01*
X38310518Y-111327311D01*
X38558871Y-111531129D01*
X38762689Y-111779482D01*
X38914137Y-112062821D01*
X39007401Y-112370270D01*
X39038891Y-112690000D01*
X39007401Y-113009730D01*
X38914137Y-113317179D01*
X38762689Y-113600518D01*
X38558871Y-113848871D01*
X38310518Y-114052689D01*
X38027179Y-114204137D01*
X37719730Y-114297401D01*
X37480122Y-114321000D01*
X36379878Y-114321000D01*
X36140270Y-114297401D01*
X35832821Y-114204137D01*
X35549482Y-114052689D01*
X35301129Y-113848871D01*
X35097311Y-113600518D01*
X34945863Y-113317179D01*
X34852599Y-113009730D01*
X34821109Y-112690000D01*
X34852599Y-112370270D01*
X34945863Y-112062821D01*
X35097311Y-111779482D01*
X35301129Y-111531129D01*
X35549482Y-111327311D01*
X35832821Y-111175863D01*
X36140270Y-111082599D01*
X36379878Y-111059000D01*
X37480122Y-111059000D01*
X37719730Y-111082599D01*
G37*
G36*
X143051000Y-113103500D02*
G01*
X140949000Y-113103500D01*
X140949000Y-111096500D01*
X143051000Y-111096500D01*
X143051000Y-113103500D01*
G37*
G36*
X37719730Y-107122599D02*
G01*
X38027179Y-107215863D01*
X38310518Y-107367311D01*
X38558871Y-107571129D01*
X38762689Y-107819482D01*
X38914137Y-108102821D01*
X39007401Y-108410270D01*
X39038891Y-108730000D01*
X39007401Y-109049730D01*
X38914137Y-109357179D01*
X38762689Y-109640518D01*
X38558871Y-109888871D01*
X38310518Y-110092689D01*
X38027179Y-110244137D01*
X37719730Y-110337401D01*
X37480122Y-110361000D01*
X36379878Y-110361000D01*
X36140270Y-110337401D01*
X35832821Y-110244137D01*
X35549482Y-110092689D01*
X35301129Y-109888871D01*
X35097311Y-109640518D01*
X34945863Y-109357179D01*
X34852599Y-109049730D01*
X34821109Y-108730000D01*
X34852599Y-108410270D01*
X34945863Y-108102821D01*
X35097311Y-107819482D01*
X35301129Y-107571129D01*
X35549482Y-107367311D01*
X35832821Y-107215863D01*
X36140270Y-107122599D01*
X36379878Y-107099000D01*
X37480122Y-107099000D01*
X37719730Y-107122599D01*
G37*
G36*
X147951000Y-104871000D02*
G01*
X146049000Y-104871000D01*
X146049000Y-102969000D01*
X147951000Y-102969000D01*
X147951000Y-104871000D01*
G37*
G36*
X149817395Y-103005546D02*
G01*
X149990466Y-103077234D01*
X149990467Y-103077235D01*
X150146227Y-103181310D01*
X150278690Y-103313773D01*
X150278691Y-103313775D01*
X150382766Y-103469534D01*
X150454454Y-103642605D01*
X150491000Y-103826333D01*
X150491000Y-104013667D01*
X150454454Y-104197395D01*
X150382766Y-104370466D01*
X150382765Y-104370467D01*
X150278690Y-104526227D01*
X150146227Y-104658690D01*
X150067818Y-104711081D01*
X149990466Y-104762766D01*
X149817395Y-104834454D01*
X149633667Y-104871000D01*
X149446333Y-104871000D01*
X149262605Y-104834454D01*
X149089534Y-104762766D01*
X149012182Y-104711081D01*
X148933773Y-104658690D01*
X148801310Y-104526227D01*
X148697235Y-104370467D01*
X148697234Y-104370466D01*
X148625546Y-104197395D01*
X148589000Y-104013667D01*
X148589000Y-103826333D01*
X148625546Y-103642605D01*
X148697234Y-103469534D01*
X148801309Y-103313775D01*
X148801310Y-103313773D01*
X148933773Y-103181310D01*
X149089533Y-103077235D01*
X149089534Y-103077234D01*
X149262605Y-103005546D01*
X149446333Y-102969000D01*
X149633667Y-102969000D01*
X149817395Y-103005546D01*
G37*
G36*
X91962585Y-100918802D02*
G01*
X92112410Y-100948604D01*
X92394674Y-101065521D01*
X92648705Y-101235259D01*
X92864741Y-101451295D01*
X93034479Y-101705326D01*
X93151396Y-101987590D01*
X93211000Y-102287240D01*
X93211000Y-102592760D01*
X93151396Y-102892410D01*
X93034479Y-103174674D01*
X92864741Y-103428705D01*
X92648705Y-103644741D01*
X92394674Y-103814479D01*
X92112410Y-103931396D01*
X91962585Y-103961198D01*
X91812761Y-103991000D01*
X91507239Y-103991000D01*
X91357415Y-103961198D01*
X91207590Y-103931396D01*
X90925326Y-103814479D01*
X90671295Y-103644741D01*
X90455259Y-103428705D01*
X90285521Y-103174674D01*
X90168604Y-102892410D01*
X90109000Y-102592760D01*
X90109000Y-102287240D01*
X90168604Y-101987590D01*
X90285521Y-101705326D01*
X90455259Y-101451295D01*
X90671295Y-101235259D01*
X90925326Y-101065521D01*
X91207590Y-100948604D01*
X91357415Y-100918802D01*
X91507239Y-100889000D01*
X91812761Y-100889000D01*
X91962585Y-100918802D01*
G37*
G36*
X60711000Y-103741000D02*
G01*
X57609000Y-103741000D01*
X57609000Y-101139000D01*
X60711000Y-101139000D01*
X60711000Y-103741000D01*
G37*
G36*
X130251000Y-102531000D02*
G01*
X127749000Y-102531000D01*
X127749000Y-100029000D01*
X130251000Y-100029000D01*
X130251000Y-102531000D01*
G37*
G36*
X91880529Y-95902480D02*
G01*
X92112410Y-95948604D01*
X92394674Y-96065521D01*
X92648705Y-96235259D01*
X92864741Y-96451295D01*
X93034479Y-96705326D01*
X93151396Y-96987590D01*
X93211000Y-97287240D01*
X93211000Y-97592760D01*
X93151396Y-97892410D01*
X93034479Y-98174674D01*
X92864741Y-98428705D01*
X92648705Y-98644741D01*
X92394674Y-98814479D01*
X92112410Y-98931396D01*
X91962585Y-98961198D01*
X91812761Y-98991000D01*
X91507239Y-98991000D01*
X91357415Y-98961198D01*
X91207590Y-98931396D01*
X90925326Y-98814479D01*
X90671295Y-98644741D01*
X90455259Y-98428705D01*
X90285521Y-98174674D01*
X90168604Y-97892410D01*
X90109000Y-97592760D01*
X90109000Y-97287240D01*
X90168604Y-96987590D01*
X90285521Y-96705326D01*
X90455259Y-96451295D01*
X90671295Y-96235259D01*
X90925326Y-96065521D01*
X91207590Y-95948604D01*
X91439471Y-95902480D01*
X91507239Y-95889000D01*
X91812761Y-95889000D01*
X91880529Y-95902480D01*
G37*
G36*
X166967395Y-94525546D02*
G01*
X167140466Y-94597234D01*
X167153365Y-94605853D01*
X167296227Y-94701310D01*
X167428690Y-94833773D01*
X167428691Y-94833775D01*
X167532766Y-94989534D01*
X167604454Y-95162605D01*
X167641000Y-95346333D01*
X167641000Y-95533667D01*
X167604454Y-95717395D01*
X167532766Y-95890466D01*
X167532765Y-95890467D01*
X167428690Y-96046227D01*
X167296227Y-96178690D01*
X167247871Y-96211000D01*
X167140466Y-96282766D01*
X166967395Y-96354454D01*
X166783667Y-96391000D01*
X166596333Y-96391000D01*
X166412605Y-96354454D01*
X166239534Y-96282766D01*
X166132129Y-96211000D01*
X166083773Y-96178690D01*
X165951310Y-96046227D01*
X165847235Y-95890467D01*
X165847234Y-95890466D01*
X165775546Y-95717395D01*
X165739000Y-95533667D01*
X165739000Y-95346333D01*
X165775546Y-95162605D01*
X165847234Y-94989534D01*
X165951309Y-94833775D01*
X165951310Y-94833773D01*
X166083773Y-94701310D01*
X166226635Y-94605853D01*
X166239534Y-94597234D01*
X166412605Y-94525546D01*
X166596333Y-94489000D01*
X166783667Y-94489000D01*
X166967395Y-94525546D01*
G37*
G36*
X157481000Y-96391000D02*
G01*
X155579000Y-96391000D01*
X155579000Y-94489000D01*
X157481000Y-94489000D01*
X157481000Y-96391000D01*
G37*
G36*
X174078228Y-94541703D02*
G01*
X174233100Y-94605853D01*
X174372481Y-94698985D01*
X174491015Y-94817519D01*
X174584147Y-94956900D01*
X174648297Y-95111772D01*
X174681000Y-95276184D01*
X174681000Y-95443816D01*
X174648297Y-95608228D01*
X174584147Y-95763100D01*
X174491015Y-95902481D01*
X174372481Y-96021015D01*
X174233100Y-96114147D01*
X174078228Y-96178297D01*
X173913816Y-96211000D01*
X173746184Y-96211000D01*
X173581772Y-96178297D01*
X173426900Y-96114147D01*
X173287519Y-96021015D01*
X173168985Y-95902481D01*
X173075853Y-95763100D01*
X173011703Y-95608228D01*
X172979000Y-95443816D01*
X172979000Y-95276184D01*
X173011703Y-95111772D01*
X173075853Y-94956900D01*
X173168985Y-94817519D01*
X173287519Y-94698985D01*
X173426900Y-94605853D01*
X173581772Y-94541703D01*
X173746184Y-94509000D01*
X173913816Y-94509000D01*
X174078228Y-94541703D01*
G37*
G36*
X172181000Y-96211000D02*
G01*
X170479000Y-96211000D01*
X170479000Y-94509000D01*
X172181000Y-94509000D01*
X172181000Y-96211000D01*
G37*
G36*
X30878412Y-90705135D02*
G01*
X31110346Y-90751269D01*
X31547300Y-90932262D01*
X31940548Y-91195022D01*
X32274978Y-91529452D01*
X32537738Y-91922700D01*
X32718731Y-92359654D01*
X32811000Y-92823522D01*
X32811000Y-93296478D01*
X32718731Y-93760346D01*
X32537738Y-94197300D01*
X32274978Y-94590548D01*
X31940548Y-94924978D01*
X31547300Y-95187738D01*
X31110346Y-95368731D01*
X30878412Y-95414866D01*
X30646479Y-95461000D01*
X30173521Y-95461000D01*
X29941588Y-95414866D01*
X29709654Y-95368731D01*
X29272700Y-95187738D01*
X28879452Y-94924978D01*
X28545022Y-94590548D01*
X28282262Y-94197300D01*
X28101269Y-93760346D01*
X28009000Y-93296478D01*
X28009000Y-92823522D01*
X28101269Y-92359654D01*
X28282262Y-91922700D01*
X28545022Y-91529452D01*
X28879452Y-91195022D01*
X29272700Y-90932262D01*
X29709654Y-90751269D01*
X29941588Y-90705135D01*
X30173521Y-90659000D01*
X30646479Y-90659000D01*
X30878412Y-90705135D01*
G37*
G36*
X129364903Y-92577075D02*
G01*
X129592571Y-92671378D01*
X129797466Y-92808285D01*
X129971715Y-92982534D01*
X129971716Y-92982536D01*
X130108623Y-93187431D01*
X130202925Y-93415097D01*
X130251000Y-93656786D01*
X130251000Y-93903214D01*
X130202925Y-94144903D01*
X130181222Y-94197300D01*
X130108622Y-94372571D01*
X129971715Y-94577466D01*
X129797466Y-94751715D01*
X129592571Y-94888622D01*
X129592570Y-94888623D01*
X129592569Y-94888623D01*
X129364903Y-94982925D01*
X129123214Y-95031000D01*
X128876786Y-95031000D01*
X128635097Y-94982925D01*
X128407431Y-94888623D01*
X128407430Y-94888623D01*
X128407429Y-94888622D01*
X128202534Y-94751715D01*
X128028285Y-94577466D01*
X127891378Y-94372571D01*
X127818779Y-94197300D01*
X127797075Y-94144903D01*
X127749000Y-93903214D01*
X127749000Y-93656786D01*
X127797075Y-93415097D01*
X127891377Y-93187431D01*
X128028284Y-92982536D01*
X128028285Y-92982534D01*
X128202534Y-92808285D01*
X128407429Y-92671378D01*
X128635097Y-92577075D01*
X128876786Y-92529000D01*
X129123214Y-92529000D01*
X129364903Y-92577075D01*
G37*
G36*
X151248228Y-92911703D02*
G01*
X151403100Y-92975853D01*
X151542481Y-93068985D01*
X151661015Y-93187519D01*
X151754147Y-93326900D01*
X151818297Y-93481772D01*
X151851000Y-93646184D01*
X151851000Y-93813816D01*
X151818297Y-93978228D01*
X151754147Y-94133100D01*
X151661015Y-94272481D01*
X151542481Y-94391015D01*
X151403100Y-94484147D01*
X151248228Y-94548297D01*
X151083816Y-94581000D01*
X150916184Y-94581000D01*
X150751772Y-94548297D01*
X150596900Y-94484147D01*
X150457519Y-94391015D01*
X150338985Y-94272481D01*
X150245853Y-94133100D01*
X150181703Y-93978228D01*
X150149000Y-93813816D01*
X150149000Y-93646184D01*
X150181703Y-93481772D01*
X150245853Y-93326900D01*
X150338985Y-93187519D01*
X150457519Y-93068985D01*
X150596900Y-92975853D01*
X150751772Y-92911703D01*
X150916184Y-92879000D01*
X151083816Y-92879000D01*
X151248228Y-92911703D01*
G37*
G36*
X141088228Y-92911703D02*
G01*
X141243100Y-92975853D01*
X141382481Y-93068985D01*
X141501015Y-93187519D01*
X141594147Y-93326900D01*
X141658297Y-93481772D01*
X141691000Y-93646184D01*
X141691000Y-93813816D01*
X141658297Y-93978228D01*
X141594147Y-94133100D01*
X141501015Y-94272481D01*
X141382481Y-94391015D01*
X141243100Y-94484147D01*
X141088228Y-94548297D01*
X140923816Y-94581000D01*
X140756184Y-94581000D01*
X140591772Y-94548297D01*
X140436900Y-94484147D01*
X140297519Y-94391015D01*
X140178985Y-94272481D01*
X140085853Y-94133100D01*
X140021703Y-93978228D01*
X139989000Y-93813816D01*
X139989000Y-93646184D01*
X140021703Y-93481772D01*
X140085853Y-93326900D01*
X140178985Y-93187519D01*
X140297519Y-93068985D01*
X140436900Y-92975853D01*
X140591772Y-92911703D01*
X140756184Y-92879000D01*
X140923816Y-92879000D01*
X141088228Y-92911703D01*
G37*
G36*
X111766000Y-93796000D02*
G01*
X110074000Y-93796000D01*
X110074000Y-92104000D01*
X111766000Y-92104000D01*
X111766000Y-93796000D01*
G37*
G36*
X111166768Y-88271511D02*
G01*
X111320729Y-88335284D01*
X111320731Y-88335285D01*
X111459293Y-88427869D01*
X111577131Y-88545707D01*
X111669716Y-88684271D01*
X111733489Y-88838232D01*
X111766000Y-89001675D01*
X111766000Y-89168325D01*
X111733489Y-89331768D01*
X111669716Y-89485729D01*
X111669715Y-89485731D01*
X111577131Y-89624293D01*
X111459293Y-89742131D01*
X111320731Y-89834715D01*
X111320730Y-89834716D01*
X111320729Y-89834716D01*
X111166768Y-89898489D01*
X111003325Y-89931000D01*
X110836675Y-89931000D01*
X110673232Y-89898489D01*
X110519271Y-89834716D01*
X110519270Y-89834716D01*
X110519269Y-89834715D01*
X110380707Y-89742131D01*
X110262869Y-89624293D01*
X110170285Y-89485731D01*
X110170284Y-89485729D01*
X110106511Y-89331768D01*
X110074000Y-89168325D01*
X110074000Y-89001675D01*
X110106511Y-88838232D01*
X110170284Y-88684271D01*
X110262869Y-88545707D01*
X110380707Y-88427869D01*
X110519269Y-88335285D01*
X110519271Y-88335284D01*
X110673232Y-88271511D01*
X110836675Y-88239000D01*
X111003325Y-88239000D01*
X111166768Y-88271511D01*
G37*
G36*
X139501000Y-87631000D02*
G01*
X137799000Y-87631000D01*
X137799000Y-85929000D01*
X139501000Y-85929000D01*
X139501000Y-87631000D01*
G37*
G36*
X141398228Y-85961703D02*
G01*
X141553100Y-86025853D01*
X141692481Y-86118985D01*
X141811015Y-86237519D01*
X141904147Y-86376900D01*
X141968297Y-86531772D01*
X142001000Y-86696184D01*
X142001000Y-86863816D01*
X141968297Y-87028228D01*
X141904147Y-87183100D01*
X141811015Y-87322481D01*
X141692481Y-87441015D01*
X141553100Y-87534147D01*
X141398228Y-87598297D01*
X141233816Y-87631000D01*
X141066184Y-87631000D01*
X140901772Y-87598297D01*
X140746900Y-87534147D01*
X140607519Y-87441015D01*
X140488985Y-87322481D01*
X140395853Y-87183100D01*
X140331703Y-87028228D01*
X140299000Y-86863816D01*
X140299000Y-86696184D01*
X140331703Y-86531772D01*
X140395853Y-86376900D01*
X140488985Y-86237519D01*
X140607519Y-86118985D01*
X140746900Y-86025853D01*
X140901772Y-85961703D01*
X141066184Y-85929000D01*
X141233816Y-85929000D01*
X141398228Y-85961703D01*
G37*
G36*
X148561000Y-87331000D02*
G01*
X146859000Y-87331000D01*
X146859000Y-85629000D01*
X148561000Y-85629000D01*
X148561000Y-87331000D01*
G37*
G36*
X150458228Y-85661703D02*
G01*
X150613100Y-85725853D01*
X150752481Y-85818985D01*
X150871015Y-85937519D01*
X150964147Y-86076900D01*
X151028297Y-86231772D01*
X151061000Y-86396184D01*
X151061000Y-86563816D01*
X151028297Y-86728228D01*
X150964147Y-86883100D01*
X150871015Y-87022481D01*
X150752481Y-87141015D01*
X150613100Y-87234147D01*
X150458228Y-87298297D01*
X150293816Y-87331000D01*
X150126184Y-87331000D01*
X149961772Y-87298297D01*
X149806900Y-87234147D01*
X149667519Y-87141015D01*
X149548985Y-87022481D01*
X149455853Y-86883100D01*
X149391703Y-86728228D01*
X149359000Y-86563816D01*
X149359000Y-86396184D01*
X149391703Y-86231772D01*
X149455853Y-86076900D01*
X149548985Y-85937519D01*
X149667519Y-85818985D01*
X149806900Y-85725853D01*
X149961772Y-85661703D01*
X150126184Y-85629000D01*
X150293816Y-85629000D01*
X150458228Y-85661703D01*
G37*
G36*
X111166768Y-84406511D02*
G01*
X111271952Y-84450080D01*
X111320731Y-84470285D01*
X111459293Y-84562869D01*
X111577131Y-84680707D01*
X111669716Y-84819271D01*
X111733489Y-84973232D01*
X111766000Y-85136675D01*
X111766000Y-85303325D01*
X111733489Y-85466768D01*
X111669716Y-85620729D01*
X111669715Y-85620731D01*
X111577131Y-85759293D01*
X111459293Y-85877131D01*
X111320731Y-85969715D01*
X111320730Y-85969716D01*
X111320729Y-85969716D01*
X111166768Y-86033489D01*
X111003325Y-86066000D01*
X110836675Y-86066000D01*
X110673232Y-86033489D01*
X110519271Y-85969716D01*
X110519270Y-85969716D01*
X110519269Y-85969715D01*
X110380707Y-85877131D01*
X110262869Y-85759293D01*
X110170285Y-85620731D01*
X110170284Y-85620729D01*
X110106511Y-85466768D01*
X110074000Y-85303325D01*
X110074000Y-85136675D01*
X110106511Y-84973232D01*
X110170284Y-84819271D01*
X110262869Y-84680707D01*
X110380707Y-84562869D01*
X110519269Y-84470285D01*
X110568048Y-84450080D01*
X110673232Y-84406511D01*
X110836675Y-84374000D01*
X111003325Y-84374000D01*
X111166768Y-84406511D01*
G37*
G36*
X159316778Y-83480547D02*
G01*
X159483224Y-83549491D01*
X159633022Y-83649583D01*
X159760417Y-83776978D01*
X159860509Y-83926776D01*
X159929453Y-84093222D01*
X159964600Y-84269918D01*
X159964600Y-84450082D01*
X159929453Y-84626778D01*
X159860509Y-84793224D01*
X159760417Y-84943022D01*
X159633022Y-85070417D01*
X159483224Y-85170509D01*
X159316778Y-85239453D01*
X159140082Y-85274600D01*
X158959918Y-85274600D01*
X158783222Y-85239453D01*
X158616776Y-85170509D01*
X158466978Y-85070417D01*
X158339583Y-84943022D01*
X158239491Y-84793224D01*
X158170547Y-84626778D01*
X158135400Y-84450082D01*
X158135400Y-84269918D01*
X158170547Y-84093222D01*
X158239491Y-83926776D01*
X158339583Y-83776978D01*
X158466978Y-83649583D01*
X158616776Y-83549491D01*
X158783222Y-83480547D01*
X158959918Y-83445400D01*
X159140082Y-83445400D01*
X159316778Y-83480547D01*
G37*
G36*
X161856778Y-83480547D02*
G01*
X162023224Y-83549491D01*
X162173022Y-83649583D01*
X162300417Y-83776978D01*
X162400509Y-83926776D01*
X162469453Y-84093222D01*
X162504600Y-84269918D01*
X162504600Y-84450082D01*
X162469453Y-84626778D01*
X162400509Y-84793224D01*
X162300417Y-84943022D01*
X162173022Y-85070417D01*
X162023224Y-85170509D01*
X161856778Y-85239453D01*
X161680082Y-85274600D01*
X161499918Y-85274600D01*
X161323222Y-85239453D01*
X161156776Y-85170509D01*
X161006978Y-85070417D01*
X160879583Y-84943022D01*
X160779491Y-84793224D01*
X160710547Y-84626778D01*
X160675400Y-84450082D01*
X160675400Y-84269918D01*
X160710547Y-84093222D01*
X160779491Y-83926776D01*
X160879583Y-83776978D01*
X161006978Y-83649583D01*
X161156776Y-83549491D01*
X161323222Y-83480547D01*
X161499918Y-83445400D01*
X161680082Y-83445400D01*
X161856778Y-83480547D01*
G37*
G36*
X172240345Y-81193442D02*
G01*
X172330548Y-81202326D01*
X172504157Y-81254990D01*
X172664156Y-81340511D01*
X172693679Y-81364740D01*
X172804397Y-81455603D01*
X172869128Y-81534479D01*
X172919489Y-81595844D01*
X173005010Y-81755843D01*
X173057674Y-81929452D01*
X173075456Y-82110000D01*
X173057674Y-82290548D01*
X173005010Y-82464157D01*
X172919489Y-82624156D01*
X172883729Y-82667729D01*
X172804397Y-82764397D01*
X172707729Y-82843729D01*
X172664156Y-82879489D01*
X172504157Y-82965010D01*
X172330548Y-83017674D01*
X172240345Y-83026558D01*
X172195245Y-83031000D01*
X171644755Y-83031000D01*
X171599655Y-83026558D01*
X171509452Y-83017674D01*
X171335843Y-82965010D01*
X171175844Y-82879489D01*
X171132271Y-82843729D01*
X171035603Y-82764397D01*
X170956271Y-82667729D01*
X170920511Y-82624156D01*
X170834990Y-82464157D01*
X170782326Y-82290548D01*
X170764544Y-82110000D01*
X170782326Y-81929452D01*
X170834990Y-81755843D01*
X170920511Y-81595844D01*
X170970872Y-81534479D01*
X171035603Y-81455603D01*
X171146321Y-81364740D01*
X171175844Y-81340511D01*
X171335843Y-81254990D01*
X171509452Y-81202326D01*
X171599655Y-81193442D01*
X171644755Y-81189000D01*
X172195245Y-81189000D01*
X172240345Y-81193442D01*
G37*
G36*
X159316778Y-80940547D02*
G01*
X159483224Y-81009491D01*
X159633022Y-81109583D01*
X159760417Y-81236978D01*
X159860509Y-81386776D01*
X159929453Y-81553222D01*
X159964600Y-81729918D01*
X159964600Y-81910082D01*
X159929453Y-82086778D01*
X159860509Y-82253224D01*
X159760417Y-82403022D01*
X159633022Y-82530417D01*
X159483224Y-82630509D01*
X159316778Y-82699453D01*
X159140082Y-82734600D01*
X158959918Y-82734600D01*
X158783222Y-82699453D01*
X158616776Y-82630509D01*
X158466978Y-82530417D01*
X158339583Y-82403022D01*
X158239491Y-82253224D01*
X158170547Y-82086778D01*
X158135400Y-81910082D01*
X158135400Y-81729918D01*
X158170547Y-81553222D01*
X158239491Y-81386776D01*
X158339583Y-81236978D01*
X158466978Y-81109583D01*
X158616776Y-81009491D01*
X158783222Y-80940547D01*
X158959918Y-80905400D01*
X159140082Y-80905400D01*
X159316778Y-80940547D01*
G37*
G36*
X161856778Y-80940547D02*
G01*
X162023224Y-81009491D01*
X162173022Y-81109583D01*
X162300417Y-81236978D01*
X162400509Y-81386776D01*
X162469453Y-81553222D01*
X162504600Y-81729918D01*
X162504600Y-81910082D01*
X162469453Y-82086778D01*
X162400509Y-82253224D01*
X162300417Y-82403022D01*
X162173022Y-82530417D01*
X162023224Y-82630509D01*
X161856778Y-82699453D01*
X161680082Y-82734600D01*
X161499918Y-82734600D01*
X161323222Y-82699453D01*
X161156776Y-82630509D01*
X161006978Y-82530417D01*
X160879583Y-82403022D01*
X160779491Y-82253224D01*
X160710547Y-82086778D01*
X160675400Y-81910082D01*
X160675400Y-81729918D01*
X160710547Y-81553222D01*
X160779491Y-81386776D01*
X160879583Y-81236978D01*
X161006978Y-81109583D01*
X161156776Y-81009491D01*
X161323222Y-80940547D01*
X161499918Y-80905400D01*
X161680082Y-80905400D01*
X161856778Y-80940547D01*
G37*
G36*
X111166768Y-80541511D02*
G01*
X111293844Y-80594148D01*
X111320731Y-80605285D01*
X111459293Y-80697869D01*
X111577131Y-80815707D01*
X111629894Y-80894672D01*
X111669716Y-80954271D01*
X111733489Y-81108232D01*
X111766000Y-81271675D01*
X111766000Y-81438325D01*
X111733489Y-81601768D01*
X111712932Y-81651396D01*
X111669715Y-81755731D01*
X111577131Y-81894293D01*
X111459293Y-82012131D01*
X111320731Y-82104715D01*
X111320730Y-82104716D01*
X111320729Y-82104716D01*
X111166768Y-82168489D01*
X111003325Y-82201000D01*
X110836675Y-82201000D01*
X110673232Y-82168489D01*
X110519271Y-82104716D01*
X110519270Y-82104716D01*
X110519269Y-82104715D01*
X110380707Y-82012131D01*
X110262869Y-81894293D01*
X110170285Y-81755731D01*
X110127068Y-81651396D01*
X110106511Y-81601768D01*
X110074000Y-81438325D01*
X110074000Y-81271675D01*
X110106511Y-81108232D01*
X110170284Y-80954271D01*
X110210107Y-80894672D01*
X110262869Y-80815707D01*
X110380707Y-80697869D01*
X110519269Y-80605285D01*
X110546156Y-80594148D01*
X110673232Y-80541511D01*
X110836675Y-80509000D01*
X111003325Y-80509000D01*
X111166768Y-80541511D01*
G37*
G36*
X37232585Y-78638802D02*
G01*
X37382410Y-78668604D01*
X37664674Y-78785521D01*
X37918705Y-78955259D01*
X38134741Y-79171295D01*
X38304479Y-79425326D01*
X38421396Y-79707590D01*
X38422517Y-79713225D01*
X38452314Y-79863023D01*
X38481000Y-80007240D01*
X38481000Y-80312760D01*
X38421396Y-80612410D01*
X38304479Y-80894674D01*
X38134741Y-81148705D01*
X37918705Y-81364741D01*
X37664674Y-81534479D01*
X37382410Y-81651396D01*
X37232585Y-81681198D01*
X37082761Y-81711000D01*
X36777239Y-81711000D01*
X36627415Y-81681198D01*
X36477590Y-81651396D01*
X36195326Y-81534479D01*
X35941295Y-81364741D01*
X35725259Y-81148705D01*
X35555521Y-80894674D01*
X35438604Y-80612410D01*
X35379000Y-80312760D01*
X35379000Y-80007240D01*
X35407687Y-79863023D01*
X35437483Y-79713225D01*
X35438604Y-79707590D01*
X35555521Y-79425326D01*
X35725259Y-79171295D01*
X35941295Y-78955259D01*
X36195326Y-78785521D01*
X36477590Y-78668604D01*
X36627415Y-78638802D01*
X36777239Y-78609000D01*
X37082761Y-78609000D01*
X37232585Y-78638802D01*
G37*
G36*
X130251000Y-81321000D02*
G01*
X127749000Y-81321000D01*
X127749000Y-78819000D01*
X130251000Y-78819000D01*
X130251000Y-81321000D01*
G37*
G36*
X141248228Y-79021703D02*
G01*
X141403100Y-79085853D01*
X141542481Y-79178985D01*
X141661015Y-79297519D01*
X141754147Y-79436900D01*
X141818297Y-79591772D01*
X141851000Y-79756184D01*
X141851000Y-79923816D01*
X141818297Y-80088228D01*
X141754147Y-80243100D01*
X141661015Y-80382481D01*
X141542481Y-80501015D01*
X141403100Y-80594147D01*
X141248228Y-80658297D01*
X141083816Y-80691000D01*
X140916184Y-80691000D01*
X140751772Y-80658297D01*
X140596900Y-80594147D01*
X140457519Y-80501015D01*
X140338985Y-80382481D01*
X140245853Y-80243100D01*
X140181703Y-80088228D01*
X140149000Y-79923816D01*
X140149000Y-79756184D01*
X140181703Y-79591772D01*
X140245853Y-79436900D01*
X140338985Y-79297519D01*
X140457519Y-79178985D01*
X140596900Y-79085853D01*
X140751772Y-79021703D01*
X140916184Y-78989000D01*
X141083816Y-78989000D01*
X141248228Y-79021703D01*
G37*
G36*
X151408228Y-79021703D02*
G01*
X151563100Y-79085853D01*
X151702481Y-79178985D01*
X151821015Y-79297519D01*
X151914147Y-79436900D01*
X151978297Y-79591772D01*
X152011000Y-79756184D01*
X152011000Y-79923816D01*
X151978297Y-80088228D01*
X151914147Y-80243100D01*
X151821015Y-80382481D01*
X151702481Y-80501015D01*
X151563100Y-80594147D01*
X151408228Y-80658297D01*
X151243816Y-80691000D01*
X151076184Y-80691000D01*
X150911772Y-80658297D01*
X150756900Y-80594147D01*
X150617519Y-80501015D01*
X150498985Y-80382481D01*
X150405853Y-80243100D01*
X150341703Y-80088228D01*
X150309000Y-79923816D01*
X150309000Y-79756184D01*
X150341703Y-79591772D01*
X150405853Y-79436900D01*
X150498985Y-79297519D01*
X150617519Y-79178985D01*
X150756900Y-79085853D01*
X150911772Y-79021703D01*
X151076184Y-78989000D01*
X151243816Y-78989000D01*
X151408228Y-79021703D01*
G37*
G36*
X172240345Y-78653442D02*
G01*
X172330548Y-78662326D01*
X172504157Y-78714990D01*
X172664156Y-78800511D01*
X172707729Y-78836271D01*
X172804397Y-78915603D01*
X172883729Y-79012271D01*
X172919489Y-79055844D01*
X173005010Y-79215843D01*
X173057674Y-79389452D01*
X173075456Y-79570000D01*
X173057674Y-79750548D01*
X173005010Y-79924157D01*
X172919489Y-80084156D01*
X172883729Y-80127729D01*
X172804397Y-80224397D01*
X172707729Y-80303729D01*
X172664156Y-80339489D01*
X172504157Y-80425010D01*
X172330548Y-80477674D01*
X172240345Y-80486558D01*
X172195245Y-80491000D01*
X171644755Y-80491000D01*
X171599655Y-80486558D01*
X171509452Y-80477674D01*
X171335843Y-80425010D01*
X171175844Y-80339489D01*
X171132271Y-80303729D01*
X171035603Y-80224397D01*
X170956271Y-80127729D01*
X170920511Y-80084156D01*
X170834990Y-79924157D01*
X170782326Y-79750548D01*
X170764544Y-79570000D01*
X170782326Y-79389452D01*
X170834990Y-79215843D01*
X170920511Y-79055844D01*
X170956271Y-79012271D01*
X171035603Y-78915603D01*
X171132271Y-78836271D01*
X171175844Y-78800511D01*
X171335843Y-78714990D01*
X171509452Y-78662326D01*
X171599655Y-78653442D01*
X171644755Y-78649000D01*
X172195245Y-78649000D01*
X172240345Y-78653442D01*
G37*
G36*
X161856778Y-78400547D02*
G01*
X162023224Y-78469491D01*
X162173022Y-78569583D01*
X162300417Y-78696978D01*
X162400509Y-78846776D01*
X162469453Y-79013222D01*
X162504600Y-79189918D01*
X162504600Y-79370082D01*
X162469453Y-79546778D01*
X162400509Y-79713224D01*
X162300417Y-79863022D01*
X162173022Y-79990417D01*
X162023224Y-80090509D01*
X161856778Y-80159453D01*
X161680082Y-80194600D01*
X161499918Y-80194600D01*
X161323222Y-80159453D01*
X161156776Y-80090509D01*
X161006978Y-79990417D01*
X160879583Y-79863022D01*
X160779491Y-79713224D01*
X160710547Y-79546778D01*
X160675400Y-79370082D01*
X160675400Y-79189918D01*
X160710547Y-79013222D01*
X160779491Y-78846776D01*
X160879583Y-78696978D01*
X161006978Y-78569583D01*
X161156776Y-78469491D01*
X161323222Y-78400547D01*
X161499918Y-78365400D01*
X161680082Y-78365400D01*
X161856778Y-78400547D01*
G37*
G36*
X159316778Y-78400547D02*
G01*
X159483224Y-78469491D01*
X159633022Y-78569583D01*
X159760417Y-78696978D01*
X159860509Y-78846776D01*
X159929453Y-79013222D01*
X159964600Y-79189918D01*
X159964600Y-79370082D01*
X159929453Y-79546778D01*
X159860509Y-79713224D01*
X159760417Y-79863022D01*
X159633022Y-79990417D01*
X159483224Y-80090509D01*
X159316778Y-80159453D01*
X159140082Y-80194600D01*
X158959918Y-80194600D01*
X158783222Y-80159453D01*
X158616776Y-80090509D01*
X158466978Y-79990417D01*
X158339583Y-79863022D01*
X158239491Y-79713224D01*
X158170547Y-79546778D01*
X158135400Y-79370082D01*
X158135400Y-79189918D01*
X158170547Y-79013222D01*
X158239491Y-78846776D01*
X158339583Y-78696978D01*
X158466978Y-78569583D01*
X158616776Y-78469491D01*
X158783222Y-78400547D01*
X158959918Y-78365400D01*
X159140082Y-78365400D01*
X159316778Y-78400547D01*
G37*
G36*
X91962585Y-75918802D02*
G01*
X92112410Y-75948604D01*
X92394674Y-76065521D01*
X92648705Y-76235259D01*
X92864741Y-76451295D01*
X93034479Y-76705326D01*
X93086154Y-76830082D01*
X93151396Y-76987591D01*
X93211000Y-77287239D01*
X93211000Y-77592761D01*
X93198699Y-77654600D01*
X93151396Y-77892410D01*
X93034479Y-78174674D01*
X92864741Y-78428705D01*
X92648705Y-78644741D01*
X92394674Y-78814479D01*
X92112410Y-78931396D01*
X91992442Y-78955259D01*
X91812761Y-78991000D01*
X91507239Y-78991000D01*
X91327558Y-78955259D01*
X91207590Y-78931396D01*
X90925326Y-78814479D01*
X90671295Y-78644741D01*
X90455259Y-78428705D01*
X90285521Y-78174674D01*
X90168604Y-77892410D01*
X90121301Y-77654600D01*
X90109000Y-77592761D01*
X90109000Y-77287239D01*
X90168604Y-76987591D01*
X90233846Y-76830082D01*
X90285521Y-76705326D01*
X90455259Y-76451295D01*
X90671295Y-76235259D01*
X90925326Y-76065521D01*
X91207590Y-75948604D01*
X91357415Y-75918802D01*
X91507239Y-75889000D01*
X91812761Y-75889000D01*
X91962585Y-75918802D01*
G37*
G36*
X172929561Y-76112966D02*
G01*
X172962383Y-76122923D01*
X172992632Y-76139092D01*
X173019148Y-76160852D01*
X173040908Y-76187368D01*
X173057077Y-76217617D01*
X173067034Y-76250439D01*
X173071000Y-76290713D01*
X173071000Y-77769287D01*
X173067034Y-77809561D01*
X173057077Y-77842383D01*
X173040908Y-77872632D01*
X173019148Y-77899148D01*
X172992632Y-77920908D01*
X172962383Y-77937077D01*
X172929561Y-77947034D01*
X172889287Y-77951000D01*
X170950713Y-77951000D01*
X170910439Y-77947034D01*
X170877617Y-77937077D01*
X170847368Y-77920908D01*
X170820852Y-77899148D01*
X170799092Y-77872632D01*
X170782923Y-77842383D01*
X170772966Y-77809561D01*
X170769000Y-77769287D01*
X170769000Y-76290713D01*
X170772966Y-76250439D01*
X170782923Y-76217617D01*
X170799092Y-76187368D01*
X170820852Y-76160852D01*
X170847368Y-76139092D01*
X170877617Y-76122923D01*
X170910439Y-76112966D01*
X170950713Y-76109000D01*
X172889287Y-76109000D01*
X172929561Y-76112966D01*
G37*
G36*
X159316778Y-75860547D02*
G01*
X159483224Y-75929491D01*
X159633022Y-76029583D01*
X159760417Y-76156978D01*
X159860509Y-76306776D01*
X159929453Y-76473222D01*
X159964600Y-76649918D01*
X159964600Y-76830082D01*
X159929453Y-77006778D01*
X159860509Y-77173224D01*
X159760417Y-77323022D01*
X159633022Y-77450417D01*
X159483224Y-77550509D01*
X159316778Y-77619453D01*
X159140082Y-77654600D01*
X158959918Y-77654600D01*
X158783222Y-77619453D01*
X158616776Y-77550509D01*
X158466978Y-77450417D01*
X158339583Y-77323022D01*
X158239491Y-77173224D01*
X158170547Y-77006778D01*
X158135400Y-76830082D01*
X158135400Y-76649918D01*
X158170547Y-76473222D01*
X158239491Y-76306776D01*
X158339583Y-76156978D01*
X158466978Y-76029583D01*
X158616776Y-75929491D01*
X158783222Y-75860547D01*
X158959918Y-75825400D01*
X159140082Y-75825400D01*
X159316778Y-75860547D01*
G37*
G36*
X161856778Y-75860547D02*
G01*
X162023224Y-75929491D01*
X162173022Y-76029583D01*
X162300417Y-76156978D01*
X162400509Y-76306776D01*
X162469453Y-76473222D01*
X162504600Y-76649918D01*
X162504600Y-76830082D01*
X162469453Y-77006778D01*
X162400509Y-77173224D01*
X162300417Y-77323022D01*
X162173022Y-77450417D01*
X162023224Y-77550509D01*
X161856778Y-77619453D01*
X161680082Y-77654600D01*
X161499918Y-77654600D01*
X161323222Y-77619453D01*
X161156776Y-77550509D01*
X161006978Y-77450417D01*
X160879583Y-77323022D01*
X160779491Y-77173224D01*
X160710547Y-77006778D01*
X160675400Y-76830082D01*
X160675400Y-76649918D01*
X160710547Y-76473222D01*
X160779491Y-76306776D01*
X160879583Y-76156978D01*
X161006978Y-76029583D01*
X161156776Y-75929491D01*
X161323222Y-75860547D01*
X161499918Y-75825400D01*
X161680082Y-75825400D01*
X161856778Y-75860547D01*
G37*
G36*
X161856778Y-73320547D02*
G01*
X162023224Y-73389491D01*
X162173022Y-73489583D01*
X162300417Y-73616978D01*
X162400509Y-73766776D01*
X162469453Y-73933222D01*
X162504600Y-74109918D01*
X162504600Y-74290082D01*
X162469453Y-74466778D01*
X162400509Y-74633224D01*
X162300417Y-74783022D01*
X162173022Y-74910417D01*
X162023224Y-75010509D01*
X161856778Y-75079453D01*
X161680082Y-75114600D01*
X161499918Y-75114600D01*
X161323222Y-75079453D01*
X161156776Y-75010509D01*
X161006978Y-74910417D01*
X160879583Y-74783022D01*
X160779491Y-74633224D01*
X160710547Y-74466778D01*
X160675400Y-74290082D01*
X160675400Y-74109918D01*
X160710547Y-73933222D01*
X160779491Y-73766776D01*
X160879583Y-73616978D01*
X161006978Y-73489583D01*
X161156776Y-73389491D01*
X161323222Y-73320547D01*
X161499918Y-73285400D01*
X161680082Y-73285400D01*
X161856778Y-73320547D01*
G37*
G36*
X159964600Y-75114600D02*
G01*
X158135400Y-75114600D01*
X158135400Y-73285400D01*
X159964600Y-73285400D01*
X159964600Y-75114600D01*
G37*
G36*
X59685331Y-70708211D02*
G01*
X60013092Y-70843974D01*
X60308070Y-71041072D01*
X60558928Y-71291930D01*
X60756026Y-71586908D01*
X60891789Y-71914669D01*
X60961000Y-72262616D01*
X60961000Y-72617384D01*
X60891789Y-72965331D01*
X60756026Y-73293092D01*
X60558928Y-73588070D01*
X60308070Y-73838928D01*
X60013092Y-74036026D01*
X59685331Y-74171789D01*
X59337384Y-74241000D01*
X58982616Y-74241000D01*
X58634669Y-74171789D01*
X58306908Y-74036026D01*
X58011930Y-73838928D01*
X57761072Y-73588070D01*
X57563974Y-73293092D01*
X57428211Y-72965331D01*
X57359000Y-72617384D01*
X57359000Y-72262616D01*
X57428211Y-71914669D01*
X57563974Y-71586908D01*
X57761072Y-71291930D01*
X58011930Y-71041072D01*
X58306908Y-70843974D01*
X58634669Y-70708211D01*
X58982616Y-70639000D01*
X59337384Y-70639000D01*
X59685331Y-70708211D01*
G37*
G36*
X91962585Y-70918802D02*
G01*
X92112410Y-70948604D01*
X92394674Y-71065521D01*
X92648705Y-71235259D01*
X92864741Y-71451295D01*
X93034479Y-71705326D01*
X93140161Y-71960467D01*
X93151396Y-71987591D01*
X93211000Y-72287239D01*
X93211000Y-72592761D01*
X93181198Y-72742585D01*
X93151396Y-72892410D01*
X93034479Y-73174674D01*
X92864741Y-73428705D01*
X92648705Y-73644741D01*
X92394674Y-73814479D01*
X92112410Y-73931396D01*
X91962585Y-73961198D01*
X91812761Y-73991000D01*
X91507239Y-73991000D01*
X91357415Y-73961198D01*
X91207590Y-73931396D01*
X90925326Y-73814479D01*
X90671295Y-73644741D01*
X90455259Y-73428705D01*
X90285521Y-73174674D01*
X90168604Y-72892410D01*
X90138802Y-72742585D01*
X90109000Y-72592761D01*
X90109000Y-72287239D01*
X90168604Y-71987591D01*
X90179839Y-71960467D01*
X90285521Y-71705326D01*
X90455259Y-71451295D01*
X90671295Y-71235259D01*
X90925326Y-71065521D01*
X91207590Y-70948604D01*
X91357415Y-70918802D01*
X91507239Y-70889000D01*
X91812761Y-70889000D01*
X91962585Y-70918802D01*
G37*
G36*
X129364903Y-71367075D02*
G01*
X129568229Y-71451295D01*
X129592571Y-71461378D01*
X129797466Y-71598285D01*
X129971715Y-71772534D01*
X130108622Y-71977429D01*
X130202925Y-72205097D01*
X130251000Y-72446787D01*
X130251000Y-72693213D01*
X130202925Y-72934903D01*
X130108622Y-73162571D01*
X129971715Y-73367466D01*
X129797466Y-73541715D01*
X129592571Y-73678622D01*
X129592570Y-73678623D01*
X129592569Y-73678623D01*
X129364903Y-73772925D01*
X129123214Y-73821000D01*
X128876786Y-73821000D01*
X128635097Y-73772925D01*
X128407431Y-73678623D01*
X128407430Y-73678623D01*
X128407429Y-73678622D01*
X128202534Y-73541715D01*
X128028285Y-73367466D01*
X127891378Y-73162571D01*
X127797075Y-72934903D01*
X127749000Y-72693213D01*
X127749000Y-72446787D01*
X127797075Y-72205097D01*
X127891378Y-71977429D01*
X128028285Y-71772534D01*
X128202534Y-71598285D01*
X128407429Y-71461378D01*
X128431772Y-71451295D01*
X128635097Y-71367075D01*
X128876786Y-71319000D01*
X129123214Y-71319000D01*
X129364903Y-71367075D01*
G37*
G36*
X147951000Y-72461000D02*
G01*
X146049000Y-72461000D01*
X146049000Y-70559000D01*
X147951000Y-70559000D01*
X147951000Y-72461000D01*
G37*
G36*
X149817395Y-70595546D02*
G01*
X149990466Y-70667234D01*
X149990467Y-70667235D01*
X150146227Y-70771310D01*
X150278690Y-70903773D01*
X150278691Y-70903775D01*
X150382766Y-71059534D01*
X150454454Y-71232605D01*
X150491000Y-71416333D01*
X150491000Y-71603667D01*
X150454454Y-71787395D01*
X150382766Y-71960466D01*
X150331081Y-72037818D01*
X150278690Y-72116227D01*
X150146227Y-72248690D01*
X150067818Y-72301081D01*
X149990466Y-72352766D01*
X149817395Y-72424454D01*
X149633667Y-72461000D01*
X149446333Y-72461000D01*
X149262605Y-72424454D01*
X149089534Y-72352766D01*
X149012182Y-72301081D01*
X148933773Y-72248690D01*
X148801310Y-72116227D01*
X148748919Y-72037818D01*
X148697234Y-71960466D01*
X148625546Y-71787395D01*
X148589000Y-71603667D01*
X148589000Y-71416333D01*
X148625546Y-71232605D01*
X148697234Y-71059534D01*
X148801309Y-70903775D01*
X148801310Y-70903773D01*
X148933773Y-70771310D01*
X149089533Y-70667235D01*
X149089534Y-70667234D01*
X149262605Y-70595546D01*
X149446333Y-70559000D01*
X149633667Y-70559000D01*
X149817395Y-70595546D01*
G37*
G36*
X37248433Y-67544893D02*
G01*
X37338657Y-67562839D01*
X37444267Y-67606585D01*
X37593621Y-67668449D01*
X37593622Y-67668450D01*
X37823086Y-67821772D01*
X38018228Y-68016914D01*
X38120675Y-68170237D01*
X38171551Y-68246379D01*
X38277161Y-68501344D01*
X38331000Y-68772012D01*
X38331000Y-69047988D01*
X38277161Y-69318656D01*
X38171551Y-69573621D01*
X38171550Y-69573622D01*
X38018228Y-69803086D01*
X37823086Y-69998228D01*
X37669763Y-70100675D01*
X37593621Y-70151551D01*
X37444267Y-70213415D01*
X37338657Y-70257161D01*
X37248433Y-70275107D01*
X37067988Y-70311000D01*
X36792012Y-70311000D01*
X36611567Y-70275107D01*
X36521343Y-70257161D01*
X36415733Y-70213415D01*
X36266379Y-70151551D01*
X36190237Y-70100675D01*
X36036914Y-69998228D01*
X35841772Y-69803086D01*
X35688450Y-69573622D01*
X35688449Y-69573621D01*
X35582839Y-69318656D01*
X35529000Y-69047988D01*
X35529000Y-68772012D01*
X35582839Y-68501344D01*
X35688449Y-68246379D01*
X35739325Y-68170237D01*
X35841772Y-68016914D01*
X36036914Y-67821772D01*
X36266378Y-67668450D01*
X36266379Y-67668449D01*
X36415733Y-67606585D01*
X36521343Y-67562839D01*
X36611567Y-67544893D01*
X36792012Y-67509000D01*
X37067988Y-67509000D01*
X37248433Y-67544893D01*
G37*
G36*
X167931000Y-64901000D02*
G01*
X166029000Y-64901000D01*
X166029000Y-62999000D01*
X167931000Y-62999000D01*
X167931000Y-64901000D01*
G37*
G36*
X157097395Y-63035546D02*
G01*
X157270466Y-63107234D01*
X157347818Y-63158919D01*
X157426227Y-63211310D01*
X157558690Y-63343773D01*
X157558691Y-63343775D01*
X157662766Y-63499534D01*
X157734454Y-63672605D01*
X157771000Y-63856333D01*
X157771000Y-64043667D01*
X157734454Y-64227395D01*
X157662766Y-64400466D01*
X157611081Y-64477818D01*
X157558690Y-64556227D01*
X157426227Y-64688690D01*
X157347818Y-64741081D01*
X157270466Y-64792766D01*
X157097395Y-64864454D01*
X156913667Y-64901000D01*
X156726333Y-64901000D01*
X156542605Y-64864454D01*
X156369534Y-64792766D01*
X156292182Y-64741081D01*
X156213773Y-64688690D01*
X156081310Y-64556227D01*
X156028919Y-64477818D01*
X155977234Y-64400466D01*
X155905546Y-64227395D01*
X155869000Y-64043667D01*
X155869000Y-63856333D01*
X155905546Y-63672605D01*
X155977234Y-63499534D01*
X156081309Y-63343775D01*
X156081310Y-63343773D01*
X156213773Y-63211310D01*
X156292182Y-63158919D01*
X156369534Y-63107234D01*
X156542605Y-63035546D01*
X156726333Y-62999000D01*
X156913667Y-62999000D01*
X157097395Y-63035546D01*
G37*
G36*
X173978228Y-63041703D02*
G01*
X174133100Y-63105853D01*
X174272481Y-63198985D01*
X174391015Y-63317519D01*
X174484147Y-63456900D01*
X174548297Y-63611772D01*
X174581000Y-63776184D01*
X174581000Y-63943816D01*
X174548297Y-64108228D01*
X174484147Y-64263100D01*
X174391015Y-64402481D01*
X174272481Y-64521015D01*
X174133100Y-64614147D01*
X173978228Y-64678297D01*
X173813816Y-64711000D01*
X173646184Y-64711000D01*
X173481772Y-64678297D01*
X173326900Y-64614147D01*
X173187519Y-64521015D01*
X173068985Y-64402481D01*
X172975853Y-64263100D01*
X172911703Y-64108228D01*
X172879000Y-63943816D01*
X172879000Y-63776184D01*
X172911703Y-63611772D01*
X172975853Y-63456900D01*
X173068985Y-63317519D01*
X173187519Y-63198985D01*
X173326900Y-63105853D01*
X173481772Y-63041703D01*
X173646184Y-63009000D01*
X173813816Y-63009000D01*
X173978228Y-63041703D01*
G37*
G36*
X172081000Y-64711000D02*
G01*
X170379000Y-64711000D01*
X170379000Y-63009000D01*
X172081000Y-63009000D01*
X172081000Y-64711000D01*
G37*
G36*
X76008254Y-60467818D02*
G01*
X76254943Y-60570000D01*
X76381513Y-60622427D01*
X76597459Y-60766718D01*
X76717436Y-60846884D01*
X77003116Y-61132564D01*
X77227574Y-61468489D01*
X77382182Y-61841746D01*
X77461000Y-62237993D01*
X77461000Y-62642007D01*
X77382182Y-63038254D01*
X77266506Y-63317520D01*
X77227573Y-63411513D01*
X77003116Y-63747436D01*
X76717436Y-64033116D01*
X76381513Y-64257573D01*
X76381512Y-64257574D01*
X76381511Y-64257574D01*
X76008254Y-64412182D01*
X75612007Y-64491000D01*
X75207993Y-64491000D01*
X74811746Y-64412182D01*
X74438489Y-64257574D01*
X74438488Y-64257574D01*
X74438487Y-64257573D01*
X74102564Y-64033116D01*
X73816884Y-63747436D01*
X73592427Y-63411513D01*
X73553494Y-63317520D01*
X73437818Y-63038254D01*
X73359000Y-62642007D01*
X73359000Y-62237993D01*
X73437818Y-61841746D01*
X73592426Y-61468489D01*
X73816884Y-61132564D01*
X74102564Y-60846884D01*
X74222541Y-60766718D01*
X74438487Y-60622427D01*
X74565057Y-60570000D01*
X74811746Y-60467818D01*
X75207993Y-60389000D01*
X75612007Y-60389000D01*
X76008254Y-60467818D01*
G37*
G36*
X142145936Y-62111340D02*
G01*
X142244220Y-62121020D01*
X142433381Y-62178401D01*
X142607712Y-62271583D01*
X142760515Y-62396985D01*
X142885917Y-62549788D01*
X142979099Y-62724119D01*
X143036480Y-62913280D01*
X143055855Y-63110000D01*
X143036480Y-63306720D01*
X142979099Y-63495881D01*
X142885917Y-63670212D01*
X142760515Y-63823015D01*
X142607712Y-63948417D01*
X142433381Y-64041599D01*
X142244220Y-64098980D01*
X142150322Y-64108228D01*
X142096795Y-64113500D01*
X141903205Y-64113500D01*
X141849678Y-64108228D01*
X141755780Y-64098980D01*
X141566619Y-64041599D01*
X141392288Y-63948417D01*
X141239485Y-63823015D01*
X141114083Y-63670212D01*
X141020901Y-63495881D01*
X140963520Y-63306720D01*
X140944145Y-63110000D01*
X140963520Y-62913280D01*
X141020901Y-62724119D01*
X141114083Y-62549788D01*
X141239485Y-62396985D01*
X141392288Y-62271583D01*
X141566619Y-62178401D01*
X141755780Y-62121020D01*
X141854064Y-62111340D01*
X141903205Y-62106500D01*
X142096795Y-62106500D01*
X142145936Y-62111340D01*
G37*
G36*
X133802585Y-59148802D02*
G01*
X133952410Y-59178604D01*
X134234674Y-59295521D01*
X134488705Y-59465259D01*
X134704741Y-59681295D01*
X134874479Y-59935326D01*
X134991396Y-60217590D01*
X134991396Y-60217591D01*
X135051000Y-60517239D01*
X135051000Y-60822761D01*
X135024521Y-60955881D01*
X134991396Y-61122410D01*
X134874479Y-61404674D01*
X134704741Y-61658705D01*
X134488705Y-61874741D01*
X134234674Y-62044479D01*
X133952410Y-62161396D01*
X133866920Y-62178401D01*
X133652761Y-62221000D01*
X133347239Y-62221000D01*
X133133080Y-62178401D01*
X133047590Y-62161396D01*
X132765326Y-62044479D01*
X132511295Y-61874741D01*
X132295259Y-61658705D01*
X132125521Y-61404674D01*
X132008604Y-61122410D01*
X131975479Y-60955881D01*
X131949000Y-60822761D01*
X131949000Y-60517239D01*
X132008604Y-60217591D01*
X132008604Y-60217590D01*
X132125521Y-59935326D01*
X132295259Y-59681295D01*
X132511295Y-59465259D01*
X132765326Y-59295521D01*
X133047590Y-59178604D01*
X133197415Y-59148802D01*
X133347239Y-59119000D01*
X133652761Y-59119000D01*
X133802585Y-59148802D01*
G37*
G36*
X111302585Y-59148802D02*
G01*
X111452410Y-59178604D01*
X111734674Y-59295521D01*
X111988705Y-59465259D01*
X112204741Y-59681295D01*
X112374479Y-59935326D01*
X112491396Y-60217590D01*
X112491396Y-60217591D01*
X112551000Y-60517239D01*
X112551000Y-60822761D01*
X112524521Y-60955881D01*
X112491396Y-61122410D01*
X112374479Y-61404674D01*
X112204741Y-61658705D01*
X111988705Y-61874741D01*
X111734674Y-62044479D01*
X111452410Y-62161396D01*
X111366920Y-62178401D01*
X111152761Y-62221000D01*
X110847239Y-62221000D01*
X110633080Y-62178401D01*
X110547590Y-62161396D01*
X110265326Y-62044479D01*
X110011295Y-61874741D01*
X109795259Y-61658705D01*
X109625521Y-61404674D01*
X109508604Y-61122410D01*
X109475479Y-60955881D01*
X109449000Y-60822761D01*
X109449000Y-60517239D01*
X109508604Y-60217591D01*
X109508604Y-60217590D01*
X109625521Y-59935326D01*
X109795259Y-59681295D01*
X110011295Y-59465259D01*
X110265326Y-59295521D01*
X110547590Y-59178604D01*
X110697415Y-59148802D01*
X110847239Y-59119000D01*
X111152761Y-59119000D01*
X111302585Y-59148802D01*
G37*
G36*
X122568433Y-59304893D02*
G01*
X122658657Y-59322839D01*
X122764267Y-59366585D01*
X122913621Y-59428449D01*
X122989763Y-59479325D01*
X123143086Y-59581772D01*
X123338228Y-59776914D01*
X123391729Y-59856985D01*
X123491551Y-60006379D01*
X123492963Y-60009789D01*
X123579038Y-60217590D01*
X123597161Y-60261344D01*
X123651000Y-60532012D01*
X123651000Y-60807988D01*
X123648061Y-60822761D01*
X123597161Y-61078657D01*
X123575806Y-61130211D01*
X123491551Y-61333621D01*
X123491550Y-61333622D01*
X123338228Y-61563086D01*
X123143086Y-61758228D01*
X123018093Y-61841745D01*
X122913621Y-61911551D01*
X122764267Y-61973415D01*
X122658657Y-62017161D01*
X122568433Y-62035107D01*
X122387988Y-62071000D01*
X122112012Y-62071000D01*
X121931567Y-62035107D01*
X121841343Y-62017161D01*
X121735733Y-61973415D01*
X121586379Y-61911551D01*
X121481907Y-61841745D01*
X121356914Y-61758228D01*
X121161772Y-61563086D01*
X121008450Y-61333622D01*
X121008449Y-61333621D01*
X120924194Y-61130211D01*
X120902839Y-61078657D01*
X120851939Y-60822761D01*
X120849000Y-60807988D01*
X120849000Y-60532012D01*
X120902839Y-60261344D01*
X120920963Y-60217590D01*
X121007037Y-60009789D01*
X121008449Y-60006379D01*
X121108271Y-59856985D01*
X121161772Y-59776914D01*
X121356914Y-59581772D01*
X121510237Y-59479325D01*
X121586379Y-59428449D01*
X121735733Y-59366585D01*
X121841343Y-59322839D01*
X121931567Y-59304893D01*
X122112012Y-59269000D01*
X122387988Y-59269000D01*
X122568433Y-59304893D01*
G37*
G36*
X142145936Y-59571340D02*
G01*
X142244220Y-59581020D01*
X142433381Y-59638401D01*
X142607712Y-59731583D01*
X142760515Y-59856985D01*
X142885917Y-60009788D01*
X142979099Y-60184119D01*
X143036480Y-60373280D01*
X143055855Y-60570000D01*
X143036480Y-60766720D01*
X142979099Y-60955881D01*
X142885917Y-61130212D01*
X142760515Y-61283015D01*
X142607712Y-61408417D01*
X142433381Y-61501599D01*
X142244220Y-61558980D01*
X142145936Y-61568660D01*
X142096795Y-61573500D01*
X141903205Y-61573500D01*
X141854064Y-61568660D01*
X141755780Y-61558980D01*
X141566619Y-61501599D01*
X141392288Y-61408417D01*
X141239485Y-61283015D01*
X141114083Y-61130212D01*
X141020901Y-60955881D01*
X140963520Y-60766720D01*
X140944145Y-60570000D01*
X140963520Y-60373280D01*
X141020901Y-60184119D01*
X141114083Y-60009788D01*
X141239485Y-59856985D01*
X141392288Y-59731583D01*
X141566619Y-59638401D01*
X141755780Y-59581020D01*
X141854064Y-59571340D01*
X141903205Y-59566500D01*
X142096795Y-59566500D01*
X142145936Y-59571340D01*
G37*
G36*
X37232585Y-56138802D02*
G01*
X37382410Y-56168604D01*
X37664674Y-56285521D01*
X37918705Y-56455259D01*
X38134741Y-56671295D01*
X38304479Y-56925326D01*
X38421396Y-57207590D01*
X38481000Y-57507240D01*
X38481000Y-57812760D01*
X38421396Y-58112410D01*
X38304479Y-58394674D01*
X38134741Y-58648705D01*
X37918705Y-58864741D01*
X37664674Y-59034479D01*
X37382410Y-59151396D01*
X37245626Y-59178604D01*
X37082761Y-59211000D01*
X36777239Y-59211000D01*
X36614374Y-59178604D01*
X36477590Y-59151396D01*
X36195326Y-59034479D01*
X35941295Y-58864741D01*
X35725259Y-58648705D01*
X35555521Y-58394674D01*
X35438604Y-58112410D01*
X35379000Y-57812760D01*
X35379000Y-57507240D01*
X35438604Y-57207590D01*
X35555521Y-56925326D01*
X35725259Y-56671295D01*
X35941295Y-56455259D01*
X36195326Y-56285521D01*
X36477590Y-56168604D01*
X36627415Y-56138802D01*
X36777239Y-56109000D01*
X37082761Y-56109000D01*
X37232585Y-56138802D01*
G37*
G36*
X143051000Y-59033500D02*
G01*
X140949000Y-59033500D01*
X140949000Y-57026500D01*
X143051000Y-57026500D01*
X143051000Y-59033500D01*
G37*
M02*
