G04 #@! TF.GenerationSoftware,KiCad,Pcbnew,(5.1.7)-1*
G04 #@! TF.CreationDate,2020-12-29T20:40:21+00:00*
G04 #@! TF.ProjectId,KOSMOPSU2,4b4f534d-4f50-4535-9532-2e6b69636164,rev?*
G04 #@! TF.SameCoordinates,Original*
G04 #@! TF.FileFunction,Copper,L2,Bot*
G04 #@! TF.FilePolarity,Positive*
%FSLAX46Y46*%
G04 Gerber Fmt 4.6, Leading zero omitted, Abs format (unit mm)*
G04 Created by KiCad (PCBNEW (5.1.7)-1) date 2020-12-29 20:40:21*
%MOMM*%
%LPD*%
G01*
G04 APERTURE LIST*
G04 #@! TA.AperFunction,ComponentPad*
%ADD10C,1.600000*%
G04 #@! TD*
G04 #@! TA.AperFunction,ComponentPad*
%ADD11R,1.600000X1.600000*%
G04 #@! TD*
G04 #@! TA.AperFunction,ComponentPad*
%ADD12C,4.700000*%
G04 #@! TD*
G04 #@! TA.AperFunction,ComponentPad*
%ADD13C,4.000000*%
G04 #@! TD*
G04 #@! TA.AperFunction,ComponentPad*
%ADD14O,1.800000X1.800000*%
G04 #@! TD*
G04 #@! TA.AperFunction,ComponentPad*
%ADD15R,1.800000X1.800000*%
G04 #@! TD*
G04 #@! TA.AperFunction,ComponentPad*
%ADD16O,2.000000X1.905000*%
G04 #@! TD*
G04 #@! TA.AperFunction,ComponentPad*
%ADD17R,2.000000X1.905000*%
G04 #@! TD*
G04 #@! TA.AperFunction,ComponentPad*
%ADD18R,3.000000X2.500000*%
G04 #@! TD*
G04 #@! TA.AperFunction,ComponentPad*
%ADD19C,3.500000*%
G04 #@! TD*
G04 #@! TA.AperFunction,ComponentPad*
%ADD20C,3.000000*%
G04 #@! TD*
G04 #@! TA.AperFunction,ComponentPad*
%ADD21C,2.400000*%
G04 #@! TD*
G04 #@! TA.AperFunction,ComponentPad*
%ADD22R,2.400000X2.400000*%
G04 #@! TD*
G04 #@! TA.AperFunction,ComponentPad*
%ADD23C,1.590000*%
G04 #@! TD*
G04 #@! TA.AperFunction,ComponentPad*
%ADD24R,1.590000X1.590000*%
G04 #@! TD*
G04 #@! TA.AperFunction,ComponentPad*
%ADD25C,1.800000*%
G04 #@! TD*
G04 #@! TA.AperFunction,ComponentPad*
%ADD26O,4.100000X3.160000*%
G04 #@! TD*
G04 #@! TA.AperFunction,ComponentPad*
%ADD27R,1.727200X1.727200*%
G04 #@! TD*
G04 #@! TA.AperFunction,ComponentPad*
%ADD28O,1.727200X1.727200*%
G04 #@! TD*
G04 #@! TA.AperFunction,ComponentPad*
%ADD29O,2.200000X1.740000*%
G04 #@! TD*
G04 #@! TA.AperFunction,ComponentPad*
%ADD30O,1.600000X1.600000*%
G04 #@! TD*
G04 #@! TA.AperFunction,Conductor*
%ADD31C,0.500000*%
G04 #@! TD*
G04 #@! TA.AperFunction,Conductor*
%ADD32C,3.000000*%
G04 #@! TD*
G04 APERTURE END LIST*
D10*
X172466000Y-65572000D03*
D11*
X172466000Y-68072000D03*
D12*
X174570000Y-120080000D03*
X174580000Y-53190000D03*
X27870000Y-120080000D03*
X27880000Y-53180000D03*
D13*
X134000000Y-114460000D03*
X110500000Y-114460000D03*
X134000000Y-60670000D03*
X110500000Y-60670000D03*
X36930000Y-80660000D03*
X36930000Y-57160000D03*
D10*
X150210000Y-86480000D03*
D11*
X147710000Y-86480000D03*
D10*
X141150000Y-86780000D03*
D11*
X138650000Y-86780000D03*
D10*
X173830000Y-95360000D03*
D11*
X171330000Y-95360000D03*
D14*
X156820000Y-63950000D03*
D15*
X166980000Y-63950000D03*
D14*
X166690000Y-95440000D03*
D15*
X156530000Y-95440000D03*
D16*
X142000000Y-63110000D03*
X142000000Y-60570000D03*
D17*
X142000000Y-58030000D03*
D16*
X142000000Y-117180000D03*
X142000000Y-114640000D03*
D17*
X142000000Y-112100000D03*
D18*
X59160000Y-102440000D03*
D19*
X59160000Y-72440000D03*
D20*
X91660000Y-77440000D03*
X91660000Y-72440000D03*
X91660000Y-102440000D03*
X91660000Y-97440000D03*
D13*
X75410000Y-62440000D03*
X75410000Y-112440000D03*
D21*
X129000000Y-93780000D03*
D22*
X129000000Y-101280000D03*
X129000000Y-80070000D03*
D21*
X129000000Y-72570000D03*
D23*
X110920000Y-81355000D03*
X110920000Y-85220000D03*
X110920000Y-89085000D03*
D24*
X110920000Y-92950000D03*
D25*
X149540000Y-103920000D03*
D15*
X147000000Y-103920000D03*
X147000000Y-71510000D03*
D25*
X149540000Y-71510000D03*
D12*
X30410000Y-93060000D03*
G04 #@! TA.AperFunction,ComponentPad*
G36*
G01*
X38730000Y-118230000D02*
X35130000Y-118230000D01*
G75*
G02*
X34880000Y-117980000I0J250000D01*
G01*
X34880000Y-115320000D01*
G75*
G02*
X35130000Y-115070000I250000J0D01*
G01*
X38730000Y-115070000D01*
G75*
G02*
X38980000Y-115320000I0J-250000D01*
G01*
X38980000Y-117980000D01*
G75*
G02*
X38730000Y-118230000I-250000J0D01*
G01*
G37*
G04 #@! TD.AperFunction*
D26*
X36930000Y-112690000D03*
X36930000Y-108730000D03*
D27*
X159050000Y-74200000D03*
D28*
X161590000Y-74200000D03*
X159050000Y-76740000D03*
X161590000Y-76740000D03*
X159050000Y-79280000D03*
X161590000Y-79280000D03*
X159050000Y-81820000D03*
X161590000Y-81820000D03*
X159050000Y-84360000D03*
X161590000Y-84360000D03*
G04 #@! TA.AperFunction,ComponentPad*
G36*
G01*
X171069999Y-76160000D02*
X172770001Y-76160000D01*
G75*
G02*
X173020000Y-76409999I0J-249999D01*
G01*
X173020000Y-77650001D01*
G75*
G02*
X172770001Y-77900000I-249999J0D01*
G01*
X171069999Y-77900000D01*
G75*
G02*
X170820000Y-77650001I0J249999D01*
G01*
X170820000Y-76409999D01*
G75*
G02*
X171069999Y-76160000I249999J0D01*
G01*
G37*
G04 #@! TD.AperFunction*
D29*
X171920000Y-79570000D03*
X171920000Y-82110000D03*
D30*
X140290000Y-97370000D03*
D10*
X150450000Y-97370000D03*
X140160000Y-77950000D03*
D30*
X150320000Y-77950000D03*
D31*
X130302000Y-110762000D02*
X134000000Y-114460000D01*
X129000000Y-101280000D02*
X130302000Y-102582000D01*
X130302000Y-102582000D02*
X130302000Y-110762000D01*
X133276000Y-72570000D02*
X129000000Y-72570000D01*
X134620000Y-73914000D02*
X133276000Y-72570000D01*
X134620000Y-79118630D02*
X134620000Y-73914000D01*
X141150000Y-86780000D02*
X141150000Y-85648630D01*
X141150000Y-85648630D02*
X134620000Y-79118630D01*
X132788406Y-68781594D02*
X129000000Y-72570000D01*
X132788406Y-63553594D02*
X132788406Y-68781594D01*
X132788406Y-63553594D02*
X134000000Y-60670000D01*
X110920000Y-81355000D02*
X107696000Y-78131000D01*
X107696000Y-63474000D02*
X110500000Y-60670000D01*
X107696000Y-78131000D02*
X107696000Y-63474000D01*
X110920000Y-85220000D02*
X110366000Y-85220000D01*
X97586000Y-72440000D02*
X91660000Y-72440000D01*
X110366000Y-85220000D02*
X97586000Y-72440000D01*
X94410000Y-102440000D02*
X91660000Y-102440000D01*
X110920000Y-89085000D02*
X107765000Y-89085000D01*
X107765000Y-89085000D02*
X94410000Y-102440000D01*
X106934000Y-110894000D02*
X110500000Y-114460000D01*
X110920000Y-92950000D02*
X106934000Y-96936000D01*
X106934000Y-96936000D02*
X106934000Y-110894000D01*
X149540000Y-101788000D02*
X149540000Y-103920000D01*
X148590000Y-100838000D02*
X149540000Y-101788000D01*
X148590000Y-99822000D02*
X148590000Y-100838000D01*
X145442000Y-99822000D02*
X148590000Y-99822000D01*
X140290000Y-97370000D02*
X142990000Y-97370000D01*
X142990000Y-97370000D02*
X145442000Y-99822000D01*
X149540000Y-75835746D02*
X149540000Y-71510000D01*
X150136127Y-76431873D02*
X149540000Y-75835746D01*
X150320000Y-77950000D02*
X150136127Y-76431873D01*
D32*
X59160000Y-72440000D02*
X36930000Y-57160000D01*
D31*
X140160000Y-77950100D02*
X140160000Y-77950500D01*
X150030500Y-86343600D02*
X150210000Y-86480000D01*
X140160000Y-77950000D02*
X140160000Y-77950100D01*
X140160000Y-77950100D02*
X140149400Y-77423000D01*
X159050000Y-80550000D02*
X159050000Y-79280000D01*
X159050000Y-81820000D02*
X159050000Y-80550000D01*
X171920000Y-79570000D02*
X172331900Y-79120600D01*
X172618100Y-79806000D02*
X172331900Y-79120600D01*
X91660000Y-97440000D02*
X91660000Y-77440000D01*
X129000000Y-93780000D02*
X129000000Y-80070000D01*
X161590000Y-79280000D02*
X161590000Y-76740000D01*
X161590000Y-79280000D02*
X161590000Y-81820000D01*
X142340000Y-114300000D02*
X142000000Y-114640000D01*
X145034000Y-114300000D02*
X142340000Y-114300000D01*
X147000000Y-112334000D02*
X145034000Y-114300000D01*
X147000000Y-103920000D02*
X147000000Y-112334000D01*
X139148900Y-87278900D02*
X138650000Y-86780000D01*
X138684000Y-91186000D02*
X140716000Y-91186000D01*
X138684000Y-91186000D02*
X138684000Y-86868000D01*
X140716000Y-91186000D02*
X144018000Y-87884000D01*
X144018000Y-87884000D02*
X144018000Y-84074000D01*
X144018000Y-84074000D02*
X150114000Y-84074000D01*
X150210000Y-84170000D02*
X150210000Y-86480000D01*
X150114000Y-84074000D02*
X150210000Y-84170000D01*
X140160000Y-77950000D02*
X141291370Y-77950000D01*
X144018000Y-80676630D02*
X144018000Y-84074000D01*
X141291370Y-77950000D02*
X144018000Y-80676630D01*
X144751400Y-103920000D02*
X147000000Y-103920000D01*
X142020000Y-103920000D02*
X144751400Y-103920000D01*
X138684000Y-91186000D02*
X138684000Y-100584000D01*
X138684000Y-100584000D02*
X142020000Y-103920000D01*
X152368000Y-81820000D02*
X150114000Y-84074000D01*
X159050000Y-81820000D02*
X152368000Y-81820000D01*
X140500000Y-58030000D02*
X138176000Y-60354000D01*
X142000000Y-58030000D02*
X140500000Y-58030000D01*
X138176000Y-75966000D02*
X140160000Y-77950000D01*
X138176000Y-60354000D02*
X138176000Y-75966000D01*
X174049100Y-69655100D02*
X172466000Y-68072000D01*
X172712500Y-78740000D02*
X175006000Y-78740000D01*
X172331900Y-79120600D02*
X172712500Y-78740000D01*
X175006000Y-78740000D02*
X175006000Y-70612000D01*
X175006000Y-70612000D02*
X174049100Y-69655100D01*
X174629999Y-81157999D02*
X173990000Y-80518000D01*
X173830000Y-95360000D02*
X174629999Y-94560001D01*
X174629999Y-94560001D02*
X174629999Y-81157999D01*
X173520000Y-79570000D02*
X171920000Y-79570000D01*
X173990000Y-80040000D02*
X173520000Y-79570000D01*
X173990000Y-80518000D02*
X173990000Y-80040000D01*
X147000000Y-70110000D02*
X147000000Y-71510000D01*
X147000000Y-66610000D02*
X147000000Y-70110000D01*
X143500000Y-63110000D02*
X147000000Y-66610000D01*
X142000000Y-63110000D02*
X143500000Y-63110000D01*
X164134600Y-63950000D02*
X166980000Y-63950000D01*
X161590000Y-74200000D02*
X164134600Y-69506000D01*
X164134600Y-69506000D02*
X164134600Y-63950000D01*
D32*
X36930000Y-116650000D02*
X36931300Y-116649400D01*
X36931300Y-116649400D02*
X36934900Y-116647900D01*
X36934900Y-116647900D02*
X38083300Y-116143600D01*
X38083300Y-116143600D02*
X38769700Y-115823800D01*
X38769700Y-115823800D02*
X38912100Y-115749500D01*
X38912100Y-115749500D02*
X39574100Y-115342000D01*
X39574100Y-115342000D02*
X49442700Y-108651600D01*
X49442700Y-108651600D02*
X59160000Y-102440000D01*
D31*
X174564300Y-118667800D02*
X174570000Y-120080000D01*
X36930000Y-112690000D02*
X27870000Y-120080000D01*
X174570000Y-53180000D02*
X174580000Y-53190000D01*
X27880000Y-53180000D02*
X174570000Y-53180000D01*
X174570000Y-120080000D02*
X174570000Y-105846000D01*
X176929999Y-55539999D02*
X174580000Y-53190000D01*
X176929999Y-103486001D02*
X176929999Y-55539999D01*
X174570000Y-105846000D02*
X176929999Y-103486001D01*
X30410000Y-55710000D02*
X27880000Y-53180000D01*
X30410000Y-93060000D02*
X30410000Y-55710000D01*
X34712000Y-112690000D02*
X36930000Y-112690000D01*
D32*
X36930000Y-108730000D02*
X36955300Y-108121500D01*
X36955300Y-108121500D02*
X37059900Y-108016900D01*
X37059900Y-108016900D02*
X37059900Y-106893700D01*
X37059900Y-106893700D02*
X36990000Y-106683300D01*
X36990000Y-106683300D02*
X36930000Y-80660000D01*
D31*
X152908000Y-113030000D02*
X152908000Y-99568000D01*
X142000000Y-117180000D02*
X142168000Y-117348000D01*
X148590000Y-117348000D02*
X152908000Y-113030000D01*
X142168000Y-117348000D02*
X148590000Y-117348000D01*
X152648000Y-99568000D02*
X150450000Y-97370000D01*
X152908000Y-99568000D02*
X152648000Y-99568000D01*
X147710000Y-94630000D02*
X150450000Y-97370000D01*
X155060401Y-85223599D02*
X151774000Y-88510000D01*
X159050000Y-84360000D02*
X158186401Y-85223599D01*
X151774000Y-88510000D02*
X147710000Y-88510000D01*
X147710000Y-86480000D02*
X147710000Y-88510000D01*
X158186401Y-85223599D02*
X155060401Y-85223599D01*
X147710000Y-88510000D02*
X147710000Y-94630000D01*
X162084000Y-84360000D02*
X161590000Y-84360000D01*
X164851270Y-87127270D02*
X162084000Y-84360000D01*
X166690000Y-95440000D02*
X164851270Y-93601270D01*
X164851270Y-93601270D02*
X164851270Y-87127270D01*
M02*
