G04 #@! TF.GenerationSoftware,KiCad,Pcbnew,(5.1.7)-1*
G04 #@! TF.CreationDate,2020-12-29T20:40:21+00:00*
G04 #@! TF.ProjectId,KOSMOPSU2,4b4f534d-4f50-4535-9532-2e6b69636164,rev?*
G04 #@! TF.SameCoordinates,Original*
G04 #@! TF.FileFunction,Copper,L1,Top*
G04 #@! TF.FilePolarity,Positive*
%FSLAX46Y46*%
G04 Gerber Fmt 4.6, Leading zero omitted, Abs format (unit mm)*
G04 Created by KiCad (PCBNEW (5.1.7)-1) date 2020-12-29 20:40:21*
%MOMM*%
%LPD*%
G01*
G04 APERTURE LIST*
G04 #@! TA.AperFunction,NonConductor*
%ADD10C,0.300000*%
G04 #@! TD*
G04 #@! TA.AperFunction,ComponentPad*
%ADD11C,1.600000*%
G04 #@! TD*
G04 #@! TA.AperFunction,ComponentPad*
%ADD12R,1.600000X1.600000*%
G04 #@! TD*
G04 #@! TA.AperFunction,ComponentPad*
%ADD13C,4.700000*%
G04 #@! TD*
G04 #@! TA.AperFunction,ComponentPad*
%ADD14C,4.000000*%
G04 #@! TD*
G04 #@! TA.AperFunction,ComponentPad*
%ADD15O,1.800000X1.800000*%
G04 #@! TD*
G04 #@! TA.AperFunction,ComponentPad*
%ADD16R,1.800000X1.800000*%
G04 #@! TD*
G04 #@! TA.AperFunction,ComponentPad*
%ADD17O,2.000000X1.905000*%
G04 #@! TD*
G04 #@! TA.AperFunction,ComponentPad*
%ADD18R,2.000000X1.905000*%
G04 #@! TD*
G04 #@! TA.AperFunction,ComponentPad*
%ADD19R,3.000000X2.500000*%
G04 #@! TD*
G04 #@! TA.AperFunction,ComponentPad*
%ADD20C,3.500000*%
G04 #@! TD*
G04 #@! TA.AperFunction,ComponentPad*
%ADD21C,3.000000*%
G04 #@! TD*
G04 #@! TA.AperFunction,ComponentPad*
%ADD22C,2.400000*%
G04 #@! TD*
G04 #@! TA.AperFunction,ComponentPad*
%ADD23R,2.400000X2.400000*%
G04 #@! TD*
G04 #@! TA.AperFunction,ComponentPad*
%ADD24C,1.590000*%
G04 #@! TD*
G04 #@! TA.AperFunction,ComponentPad*
%ADD25R,1.590000X1.590000*%
G04 #@! TD*
G04 #@! TA.AperFunction,ComponentPad*
%ADD26C,1.800000*%
G04 #@! TD*
G04 #@! TA.AperFunction,ComponentPad*
%ADD27O,4.100000X3.160000*%
G04 #@! TD*
G04 #@! TA.AperFunction,ComponentPad*
%ADD28R,1.727200X1.727200*%
G04 #@! TD*
G04 #@! TA.AperFunction,ComponentPad*
%ADD29O,1.727200X1.727200*%
G04 #@! TD*
G04 #@! TA.AperFunction,ComponentPad*
%ADD30O,2.200000X1.740000*%
G04 #@! TD*
G04 #@! TA.AperFunction,ComponentPad*
%ADD31O,1.600000X1.600000*%
G04 #@! TD*
G04 #@! TA.AperFunction,Conductor*
%ADD32C,0.500000*%
G04 #@! TD*
G04 APERTURE END LIST*
D10*
X33818571Y-93262857D02*
X34318571Y-93262857D01*
X34532857Y-94048571D02*
X33818571Y-94048571D01*
X33818571Y-92548571D01*
X34532857Y-92548571D01*
X35104285Y-93620000D02*
X35818571Y-93620000D01*
X34961428Y-94048571D02*
X35461428Y-92548571D01*
X35961428Y-94048571D01*
X37318571Y-94048571D02*
X36818571Y-93334285D01*
X36461428Y-94048571D02*
X36461428Y-92548571D01*
X37032857Y-92548571D01*
X37175714Y-92620000D01*
X37247142Y-92691428D01*
X37318571Y-92834285D01*
X37318571Y-93048571D01*
X37247142Y-93191428D01*
X37175714Y-93262857D01*
X37032857Y-93334285D01*
X36461428Y-93334285D01*
X37747142Y-92548571D02*
X38604285Y-92548571D01*
X38175714Y-94048571D02*
X38175714Y-92548571D01*
X39104285Y-94048571D02*
X39104285Y-92548571D01*
X39104285Y-93262857D02*
X39961428Y-93262857D01*
X39961428Y-94048571D02*
X39961428Y-92548571D01*
X29692857Y-116121428D02*
X29692857Y-115621428D01*
X30478571Y-115407142D02*
X30478571Y-116121428D01*
X28978571Y-116121428D01*
X28978571Y-115407142D01*
X30050000Y-114835714D02*
X30050000Y-114121428D01*
X30478571Y-114978571D02*
X28978571Y-114478571D01*
X30478571Y-113978571D01*
X30478571Y-112621428D02*
X29764285Y-113121428D01*
X30478571Y-113478571D02*
X28978571Y-113478571D01*
X28978571Y-112907142D01*
X29050000Y-112764285D01*
X29121428Y-112692857D01*
X29264285Y-112621428D01*
X29478571Y-112621428D01*
X29621428Y-112692857D01*
X29692857Y-112764285D01*
X29764285Y-112907142D01*
X29764285Y-113478571D01*
X28978571Y-112192857D02*
X28978571Y-111335714D01*
X30478571Y-111764285D02*
X28978571Y-111764285D01*
X30478571Y-110835714D02*
X28978571Y-110835714D01*
X29692857Y-110835714D02*
X29692857Y-109978571D01*
X30478571Y-109978571D02*
X28978571Y-109978571D01*
X36855714Y-121448571D02*
X36855714Y-119948571D01*
X37712857Y-121448571D01*
X37712857Y-119948571D01*
X38427142Y-120662857D02*
X38927142Y-120662857D01*
X39141428Y-121448571D02*
X38427142Y-121448571D01*
X38427142Y-119948571D01*
X39141428Y-119948571D01*
X39784285Y-119948571D02*
X39784285Y-121162857D01*
X39855714Y-121305714D01*
X39927142Y-121377142D01*
X40070000Y-121448571D01*
X40355714Y-121448571D01*
X40498571Y-121377142D01*
X40570000Y-121305714D01*
X40641428Y-121162857D01*
X40641428Y-119948571D01*
X41141428Y-119948571D02*
X41998571Y-119948571D01*
X41570000Y-121448571D02*
X41570000Y-119948571D01*
X43355714Y-121448571D02*
X42855714Y-120734285D01*
X42498571Y-121448571D02*
X42498571Y-119948571D01*
X43070000Y-119948571D01*
X43212857Y-120020000D01*
X43284285Y-120091428D01*
X43355714Y-120234285D01*
X43355714Y-120448571D01*
X43284285Y-120591428D01*
X43212857Y-120662857D01*
X43070000Y-120734285D01*
X42498571Y-120734285D01*
X43927142Y-121020000D02*
X44641428Y-121020000D01*
X43784285Y-121448571D02*
X44284285Y-119948571D01*
X44784285Y-121448571D01*
X45998571Y-121448571D02*
X45284285Y-121448571D01*
X45284285Y-119948571D01*
X38775714Y-104688571D02*
X38061428Y-104688571D01*
X38061428Y-103188571D01*
X39275714Y-104688571D02*
X39275714Y-103188571D01*
X39775714Y-103188571D02*
X40275714Y-104688571D01*
X40775714Y-103188571D01*
X41275714Y-103902857D02*
X41775714Y-103902857D01*
X41990000Y-104688571D02*
X41275714Y-104688571D01*
X41275714Y-103188571D01*
X41990000Y-103188571D01*
X167976190Y-85467142D02*
X169500000Y-85467142D01*
X168738095Y-86038571D02*
X168738095Y-84895714D01*
X171500000Y-86038571D02*
X170357142Y-86038571D01*
X170928571Y-86038571D02*
X170928571Y-84538571D01*
X170738095Y-84752857D01*
X170547619Y-84895714D01*
X170357142Y-84967142D01*
X172261904Y-84681428D02*
X172357142Y-84610000D01*
X172547619Y-84538571D01*
X173023809Y-84538571D01*
X173214285Y-84610000D01*
X173309523Y-84681428D01*
X173404761Y-84824285D01*
X173404761Y-84967142D01*
X173309523Y-85181428D01*
X172166666Y-86038571D01*
X173404761Y-86038571D01*
X173976190Y-84538571D02*
X174642857Y-86038571D01*
X175309523Y-84538571D01*
X167716190Y-74057142D02*
X169240000Y-74057142D01*
X171240000Y-74628571D02*
X170097142Y-74628571D01*
X170668571Y-74628571D02*
X170668571Y-73128571D01*
X170478095Y-73342857D01*
X170287619Y-73485714D01*
X170097142Y-73557142D01*
X172001904Y-73271428D02*
X172097142Y-73200000D01*
X172287619Y-73128571D01*
X172763809Y-73128571D01*
X172954285Y-73200000D01*
X173049523Y-73271428D01*
X173144761Y-73414285D01*
X173144761Y-73557142D01*
X173049523Y-73771428D01*
X171906666Y-74628571D01*
X173144761Y-74628571D01*
X173716190Y-73128571D02*
X174382857Y-74628571D01*
X175049523Y-73128571D01*
D11*
X172466000Y-65572000D03*
D12*
X172466000Y-68072000D03*
D13*
X174570000Y-120080000D03*
X174580000Y-53190000D03*
X27870000Y-120080000D03*
X27880000Y-53180000D03*
D14*
X134000000Y-114460000D03*
X110500000Y-114460000D03*
X134000000Y-60670000D03*
X110500000Y-60670000D03*
X36930000Y-80660000D03*
X36930000Y-57160000D03*
D11*
X150210000Y-86480000D03*
D12*
X147710000Y-86480000D03*
D11*
X141150000Y-86780000D03*
D12*
X138650000Y-86780000D03*
D11*
X173830000Y-95360000D03*
D12*
X171330000Y-95360000D03*
D15*
X156820000Y-63950000D03*
D16*
X166980000Y-63950000D03*
D15*
X166690000Y-95440000D03*
D16*
X156530000Y-95440000D03*
D17*
X142000000Y-63110000D03*
X142000000Y-60570000D03*
D18*
X142000000Y-58030000D03*
D17*
X142000000Y-117180000D03*
X142000000Y-114640000D03*
D18*
X142000000Y-112100000D03*
D19*
X59160000Y-102440000D03*
D20*
X59160000Y-72440000D03*
D21*
X91660000Y-77440000D03*
X91660000Y-72440000D03*
X91660000Y-102440000D03*
X91660000Y-97440000D03*
D14*
X75410000Y-62440000D03*
X75410000Y-112440000D03*
D22*
X129000000Y-93780000D03*
D23*
X129000000Y-101280000D03*
X129000000Y-80070000D03*
D22*
X129000000Y-72570000D03*
D24*
X110920000Y-81355000D03*
X110920000Y-85220000D03*
X110920000Y-89085000D03*
D25*
X110920000Y-92950000D03*
D26*
X149540000Y-103920000D03*
D16*
X147000000Y-103920000D03*
X147000000Y-71510000D03*
D26*
X149540000Y-71510000D03*
D13*
X30410000Y-93060000D03*
G04 #@! TA.AperFunction,ComponentPad*
G36*
G01*
X38730000Y-118230000D02*
X35130000Y-118230000D01*
G75*
G02*
X34880000Y-117980000I0J250000D01*
G01*
X34880000Y-115320000D01*
G75*
G02*
X35130000Y-115070000I250000J0D01*
G01*
X38730000Y-115070000D01*
G75*
G02*
X38980000Y-115320000I0J-250000D01*
G01*
X38980000Y-117980000D01*
G75*
G02*
X38730000Y-118230000I-250000J0D01*
G01*
G37*
G04 #@! TD.AperFunction*
D27*
X36930000Y-112690000D03*
X36930000Y-108730000D03*
D28*
X159050000Y-74200000D03*
D29*
X161590000Y-74200000D03*
X159050000Y-76740000D03*
X161590000Y-76740000D03*
X159050000Y-79280000D03*
X161590000Y-79280000D03*
X159050000Y-81820000D03*
X161590000Y-81820000D03*
X159050000Y-84360000D03*
X161590000Y-84360000D03*
G04 #@! TA.AperFunction,ComponentPad*
G36*
G01*
X171069999Y-76160000D02*
X172770001Y-76160000D01*
G75*
G02*
X173020000Y-76409999I0J-249999D01*
G01*
X173020000Y-77650001D01*
G75*
G02*
X172770001Y-77900000I-249999J0D01*
G01*
X171069999Y-77900000D01*
G75*
G02*
X170820000Y-77650001I0J249999D01*
G01*
X170820000Y-76409999D01*
G75*
G02*
X171069999Y-76160000I249999J0D01*
G01*
G37*
G04 #@! TD.AperFunction*
D30*
X171920000Y-79570000D03*
X171920000Y-82110000D03*
D31*
X140290000Y-97370000D03*
D11*
X150450000Y-97370000D03*
X140160000Y-77950000D03*
D31*
X150320000Y-77950000D03*
D32*
X136446000Y-112014000D02*
X134000000Y-114460000D01*
X142000000Y-112100000D02*
X141914000Y-112014000D01*
X141914000Y-112014000D02*
X136446000Y-112014000D01*
X170578000Y-95360000D02*
X171330000Y-95360000D01*
X165862000Y-97282000D02*
X168656000Y-97282000D01*
X168656000Y-97282000D02*
X170578000Y-95360000D01*
X164020000Y-95440000D02*
X156530000Y-95440000D01*
X165862000Y-97282000D02*
X164020000Y-95440000D01*
X134840000Y-95440000D02*
X156530000Y-95440000D01*
X129000000Y-101280000D02*
X134840000Y-95440000D01*
X142136000Y-60706000D02*
X142000000Y-60570000D01*
X156820000Y-63950000D02*
X153576000Y-60706000D01*
X153576000Y-60706000D02*
X142136000Y-60706000D01*
X142000000Y-60570000D02*
X141008600Y-60603700D01*
X134980000Y-59690000D02*
X134000000Y-60670000D01*
X140094900Y-59690000D02*
X134980000Y-59690000D01*
X141008600Y-60603700D02*
X140094900Y-59690000D01*
X161590000Y-76740000D02*
X159050000Y-76740000D01*
X161590000Y-81820000D02*
X159050000Y-81820000D01*
X91660000Y-77440000D02*
X94424000Y-74676000D01*
X123606000Y-74676000D02*
X129000000Y-80070000D01*
X94424000Y-74676000D02*
X123606000Y-74676000D01*
X171630000Y-79280000D02*
X171920000Y-79570000D01*
X165319314Y-79248000D02*
X166116000Y-79248000D01*
X161590000Y-76740000D02*
X162811314Y-76740000D01*
X161590000Y-79280000D02*
X166116000Y-79248000D01*
X165209657Y-79421657D02*
X165209657Y-79138343D01*
X161590000Y-81820000D02*
X162811314Y-81820000D01*
X165209657Y-79138343D02*
X165319314Y-79248000D01*
X166387343Y-77741343D02*
X167894000Y-79248000D01*
X163812657Y-77741343D02*
X166387343Y-77741343D01*
X167894000Y-79248000D02*
X171630000Y-79280000D01*
X163812657Y-77741343D02*
X165209657Y-79138343D01*
X162811314Y-76740000D02*
X163812657Y-77741343D01*
X166116000Y-79248000D02*
X167894000Y-79248000D01*
X163717657Y-80913657D02*
X166228343Y-80913657D01*
X166228343Y-80913657D02*
X167894000Y-79248000D01*
X163717657Y-80913657D02*
X165209657Y-79421657D01*
X162811314Y-81820000D02*
X163717657Y-80913657D01*
X136576000Y-81534000D02*
X140160000Y-77950000D01*
X129000000Y-80070000D02*
X130464000Y-81534000D01*
X130464000Y-81534000D02*
X136576000Y-81534000D01*
X160419900Y-74201100D02*
X160413600Y-74200000D01*
X159050000Y-74200000D02*
X160413600Y-74200000D01*
X162811314Y-74200000D02*
X164303314Y-75692000D01*
X161590000Y-74200000D02*
X162811314Y-74200000D01*
X164303314Y-75692000D02*
X167132000Y-75692000D01*
X168470000Y-77030000D02*
X171920000Y-77030000D01*
X167132000Y-75692000D02*
X168470000Y-77030000D01*
X157686400Y-74200000D02*
X159050000Y-74200000D01*
X148290000Y-74200000D02*
X157686400Y-74200000D01*
X147000000Y-72910000D02*
X148290000Y-74200000D01*
X147000000Y-71510000D02*
X147000000Y-72910000D01*
X170902000Y-64008000D02*
X172466000Y-65572000D01*
X166980000Y-63950000D02*
X167038000Y-64008000D01*
X167038000Y-64008000D02*
X170902000Y-64008000D01*
X171246599Y-120080000D02*
X174570000Y-120080000D01*
X67836300Y-120080000D02*
X171246599Y-120080000D01*
X60446300Y-112690000D02*
X67836300Y-120080000D01*
X36930000Y-112690000D02*
X60446300Y-112690000D01*
X30219999Y-122429999D02*
X27870000Y-120080000D01*
X65486301Y-122429999D02*
X30219999Y-122429999D01*
X67836300Y-120080000D02*
X65486301Y-122429999D01*
X34380000Y-112690000D02*
X36930000Y-112690000D01*
X30410000Y-108720000D02*
X34380000Y-112690000D01*
X30410000Y-93060000D02*
X30410000Y-108720000D01*
X159050000Y-84360000D02*
X161590000Y-84360000D01*
X167572000Y-82110000D02*
X171920000Y-82110000D01*
X161590000Y-84360000D02*
X165322000Y-84360000D01*
X165322000Y-84360000D02*
X167572000Y-82110000D01*
M02*
