M48
; DRILL file {KiCad (5.1.7)-1} date 12/29/20 20:40:18
; FORMAT={-:-/ absolute / inch / decimal}
; #@! TF.CreationDate,2020-12-29T20:40:18+00:00
; #@! TF.GenerationSoftware,Kicad,Pcbnew,(5.1.7)-1
; #@! TF.FileFunction,Plated,1,2,PTH
FMAT,2
INCH
T1C0.0315
T2C0.0354
T3C0.0400
T4C0.0417
T5C0.0433
T6C0.0472
T7C0.0669
T8C0.0984
T9C0.1063
%
G90
G05
T1
X5.8154Y-3.4047
X5.9138Y-3.4047
X5.4587Y-3.4165
X5.5571Y-3.4165
X6.79Y-2.5816
X6.79Y-2.68
X5.5232Y-3.8335
X5.9232Y-3.8335
X6.7453Y-3.7543
X6.8437Y-3.7543
X5.5181Y-3.0689
X5.9181Y-3.0689
T2
X5.7874Y-4.0913
X5.8874Y-4.0913
X6.174Y-2.5177
X6.574Y-2.5177
X5.7874Y-2.8154
X5.8874Y-2.8154
X6.1626Y-3.7575
X6.5626Y-3.7575
T3
X6.2618Y-2.9213
X6.2618Y-3.0213
X6.2618Y-3.1213
X6.2618Y-3.2213
X6.2618Y-3.3213
X6.3618Y-2.9213
X6.3618Y-3.0213
X6.3618Y-3.1213
X6.3618Y-3.2213
X6.3618Y-3.3213
T4
X4.3669Y-3.203
X4.3669Y-3.3551
X4.3669Y-3.5073
X4.3669Y-3.6594
T5
X5.5906Y-4.4134
X5.5906Y-4.5134
X5.5906Y-4.6134
X5.5906Y-2.2846
X5.5906Y-2.3846
X5.5906Y-2.4846
T6
X6.7685Y-3.0327
X6.7685Y-3.1327
X6.7685Y-3.2327
X5.0787Y-3.6921
X5.0787Y-3.9874
X5.0787Y-2.8571
X5.0787Y-3.1524
X2.3291Y-2.852
X2.3291Y-4.0331
X3.6087Y-2.852
X3.6087Y-3.0488
X3.6087Y-3.8362
X3.6087Y-4.0331
T7
X1.4539Y-4.2807
X1.4539Y-4.4366
X1.4539Y-4.5925
T8
X4.3504Y-2.3886
X5.2756Y-2.3886
X4.3504Y-4.5063
X5.2756Y-4.5063
X1.4539Y-2.2504
X1.4539Y-3.1756
X2.9689Y-2.4583
X2.9689Y-4.4268
T9
X1.0972Y-4.7276
X1.1972Y-3.6638
X1.0976Y-2.0937
X6.8732Y-2.0941
X6.8728Y-4.7276
T0
M30
