G04 #@! TF.GenerationSoftware,KiCad,Pcbnew,(5.1.7)-1*
G04 #@! TF.CreationDate,2020-12-29T20:40:21+00:00*
G04 #@! TF.ProjectId,KOSMOPSU2,4b4f534d-4f50-4535-9532-2e6b69636164,rev?*
G04 #@! TF.SameCoordinates,Original*
G04 #@! TF.FileFunction,Soldermask,Top*
G04 #@! TF.FilePolarity,Negative*
%FSLAX46Y46*%
G04 Gerber Fmt 4.6, Leading zero omitted, Abs format (unit mm)*
G04 Created by KiCad (PCBNEW (5.1.7)-1) date 2020-12-29 20:40:21*
%MOMM*%
%LPD*%
G01*
G04 APERTURE LIST*
%ADD10C,1.702000*%
%ADD11C,4.802000*%
%ADD12C,4.102000*%
%ADD13O,1.902000X1.902000*%
%ADD14O,2.102000X2.007000*%
%ADD15C,3.602000*%
%ADD16C,3.102000*%
%ADD17C,2.502000*%
%ADD18C,1.692000*%
%ADD19C,1.902000*%
%ADD20O,4.202000X3.262000*%
%ADD21O,1.829200X1.829200*%
%ADD22O,2.302000X1.842000*%
%ADD23O,1.702000X1.702000*%
%ADD24C,0.100000*%
G04 APERTURE END LIST*
D10*
X172466000Y-65572000D03*
G36*
G01*
X173266000Y-68923000D02*
X171666000Y-68923000D01*
G75*
G02*
X171615000Y-68872000I0J51000D01*
G01*
X171615000Y-67272000D01*
G75*
G02*
X171666000Y-67221000I51000J0D01*
G01*
X173266000Y-67221000D01*
G75*
G02*
X173317000Y-67272000I0J-51000D01*
G01*
X173317000Y-68872000D01*
G75*
G02*
X173266000Y-68923000I-51000J0D01*
G01*
G37*
D11*
X174570000Y-120080000D03*
X174580000Y-53190000D03*
X27870000Y-120080000D03*
X27880000Y-53180000D03*
D12*
X134000000Y-114460000D03*
X110500000Y-114460000D03*
X134000000Y-60670000D03*
X110500000Y-60670000D03*
X36930000Y-80660000D03*
X36930000Y-57160000D03*
D10*
X150210000Y-86480000D03*
G36*
G01*
X146859000Y-87280000D02*
X146859000Y-85680000D01*
G75*
G02*
X146910000Y-85629000I51000J0D01*
G01*
X148510000Y-85629000D01*
G75*
G02*
X148561000Y-85680000I0J-51000D01*
G01*
X148561000Y-87280000D01*
G75*
G02*
X148510000Y-87331000I-51000J0D01*
G01*
X146910000Y-87331000D01*
G75*
G02*
X146859000Y-87280000I0J51000D01*
G01*
G37*
X141150000Y-86780000D03*
G36*
G01*
X137799000Y-87580000D02*
X137799000Y-85980000D01*
G75*
G02*
X137850000Y-85929000I51000J0D01*
G01*
X139450000Y-85929000D01*
G75*
G02*
X139501000Y-85980000I0J-51000D01*
G01*
X139501000Y-87580000D01*
G75*
G02*
X139450000Y-87631000I-51000J0D01*
G01*
X137850000Y-87631000D01*
G75*
G02*
X137799000Y-87580000I0J51000D01*
G01*
G37*
X173830000Y-95360000D03*
G36*
G01*
X170479000Y-96160000D02*
X170479000Y-94560000D01*
G75*
G02*
X170530000Y-94509000I51000J0D01*
G01*
X172130000Y-94509000D01*
G75*
G02*
X172181000Y-94560000I0J-51000D01*
G01*
X172181000Y-96160000D01*
G75*
G02*
X172130000Y-96211000I-51000J0D01*
G01*
X170530000Y-96211000D01*
G75*
G02*
X170479000Y-96160000I0J51000D01*
G01*
G37*
D13*
X156820000Y-63950000D03*
G36*
G01*
X167931000Y-63050000D02*
X167931000Y-64850000D01*
G75*
G02*
X167880000Y-64901000I-51000J0D01*
G01*
X166080000Y-64901000D01*
G75*
G02*
X166029000Y-64850000I0J51000D01*
G01*
X166029000Y-63050000D01*
G75*
G02*
X166080000Y-62999000I51000J0D01*
G01*
X167880000Y-62999000D01*
G75*
G02*
X167931000Y-63050000I0J-51000D01*
G01*
G37*
X166690000Y-95440000D03*
G36*
G01*
X155579000Y-96340000D02*
X155579000Y-94540000D01*
G75*
G02*
X155630000Y-94489000I51000J0D01*
G01*
X157430000Y-94489000D01*
G75*
G02*
X157481000Y-94540000I0J-51000D01*
G01*
X157481000Y-96340000D01*
G75*
G02*
X157430000Y-96391000I-51000J0D01*
G01*
X155630000Y-96391000D01*
G75*
G02*
X155579000Y-96340000I0J51000D01*
G01*
G37*
D14*
X142000000Y-63110000D03*
X142000000Y-60570000D03*
G36*
G01*
X141000000Y-57026500D02*
X143000000Y-57026500D01*
G75*
G02*
X143051000Y-57077500I0J-51000D01*
G01*
X143051000Y-58982500D01*
G75*
G02*
X143000000Y-59033500I-51000J0D01*
G01*
X141000000Y-59033500D01*
G75*
G02*
X140949000Y-58982500I0J51000D01*
G01*
X140949000Y-57077500D01*
G75*
G02*
X141000000Y-57026500I51000J0D01*
G01*
G37*
X142000000Y-117180000D03*
X142000000Y-114640000D03*
G36*
G01*
X141000000Y-111096500D02*
X143000000Y-111096500D01*
G75*
G02*
X143051000Y-111147500I0J-51000D01*
G01*
X143051000Y-113052500D01*
G75*
G02*
X143000000Y-113103500I-51000J0D01*
G01*
X141000000Y-113103500D01*
G75*
G02*
X140949000Y-113052500I0J51000D01*
G01*
X140949000Y-111147500D01*
G75*
G02*
X141000000Y-111096500I51000J0D01*
G01*
G37*
G36*
G01*
X60660000Y-103741000D02*
X57660000Y-103741000D01*
G75*
G02*
X57609000Y-103690000I0J51000D01*
G01*
X57609000Y-101190000D01*
G75*
G02*
X57660000Y-101139000I51000J0D01*
G01*
X60660000Y-101139000D01*
G75*
G02*
X60711000Y-101190000I0J-51000D01*
G01*
X60711000Y-103690000D01*
G75*
G02*
X60660000Y-103741000I-51000J0D01*
G01*
G37*
D15*
X59160000Y-72440000D03*
D16*
X91660000Y-77440000D03*
X91660000Y-72440000D03*
X91660000Y-102440000D03*
X91660000Y-97440000D03*
D12*
X75410000Y-62440000D03*
X75410000Y-112440000D03*
D17*
X129000000Y-93780000D03*
G36*
G01*
X130200000Y-102531000D02*
X127800000Y-102531000D01*
G75*
G02*
X127749000Y-102480000I0J51000D01*
G01*
X127749000Y-100080000D01*
G75*
G02*
X127800000Y-100029000I51000J0D01*
G01*
X130200000Y-100029000D01*
G75*
G02*
X130251000Y-100080000I0J-51000D01*
G01*
X130251000Y-102480000D01*
G75*
G02*
X130200000Y-102531000I-51000J0D01*
G01*
G37*
G36*
G01*
X130200000Y-81321000D02*
X127800000Y-81321000D01*
G75*
G02*
X127749000Y-81270000I0J51000D01*
G01*
X127749000Y-78870000D01*
G75*
G02*
X127800000Y-78819000I51000J0D01*
G01*
X130200000Y-78819000D01*
G75*
G02*
X130251000Y-78870000I0J-51000D01*
G01*
X130251000Y-81270000D01*
G75*
G02*
X130200000Y-81321000I-51000J0D01*
G01*
G37*
X129000000Y-72570000D03*
D18*
X110920000Y-81355000D03*
X110920000Y-85220000D03*
X110920000Y-89085000D03*
G36*
G01*
X111715000Y-93796000D02*
X110125000Y-93796000D01*
G75*
G02*
X110074000Y-93745000I0J51000D01*
G01*
X110074000Y-92155000D01*
G75*
G02*
X110125000Y-92104000I51000J0D01*
G01*
X111715000Y-92104000D01*
G75*
G02*
X111766000Y-92155000I0J-51000D01*
G01*
X111766000Y-93745000D01*
G75*
G02*
X111715000Y-93796000I-51000J0D01*
G01*
G37*
D19*
X149540000Y-103920000D03*
G36*
G01*
X146049000Y-104820000D02*
X146049000Y-103020000D01*
G75*
G02*
X146100000Y-102969000I51000J0D01*
G01*
X147900000Y-102969000D01*
G75*
G02*
X147951000Y-103020000I0J-51000D01*
G01*
X147951000Y-104820000D01*
G75*
G02*
X147900000Y-104871000I-51000J0D01*
G01*
X146100000Y-104871000D01*
G75*
G02*
X146049000Y-104820000I0J51000D01*
G01*
G37*
G36*
G01*
X146049000Y-72410000D02*
X146049000Y-70610000D01*
G75*
G02*
X146100000Y-70559000I51000J0D01*
G01*
X147900000Y-70559000D01*
G75*
G02*
X147951000Y-70610000I0J-51000D01*
G01*
X147951000Y-72410000D01*
G75*
G02*
X147900000Y-72461000I-51000J0D01*
G01*
X146100000Y-72461000D01*
G75*
G02*
X146049000Y-72410000I0J51000D01*
G01*
G37*
X149540000Y-71510000D03*
D11*
X30410000Y-93060000D03*
G36*
G01*
X38772931Y-118281000D02*
X35087069Y-118281000D01*
G75*
G02*
X34829000Y-118022931I0J258069D01*
G01*
X34829000Y-115277069D01*
G75*
G02*
X35087069Y-115019000I258069J0D01*
G01*
X38772931Y-115019000D01*
G75*
G02*
X39031000Y-115277069I0J-258069D01*
G01*
X39031000Y-118022931D01*
G75*
G02*
X38772931Y-118281000I-258069J0D01*
G01*
G37*
D20*
X36930000Y-112690000D03*
X36930000Y-108730000D03*
G36*
G01*
X158135400Y-75063600D02*
X158135400Y-73336400D01*
G75*
G02*
X158186400Y-73285400I51000J0D01*
G01*
X159913600Y-73285400D01*
G75*
G02*
X159964600Y-73336400I0J-51000D01*
G01*
X159964600Y-75063600D01*
G75*
G02*
X159913600Y-75114600I-51000J0D01*
G01*
X158186400Y-75114600D01*
G75*
G02*
X158135400Y-75063600I0J51000D01*
G01*
G37*
D21*
X161590000Y-74200000D03*
X159050000Y-76740000D03*
X161590000Y-76740000D03*
X159050000Y-79280000D03*
X161590000Y-79280000D03*
X159050000Y-81820000D03*
X161590000Y-81820000D03*
X159050000Y-84360000D03*
X161590000Y-84360000D03*
G36*
G01*
X171033654Y-76109000D02*
X172806346Y-76109000D01*
G75*
G02*
X173071000Y-76373654I0J-264654D01*
G01*
X173071000Y-77686346D01*
G75*
G02*
X172806346Y-77951000I-264654J0D01*
G01*
X171033654Y-77951000D01*
G75*
G02*
X170769000Y-77686346I0J264654D01*
G01*
X170769000Y-76373654D01*
G75*
G02*
X171033654Y-76109000I264654J0D01*
G01*
G37*
D22*
X171920000Y-79570000D03*
X171920000Y-82110000D03*
D23*
X140290000Y-97370000D03*
D10*
X150450000Y-97370000D03*
X140160000Y-77950000D03*
D23*
X150320000Y-77950000D03*
D24*
G36*
X34830990Y-118022735D02*
G01*
X34835929Y-118072883D01*
X34850501Y-118120921D01*
X34874163Y-118165190D01*
X34906008Y-118203992D01*
X34944810Y-118235837D01*
X34989079Y-118259499D01*
X35037117Y-118274071D01*
X35087265Y-118279010D01*
X35088891Y-118280175D01*
X35088695Y-118282165D01*
X35087069Y-118283000D01*
X34987989Y-118283000D01*
X34987793Y-118282990D01*
X34951953Y-118279460D01*
X34951568Y-118279384D01*
X34923008Y-118270720D01*
X34922646Y-118270570D01*
X34896320Y-118256499D01*
X34895994Y-118256281D01*
X34872927Y-118237350D01*
X34872650Y-118237073D01*
X34853719Y-118214006D01*
X34853501Y-118213680D01*
X34839430Y-118187354D01*
X34839280Y-118186992D01*
X34830616Y-118158432D01*
X34830540Y-118158047D01*
X34827010Y-118122207D01*
X34827000Y-118122011D01*
X34827000Y-118022931D01*
X34828000Y-118021199D01*
X34830000Y-118021199D01*
X34830990Y-118022735D01*
G37*
G36*
X39032165Y-118021305D02*
G01*
X39033000Y-118022931D01*
X39033000Y-118122011D01*
X39032990Y-118122207D01*
X39029460Y-118158047D01*
X39029384Y-118158432D01*
X39020720Y-118186992D01*
X39020570Y-118187354D01*
X39006499Y-118213680D01*
X39006281Y-118214006D01*
X38987350Y-118237073D01*
X38987073Y-118237350D01*
X38964006Y-118256281D01*
X38963680Y-118256499D01*
X38937354Y-118270570D01*
X38936992Y-118270720D01*
X38908432Y-118279384D01*
X38908047Y-118279460D01*
X38872207Y-118282990D01*
X38872011Y-118283000D01*
X38772931Y-118283000D01*
X38771199Y-118282000D01*
X38771199Y-118280000D01*
X38772735Y-118279010D01*
X38822883Y-118274071D01*
X38870921Y-118259499D01*
X38915190Y-118235837D01*
X38953992Y-118203992D01*
X38985837Y-118165190D01*
X39009499Y-118120921D01*
X39024071Y-118072883D01*
X39029010Y-118022735D01*
X39030175Y-118021109D01*
X39032165Y-118021305D01*
G37*
G36*
X35088801Y-115018000D02*
G01*
X35088801Y-115020000D01*
X35087265Y-115020990D01*
X35037117Y-115025929D01*
X34989079Y-115040501D01*
X34944810Y-115064163D01*
X34906008Y-115096008D01*
X34874163Y-115134810D01*
X34850501Y-115179079D01*
X34835929Y-115227117D01*
X34830990Y-115277265D01*
X34829825Y-115278891D01*
X34827835Y-115278695D01*
X34827000Y-115277069D01*
X34827000Y-115177989D01*
X34827010Y-115177793D01*
X34830540Y-115141953D01*
X34830616Y-115141568D01*
X34839280Y-115113008D01*
X34839430Y-115112646D01*
X34853501Y-115086320D01*
X34853719Y-115085994D01*
X34872650Y-115062927D01*
X34872927Y-115062650D01*
X34895994Y-115043719D01*
X34896320Y-115043501D01*
X34922646Y-115029430D01*
X34923008Y-115029280D01*
X34951568Y-115020616D01*
X34951953Y-115020540D01*
X34987793Y-115017010D01*
X34987989Y-115017000D01*
X35087069Y-115017000D01*
X35088801Y-115018000D01*
G37*
G36*
X38872207Y-115017010D02*
G01*
X38908047Y-115020540D01*
X38908432Y-115020616D01*
X38936992Y-115029280D01*
X38937354Y-115029430D01*
X38963680Y-115043501D01*
X38964006Y-115043719D01*
X38987073Y-115062650D01*
X38987350Y-115062927D01*
X39006281Y-115085994D01*
X39006499Y-115086320D01*
X39020570Y-115112646D01*
X39020720Y-115113008D01*
X39029384Y-115141568D01*
X39029460Y-115141953D01*
X39032990Y-115177793D01*
X39033000Y-115177989D01*
X39033000Y-115277069D01*
X39032000Y-115278801D01*
X39030000Y-115278801D01*
X39029010Y-115277265D01*
X39024071Y-115227117D01*
X39009499Y-115179079D01*
X38985837Y-115134810D01*
X38953992Y-115096008D01*
X38915190Y-115064163D01*
X38870921Y-115040501D01*
X38822883Y-115025929D01*
X38772735Y-115020990D01*
X38771109Y-115019825D01*
X38771305Y-115017835D01*
X38772931Y-115017000D01*
X38872011Y-115017000D01*
X38872207Y-115017010D01*
G37*
G36*
X170770990Y-77686150D02*
G01*
X170776055Y-77737582D01*
X170791003Y-77786856D01*
X170815273Y-77832264D01*
X170847936Y-77872064D01*
X170887736Y-77904727D01*
X170933144Y-77928997D01*
X170982418Y-77943945D01*
X171033850Y-77949010D01*
X171035476Y-77950175D01*
X171035280Y-77952165D01*
X171033654Y-77953000D01*
X170950712Y-77953000D01*
X170950516Y-77952990D01*
X170910244Y-77949024D01*
X170909859Y-77948948D01*
X170877035Y-77938990D01*
X170876673Y-77938840D01*
X170846425Y-77922672D01*
X170846099Y-77922454D01*
X170819583Y-77900694D01*
X170819306Y-77900417D01*
X170797546Y-77873901D01*
X170797328Y-77873575D01*
X170781160Y-77843327D01*
X170781010Y-77842965D01*
X170771052Y-77810141D01*
X170770976Y-77809756D01*
X170767010Y-77769484D01*
X170767000Y-77769288D01*
X170767000Y-77686346D01*
X170768000Y-77684614D01*
X170770000Y-77684614D01*
X170770990Y-77686150D01*
G37*
G36*
X173072165Y-77684720D02*
G01*
X173073000Y-77686346D01*
X173073000Y-77769288D01*
X173072990Y-77769484D01*
X173069024Y-77809756D01*
X173068948Y-77810141D01*
X173058990Y-77842965D01*
X173058840Y-77843327D01*
X173042672Y-77873575D01*
X173042454Y-77873901D01*
X173020694Y-77900417D01*
X173020417Y-77900694D01*
X172993901Y-77922454D01*
X172993575Y-77922672D01*
X172963327Y-77938840D01*
X172962965Y-77938990D01*
X172930141Y-77948948D01*
X172929756Y-77949024D01*
X172889484Y-77952990D01*
X172889288Y-77953000D01*
X172806346Y-77953000D01*
X172804614Y-77952000D01*
X172804614Y-77950000D01*
X172806150Y-77949010D01*
X172857582Y-77943945D01*
X172906856Y-77928997D01*
X172952264Y-77904727D01*
X172992064Y-77872064D01*
X173024727Y-77832264D01*
X173048997Y-77786856D01*
X173063945Y-77737582D01*
X173069010Y-77686150D01*
X173070175Y-77684524D01*
X173072165Y-77684720D01*
G37*
G36*
X171035386Y-76108000D02*
G01*
X171035386Y-76110000D01*
X171033850Y-76110990D01*
X170982418Y-76116055D01*
X170933144Y-76131003D01*
X170887736Y-76155273D01*
X170847936Y-76187936D01*
X170815273Y-76227736D01*
X170791003Y-76273144D01*
X170776055Y-76322418D01*
X170770990Y-76373850D01*
X170769825Y-76375476D01*
X170767835Y-76375280D01*
X170767000Y-76373654D01*
X170767000Y-76290712D01*
X170767010Y-76290516D01*
X170770976Y-76250244D01*
X170771052Y-76249859D01*
X170781010Y-76217035D01*
X170781160Y-76216673D01*
X170797328Y-76186425D01*
X170797546Y-76186099D01*
X170819306Y-76159583D01*
X170819583Y-76159306D01*
X170846099Y-76137546D01*
X170846425Y-76137328D01*
X170876673Y-76121160D01*
X170877035Y-76121010D01*
X170909859Y-76111052D01*
X170910244Y-76110976D01*
X170950516Y-76107010D01*
X170950712Y-76107000D01*
X171033654Y-76107000D01*
X171035386Y-76108000D01*
G37*
G36*
X172889484Y-76107010D02*
G01*
X172929756Y-76110976D01*
X172930141Y-76111052D01*
X172962965Y-76121010D01*
X172963327Y-76121160D01*
X172993575Y-76137328D01*
X172993901Y-76137546D01*
X173020417Y-76159306D01*
X173020694Y-76159583D01*
X173042454Y-76186099D01*
X173042672Y-76186425D01*
X173058840Y-76216673D01*
X173058990Y-76217035D01*
X173068948Y-76249859D01*
X173069024Y-76250244D01*
X173072990Y-76290516D01*
X173073000Y-76290712D01*
X173073000Y-76373654D01*
X173072000Y-76375386D01*
X173070000Y-76375386D01*
X173069010Y-76373850D01*
X173063945Y-76322418D01*
X173048997Y-76273144D01*
X173024727Y-76227736D01*
X172992064Y-76187936D01*
X172952264Y-76155273D01*
X172906856Y-76131003D01*
X172857582Y-76116055D01*
X172806150Y-76110990D01*
X172804524Y-76109825D01*
X172804720Y-76107835D01*
X172806346Y-76107000D01*
X172889288Y-76107000D01*
X172889484Y-76107010D01*
G37*
M02*
