G04 #@! TF.GenerationSoftware,KiCad,Pcbnew,(5.1.5)-3*
G04 #@! TF.CreationDate,2020-10-13T08:43:11+01:00*
G04 #@! TF.ProjectId,KOSMOPSU2,4b4f534d-4f50-4535-9532-2e6b69636164,rev?*
G04 #@! TF.SameCoordinates,Original*
G04 #@! TF.FileFunction,Copper,L2,Bot*
G04 #@! TF.FilePolarity,Positive*
%FSLAX46Y46*%
G04 Gerber Fmt 4.6, Leading zero omitted, Abs format (unit mm)*
G04 Created by KiCad (PCBNEW (5.1.5)-3) date 2020-10-13 08:43:11*
%MOMM*%
%LPD*%
G04 APERTURE LIST*
%ADD10C,4.000000*%
%ADD11C,1.600000*%
%ADD12R,1.600000X1.600000*%
%ADD13O,1.800000X1.800000*%
%ADD14R,1.800000X1.800000*%
%ADD15O,2.000000X1.905000*%
%ADD16R,2.000000X1.905000*%
%ADD17R,3.000000X2.500000*%
%ADD18C,3.500000*%
%ADD19C,3.000000*%
%ADD20C,2.400000*%
%ADD21R,2.400000X2.400000*%
%ADD22C,1.590000*%
%ADD23R,1.590000X1.590000*%
%ADD24C,1.800000*%
%ADD25C,4.700000*%
%ADD26C,0.100000*%
%ADD27O,4.100000X3.160000*%
%ADD28R,1.727200X1.727200*%
%ADD29O,1.727200X1.727200*%
%ADD30O,2.200000X1.740000*%
%ADD31O,1.600000X1.600000*%
%ADD32C,0.500000*%
%ADD33C,3.000000*%
%ADD34C,0.254000*%
G04 APERTURE END LIST*
D10*
X36930000Y-80660000D03*
X36930000Y-57160000D03*
X110500000Y-60670000D03*
X134000000Y-60670000D03*
X110500000Y-114460000D03*
X134000000Y-114460000D03*
D11*
X173730000Y-63860000D03*
D12*
X171230000Y-63860000D03*
D11*
X150210000Y-86480000D03*
D12*
X147710000Y-86480000D03*
D11*
X141150000Y-86780000D03*
D12*
X138650000Y-86780000D03*
D11*
X173830000Y-95360000D03*
D12*
X171330000Y-95360000D03*
D13*
X156820000Y-63950000D03*
D14*
X166980000Y-63950000D03*
D13*
X166690000Y-95440000D03*
D14*
X156530000Y-95440000D03*
D15*
X142000000Y-63110000D03*
X142000000Y-60570000D03*
D16*
X142000000Y-58030000D03*
D15*
X142000000Y-117180000D03*
X142000000Y-114640000D03*
D16*
X142000000Y-112100000D03*
D17*
X59160000Y-102440000D03*
D18*
X59160000Y-72440000D03*
D19*
X91660000Y-77440000D03*
X91660000Y-72440000D03*
X91660000Y-102440000D03*
X91660000Y-97440000D03*
D10*
X75410000Y-62440000D03*
X75410000Y-112440000D03*
D20*
X129000000Y-93780000D03*
D21*
X129000000Y-101280000D03*
X129000000Y-80070000D03*
D20*
X129000000Y-72570000D03*
D22*
X110920000Y-81355000D03*
X110920000Y-85220000D03*
X110920000Y-89085000D03*
D23*
X110920000Y-92950000D03*
D24*
X149540000Y-103920000D03*
D14*
X147000000Y-103920000D03*
X147000000Y-71510000D03*
D24*
X149540000Y-71510000D03*
D25*
X30410000Y-93060000D03*
G04 #@! TA.AperFunction,ComponentPad*
D26*
G36*
X38754504Y-115071204D02*
G01*
X38778773Y-115074804D01*
X38802571Y-115080765D01*
X38825671Y-115089030D01*
X38847849Y-115099520D01*
X38868893Y-115112133D01*
X38888598Y-115126747D01*
X38906777Y-115143223D01*
X38923253Y-115161402D01*
X38937867Y-115181107D01*
X38950480Y-115202151D01*
X38960970Y-115224329D01*
X38969235Y-115247429D01*
X38975196Y-115271227D01*
X38978796Y-115295496D01*
X38980000Y-115320000D01*
X38980000Y-117980000D01*
X38978796Y-118004504D01*
X38975196Y-118028773D01*
X38969235Y-118052571D01*
X38960970Y-118075671D01*
X38950480Y-118097849D01*
X38937867Y-118118893D01*
X38923253Y-118138598D01*
X38906777Y-118156777D01*
X38888598Y-118173253D01*
X38868893Y-118187867D01*
X38847849Y-118200480D01*
X38825671Y-118210970D01*
X38802571Y-118219235D01*
X38778773Y-118225196D01*
X38754504Y-118228796D01*
X38730000Y-118230000D01*
X35130000Y-118230000D01*
X35105496Y-118228796D01*
X35081227Y-118225196D01*
X35057429Y-118219235D01*
X35034329Y-118210970D01*
X35012151Y-118200480D01*
X34991107Y-118187867D01*
X34971402Y-118173253D01*
X34953223Y-118156777D01*
X34936747Y-118138598D01*
X34922133Y-118118893D01*
X34909520Y-118097849D01*
X34899030Y-118075671D01*
X34890765Y-118052571D01*
X34884804Y-118028773D01*
X34881204Y-118004504D01*
X34880000Y-117980000D01*
X34880000Y-115320000D01*
X34881204Y-115295496D01*
X34884804Y-115271227D01*
X34890765Y-115247429D01*
X34899030Y-115224329D01*
X34909520Y-115202151D01*
X34922133Y-115181107D01*
X34936747Y-115161402D01*
X34953223Y-115143223D01*
X34971402Y-115126747D01*
X34991107Y-115112133D01*
X35012151Y-115099520D01*
X35034329Y-115089030D01*
X35057429Y-115080765D01*
X35081227Y-115074804D01*
X35105496Y-115071204D01*
X35130000Y-115070000D01*
X38730000Y-115070000D01*
X38754504Y-115071204D01*
G37*
G04 #@! TD.AperFunction*
D27*
X36930000Y-112690000D03*
X36930000Y-108730000D03*
D28*
X159050000Y-74200000D03*
D29*
X161590000Y-74200000D03*
X159050000Y-76740000D03*
X161590000Y-76740000D03*
X159050000Y-79280000D03*
X161590000Y-79280000D03*
X159050000Y-81820000D03*
X161590000Y-81820000D03*
X159050000Y-84360000D03*
X161590000Y-84360000D03*
G04 #@! TA.AperFunction,ComponentPad*
D26*
G36*
X172794505Y-76161204D02*
G01*
X172818773Y-76164804D01*
X172842572Y-76170765D01*
X172865671Y-76179030D01*
X172887850Y-76189520D01*
X172908893Y-76202132D01*
X172928599Y-76216747D01*
X172946777Y-76233223D01*
X172963253Y-76251401D01*
X172977868Y-76271107D01*
X172990480Y-76292150D01*
X173000970Y-76314329D01*
X173009235Y-76337428D01*
X173015196Y-76361227D01*
X173018796Y-76385495D01*
X173020000Y-76409999D01*
X173020000Y-77650001D01*
X173018796Y-77674505D01*
X173015196Y-77698773D01*
X173009235Y-77722572D01*
X173000970Y-77745671D01*
X172990480Y-77767850D01*
X172977868Y-77788893D01*
X172963253Y-77808599D01*
X172946777Y-77826777D01*
X172928599Y-77843253D01*
X172908893Y-77857868D01*
X172887850Y-77870480D01*
X172865671Y-77880970D01*
X172842572Y-77889235D01*
X172818773Y-77895196D01*
X172794505Y-77898796D01*
X172770001Y-77900000D01*
X171069999Y-77900000D01*
X171045495Y-77898796D01*
X171021227Y-77895196D01*
X170997428Y-77889235D01*
X170974329Y-77880970D01*
X170952150Y-77870480D01*
X170931107Y-77857868D01*
X170911401Y-77843253D01*
X170893223Y-77826777D01*
X170876747Y-77808599D01*
X170862132Y-77788893D01*
X170849520Y-77767850D01*
X170839030Y-77745671D01*
X170830765Y-77722572D01*
X170824804Y-77698773D01*
X170821204Y-77674505D01*
X170820000Y-77650001D01*
X170820000Y-76409999D01*
X170821204Y-76385495D01*
X170824804Y-76361227D01*
X170830765Y-76337428D01*
X170839030Y-76314329D01*
X170849520Y-76292150D01*
X170862132Y-76271107D01*
X170876747Y-76251401D01*
X170893223Y-76233223D01*
X170911401Y-76216747D01*
X170931107Y-76202132D01*
X170952150Y-76189520D01*
X170974329Y-76179030D01*
X170997428Y-76170765D01*
X171021227Y-76164804D01*
X171045495Y-76161204D01*
X171069999Y-76160000D01*
X172770001Y-76160000D01*
X172794505Y-76161204D01*
G37*
G04 #@! TD.AperFunction*
D30*
X171920000Y-79570000D03*
X171920000Y-82110000D03*
D31*
X140840000Y-93730000D03*
D11*
X151000000Y-93730000D03*
X141000000Y-79840000D03*
D31*
X151160000Y-79840000D03*
D32*
X134000000Y-60670000D02*
X133500000Y-60670000D01*
X133500000Y-60670000D02*
X129000000Y-65170000D01*
X129000000Y-72570000D02*
X129000000Y-65170000D01*
X129000000Y-72570000D02*
X141150000Y-84720000D01*
X141150000Y-84720000D02*
X141150000Y-86780000D01*
X110960000Y-81315000D02*
X110500000Y-80855000D01*
X110500000Y-80855000D02*
X110500000Y-60670000D01*
X110960000Y-81315000D02*
X111000000Y-81275000D01*
X110920000Y-81355000D02*
X110960000Y-81315000D01*
X110920000Y-85220000D02*
X98140000Y-72440000D01*
X98140000Y-72440000D02*
X91660000Y-72440000D01*
X110920000Y-89085000D02*
X97565000Y-102440000D01*
X97565000Y-102440000D02*
X91660000Y-102440000D01*
X110960000Y-94285000D02*
X110500000Y-94745000D01*
X110500000Y-94745000D02*
X110500000Y-114460000D01*
X110960000Y-94285000D02*
X111000000Y-94325000D01*
X110920000Y-92950000D02*
X110920000Y-94245000D01*
X110920000Y-94245000D02*
X110960000Y-94285000D01*
X140840000Y-93730000D02*
X140840000Y-95030000D01*
X140840000Y-95030000D02*
X149540000Y-103730000D01*
X149540000Y-103730000D02*
X149540000Y-103920000D01*
X151160000Y-79840000D02*
X151160000Y-78540000D01*
X151160000Y-78540000D02*
X149540000Y-76920000D01*
X149540000Y-76920000D02*
X149540000Y-71510000D01*
D33*
X52210000Y-72440000D02*
X36930000Y-57160000D01*
X59160000Y-72440000D02*
X52210000Y-72440000D01*
X52210000Y-72440000D02*
X51710000Y-72440000D01*
D32*
X166980000Y-72090000D02*
X166980000Y-65125200D01*
X161590000Y-74200000D02*
X162954000Y-74200000D01*
X162954000Y-74200000D02*
X165064000Y-72090000D01*
X165064000Y-72090000D02*
X166980000Y-72090000D01*
X147000000Y-70159600D02*
X153646000Y-70159600D01*
X153646000Y-70159600D02*
X157686000Y-74200000D01*
X157686000Y-74200000D02*
X159050000Y-74200000D01*
X147000000Y-71510000D02*
X147000000Y-70159600D01*
X142000000Y-63110000D02*
X142000000Y-64562500D01*
X142000000Y-64562500D02*
X147000000Y-69562500D01*
X147000000Y-69562500D02*
X147000000Y-70159600D01*
X173730000Y-63860000D02*
X172465000Y-65125200D01*
X172465000Y-65125200D02*
X166980000Y-65125200D01*
X166980000Y-63950000D02*
X166980000Y-65125200D01*
X166980000Y-72090000D02*
X171920000Y-77030000D01*
D33*
X36930000Y-116650000D02*
X47950000Y-116650000D01*
X47950000Y-116650000D02*
X59160000Y-105440000D01*
X59160000Y-105440000D02*
X59160000Y-102440000D01*
D32*
X36930000Y-112690000D02*
X30410000Y-106170000D01*
X30410000Y-106170000D02*
X30410000Y-93060000D01*
D33*
X36930000Y-108730000D02*
X36930000Y-80660000D01*
D32*
X165633000Y-89766800D02*
X171920000Y-83480000D01*
X171920000Y-83480000D02*
X171920000Y-82110000D01*
X161590000Y-84360000D02*
X161590000Y-85723600D01*
X161590000Y-85723600D02*
X165633000Y-89766800D01*
X151000000Y-93730000D02*
X147710000Y-90440000D01*
X147710000Y-90440000D02*
X147710000Y-86480000D01*
X142000000Y-117180000D02*
X151000000Y-108180000D01*
X151000000Y-108180000D02*
X151000000Y-93730000D01*
X165633000Y-89766800D02*
X166690000Y-90823600D01*
X166690000Y-90823600D02*
X166690000Y-95440000D01*
D34*
G36*
X176953811Y-122920000D02*
G01*
X79057406Y-122920000D01*
X79065822Y-114200475D01*
X107865000Y-114200475D01*
X107865000Y-114719525D01*
X107966261Y-115228601D01*
X108164893Y-115708141D01*
X108453262Y-116139715D01*
X108820285Y-116506738D01*
X109251859Y-116795107D01*
X109731399Y-116993739D01*
X110240475Y-117095000D01*
X110759525Y-117095000D01*
X111268601Y-116993739D01*
X111748141Y-116795107D01*
X112179715Y-116506738D01*
X112546738Y-116139715D01*
X112835107Y-115708141D01*
X113033739Y-115228601D01*
X113135000Y-114719525D01*
X113135000Y-114200475D01*
X131365000Y-114200475D01*
X131365000Y-114719525D01*
X131466261Y-115228601D01*
X131664893Y-115708141D01*
X131953262Y-116139715D01*
X132320285Y-116506738D01*
X132751859Y-116795107D01*
X133231399Y-116993739D01*
X133740475Y-117095000D01*
X134259525Y-117095000D01*
X134768601Y-116993739D01*
X135248141Y-116795107D01*
X135679715Y-116506738D01*
X136046738Y-116139715D01*
X136335107Y-115708141D01*
X136533739Y-115228601D01*
X136635000Y-114719525D01*
X136635000Y-114200475D01*
X136533739Y-113691399D01*
X136335107Y-113211859D01*
X136046738Y-112780285D01*
X135679715Y-112413262D01*
X135248141Y-112124893D01*
X134768601Y-111926261D01*
X134259525Y-111825000D01*
X133740475Y-111825000D01*
X133231399Y-111926261D01*
X132751859Y-112124893D01*
X132320285Y-112413262D01*
X131953262Y-112780285D01*
X131664893Y-113211859D01*
X131466261Y-113691399D01*
X131365000Y-114200475D01*
X113135000Y-114200475D01*
X113033739Y-113691399D01*
X112835107Y-113211859D01*
X112546738Y-112780285D01*
X112179715Y-112413262D01*
X111748141Y-112124893D01*
X111385000Y-111974475D01*
X111385000Y-104820000D01*
X145461928Y-104820000D01*
X145474188Y-104944482D01*
X145510498Y-105064180D01*
X145569463Y-105174494D01*
X145648815Y-105271185D01*
X145745506Y-105350537D01*
X145855820Y-105409502D01*
X145975518Y-105445812D01*
X146100000Y-105458072D01*
X146714250Y-105455000D01*
X146873000Y-105296250D01*
X146873000Y-104047000D01*
X145623750Y-104047000D01*
X145465000Y-104205750D01*
X145461928Y-104820000D01*
X111385000Y-104820000D01*
X111385000Y-100080000D01*
X127161928Y-100080000D01*
X127161928Y-102480000D01*
X127174188Y-102604482D01*
X127210498Y-102724180D01*
X127269463Y-102834494D01*
X127348815Y-102931185D01*
X127445506Y-103010537D01*
X127555820Y-103069502D01*
X127675518Y-103105812D01*
X127800000Y-103118072D01*
X130200000Y-103118072D01*
X130324482Y-103105812D01*
X130444180Y-103069502D01*
X130554494Y-103010537D01*
X130651185Y-102931185D01*
X130730537Y-102834494D01*
X130789502Y-102724180D01*
X130825812Y-102604482D01*
X130838072Y-102480000D01*
X130838072Y-100080000D01*
X130825812Y-99955518D01*
X130789502Y-99835820D01*
X130730537Y-99725506D01*
X130651185Y-99628815D01*
X130554494Y-99549463D01*
X130444180Y-99490498D01*
X130324482Y-99454188D01*
X130200000Y-99441928D01*
X127800000Y-99441928D01*
X127675518Y-99454188D01*
X127555820Y-99490498D01*
X127445506Y-99549463D01*
X127348815Y-99628815D01*
X127269463Y-99725506D01*
X127210498Y-99835820D01*
X127174188Y-99955518D01*
X127161928Y-100080000D01*
X111385000Y-100080000D01*
X111385000Y-95122704D01*
X111494059Y-95064411D01*
X111501895Y-95057980D01*
X127901626Y-95057980D01*
X128021514Y-95342836D01*
X128345210Y-95503699D01*
X128694069Y-95598322D01*
X129054684Y-95623067D01*
X129413198Y-95576985D01*
X129755833Y-95461846D01*
X129978486Y-95342836D01*
X130098374Y-95057980D01*
X129000000Y-93959605D01*
X127901626Y-95057980D01*
X111501895Y-95057980D01*
X111628817Y-94953817D01*
X111739411Y-94819059D01*
X111821589Y-94665313D01*
X111872195Y-94498490D01*
X111886164Y-94356651D01*
X111959180Y-94334502D01*
X112069494Y-94275537D01*
X112166185Y-94196185D01*
X112245537Y-94099494D01*
X112304502Y-93989180D01*
X112340812Y-93869482D01*
X112344239Y-93834684D01*
X127156933Y-93834684D01*
X127203015Y-94193198D01*
X127318154Y-94535833D01*
X127437164Y-94758486D01*
X127722020Y-94878374D01*
X128820395Y-93780000D01*
X129179605Y-93780000D01*
X130277980Y-94878374D01*
X130562836Y-94758486D01*
X130723699Y-94434790D01*
X130818322Y-94085931D01*
X130843067Y-93725316D01*
X130825503Y-93588665D01*
X139405000Y-93588665D01*
X139405000Y-93871335D01*
X139460147Y-94148574D01*
X139568320Y-94409727D01*
X139725363Y-94644759D01*
X139925241Y-94844637D01*
X139955001Y-94864522D01*
X139955001Y-94986522D01*
X139950719Y-95030000D01*
X139967805Y-95203490D01*
X140018412Y-95370313D01*
X140100590Y-95524059D01*
X140183468Y-95625046D01*
X140183471Y-95625049D01*
X140211184Y-95658817D01*
X140244952Y-95686530D01*
X146943421Y-102385000D01*
X146872998Y-102385000D01*
X146872998Y-102543748D01*
X146714250Y-102385000D01*
X146100000Y-102381928D01*
X145975518Y-102394188D01*
X145855820Y-102430498D01*
X145745506Y-102489463D01*
X145648815Y-102568815D01*
X145569463Y-102665506D01*
X145510498Y-102775820D01*
X145474188Y-102895518D01*
X145461928Y-103020000D01*
X145465000Y-103634250D01*
X145623750Y-103793000D01*
X146873000Y-103793000D01*
X146873000Y-103773000D01*
X147127000Y-103773000D01*
X147127000Y-103793000D01*
X147147000Y-103793000D01*
X147147000Y-104047000D01*
X147127000Y-104047000D01*
X147127000Y-105296250D01*
X147285750Y-105455000D01*
X147900000Y-105458072D01*
X148024482Y-105445812D01*
X148144180Y-105409502D01*
X148254494Y-105350537D01*
X148351185Y-105271185D01*
X148430537Y-105174494D01*
X148489502Y-105064180D01*
X148495056Y-105045873D01*
X148561495Y-105112312D01*
X148812905Y-105280299D01*
X149092257Y-105396011D01*
X149388816Y-105455000D01*
X149691184Y-105455000D01*
X149987743Y-105396011D01*
X150115000Y-105343299D01*
X150115000Y-107813421D01*
X143523121Y-114405301D01*
X143590563Y-114267020D01*
X143519571Y-114048906D01*
X143375969Y-113773077D01*
X143262781Y-113632059D01*
X143354494Y-113583037D01*
X143451185Y-113503685D01*
X143530537Y-113406994D01*
X143589502Y-113296680D01*
X143625812Y-113176982D01*
X143638072Y-113052500D01*
X143638072Y-111147500D01*
X143625812Y-111023018D01*
X143589502Y-110903320D01*
X143530537Y-110793006D01*
X143451185Y-110696315D01*
X143354494Y-110616963D01*
X143244180Y-110557998D01*
X143124482Y-110521688D01*
X143000000Y-110509428D01*
X141000000Y-110509428D01*
X140875518Y-110521688D01*
X140755820Y-110557998D01*
X140645506Y-110616963D01*
X140548815Y-110696315D01*
X140469463Y-110793006D01*
X140410498Y-110903320D01*
X140374188Y-111023018D01*
X140361928Y-111147500D01*
X140361928Y-113052500D01*
X140374188Y-113176982D01*
X140410498Y-113296680D01*
X140469463Y-113406994D01*
X140548815Y-113503685D01*
X140645506Y-113583037D01*
X140737219Y-113632059D01*
X140624031Y-113773077D01*
X140480429Y-114048906D01*
X140409437Y-114267020D01*
X140529406Y-114513000D01*
X141873000Y-114513000D01*
X141873000Y-114493000D01*
X142127000Y-114493000D01*
X142127000Y-114513000D01*
X142147000Y-114513000D01*
X142147000Y-114767000D01*
X142127000Y-114767000D01*
X142127000Y-114787000D01*
X141873000Y-114787000D01*
X141873000Y-114767000D01*
X140529406Y-114767000D01*
X140409437Y-115012980D01*
X140480429Y-115231094D01*
X140624031Y-115506923D01*
X140818685Y-115749437D01*
X141003899Y-115904837D01*
X140824537Y-116052037D01*
X140626155Y-116293765D01*
X140478745Y-116569551D01*
X140387970Y-116868796D01*
X140357319Y-117180000D01*
X140387970Y-117491204D01*
X140478745Y-117790449D01*
X140626155Y-118066235D01*
X140824537Y-118307963D01*
X141066265Y-118506345D01*
X141342051Y-118653755D01*
X141641296Y-118744530D01*
X141874514Y-118767500D01*
X142125486Y-118767500D01*
X142358704Y-118744530D01*
X142657949Y-118653755D01*
X142933735Y-118506345D01*
X143175463Y-118307963D01*
X143373845Y-118066235D01*
X143521255Y-117790449D01*
X143612030Y-117491204D01*
X143642681Y-117180000D01*
X143612030Y-116868796D01*
X143600568Y-116831010D01*
X151595051Y-108836528D01*
X151628817Y-108808817D01*
X151739411Y-108674059D01*
X151821589Y-108520313D01*
X151872195Y-108353490D01*
X151885000Y-108223477D01*
X151885000Y-108223467D01*
X151889281Y-108180001D01*
X151885000Y-108136534D01*
X151885000Y-94864521D01*
X151914759Y-94844637D01*
X152114637Y-94644759D01*
X152184634Y-94540000D01*
X154991928Y-94540000D01*
X154991928Y-96340000D01*
X155004188Y-96464482D01*
X155040498Y-96584180D01*
X155099463Y-96694494D01*
X155178815Y-96791185D01*
X155275506Y-96870537D01*
X155385820Y-96929502D01*
X155505518Y-96965812D01*
X155630000Y-96978072D01*
X157430000Y-96978072D01*
X157554482Y-96965812D01*
X157674180Y-96929502D01*
X157784494Y-96870537D01*
X157881185Y-96791185D01*
X157960537Y-96694494D01*
X158019502Y-96584180D01*
X158055812Y-96464482D01*
X158068072Y-96340000D01*
X158068072Y-94540000D01*
X158055812Y-94415518D01*
X158019502Y-94295820D01*
X157960537Y-94185506D01*
X157881185Y-94088815D01*
X157784494Y-94009463D01*
X157674180Y-93950498D01*
X157554482Y-93914188D01*
X157430000Y-93901928D01*
X155630000Y-93901928D01*
X155505518Y-93914188D01*
X155385820Y-93950498D01*
X155275506Y-94009463D01*
X155178815Y-94088815D01*
X155099463Y-94185506D01*
X155040498Y-94295820D01*
X155004188Y-94415518D01*
X154991928Y-94540000D01*
X152184634Y-94540000D01*
X152271680Y-94409727D01*
X152379853Y-94148574D01*
X152435000Y-93871335D01*
X152435000Y-93588665D01*
X152379853Y-93311426D01*
X152271680Y-93050273D01*
X152114637Y-92815241D01*
X151914759Y-92615363D01*
X151679727Y-92458320D01*
X151418574Y-92350147D01*
X151141335Y-92295000D01*
X150858665Y-92295000D01*
X150823561Y-92301983D01*
X148595000Y-90073422D01*
X148595000Y-87909701D01*
X148634482Y-87905812D01*
X148754180Y-87869502D01*
X148864494Y-87810537D01*
X148961185Y-87731185D01*
X149040537Y-87634494D01*
X149099502Y-87524180D01*
X149115117Y-87472702D01*
X149396903Y-87472702D01*
X149468486Y-87716671D01*
X149723996Y-87837571D01*
X149998184Y-87906300D01*
X150280512Y-87920217D01*
X150560130Y-87878787D01*
X150826292Y-87783603D01*
X150951514Y-87716671D01*
X151023097Y-87472702D01*
X150210000Y-86659605D01*
X149396903Y-87472702D01*
X149115117Y-87472702D01*
X149135812Y-87404482D01*
X149148072Y-87280000D01*
X149148072Y-87272785D01*
X149217298Y-87293097D01*
X150030395Y-86480000D01*
X150389605Y-86480000D01*
X151202702Y-87293097D01*
X151446671Y-87221514D01*
X151567571Y-86966004D01*
X151636300Y-86691816D01*
X151650217Y-86409488D01*
X151608787Y-86129870D01*
X151513603Y-85863708D01*
X151446671Y-85738486D01*
X151202702Y-85666903D01*
X150389605Y-86480000D01*
X150030395Y-86480000D01*
X149217298Y-85666903D01*
X149148072Y-85687215D01*
X149148072Y-85680000D01*
X149135812Y-85555518D01*
X149115118Y-85487298D01*
X149396903Y-85487298D01*
X150210000Y-86300395D01*
X151023097Y-85487298D01*
X150951514Y-85243329D01*
X150696004Y-85122429D01*
X150421816Y-85053700D01*
X150139488Y-85039783D01*
X149859870Y-85081213D01*
X149593708Y-85176397D01*
X149468486Y-85243329D01*
X149396903Y-85487298D01*
X149115118Y-85487298D01*
X149099502Y-85435820D01*
X149040537Y-85325506D01*
X148961185Y-85228815D01*
X148864494Y-85149463D01*
X148754180Y-85090498D01*
X148634482Y-85054188D01*
X148510000Y-85041928D01*
X146910000Y-85041928D01*
X146785518Y-85054188D01*
X146665820Y-85090498D01*
X146555506Y-85149463D01*
X146458815Y-85228815D01*
X146379463Y-85325506D01*
X146320498Y-85435820D01*
X146284188Y-85555518D01*
X146271928Y-85680000D01*
X146271928Y-87280000D01*
X146284188Y-87404482D01*
X146320498Y-87524180D01*
X146379463Y-87634494D01*
X146458815Y-87731185D01*
X146555506Y-87810537D01*
X146665820Y-87869502D01*
X146785518Y-87905812D01*
X146825001Y-87909701D01*
X146825000Y-90396531D01*
X146820719Y-90440000D01*
X146825000Y-90483469D01*
X146825000Y-90483476D01*
X146837805Y-90613489D01*
X146888411Y-90780312D01*
X146970589Y-90934058D01*
X147081183Y-91068817D01*
X147114956Y-91096534D01*
X149571983Y-93553561D01*
X149565000Y-93588665D01*
X149565000Y-93871335D01*
X149620147Y-94148574D01*
X149728320Y-94409727D01*
X149885363Y-94644759D01*
X150085241Y-94844637D01*
X150115001Y-94864522D01*
X150115000Y-102496701D01*
X149987743Y-102443989D01*
X149691184Y-102385000D01*
X149446579Y-102385000D01*
X141830487Y-94768909D01*
X141954637Y-94644759D01*
X142111680Y-94409727D01*
X142219853Y-94148574D01*
X142275000Y-93871335D01*
X142275000Y-93588665D01*
X142219853Y-93311426D01*
X142111680Y-93050273D01*
X141954637Y-92815241D01*
X141754759Y-92615363D01*
X141519727Y-92458320D01*
X141258574Y-92350147D01*
X140981335Y-92295000D01*
X140698665Y-92295000D01*
X140421426Y-92350147D01*
X140160273Y-92458320D01*
X139925241Y-92615363D01*
X139725363Y-92815241D01*
X139568320Y-93050273D01*
X139460147Y-93311426D01*
X139405000Y-93588665D01*
X130825503Y-93588665D01*
X130796985Y-93366802D01*
X130681846Y-93024167D01*
X130562836Y-92801514D01*
X130277980Y-92681626D01*
X129179605Y-93780000D01*
X128820395Y-93780000D01*
X127722020Y-92681626D01*
X127437164Y-92801514D01*
X127276301Y-93125210D01*
X127181678Y-93474069D01*
X127156933Y-93834684D01*
X112344239Y-93834684D01*
X112353072Y-93745000D01*
X112353072Y-92502020D01*
X127901626Y-92502020D01*
X129000000Y-93600395D01*
X130098374Y-92502020D01*
X129978486Y-92217164D01*
X129654790Y-92056301D01*
X129305931Y-91961678D01*
X128945316Y-91936933D01*
X128586802Y-91983015D01*
X128244167Y-92098154D01*
X128021514Y-92217164D01*
X127901626Y-92502020D01*
X112353072Y-92502020D01*
X112353072Y-92155000D01*
X112340812Y-92030518D01*
X112304502Y-91910820D01*
X112245537Y-91800506D01*
X112166185Y-91703815D01*
X112069494Y-91624463D01*
X111959180Y-91565498D01*
X111839482Y-91529188D01*
X111715000Y-91516928D01*
X110125000Y-91516928D01*
X110000518Y-91529188D01*
X109880820Y-91565498D01*
X109770506Y-91624463D01*
X109673815Y-91703815D01*
X109594463Y-91800506D01*
X109535498Y-91910820D01*
X109499188Y-92030518D01*
X109486928Y-92155000D01*
X109486928Y-93745000D01*
X109499188Y-93869482D01*
X109535498Y-93989180D01*
X109594463Y-94099494D01*
X109673815Y-94196185D01*
X109754475Y-94262381D01*
X109678411Y-94404688D01*
X109627805Y-94571511D01*
X109615000Y-94701524D01*
X109615000Y-94701531D01*
X109610719Y-94745000D01*
X109615000Y-94788469D01*
X109615001Y-111974475D01*
X109251859Y-112124893D01*
X108820285Y-112413262D01*
X108453262Y-112780285D01*
X108164893Y-113211859D01*
X107966261Y-113691399D01*
X107865000Y-114200475D01*
X79065822Y-114200475D01*
X79077377Y-102229721D01*
X89525000Y-102229721D01*
X89525000Y-102650279D01*
X89607047Y-103062756D01*
X89767988Y-103451302D01*
X90001637Y-103800983D01*
X90299017Y-104098363D01*
X90648698Y-104332012D01*
X91037244Y-104492953D01*
X91449721Y-104575000D01*
X91870279Y-104575000D01*
X92282756Y-104492953D01*
X92671302Y-104332012D01*
X93020983Y-104098363D01*
X93318363Y-103800983D01*
X93552012Y-103451302D01*
X93604328Y-103325000D01*
X97521531Y-103325000D01*
X97565000Y-103329281D01*
X97608469Y-103325000D01*
X97608477Y-103325000D01*
X97738490Y-103312195D01*
X97905313Y-103261589D01*
X98059059Y-103179411D01*
X98193817Y-103068817D01*
X98221534Y-103035044D01*
X110747814Y-90508765D01*
X110779157Y-90515000D01*
X111060843Y-90515000D01*
X111337116Y-90460046D01*
X111597359Y-90352249D01*
X111831572Y-90195753D01*
X112030753Y-89996572D01*
X112187249Y-89762359D01*
X112295046Y-89502116D01*
X112350000Y-89225843D01*
X112350000Y-88944157D01*
X112295046Y-88667884D01*
X112187249Y-88407641D01*
X112030753Y-88173428D01*
X111831572Y-87974247D01*
X111597359Y-87817751D01*
X111337116Y-87709954D01*
X111060843Y-87655000D01*
X110779157Y-87655000D01*
X110502884Y-87709954D01*
X110242641Y-87817751D01*
X110008428Y-87974247D01*
X109809247Y-88173428D01*
X109652751Y-88407641D01*
X109544954Y-88667884D01*
X109490000Y-88944157D01*
X109490000Y-89225843D01*
X109496235Y-89257186D01*
X97198422Y-101555000D01*
X93604328Y-101555000D01*
X93552012Y-101428698D01*
X93318363Y-101079017D01*
X93020983Y-100781637D01*
X92671302Y-100547988D01*
X92282756Y-100387047D01*
X91870279Y-100305000D01*
X91449721Y-100305000D01*
X91037244Y-100387047D01*
X90648698Y-100547988D01*
X90299017Y-100781637D01*
X90001637Y-101079017D01*
X89767988Y-101428698D01*
X89607047Y-101817244D01*
X89525000Y-102229721D01*
X79077377Y-102229721D01*
X79080560Y-98931653D01*
X90347952Y-98931653D01*
X90503962Y-99247214D01*
X90878745Y-99438020D01*
X91283551Y-99552044D01*
X91702824Y-99584902D01*
X92120451Y-99535334D01*
X92520383Y-99405243D01*
X92816038Y-99247214D01*
X92972048Y-98931653D01*
X91660000Y-97619605D01*
X90347952Y-98931653D01*
X79080560Y-98931653D01*
X79081959Y-97482824D01*
X89515098Y-97482824D01*
X89564666Y-97900451D01*
X89694757Y-98300383D01*
X89852786Y-98596038D01*
X90168347Y-98752048D01*
X91480395Y-97440000D01*
X91839605Y-97440000D01*
X93151653Y-98752048D01*
X93467214Y-98596038D01*
X93658020Y-98221255D01*
X93772044Y-97816449D01*
X93804902Y-97397176D01*
X93755334Y-96979549D01*
X93625243Y-96579617D01*
X93467214Y-96283962D01*
X93151653Y-96127952D01*
X91839605Y-97440000D01*
X91480395Y-97440000D01*
X90168347Y-96127952D01*
X89852786Y-96283962D01*
X89661980Y-96658745D01*
X89547956Y-97063551D01*
X89515098Y-97482824D01*
X79081959Y-97482824D01*
X79083440Y-95948347D01*
X90347952Y-95948347D01*
X91660000Y-97260395D01*
X92972048Y-95948347D01*
X92816038Y-95632786D01*
X92441255Y-95441980D01*
X92036449Y-95327956D01*
X91617176Y-95295098D01*
X91199549Y-95344666D01*
X90799617Y-95474757D01*
X90503962Y-95632786D01*
X90347952Y-95948347D01*
X79083440Y-95948347D01*
X79091516Y-87580000D01*
X137211928Y-87580000D01*
X137224188Y-87704482D01*
X137260498Y-87824180D01*
X137319463Y-87934494D01*
X137398815Y-88031185D01*
X137495506Y-88110537D01*
X137605820Y-88169502D01*
X137725518Y-88205812D01*
X137850000Y-88218072D01*
X138364250Y-88215000D01*
X138523000Y-88056250D01*
X138523000Y-86907000D01*
X137373750Y-86907000D01*
X137215000Y-87065750D01*
X137211928Y-87580000D01*
X79091516Y-87580000D01*
X79099864Y-78931653D01*
X90347952Y-78931653D01*
X90503962Y-79247214D01*
X90878745Y-79438020D01*
X91283551Y-79552044D01*
X91702824Y-79584902D01*
X92120451Y-79535334D01*
X92520383Y-79405243D01*
X92816038Y-79247214D01*
X92972048Y-78931653D01*
X91660000Y-77619605D01*
X90347952Y-78931653D01*
X79099864Y-78931653D01*
X79101263Y-77482824D01*
X89515098Y-77482824D01*
X89564666Y-77900451D01*
X89694757Y-78300383D01*
X89852786Y-78596038D01*
X90168347Y-78752048D01*
X91480395Y-77440000D01*
X91839605Y-77440000D01*
X93151653Y-78752048D01*
X93467214Y-78596038D01*
X93658020Y-78221255D01*
X93772044Y-77816449D01*
X93804902Y-77397176D01*
X93755334Y-76979549D01*
X93625243Y-76579617D01*
X93467214Y-76283962D01*
X93151653Y-76127952D01*
X91839605Y-77440000D01*
X91480395Y-77440000D01*
X90168347Y-76127952D01*
X89852786Y-76283962D01*
X89661980Y-76658745D01*
X89547956Y-77063551D01*
X89515098Y-77482824D01*
X79101263Y-77482824D01*
X79102743Y-75948347D01*
X90347952Y-75948347D01*
X91660000Y-77260395D01*
X92972048Y-75948347D01*
X92816038Y-75632786D01*
X92441255Y-75441980D01*
X92036449Y-75327956D01*
X91617176Y-75295098D01*
X91199549Y-75344666D01*
X90799617Y-75474757D01*
X90503962Y-75632786D01*
X90347952Y-75948347D01*
X79102743Y-75948347D01*
X79106333Y-72229721D01*
X89525000Y-72229721D01*
X89525000Y-72650279D01*
X89607047Y-73062756D01*
X89767988Y-73451302D01*
X90001637Y-73800983D01*
X90299017Y-74098363D01*
X90648698Y-74332012D01*
X91037244Y-74492953D01*
X91449721Y-74575000D01*
X91870279Y-74575000D01*
X92282756Y-74492953D01*
X92671302Y-74332012D01*
X93020983Y-74098363D01*
X93318363Y-73800983D01*
X93552012Y-73451302D01*
X93604328Y-73325000D01*
X97773422Y-73325000D01*
X109496235Y-85047814D01*
X109490000Y-85079157D01*
X109490000Y-85360843D01*
X109544954Y-85637116D01*
X109652751Y-85897359D01*
X109809247Y-86131572D01*
X110008428Y-86330753D01*
X110242641Y-86487249D01*
X110502884Y-86595046D01*
X110779157Y-86650000D01*
X111060843Y-86650000D01*
X111337116Y-86595046D01*
X111597359Y-86487249D01*
X111831572Y-86330753D01*
X112030753Y-86131572D01*
X112132030Y-85980000D01*
X137211928Y-85980000D01*
X137215000Y-86494250D01*
X137373750Y-86653000D01*
X138523000Y-86653000D01*
X138523000Y-85503750D01*
X138364250Y-85345000D01*
X137850000Y-85341928D01*
X137725518Y-85354188D01*
X137605820Y-85390498D01*
X137495506Y-85449463D01*
X137398815Y-85528815D01*
X137319463Y-85625506D01*
X137260498Y-85735820D01*
X137224188Y-85855518D01*
X137211928Y-85980000D01*
X112132030Y-85980000D01*
X112187249Y-85897359D01*
X112295046Y-85637116D01*
X112350000Y-85360843D01*
X112350000Y-85079157D01*
X112295046Y-84802884D01*
X112187249Y-84542641D01*
X112030753Y-84308428D01*
X111831572Y-84109247D01*
X111597359Y-83952751D01*
X111337116Y-83844954D01*
X111060843Y-83790000D01*
X110779157Y-83790000D01*
X110747814Y-83796235D01*
X98796534Y-71844956D01*
X98768817Y-71811183D01*
X98634059Y-71700589D01*
X98480313Y-71618411D01*
X98313490Y-71567805D01*
X98183477Y-71555000D01*
X98183469Y-71555000D01*
X98140000Y-71550719D01*
X98096531Y-71555000D01*
X93604328Y-71555000D01*
X93552012Y-71428698D01*
X93318363Y-71079017D01*
X93020983Y-70781637D01*
X92671302Y-70547988D01*
X92282756Y-70387047D01*
X91870279Y-70305000D01*
X91449721Y-70305000D01*
X91037244Y-70387047D01*
X90648698Y-70547988D01*
X90299017Y-70781637D01*
X90001637Y-71079017D01*
X89767988Y-71428698D01*
X89607047Y-71817244D01*
X89525000Y-72229721D01*
X79106333Y-72229721D01*
X79117742Y-60410475D01*
X107865000Y-60410475D01*
X107865000Y-60929525D01*
X107966261Y-61438601D01*
X108164893Y-61918141D01*
X108453262Y-62349715D01*
X108820285Y-62716738D01*
X109251859Y-63005107D01*
X109615001Y-63155525D01*
X109615000Y-80768779D01*
X109544954Y-80937884D01*
X109490000Y-81214157D01*
X109490000Y-81495843D01*
X109544954Y-81772116D01*
X109652751Y-82032359D01*
X109809247Y-82266572D01*
X110008428Y-82465753D01*
X110242641Y-82622249D01*
X110502884Y-82730046D01*
X110779157Y-82785000D01*
X111060843Y-82785000D01*
X111337116Y-82730046D01*
X111597359Y-82622249D01*
X111831572Y-82465753D01*
X112030753Y-82266572D01*
X112187249Y-82032359D01*
X112295046Y-81772116D01*
X112350000Y-81495843D01*
X112350000Y-81270000D01*
X127161928Y-81270000D01*
X127174188Y-81394482D01*
X127210498Y-81514180D01*
X127269463Y-81624494D01*
X127348815Y-81721185D01*
X127445506Y-81800537D01*
X127555820Y-81859502D01*
X127675518Y-81895812D01*
X127800000Y-81908072D01*
X128714250Y-81905000D01*
X128873000Y-81746250D01*
X128873000Y-80197000D01*
X129127000Y-80197000D01*
X129127000Y-81746250D01*
X129285750Y-81905000D01*
X130200000Y-81908072D01*
X130324482Y-81895812D01*
X130444180Y-81859502D01*
X130554494Y-81800537D01*
X130651185Y-81721185D01*
X130730537Y-81624494D01*
X130789502Y-81514180D01*
X130825812Y-81394482D01*
X130838072Y-81270000D01*
X130835000Y-80355750D01*
X130676250Y-80197000D01*
X129127000Y-80197000D01*
X128873000Y-80197000D01*
X127323750Y-80197000D01*
X127165000Y-80355750D01*
X127161928Y-81270000D01*
X112350000Y-81270000D01*
X112350000Y-81214157D01*
X112295046Y-80937884D01*
X112187249Y-80677641D01*
X112030753Y-80443428D01*
X111831572Y-80244247D01*
X111597359Y-80087751D01*
X111385000Y-79999788D01*
X111385000Y-78870000D01*
X127161928Y-78870000D01*
X127165000Y-79784250D01*
X127323750Y-79943000D01*
X128873000Y-79943000D01*
X128873000Y-78393750D01*
X129127000Y-78393750D01*
X129127000Y-79943000D01*
X130676250Y-79943000D01*
X130835000Y-79784250D01*
X130838072Y-78870000D01*
X130825812Y-78745518D01*
X130789502Y-78625820D01*
X130730537Y-78515506D01*
X130651185Y-78418815D01*
X130554494Y-78339463D01*
X130444180Y-78280498D01*
X130324482Y-78244188D01*
X130200000Y-78231928D01*
X129285750Y-78235000D01*
X129127000Y-78393750D01*
X128873000Y-78393750D01*
X128714250Y-78235000D01*
X127800000Y-78231928D01*
X127675518Y-78244188D01*
X127555820Y-78280498D01*
X127445506Y-78339463D01*
X127348815Y-78418815D01*
X127269463Y-78515506D01*
X127210498Y-78625820D01*
X127174188Y-78745518D01*
X127161928Y-78870000D01*
X111385000Y-78870000D01*
X111385000Y-72389268D01*
X127165000Y-72389268D01*
X127165000Y-72750732D01*
X127235518Y-73105250D01*
X127373844Y-73439199D01*
X127574662Y-73739744D01*
X127830256Y-73995338D01*
X128130801Y-74196156D01*
X128464750Y-74334482D01*
X128819268Y-74405000D01*
X129180732Y-74405000D01*
X129516611Y-74338189D01*
X140265000Y-85086579D01*
X140265000Y-85645478D01*
X140235241Y-85665363D01*
X140068661Y-85831943D01*
X140039502Y-85735820D01*
X139980537Y-85625506D01*
X139901185Y-85528815D01*
X139804494Y-85449463D01*
X139694180Y-85390498D01*
X139574482Y-85354188D01*
X139450000Y-85341928D01*
X138935750Y-85345000D01*
X138777000Y-85503750D01*
X138777000Y-86653000D01*
X138797000Y-86653000D01*
X138797000Y-86907000D01*
X138777000Y-86907000D01*
X138777000Y-88056250D01*
X138935750Y-88215000D01*
X139450000Y-88218072D01*
X139574482Y-88205812D01*
X139694180Y-88169502D01*
X139804494Y-88110537D01*
X139901185Y-88031185D01*
X139980537Y-87934494D01*
X140039502Y-87824180D01*
X140068661Y-87728057D01*
X140235241Y-87894637D01*
X140470273Y-88051680D01*
X140731426Y-88159853D01*
X141008665Y-88215000D01*
X141291335Y-88215000D01*
X141568574Y-88159853D01*
X141829727Y-88051680D01*
X142064759Y-87894637D01*
X142264637Y-87694759D01*
X142421680Y-87459727D01*
X142529853Y-87198574D01*
X142585000Y-86921335D01*
X142585000Y-86638665D01*
X142529853Y-86361426D01*
X142421680Y-86100273D01*
X142264637Y-85865241D01*
X142064759Y-85665363D01*
X142035000Y-85645479D01*
X142035000Y-84763469D01*
X142039281Y-84720000D01*
X142035000Y-84676531D01*
X142035000Y-84676523D01*
X142022195Y-84546510D01*
X141971589Y-84379687D01*
X141889411Y-84225941D01*
X141878299Y-84212401D01*
X157551400Y-84212401D01*
X157551400Y-84507599D01*
X157608990Y-84797125D01*
X157721958Y-85069853D01*
X157885961Y-85315302D01*
X158094698Y-85524039D01*
X158340147Y-85688042D01*
X158612875Y-85801010D01*
X158902401Y-85858600D01*
X159197599Y-85858600D01*
X159487125Y-85801010D01*
X159759853Y-85688042D01*
X160005302Y-85524039D01*
X160214039Y-85315302D01*
X160320000Y-85156719D01*
X160425961Y-85315302D01*
X160634698Y-85524039D01*
X160705001Y-85571014D01*
X160705001Y-85680113D01*
X160700719Y-85723579D01*
X160705001Y-85767068D01*
X160705001Y-85767077D01*
X160708039Y-85797925D01*
X160717801Y-85897068D01*
X160717805Y-85897082D01*
X160717806Y-85897090D01*
X160736186Y-85957680D01*
X160768403Y-86063893D01*
X160768410Y-86063906D01*
X160768412Y-86063913D01*
X160799031Y-86121198D01*
X160850577Y-86217640D01*
X160850585Y-86217650D01*
X160850590Y-86217659D01*
X160892055Y-86268184D01*
X160933453Y-86318630D01*
X160933467Y-86318644D01*
X160961184Y-86352417D01*
X160994940Y-86380120D01*
X164976458Y-90361835D01*
X165004173Y-90395607D01*
X165037937Y-90423317D01*
X165037979Y-90423352D01*
X165805000Y-91190228D01*
X165805001Y-94185209D01*
X165711495Y-94247688D01*
X165497688Y-94461495D01*
X165329701Y-94712905D01*
X165213989Y-94992257D01*
X165155000Y-95288816D01*
X165155000Y-95591184D01*
X165213989Y-95887743D01*
X165329701Y-96167095D01*
X165497688Y-96418505D01*
X165711495Y-96632312D01*
X165962905Y-96800299D01*
X166242257Y-96916011D01*
X166538816Y-96975000D01*
X166841184Y-96975000D01*
X167137743Y-96916011D01*
X167417095Y-96800299D01*
X167668505Y-96632312D01*
X167882312Y-96418505D01*
X168050299Y-96167095D01*
X168166011Y-95887743D01*
X168225000Y-95591184D01*
X168225000Y-95288816D01*
X168166011Y-94992257D01*
X168050299Y-94712905D01*
X167948132Y-94560000D01*
X169891928Y-94560000D01*
X169891928Y-96160000D01*
X169904188Y-96284482D01*
X169940498Y-96404180D01*
X169999463Y-96514494D01*
X170078815Y-96611185D01*
X170175506Y-96690537D01*
X170285820Y-96749502D01*
X170405518Y-96785812D01*
X170530000Y-96798072D01*
X172130000Y-96798072D01*
X172254482Y-96785812D01*
X172374180Y-96749502D01*
X172484494Y-96690537D01*
X172581185Y-96611185D01*
X172660537Y-96514494D01*
X172719502Y-96404180D01*
X172735117Y-96352702D01*
X173016903Y-96352702D01*
X173088486Y-96596671D01*
X173343996Y-96717571D01*
X173618184Y-96786300D01*
X173900512Y-96800217D01*
X174180130Y-96758787D01*
X174446292Y-96663603D01*
X174571514Y-96596671D01*
X174643097Y-96352702D01*
X173830000Y-95539605D01*
X173016903Y-96352702D01*
X172735117Y-96352702D01*
X172755812Y-96284482D01*
X172768072Y-96160000D01*
X172768072Y-96152785D01*
X172837298Y-96173097D01*
X173650395Y-95360000D01*
X174009605Y-95360000D01*
X174822702Y-96173097D01*
X175066671Y-96101514D01*
X175187571Y-95846004D01*
X175256300Y-95571816D01*
X175270217Y-95289488D01*
X175228787Y-95009870D01*
X175133603Y-94743708D01*
X175066671Y-94618486D01*
X174822702Y-94546903D01*
X174009605Y-95360000D01*
X173650395Y-95360000D01*
X172837298Y-94546903D01*
X172768072Y-94567215D01*
X172768072Y-94560000D01*
X172755812Y-94435518D01*
X172735118Y-94367298D01*
X173016903Y-94367298D01*
X173830000Y-95180395D01*
X174643097Y-94367298D01*
X174571514Y-94123329D01*
X174316004Y-94002429D01*
X174041816Y-93933700D01*
X173759488Y-93919783D01*
X173479870Y-93961213D01*
X173213708Y-94056397D01*
X173088486Y-94123329D01*
X173016903Y-94367298D01*
X172735118Y-94367298D01*
X172719502Y-94315820D01*
X172660537Y-94205506D01*
X172581185Y-94108815D01*
X172484494Y-94029463D01*
X172374180Y-93970498D01*
X172254482Y-93934188D01*
X172130000Y-93921928D01*
X170530000Y-93921928D01*
X170405518Y-93934188D01*
X170285820Y-93970498D01*
X170175506Y-94029463D01*
X170078815Y-94108815D01*
X169999463Y-94205506D01*
X169940498Y-94315820D01*
X169904188Y-94435518D01*
X169891928Y-94560000D01*
X167948132Y-94560000D01*
X167882312Y-94461495D01*
X167668505Y-94247688D01*
X167575000Y-94185210D01*
X167575000Y-90867025D01*
X167579281Y-90823515D01*
X167571529Y-90744886D01*
X167562195Y-90650110D01*
X167562182Y-90650067D01*
X167562178Y-90650027D01*
X167538127Y-90570771D01*
X167511589Y-90483287D01*
X167511568Y-90483248D01*
X167511556Y-90483208D01*
X167472217Y-90409626D01*
X167429411Y-90329541D01*
X167429382Y-90329506D01*
X167429363Y-90329470D01*
X167373059Y-90260877D01*
X167318817Y-90194783D01*
X167285013Y-90167041D01*
X166884647Y-89766751D01*
X172515045Y-84136533D01*
X172548817Y-84108817D01*
X172621965Y-84019687D01*
X172659402Y-83974071D01*
X172659404Y-83974068D01*
X172659411Y-83974059D01*
X172717201Y-83865941D01*
X172741583Y-83820327D01*
X172741585Y-83820321D01*
X172741589Y-83820313D01*
X172768627Y-83731183D01*
X172792192Y-83653505D01*
X172792193Y-83653497D01*
X172792195Y-83653490D01*
X172805000Y-83523477D01*
X172805000Y-83523476D01*
X172809281Y-83480015D01*
X172807793Y-83464904D01*
X172990179Y-83367417D01*
X173219345Y-83179345D01*
X173407417Y-82950179D01*
X173547166Y-82688725D01*
X173633224Y-82405032D01*
X173662282Y-82110000D01*
X173633224Y-81814968D01*
X173547166Y-81531275D01*
X173407417Y-81269821D01*
X173219345Y-81040655D01*
X172990179Y-80852583D01*
X172962331Y-80837698D01*
X173098903Y-80748256D01*
X173310536Y-80540494D01*
X173477571Y-80295437D01*
X173593588Y-80022502D01*
X173611302Y-79930031D01*
X173490246Y-79697000D01*
X172047000Y-79697000D01*
X172047000Y-79717000D01*
X171793000Y-79717000D01*
X171793000Y-79697000D01*
X170349754Y-79697000D01*
X170228698Y-79930031D01*
X170246412Y-80022502D01*
X170362429Y-80295437D01*
X170529464Y-80540494D01*
X170741097Y-80748256D01*
X170877669Y-80837698D01*
X170849821Y-80852583D01*
X170620655Y-81040655D01*
X170432583Y-81269821D01*
X170292834Y-81531275D01*
X170206776Y-81814968D01*
X170177718Y-82110000D01*
X170206776Y-82405032D01*
X170292834Y-82688725D01*
X170432583Y-82950179D01*
X170620655Y-83179345D01*
X170812015Y-83336391D01*
X165633026Y-88515216D01*
X162593650Y-85475691D01*
X162754039Y-85315302D01*
X162918042Y-85069853D01*
X163031010Y-84797125D01*
X163088600Y-84507599D01*
X163088600Y-84212401D01*
X163031010Y-83922875D01*
X162918042Y-83650147D01*
X162754039Y-83404698D01*
X162545302Y-83195961D01*
X162379897Y-83085441D01*
X162478488Y-83026817D01*
X162696854Y-82830293D01*
X162872684Y-82594944D01*
X162999222Y-82329814D01*
X163044958Y-82179026D01*
X162923817Y-81947000D01*
X161717000Y-81947000D01*
X161717000Y-81967000D01*
X161463000Y-81967000D01*
X161463000Y-81947000D01*
X159177000Y-81947000D01*
X159177000Y-81967000D01*
X158923000Y-81967000D01*
X158923000Y-81947000D01*
X157716183Y-81947000D01*
X157595042Y-82179026D01*
X157640778Y-82329814D01*
X157767316Y-82594944D01*
X157943146Y-82830293D01*
X158161512Y-83026817D01*
X158260103Y-83085441D01*
X158094698Y-83195961D01*
X157885961Y-83404698D01*
X157721958Y-83650147D01*
X157608990Y-83922875D01*
X157551400Y-84212401D01*
X141878299Y-84212401D01*
X141806532Y-84124953D01*
X141806530Y-84124951D01*
X141778817Y-84091183D01*
X141745051Y-84063472D01*
X138514281Y-80832702D01*
X140186903Y-80832702D01*
X140258486Y-81076671D01*
X140513996Y-81197571D01*
X140788184Y-81266300D01*
X141070512Y-81280217D01*
X141350130Y-81238787D01*
X141616292Y-81143603D01*
X141741514Y-81076671D01*
X141813097Y-80832702D01*
X141000000Y-80019605D01*
X140186903Y-80832702D01*
X138514281Y-80832702D01*
X137592091Y-79910512D01*
X139559783Y-79910512D01*
X139601213Y-80190130D01*
X139696397Y-80456292D01*
X139763329Y-80581514D01*
X140007298Y-80653097D01*
X140820395Y-79840000D01*
X141179605Y-79840000D01*
X141992702Y-80653097D01*
X142236671Y-80581514D01*
X142357571Y-80326004D01*
X142426300Y-80051816D01*
X142440217Y-79769488D01*
X142398787Y-79489870D01*
X142303603Y-79223708D01*
X142236671Y-79098486D01*
X141992702Y-79026903D01*
X141179605Y-79840000D01*
X140820395Y-79840000D01*
X140007298Y-79026903D01*
X139763329Y-79098486D01*
X139642429Y-79353996D01*
X139573700Y-79628184D01*
X139559783Y-79910512D01*
X137592091Y-79910512D01*
X136528877Y-78847298D01*
X140186903Y-78847298D01*
X141000000Y-79660395D01*
X141813097Y-78847298D01*
X141741514Y-78603329D01*
X141486004Y-78482429D01*
X141211816Y-78413700D01*
X140929488Y-78399783D01*
X140649870Y-78441213D01*
X140383708Y-78536397D01*
X140258486Y-78603329D01*
X140186903Y-78847298D01*
X136528877Y-78847298D01*
X130768189Y-73086611D01*
X130835000Y-72750732D01*
X130835000Y-72389268D01*
X130764482Y-72034750D01*
X130626156Y-71700801D01*
X130425338Y-71400256D01*
X130169744Y-71144662D01*
X129885000Y-70954402D01*
X129885000Y-65536578D01*
X132550809Y-62870770D01*
X132751859Y-63005107D01*
X133231399Y-63203739D01*
X133740475Y-63305000D01*
X134259525Y-63305000D01*
X134768601Y-63203739D01*
X135248141Y-63005107D01*
X135679715Y-62716738D01*
X136046738Y-62349715D01*
X136335107Y-61918141D01*
X136533739Y-61438601D01*
X136635000Y-60929525D01*
X136635000Y-60570000D01*
X140357319Y-60570000D01*
X140387970Y-60881204D01*
X140478745Y-61180449D01*
X140626155Y-61456235D01*
X140824537Y-61697963D01*
X140997609Y-61840000D01*
X140824537Y-61982037D01*
X140626155Y-62223765D01*
X140478745Y-62499551D01*
X140387970Y-62798796D01*
X140357319Y-63110000D01*
X140387970Y-63421204D01*
X140478745Y-63720449D01*
X140626155Y-63996235D01*
X140824537Y-64237963D01*
X141066265Y-64436345D01*
X141115001Y-64462395D01*
X141115001Y-64519021D01*
X141110719Y-64562500D01*
X141127805Y-64735990D01*
X141178412Y-64902813D01*
X141260590Y-65056559D01*
X141343468Y-65157546D01*
X141343471Y-65157549D01*
X141371184Y-65191317D01*
X141404952Y-65219030D01*
X146115000Y-69929079D01*
X146115000Y-69971928D01*
X146100000Y-69971928D01*
X145975518Y-69984188D01*
X145855820Y-70020498D01*
X145745506Y-70079463D01*
X145648815Y-70158815D01*
X145569463Y-70255506D01*
X145510498Y-70365820D01*
X145474188Y-70485518D01*
X145461928Y-70610000D01*
X145461928Y-72410000D01*
X145474188Y-72534482D01*
X145510498Y-72654180D01*
X145569463Y-72764494D01*
X145648815Y-72861185D01*
X145745506Y-72940537D01*
X145855820Y-72999502D01*
X145975518Y-73035812D01*
X146100000Y-73048072D01*
X147900000Y-73048072D01*
X148024482Y-73035812D01*
X148144180Y-72999502D01*
X148254494Y-72940537D01*
X148351185Y-72861185D01*
X148430537Y-72764494D01*
X148489502Y-72654180D01*
X148495056Y-72635873D01*
X148561495Y-72702312D01*
X148655001Y-72764791D01*
X148655000Y-76876531D01*
X148650719Y-76920000D01*
X148655000Y-76963469D01*
X148655000Y-76963476D01*
X148661552Y-77030000D01*
X148667805Y-77093490D01*
X148683157Y-77144096D01*
X148718411Y-77260312D01*
X148800589Y-77414058D01*
X148911183Y-77548817D01*
X148944956Y-77576534D01*
X150169513Y-78801091D01*
X150045363Y-78925241D01*
X149888320Y-79160273D01*
X149780147Y-79421426D01*
X149725000Y-79698665D01*
X149725000Y-79981335D01*
X149780147Y-80258574D01*
X149888320Y-80519727D01*
X150045363Y-80754759D01*
X150245241Y-80954637D01*
X150480273Y-81111680D01*
X150741426Y-81219853D01*
X151018665Y-81275000D01*
X151301335Y-81275000D01*
X151578574Y-81219853D01*
X151839727Y-81111680D01*
X152074759Y-80954637D01*
X152274637Y-80754759D01*
X152431680Y-80519727D01*
X152539853Y-80258574D01*
X152595000Y-79981335D01*
X152595000Y-79698665D01*
X152583137Y-79639026D01*
X157595042Y-79639026D01*
X157640778Y-79789814D01*
X157767316Y-80054944D01*
X157943146Y-80290293D01*
X158161512Y-80486817D01*
X158267770Y-80550000D01*
X158161512Y-80613183D01*
X157943146Y-80809707D01*
X157767316Y-81045056D01*
X157640778Y-81310186D01*
X157595042Y-81460974D01*
X157716183Y-81693000D01*
X158923000Y-81693000D01*
X158923000Y-79407000D01*
X159177000Y-79407000D01*
X159177000Y-81693000D01*
X161463000Y-81693000D01*
X161463000Y-79407000D01*
X161717000Y-79407000D01*
X161717000Y-81693000D01*
X162923817Y-81693000D01*
X163044958Y-81460974D01*
X162999222Y-81310186D01*
X162872684Y-81045056D01*
X162696854Y-80809707D01*
X162478488Y-80613183D01*
X162372230Y-80550000D01*
X162478488Y-80486817D01*
X162696854Y-80290293D01*
X162872684Y-80054944D01*
X162999222Y-79789814D01*
X163044958Y-79639026D01*
X162923817Y-79407000D01*
X161717000Y-79407000D01*
X161463000Y-79407000D01*
X159177000Y-79407000D01*
X158923000Y-79407000D01*
X157716183Y-79407000D01*
X157595042Y-79639026D01*
X152583137Y-79639026D01*
X152539853Y-79421426D01*
X152431680Y-79160273D01*
X152274637Y-78925241D01*
X152074759Y-78725363D01*
X152045000Y-78705479D01*
X152045000Y-78583469D01*
X152049281Y-78540000D01*
X152045000Y-78496531D01*
X152045000Y-78496523D01*
X152032195Y-78366510D01*
X151981589Y-78199687D01*
X151899411Y-78045941D01*
X151853379Y-77989851D01*
X151816532Y-77944953D01*
X151816530Y-77944951D01*
X151788817Y-77911183D01*
X151755049Y-77883470D01*
X150970605Y-77099026D01*
X157595042Y-77099026D01*
X157640778Y-77249814D01*
X157767316Y-77514944D01*
X157943146Y-77750293D01*
X158161512Y-77946817D01*
X158267770Y-78010000D01*
X158161512Y-78073183D01*
X157943146Y-78269707D01*
X157767316Y-78505056D01*
X157640778Y-78770186D01*
X157595042Y-78920974D01*
X157716183Y-79153000D01*
X158923000Y-79153000D01*
X158923000Y-76867000D01*
X159177000Y-76867000D01*
X159177000Y-79153000D01*
X161463000Y-79153000D01*
X161463000Y-76867000D01*
X161717000Y-76867000D01*
X161717000Y-79153000D01*
X162923817Y-79153000D01*
X163044958Y-78920974D01*
X162999222Y-78770186D01*
X162872684Y-78505056D01*
X162696854Y-78269707D01*
X162478488Y-78073183D01*
X162372230Y-78010000D01*
X162478488Y-77946817D01*
X162696854Y-77750293D01*
X162872684Y-77514944D01*
X162999222Y-77249814D01*
X163044958Y-77099026D01*
X162923817Y-76867000D01*
X161717000Y-76867000D01*
X161463000Y-76867000D01*
X159177000Y-76867000D01*
X158923000Y-76867000D01*
X157716183Y-76867000D01*
X157595042Y-77099026D01*
X150970605Y-77099026D01*
X150425000Y-76553422D01*
X150425000Y-72764790D01*
X150518505Y-72702312D01*
X150732312Y-72488505D01*
X150900299Y-72237095D01*
X151016011Y-71957743D01*
X151075000Y-71661184D01*
X151075000Y-71358816D01*
X151016011Y-71062257D01*
X151008697Y-71044600D01*
X153279396Y-71044600D01*
X157029456Y-74795032D01*
X157057183Y-74828817D01*
X157121251Y-74881397D01*
X157191904Y-74939386D01*
X157191923Y-74939396D01*
X157191941Y-74939411D01*
X157271115Y-74981730D01*
X157345646Y-75021572D01*
X157345667Y-75021578D01*
X157345687Y-75021589D01*
X157434081Y-75048404D01*
X157512467Y-75072186D01*
X157512487Y-75072188D01*
X157512510Y-75072195D01*
X157549534Y-75075841D01*
X157560588Y-75188082D01*
X157596898Y-75307780D01*
X157655863Y-75418094D01*
X157735215Y-75514785D01*
X157831906Y-75594137D01*
X157942220Y-75653102D01*
X158006574Y-75672624D01*
X157943146Y-75729707D01*
X157767316Y-75965056D01*
X157640778Y-76230186D01*
X157595042Y-76380974D01*
X157716183Y-76613000D01*
X158923000Y-76613000D01*
X158923000Y-76593000D01*
X159177000Y-76593000D01*
X159177000Y-76613000D01*
X161463000Y-76613000D01*
X161463000Y-76593000D01*
X161717000Y-76593000D01*
X161717000Y-76613000D01*
X162923817Y-76613000D01*
X163044958Y-76380974D01*
X162999222Y-76230186D01*
X162872684Y-75965056D01*
X162696854Y-75729707D01*
X162478488Y-75533183D01*
X162379897Y-75474559D01*
X162545302Y-75364039D01*
X162754039Y-75155302D01*
X162801013Y-75085000D01*
X162910531Y-75085000D01*
X162954000Y-75089281D01*
X162997469Y-75085000D01*
X162997477Y-75085000D01*
X163127490Y-75072195D01*
X163294313Y-75021589D01*
X163448059Y-74939411D01*
X163582817Y-74828817D01*
X163610534Y-74795044D01*
X165430579Y-72975000D01*
X166613422Y-72975000D01*
X170181928Y-76543507D01*
X170181928Y-77650001D01*
X170198992Y-77823255D01*
X170249528Y-77989851D01*
X170331595Y-78143387D01*
X170442038Y-78277962D01*
X170576613Y-78388405D01*
X170685314Y-78446507D01*
X170529464Y-78599506D01*
X170362429Y-78844563D01*
X170246412Y-79117498D01*
X170228698Y-79209969D01*
X170349754Y-79443000D01*
X171793000Y-79443000D01*
X171793000Y-79423000D01*
X172047000Y-79423000D01*
X172047000Y-79443000D01*
X173490246Y-79443000D01*
X173611302Y-79209969D01*
X173593588Y-79117498D01*
X173477571Y-78844563D01*
X173310536Y-78599506D01*
X173154686Y-78446507D01*
X173263387Y-78388405D01*
X173397962Y-78277962D01*
X173508405Y-78143387D01*
X173590472Y-77989851D01*
X173641008Y-77823255D01*
X173658072Y-77650001D01*
X173658072Y-76409999D01*
X173641008Y-76236745D01*
X173590472Y-76070149D01*
X173508405Y-75916613D01*
X173397962Y-75782038D01*
X173263387Y-75671595D01*
X173109851Y-75589528D01*
X172943255Y-75538992D01*
X172770001Y-75521928D01*
X171663507Y-75521928D01*
X167865000Y-71723422D01*
X167865000Y-66010200D01*
X172421568Y-66010200D01*
X172465070Y-66014481D01*
X172542728Y-66006827D01*
X172638490Y-65997395D01*
X172638525Y-65997384D01*
X172638559Y-65997381D01*
X172714562Y-65974318D01*
X172805313Y-65946789D01*
X172805349Y-65946770D01*
X172805378Y-65946761D01*
X172871231Y-65911555D01*
X172959059Y-65864611D01*
X172959090Y-65864585D01*
X172959117Y-65864571D01*
X173021459Y-65813400D01*
X173093817Y-65754017D01*
X173121556Y-65720218D01*
X173553667Y-65288038D01*
X173588665Y-65295000D01*
X173871335Y-65295000D01*
X174148574Y-65239853D01*
X174409727Y-65131680D01*
X174644759Y-64974637D01*
X174844637Y-64774759D01*
X175001680Y-64539727D01*
X175109853Y-64278574D01*
X175165000Y-64001335D01*
X175165000Y-63718665D01*
X175109853Y-63441426D01*
X175001680Y-63180273D01*
X174844637Y-62945241D01*
X174644759Y-62745363D01*
X174409727Y-62588320D01*
X174148574Y-62480147D01*
X173871335Y-62425000D01*
X173588665Y-62425000D01*
X173311426Y-62480147D01*
X173050273Y-62588320D01*
X172815241Y-62745363D01*
X172648661Y-62911943D01*
X172619502Y-62815820D01*
X172560537Y-62705506D01*
X172481185Y-62608815D01*
X172384494Y-62529463D01*
X172274180Y-62470498D01*
X172154482Y-62434188D01*
X172030000Y-62421928D01*
X171515750Y-62425000D01*
X171357000Y-62583750D01*
X171357000Y-63733000D01*
X171377000Y-63733000D01*
X171377000Y-63987000D01*
X171357000Y-63987000D01*
X171357000Y-64007000D01*
X171103000Y-64007000D01*
X171103000Y-63987000D01*
X169953750Y-63987000D01*
X169795000Y-64145750D01*
X169794436Y-64240200D01*
X168518072Y-64240200D01*
X168518072Y-63060000D01*
X169791928Y-63060000D01*
X169795000Y-63574250D01*
X169953750Y-63733000D01*
X171103000Y-63733000D01*
X171103000Y-62583750D01*
X170944250Y-62425000D01*
X170430000Y-62421928D01*
X170305518Y-62434188D01*
X170185820Y-62470498D01*
X170075506Y-62529463D01*
X169978815Y-62608815D01*
X169899463Y-62705506D01*
X169840498Y-62815820D01*
X169804188Y-62935518D01*
X169791928Y-63060000D01*
X168518072Y-63060000D01*
X168518072Y-63050000D01*
X168505812Y-62925518D01*
X168469502Y-62805820D01*
X168410537Y-62695506D01*
X168331185Y-62598815D01*
X168234494Y-62519463D01*
X168124180Y-62460498D01*
X168004482Y-62424188D01*
X167880000Y-62411928D01*
X166080000Y-62411928D01*
X165955518Y-62424188D01*
X165835820Y-62460498D01*
X165725506Y-62519463D01*
X165628815Y-62598815D01*
X165549463Y-62695506D01*
X165490498Y-62805820D01*
X165454188Y-62925518D01*
X165441928Y-63050000D01*
X165441928Y-64850000D01*
X165454188Y-64974482D01*
X165490498Y-65094180D01*
X165549463Y-65204494D01*
X165628815Y-65301185D01*
X165725506Y-65380537D01*
X165835820Y-65439502D01*
X165955518Y-65475812D01*
X166080000Y-65488072D01*
X166095001Y-65488072D01*
X166095000Y-71205000D01*
X165107469Y-71205000D01*
X165064000Y-71200719D01*
X165020531Y-71205000D01*
X165020523Y-71205000D01*
X164890510Y-71217805D01*
X164723686Y-71268411D01*
X164569941Y-71350589D01*
X164468953Y-71433468D01*
X164468951Y-71433470D01*
X164435183Y-71461183D01*
X164407470Y-71494951D01*
X162705881Y-73196540D01*
X162545302Y-73035961D01*
X162299853Y-72871958D01*
X162027125Y-72758990D01*
X161737599Y-72701400D01*
X161442401Y-72701400D01*
X161152875Y-72758990D01*
X160880147Y-72871958D01*
X160634698Y-73035961D01*
X160520636Y-73150023D01*
X160503102Y-73092220D01*
X160444137Y-72981906D01*
X160364785Y-72885215D01*
X160268094Y-72805863D01*
X160157780Y-72746898D01*
X160038082Y-72710588D01*
X159913600Y-72698328D01*
X158186400Y-72698328D01*
X158061918Y-72710588D01*
X157942220Y-72746898D01*
X157831906Y-72805863D01*
X157735215Y-72885215D01*
X157684569Y-72946928D01*
X154302548Y-69564573D01*
X154274817Y-69530783D01*
X154198574Y-69468211D01*
X154140095Y-69420214D01*
X154140079Y-69420206D01*
X154140059Y-69420189D01*
X154048577Y-69371291D01*
X153986354Y-69338029D01*
X153986337Y-69338024D01*
X153986313Y-69338011D01*
X153889759Y-69308721D01*
X153819533Y-69287414D01*
X153819513Y-69287412D01*
X153819490Y-69287405D01*
X153716742Y-69277285D01*
X153646044Y-69270319D01*
X153602555Y-69274600D01*
X147837489Y-69274600D01*
X147821589Y-69222187D01*
X147739411Y-69068441D01*
X147628817Y-68933683D01*
X147595051Y-68905972D01*
X143039019Y-64349941D01*
X143175463Y-64237963D01*
X143373845Y-63996235D01*
X143479367Y-63798816D01*
X155285000Y-63798816D01*
X155285000Y-64101184D01*
X155343989Y-64397743D01*
X155459701Y-64677095D01*
X155627688Y-64928505D01*
X155841495Y-65142312D01*
X156092905Y-65310299D01*
X156372257Y-65426011D01*
X156668816Y-65485000D01*
X156971184Y-65485000D01*
X157267743Y-65426011D01*
X157547095Y-65310299D01*
X157798505Y-65142312D01*
X158012312Y-64928505D01*
X158180299Y-64677095D01*
X158296011Y-64397743D01*
X158355000Y-64101184D01*
X158355000Y-63798816D01*
X158296011Y-63502257D01*
X158180299Y-63222905D01*
X158012312Y-62971495D01*
X157798505Y-62757688D01*
X157547095Y-62589701D01*
X157267743Y-62473989D01*
X156971184Y-62415000D01*
X156668816Y-62415000D01*
X156372257Y-62473989D01*
X156092905Y-62589701D01*
X155841495Y-62757688D01*
X155627688Y-62971495D01*
X155459701Y-63222905D01*
X155343989Y-63502257D01*
X155285000Y-63798816D01*
X143479367Y-63798816D01*
X143521255Y-63720449D01*
X143612030Y-63421204D01*
X143642681Y-63110000D01*
X143612030Y-62798796D01*
X143521255Y-62499551D01*
X143373845Y-62223765D01*
X143175463Y-61982037D01*
X143002391Y-61840000D01*
X143175463Y-61697963D01*
X143373845Y-61456235D01*
X143521255Y-61180449D01*
X143612030Y-60881204D01*
X143642681Y-60570000D01*
X143612030Y-60258796D01*
X143521255Y-59959551D01*
X143373845Y-59683765D01*
X143270554Y-59557905D01*
X143354494Y-59513037D01*
X143451185Y-59433685D01*
X143530537Y-59336994D01*
X143589502Y-59226680D01*
X143625812Y-59106982D01*
X143638072Y-58982500D01*
X143635000Y-58315750D01*
X143476250Y-58157000D01*
X142127000Y-58157000D01*
X142127000Y-58177000D01*
X141873000Y-58177000D01*
X141873000Y-58157000D01*
X140523750Y-58157000D01*
X140365000Y-58315750D01*
X140361928Y-58982500D01*
X140374188Y-59106982D01*
X140410498Y-59226680D01*
X140469463Y-59336994D01*
X140548815Y-59433685D01*
X140645506Y-59513037D01*
X140729446Y-59557905D01*
X140626155Y-59683765D01*
X140478745Y-59959551D01*
X140387970Y-60258796D01*
X140357319Y-60570000D01*
X136635000Y-60570000D01*
X136635000Y-60410475D01*
X136533739Y-59901399D01*
X136335107Y-59421859D01*
X136046738Y-58990285D01*
X135679715Y-58623262D01*
X135248141Y-58334893D01*
X134768601Y-58136261D01*
X134259525Y-58035000D01*
X133740475Y-58035000D01*
X133231399Y-58136261D01*
X132751859Y-58334893D01*
X132320285Y-58623262D01*
X131953262Y-58990285D01*
X131664893Y-59421859D01*
X131466261Y-59901399D01*
X131365000Y-60410475D01*
X131365000Y-60929525D01*
X131466261Y-61438601D01*
X131470232Y-61448189D01*
X128404952Y-64513470D01*
X128371184Y-64541183D01*
X128343471Y-64574951D01*
X128343468Y-64574954D01*
X128260590Y-64675941D01*
X128178412Y-64829687D01*
X128127805Y-64996510D01*
X128110719Y-65170000D01*
X128115001Y-65213479D01*
X128115000Y-70954402D01*
X127830256Y-71144662D01*
X127574662Y-71400256D01*
X127373844Y-71700801D01*
X127235518Y-72034750D01*
X127165000Y-72389268D01*
X111385000Y-72389268D01*
X111385000Y-63155525D01*
X111748141Y-63005107D01*
X112179715Y-62716738D01*
X112546738Y-62349715D01*
X112835107Y-61918141D01*
X113033739Y-61438601D01*
X113135000Y-60929525D01*
X113135000Y-60410475D01*
X113033739Y-59901399D01*
X112835107Y-59421859D01*
X112546738Y-58990285D01*
X112179715Y-58623262D01*
X111748141Y-58334893D01*
X111268601Y-58136261D01*
X110759525Y-58035000D01*
X110240475Y-58035000D01*
X109731399Y-58136261D01*
X109251859Y-58334893D01*
X108820285Y-58623262D01*
X108453262Y-58990285D01*
X108164893Y-59421859D01*
X107966261Y-59901399D01*
X107865000Y-60410475D01*
X79117742Y-60410475D01*
X79120959Y-57077500D01*
X140361928Y-57077500D01*
X140365000Y-57744250D01*
X140523750Y-57903000D01*
X141873000Y-57903000D01*
X141873000Y-56601250D01*
X142127000Y-56601250D01*
X142127000Y-57903000D01*
X143476250Y-57903000D01*
X143635000Y-57744250D01*
X143638072Y-57077500D01*
X143625812Y-56953018D01*
X143589502Y-56833320D01*
X143530537Y-56723006D01*
X143451185Y-56626315D01*
X143354494Y-56546963D01*
X143244180Y-56487998D01*
X143124482Y-56451688D01*
X143000000Y-56439428D01*
X142285750Y-56442500D01*
X142127000Y-56601250D01*
X141873000Y-56601250D01*
X141714250Y-56442500D01*
X141000000Y-56439428D01*
X140875518Y-56451688D01*
X140755820Y-56487998D01*
X140645506Y-56546963D01*
X140548815Y-56626315D01*
X140469463Y-56723006D01*
X140410498Y-56833320D01*
X140374188Y-56953018D01*
X140361928Y-57077500D01*
X79120959Y-57077500D01*
X79126887Y-50937000D01*
X177092754Y-50937000D01*
X176953811Y-122920000D01*
G37*
X176953811Y-122920000D02*
X79057406Y-122920000D01*
X79065822Y-114200475D01*
X107865000Y-114200475D01*
X107865000Y-114719525D01*
X107966261Y-115228601D01*
X108164893Y-115708141D01*
X108453262Y-116139715D01*
X108820285Y-116506738D01*
X109251859Y-116795107D01*
X109731399Y-116993739D01*
X110240475Y-117095000D01*
X110759525Y-117095000D01*
X111268601Y-116993739D01*
X111748141Y-116795107D01*
X112179715Y-116506738D01*
X112546738Y-116139715D01*
X112835107Y-115708141D01*
X113033739Y-115228601D01*
X113135000Y-114719525D01*
X113135000Y-114200475D01*
X131365000Y-114200475D01*
X131365000Y-114719525D01*
X131466261Y-115228601D01*
X131664893Y-115708141D01*
X131953262Y-116139715D01*
X132320285Y-116506738D01*
X132751859Y-116795107D01*
X133231399Y-116993739D01*
X133740475Y-117095000D01*
X134259525Y-117095000D01*
X134768601Y-116993739D01*
X135248141Y-116795107D01*
X135679715Y-116506738D01*
X136046738Y-116139715D01*
X136335107Y-115708141D01*
X136533739Y-115228601D01*
X136635000Y-114719525D01*
X136635000Y-114200475D01*
X136533739Y-113691399D01*
X136335107Y-113211859D01*
X136046738Y-112780285D01*
X135679715Y-112413262D01*
X135248141Y-112124893D01*
X134768601Y-111926261D01*
X134259525Y-111825000D01*
X133740475Y-111825000D01*
X133231399Y-111926261D01*
X132751859Y-112124893D01*
X132320285Y-112413262D01*
X131953262Y-112780285D01*
X131664893Y-113211859D01*
X131466261Y-113691399D01*
X131365000Y-114200475D01*
X113135000Y-114200475D01*
X113033739Y-113691399D01*
X112835107Y-113211859D01*
X112546738Y-112780285D01*
X112179715Y-112413262D01*
X111748141Y-112124893D01*
X111385000Y-111974475D01*
X111385000Y-104820000D01*
X145461928Y-104820000D01*
X145474188Y-104944482D01*
X145510498Y-105064180D01*
X145569463Y-105174494D01*
X145648815Y-105271185D01*
X145745506Y-105350537D01*
X145855820Y-105409502D01*
X145975518Y-105445812D01*
X146100000Y-105458072D01*
X146714250Y-105455000D01*
X146873000Y-105296250D01*
X146873000Y-104047000D01*
X145623750Y-104047000D01*
X145465000Y-104205750D01*
X145461928Y-104820000D01*
X111385000Y-104820000D01*
X111385000Y-100080000D01*
X127161928Y-100080000D01*
X127161928Y-102480000D01*
X127174188Y-102604482D01*
X127210498Y-102724180D01*
X127269463Y-102834494D01*
X127348815Y-102931185D01*
X127445506Y-103010537D01*
X127555820Y-103069502D01*
X127675518Y-103105812D01*
X127800000Y-103118072D01*
X130200000Y-103118072D01*
X130324482Y-103105812D01*
X130444180Y-103069502D01*
X130554494Y-103010537D01*
X130651185Y-102931185D01*
X130730537Y-102834494D01*
X130789502Y-102724180D01*
X130825812Y-102604482D01*
X130838072Y-102480000D01*
X130838072Y-100080000D01*
X130825812Y-99955518D01*
X130789502Y-99835820D01*
X130730537Y-99725506D01*
X130651185Y-99628815D01*
X130554494Y-99549463D01*
X130444180Y-99490498D01*
X130324482Y-99454188D01*
X130200000Y-99441928D01*
X127800000Y-99441928D01*
X127675518Y-99454188D01*
X127555820Y-99490498D01*
X127445506Y-99549463D01*
X127348815Y-99628815D01*
X127269463Y-99725506D01*
X127210498Y-99835820D01*
X127174188Y-99955518D01*
X127161928Y-100080000D01*
X111385000Y-100080000D01*
X111385000Y-95122704D01*
X111494059Y-95064411D01*
X111501895Y-95057980D01*
X127901626Y-95057980D01*
X128021514Y-95342836D01*
X128345210Y-95503699D01*
X128694069Y-95598322D01*
X129054684Y-95623067D01*
X129413198Y-95576985D01*
X129755833Y-95461846D01*
X129978486Y-95342836D01*
X130098374Y-95057980D01*
X129000000Y-93959605D01*
X127901626Y-95057980D01*
X111501895Y-95057980D01*
X111628817Y-94953817D01*
X111739411Y-94819059D01*
X111821589Y-94665313D01*
X111872195Y-94498490D01*
X111886164Y-94356651D01*
X111959180Y-94334502D01*
X112069494Y-94275537D01*
X112166185Y-94196185D01*
X112245537Y-94099494D01*
X112304502Y-93989180D01*
X112340812Y-93869482D01*
X112344239Y-93834684D01*
X127156933Y-93834684D01*
X127203015Y-94193198D01*
X127318154Y-94535833D01*
X127437164Y-94758486D01*
X127722020Y-94878374D01*
X128820395Y-93780000D01*
X129179605Y-93780000D01*
X130277980Y-94878374D01*
X130562836Y-94758486D01*
X130723699Y-94434790D01*
X130818322Y-94085931D01*
X130843067Y-93725316D01*
X130825503Y-93588665D01*
X139405000Y-93588665D01*
X139405000Y-93871335D01*
X139460147Y-94148574D01*
X139568320Y-94409727D01*
X139725363Y-94644759D01*
X139925241Y-94844637D01*
X139955001Y-94864522D01*
X139955001Y-94986522D01*
X139950719Y-95030000D01*
X139967805Y-95203490D01*
X140018412Y-95370313D01*
X140100590Y-95524059D01*
X140183468Y-95625046D01*
X140183471Y-95625049D01*
X140211184Y-95658817D01*
X140244952Y-95686530D01*
X146943421Y-102385000D01*
X146872998Y-102385000D01*
X146872998Y-102543748D01*
X146714250Y-102385000D01*
X146100000Y-102381928D01*
X145975518Y-102394188D01*
X145855820Y-102430498D01*
X145745506Y-102489463D01*
X145648815Y-102568815D01*
X145569463Y-102665506D01*
X145510498Y-102775820D01*
X145474188Y-102895518D01*
X145461928Y-103020000D01*
X145465000Y-103634250D01*
X145623750Y-103793000D01*
X146873000Y-103793000D01*
X146873000Y-103773000D01*
X147127000Y-103773000D01*
X147127000Y-103793000D01*
X147147000Y-103793000D01*
X147147000Y-104047000D01*
X147127000Y-104047000D01*
X147127000Y-105296250D01*
X147285750Y-105455000D01*
X147900000Y-105458072D01*
X148024482Y-105445812D01*
X148144180Y-105409502D01*
X148254494Y-105350537D01*
X148351185Y-105271185D01*
X148430537Y-105174494D01*
X148489502Y-105064180D01*
X148495056Y-105045873D01*
X148561495Y-105112312D01*
X148812905Y-105280299D01*
X149092257Y-105396011D01*
X149388816Y-105455000D01*
X149691184Y-105455000D01*
X149987743Y-105396011D01*
X150115000Y-105343299D01*
X150115000Y-107813421D01*
X143523121Y-114405301D01*
X143590563Y-114267020D01*
X143519571Y-114048906D01*
X143375969Y-113773077D01*
X143262781Y-113632059D01*
X143354494Y-113583037D01*
X143451185Y-113503685D01*
X143530537Y-113406994D01*
X143589502Y-113296680D01*
X143625812Y-113176982D01*
X143638072Y-113052500D01*
X143638072Y-111147500D01*
X143625812Y-111023018D01*
X143589502Y-110903320D01*
X143530537Y-110793006D01*
X143451185Y-110696315D01*
X143354494Y-110616963D01*
X143244180Y-110557998D01*
X143124482Y-110521688D01*
X143000000Y-110509428D01*
X141000000Y-110509428D01*
X140875518Y-110521688D01*
X140755820Y-110557998D01*
X140645506Y-110616963D01*
X140548815Y-110696315D01*
X140469463Y-110793006D01*
X140410498Y-110903320D01*
X140374188Y-111023018D01*
X140361928Y-111147500D01*
X140361928Y-113052500D01*
X140374188Y-113176982D01*
X140410498Y-113296680D01*
X140469463Y-113406994D01*
X140548815Y-113503685D01*
X140645506Y-113583037D01*
X140737219Y-113632059D01*
X140624031Y-113773077D01*
X140480429Y-114048906D01*
X140409437Y-114267020D01*
X140529406Y-114513000D01*
X141873000Y-114513000D01*
X141873000Y-114493000D01*
X142127000Y-114493000D01*
X142127000Y-114513000D01*
X142147000Y-114513000D01*
X142147000Y-114767000D01*
X142127000Y-114767000D01*
X142127000Y-114787000D01*
X141873000Y-114787000D01*
X141873000Y-114767000D01*
X140529406Y-114767000D01*
X140409437Y-115012980D01*
X140480429Y-115231094D01*
X140624031Y-115506923D01*
X140818685Y-115749437D01*
X141003899Y-115904837D01*
X140824537Y-116052037D01*
X140626155Y-116293765D01*
X140478745Y-116569551D01*
X140387970Y-116868796D01*
X140357319Y-117180000D01*
X140387970Y-117491204D01*
X140478745Y-117790449D01*
X140626155Y-118066235D01*
X140824537Y-118307963D01*
X141066265Y-118506345D01*
X141342051Y-118653755D01*
X141641296Y-118744530D01*
X141874514Y-118767500D01*
X142125486Y-118767500D01*
X142358704Y-118744530D01*
X142657949Y-118653755D01*
X142933735Y-118506345D01*
X143175463Y-118307963D01*
X143373845Y-118066235D01*
X143521255Y-117790449D01*
X143612030Y-117491204D01*
X143642681Y-117180000D01*
X143612030Y-116868796D01*
X143600568Y-116831010D01*
X151595051Y-108836528D01*
X151628817Y-108808817D01*
X151739411Y-108674059D01*
X151821589Y-108520313D01*
X151872195Y-108353490D01*
X151885000Y-108223477D01*
X151885000Y-108223467D01*
X151889281Y-108180001D01*
X151885000Y-108136534D01*
X151885000Y-94864521D01*
X151914759Y-94844637D01*
X152114637Y-94644759D01*
X152184634Y-94540000D01*
X154991928Y-94540000D01*
X154991928Y-96340000D01*
X155004188Y-96464482D01*
X155040498Y-96584180D01*
X155099463Y-96694494D01*
X155178815Y-96791185D01*
X155275506Y-96870537D01*
X155385820Y-96929502D01*
X155505518Y-96965812D01*
X155630000Y-96978072D01*
X157430000Y-96978072D01*
X157554482Y-96965812D01*
X157674180Y-96929502D01*
X157784494Y-96870537D01*
X157881185Y-96791185D01*
X157960537Y-96694494D01*
X158019502Y-96584180D01*
X158055812Y-96464482D01*
X158068072Y-96340000D01*
X158068072Y-94540000D01*
X158055812Y-94415518D01*
X158019502Y-94295820D01*
X157960537Y-94185506D01*
X157881185Y-94088815D01*
X157784494Y-94009463D01*
X157674180Y-93950498D01*
X157554482Y-93914188D01*
X157430000Y-93901928D01*
X155630000Y-93901928D01*
X155505518Y-93914188D01*
X155385820Y-93950498D01*
X155275506Y-94009463D01*
X155178815Y-94088815D01*
X155099463Y-94185506D01*
X155040498Y-94295820D01*
X155004188Y-94415518D01*
X154991928Y-94540000D01*
X152184634Y-94540000D01*
X152271680Y-94409727D01*
X152379853Y-94148574D01*
X152435000Y-93871335D01*
X152435000Y-93588665D01*
X152379853Y-93311426D01*
X152271680Y-93050273D01*
X152114637Y-92815241D01*
X151914759Y-92615363D01*
X151679727Y-92458320D01*
X151418574Y-92350147D01*
X151141335Y-92295000D01*
X150858665Y-92295000D01*
X150823561Y-92301983D01*
X148595000Y-90073422D01*
X148595000Y-87909701D01*
X148634482Y-87905812D01*
X148754180Y-87869502D01*
X148864494Y-87810537D01*
X148961185Y-87731185D01*
X149040537Y-87634494D01*
X149099502Y-87524180D01*
X149115117Y-87472702D01*
X149396903Y-87472702D01*
X149468486Y-87716671D01*
X149723996Y-87837571D01*
X149998184Y-87906300D01*
X150280512Y-87920217D01*
X150560130Y-87878787D01*
X150826292Y-87783603D01*
X150951514Y-87716671D01*
X151023097Y-87472702D01*
X150210000Y-86659605D01*
X149396903Y-87472702D01*
X149115117Y-87472702D01*
X149135812Y-87404482D01*
X149148072Y-87280000D01*
X149148072Y-87272785D01*
X149217298Y-87293097D01*
X150030395Y-86480000D01*
X150389605Y-86480000D01*
X151202702Y-87293097D01*
X151446671Y-87221514D01*
X151567571Y-86966004D01*
X151636300Y-86691816D01*
X151650217Y-86409488D01*
X151608787Y-86129870D01*
X151513603Y-85863708D01*
X151446671Y-85738486D01*
X151202702Y-85666903D01*
X150389605Y-86480000D01*
X150030395Y-86480000D01*
X149217298Y-85666903D01*
X149148072Y-85687215D01*
X149148072Y-85680000D01*
X149135812Y-85555518D01*
X149115118Y-85487298D01*
X149396903Y-85487298D01*
X150210000Y-86300395D01*
X151023097Y-85487298D01*
X150951514Y-85243329D01*
X150696004Y-85122429D01*
X150421816Y-85053700D01*
X150139488Y-85039783D01*
X149859870Y-85081213D01*
X149593708Y-85176397D01*
X149468486Y-85243329D01*
X149396903Y-85487298D01*
X149115118Y-85487298D01*
X149099502Y-85435820D01*
X149040537Y-85325506D01*
X148961185Y-85228815D01*
X148864494Y-85149463D01*
X148754180Y-85090498D01*
X148634482Y-85054188D01*
X148510000Y-85041928D01*
X146910000Y-85041928D01*
X146785518Y-85054188D01*
X146665820Y-85090498D01*
X146555506Y-85149463D01*
X146458815Y-85228815D01*
X146379463Y-85325506D01*
X146320498Y-85435820D01*
X146284188Y-85555518D01*
X146271928Y-85680000D01*
X146271928Y-87280000D01*
X146284188Y-87404482D01*
X146320498Y-87524180D01*
X146379463Y-87634494D01*
X146458815Y-87731185D01*
X146555506Y-87810537D01*
X146665820Y-87869502D01*
X146785518Y-87905812D01*
X146825001Y-87909701D01*
X146825000Y-90396531D01*
X146820719Y-90440000D01*
X146825000Y-90483469D01*
X146825000Y-90483476D01*
X146837805Y-90613489D01*
X146888411Y-90780312D01*
X146970589Y-90934058D01*
X147081183Y-91068817D01*
X147114956Y-91096534D01*
X149571983Y-93553561D01*
X149565000Y-93588665D01*
X149565000Y-93871335D01*
X149620147Y-94148574D01*
X149728320Y-94409727D01*
X149885363Y-94644759D01*
X150085241Y-94844637D01*
X150115001Y-94864522D01*
X150115000Y-102496701D01*
X149987743Y-102443989D01*
X149691184Y-102385000D01*
X149446579Y-102385000D01*
X141830487Y-94768909D01*
X141954637Y-94644759D01*
X142111680Y-94409727D01*
X142219853Y-94148574D01*
X142275000Y-93871335D01*
X142275000Y-93588665D01*
X142219853Y-93311426D01*
X142111680Y-93050273D01*
X141954637Y-92815241D01*
X141754759Y-92615363D01*
X141519727Y-92458320D01*
X141258574Y-92350147D01*
X140981335Y-92295000D01*
X140698665Y-92295000D01*
X140421426Y-92350147D01*
X140160273Y-92458320D01*
X139925241Y-92615363D01*
X139725363Y-92815241D01*
X139568320Y-93050273D01*
X139460147Y-93311426D01*
X139405000Y-93588665D01*
X130825503Y-93588665D01*
X130796985Y-93366802D01*
X130681846Y-93024167D01*
X130562836Y-92801514D01*
X130277980Y-92681626D01*
X129179605Y-93780000D01*
X128820395Y-93780000D01*
X127722020Y-92681626D01*
X127437164Y-92801514D01*
X127276301Y-93125210D01*
X127181678Y-93474069D01*
X127156933Y-93834684D01*
X112344239Y-93834684D01*
X112353072Y-93745000D01*
X112353072Y-92502020D01*
X127901626Y-92502020D01*
X129000000Y-93600395D01*
X130098374Y-92502020D01*
X129978486Y-92217164D01*
X129654790Y-92056301D01*
X129305931Y-91961678D01*
X128945316Y-91936933D01*
X128586802Y-91983015D01*
X128244167Y-92098154D01*
X128021514Y-92217164D01*
X127901626Y-92502020D01*
X112353072Y-92502020D01*
X112353072Y-92155000D01*
X112340812Y-92030518D01*
X112304502Y-91910820D01*
X112245537Y-91800506D01*
X112166185Y-91703815D01*
X112069494Y-91624463D01*
X111959180Y-91565498D01*
X111839482Y-91529188D01*
X111715000Y-91516928D01*
X110125000Y-91516928D01*
X110000518Y-91529188D01*
X109880820Y-91565498D01*
X109770506Y-91624463D01*
X109673815Y-91703815D01*
X109594463Y-91800506D01*
X109535498Y-91910820D01*
X109499188Y-92030518D01*
X109486928Y-92155000D01*
X109486928Y-93745000D01*
X109499188Y-93869482D01*
X109535498Y-93989180D01*
X109594463Y-94099494D01*
X109673815Y-94196185D01*
X109754475Y-94262381D01*
X109678411Y-94404688D01*
X109627805Y-94571511D01*
X109615000Y-94701524D01*
X109615000Y-94701531D01*
X109610719Y-94745000D01*
X109615000Y-94788469D01*
X109615001Y-111974475D01*
X109251859Y-112124893D01*
X108820285Y-112413262D01*
X108453262Y-112780285D01*
X108164893Y-113211859D01*
X107966261Y-113691399D01*
X107865000Y-114200475D01*
X79065822Y-114200475D01*
X79077377Y-102229721D01*
X89525000Y-102229721D01*
X89525000Y-102650279D01*
X89607047Y-103062756D01*
X89767988Y-103451302D01*
X90001637Y-103800983D01*
X90299017Y-104098363D01*
X90648698Y-104332012D01*
X91037244Y-104492953D01*
X91449721Y-104575000D01*
X91870279Y-104575000D01*
X92282756Y-104492953D01*
X92671302Y-104332012D01*
X93020983Y-104098363D01*
X93318363Y-103800983D01*
X93552012Y-103451302D01*
X93604328Y-103325000D01*
X97521531Y-103325000D01*
X97565000Y-103329281D01*
X97608469Y-103325000D01*
X97608477Y-103325000D01*
X97738490Y-103312195D01*
X97905313Y-103261589D01*
X98059059Y-103179411D01*
X98193817Y-103068817D01*
X98221534Y-103035044D01*
X110747814Y-90508765D01*
X110779157Y-90515000D01*
X111060843Y-90515000D01*
X111337116Y-90460046D01*
X111597359Y-90352249D01*
X111831572Y-90195753D01*
X112030753Y-89996572D01*
X112187249Y-89762359D01*
X112295046Y-89502116D01*
X112350000Y-89225843D01*
X112350000Y-88944157D01*
X112295046Y-88667884D01*
X112187249Y-88407641D01*
X112030753Y-88173428D01*
X111831572Y-87974247D01*
X111597359Y-87817751D01*
X111337116Y-87709954D01*
X111060843Y-87655000D01*
X110779157Y-87655000D01*
X110502884Y-87709954D01*
X110242641Y-87817751D01*
X110008428Y-87974247D01*
X109809247Y-88173428D01*
X109652751Y-88407641D01*
X109544954Y-88667884D01*
X109490000Y-88944157D01*
X109490000Y-89225843D01*
X109496235Y-89257186D01*
X97198422Y-101555000D01*
X93604328Y-101555000D01*
X93552012Y-101428698D01*
X93318363Y-101079017D01*
X93020983Y-100781637D01*
X92671302Y-100547988D01*
X92282756Y-100387047D01*
X91870279Y-100305000D01*
X91449721Y-100305000D01*
X91037244Y-100387047D01*
X90648698Y-100547988D01*
X90299017Y-100781637D01*
X90001637Y-101079017D01*
X89767988Y-101428698D01*
X89607047Y-101817244D01*
X89525000Y-102229721D01*
X79077377Y-102229721D01*
X79080560Y-98931653D01*
X90347952Y-98931653D01*
X90503962Y-99247214D01*
X90878745Y-99438020D01*
X91283551Y-99552044D01*
X91702824Y-99584902D01*
X92120451Y-99535334D01*
X92520383Y-99405243D01*
X92816038Y-99247214D01*
X92972048Y-98931653D01*
X91660000Y-97619605D01*
X90347952Y-98931653D01*
X79080560Y-98931653D01*
X79081959Y-97482824D01*
X89515098Y-97482824D01*
X89564666Y-97900451D01*
X89694757Y-98300383D01*
X89852786Y-98596038D01*
X90168347Y-98752048D01*
X91480395Y-97440000D01*
X91839605Y-97440000D01*
X93151653Y-98752048D01*
X93467214Y-98596038D01*
X93658020Y-98221255D01*
X93772044Y-97816449D01*
X93804902Y-97397176D01*
X93755334Y-96979549D01*
X93625243Y-96579617D01*
X93467214Y-96283962D01*
X93151653Y-96127952D01*
X91839605Y-97440000D01*
X91480395Y-97440000D01*
X90168347Y-96127952D01*
X89852786Y-96283962D01*
X89661980Y-96658745D01*
X89547956Y-97063551D01*
X89515098Y-97482824D01*
X79081959Y-97482824D01*
X79083440Y-95948347D01*
X90347952Y-95948347D01*
X91660000Y-97260395D01*
X92972048Y-95948347D01*
X92816038Y-95632786D01*
X92441255Y-95441980D01*
X92036449Y-95327956D01*
X91617176Y-95295098D01*
X91199549Y-95344666D01*
X90799617Y-95474757D01*
X90503962Y-95632786D01*
X90347952Y-95948347D01*
X79083440Y-95948347D01*
X79091516Y-87580000D01*
X137211928Y-87580000D01*
X137224188Y-87704482D01*
X137260498Y-87824180D01*
X137319463Y-87934494D01*
X137398815Y-88031185D01*
X137495506Y-88110537D01*
X137605820Y-88169502D01*
X137725518Y-88205812D01*
X137850000Y-88218072D01*
X138364250Y-88215000D01*
X138523000Y-88056250D01*
X138523000Y-86907000D01*
X137373750Y-86907000D01*
X137215000Y-87065750D01*
X137211928Y-87580000D01*
X79091516Y-87580000D01*
X79099864Y-78931653D01*
X90347952Y-78931653D01*
X90503962Y-79247214D01*
X90878745Y-79438020D01*
X91283551Y-79552044D01*
X91702824Y-79584902D01*
X92120451Y-79535334D01*
X92520383Y-79405243D01*
X92816038Y-79247214D01*
X92972048Y-78931653D01*
X91660000Y-77619605D01*
X90347952Y-78931653D01*
X79099864Y-78931653D01*
X79101263Y-77482824D01*
X89515098Y-77482824D01*
X89564666Y-77900451D01*
X89694757Y-78300383D01*
X89852786Y-78596038D01*
X90168347Y-78752048D01*
X91480395Y-77440000D01*
X91839605Y-77440000D01*
X93151653Y-78752048D01*
X93467214Y-78596038D01*
X93658020Y-78221255D01*
X93772044Y-77816449D01*
X93804902Y-77397176D01*
X93755334Y-76979549D01*
X93625243Y-76579617D01*
X93467214Y-76283962D01*
X93151653Y-76127952D01*
X91839605Y-77440000D01*
X91480395Y-77440000D01*
X90168347Y-76127952D01*
X89852786Y-76283962D01*
X89661980Y-76658745D01*
X89547956Y-77063551D01*
X89515098Y-77482824D01*
X79101263Y-77482824D01*
X79102743Y-75948347D01*
X90347952Y-75948347D01*
X91660000Y-77260395D01*
X92972048Y-75948347D01*
X92816038Y-75632786D01*
X92441255Y-75441980D01*
X92036449Y-75327956D01*
X91617176Y-75295098D01*
X91199549Y-75344666D01*
X90799617Y-75474757D01*
X90503962Y-75632786D01*
X90347952Y-75948347D01*
X79102743Y-75948347D01*
X79106333Y-72229721D01*
X89525000Y-72229721D01*
X89525000Y-72650279D01*
X89607047Y-73062756D01*
X89767988Y-73451302D01*
X90001637Y-73800983D01*
X90299017Y-74098363D01*
X90648698Y-74332012D01*
X91037244Y-74492953D01*
X91449721Y-74575000D01*
X91870279Y-74575000D01*
X92282756Y-74492953D01*
X92671302Y-74332012D01*
X93020983Y-74098363D01*
X93318363Y-73800983D01*
X93552012Y-73451302D01*
X93604328Y-73325000D01*
X97773422Y-73325000D01*
X109496235Y-85047814D01*
X109490000Y-85079157D01*
X109490000Y-85360843D01*
X109544954Y-85637116D01*
X109652751Y-85897359D01*
X109809247Y-86131572D01*
X110008428Y-86330753D01*
X110242641Y-86487249D01*
X110502884Y-86595046D01*
X110779157Y-86650000D01*
X111060843Y-86650000D01*
X111337116Y-86595046D01*
X111597359Y-86487249D01*
X111831572Y-86330753D01*
X112030753Y-86131572D01*
X112132030Y-85980000D01*
X137211928Y-85980000D01*
X137215000Y-86494250D01*
X137373750Y-86653000D01*
X138523000Y-86653000D01*
X138523000Y-85503750D01*
X138364250Y-85345000D01*
X137850000Y-85341928D01*
X137725518Y-85354188D01*
X137605820Y-85390498D01*
X137495506Y-85449463D01*
X137398815Y-85528815D01*
X137319463Y-85625506D01*
X137260498Y-85735820D01*
X137224188Y-85855518D01*
X137211928Y-85980000D01*
X112132030Y-85980000D01*
X112187249Y-85897359D01*
X112295046Y-85637116D01*
X112350000Y-85360843D01*
X112350000Y-85079157D01*
X112295046Y-84802884D01*
X112187249Y-84542641D01*
X112030753Y-84308428D01*
X111831572Y-84109247D01*
X111597359Y-83952751D01*
X111337116Y-83844954D01*
X111060843Y-83790000D01*
X110779157Y-83790000D01*
X110747814Y-83796235D01*
X98796534Y-71844956D01*
X98768817Y-71811183D01*
X98634059Y-71700589D01*
X98480313Y-71618411D01*
X98313490Y-71567805D01*
X98183477Y-71555000D01*
X98183469Y-71555000D01*
X98140000Y-71550719D01*
X98096531Y-71555000D01*
X93604328Y-71555000D01*
X93552012Y-71428698D01*
X93318363Y-71079017D01*
X93020983Y-70781637D01*
X92671302Y-70547988D01*
X92282756Y-70387047D01*
X91870279Y-70305000D01*
X91449721Y-70305000D01*
X91037244Y-70387047D01*
X90648698Y-70547988D01*
X90299017Y-70781637D01*
X90001637Y-71079017D01*
X89767988Y-71428698D01*
X89607047Y-71817244D01*
X89525000Y-72229721D01*
X79106333Y-72229721D01*
X79117742Y-60410475D01*
X107865000Y-60410475D01*
X107865000Y-60929525D01*
X107966261Y-61438601D01*
X108164893Y-61918141D01*
X108453262Y-62349715D01*
X108820285Y-62716738D01*
X109251859Y-63005107D01*
X109615001Y-63155525D01*
X109615000Y-80768779D01*
X109544954Y-80937884D01*
X109490000Y-81214157D01*
X109490000Y-81495843D01*
X109544954Y-81772116D01*
X109652751Y-82032359D01*
X109809247Y-82266572D01*
X110008428Y-82465753D01*
X110242641Y-82622249D01*
X110502884Y-82730046D01*
X110779157Y-82785000D01*
X111060843Y-82785000D01*
X111337116Y-82730046D01*
X111597359Y-82622249D01*
X111831572Y-82465753D01*
X112030753Y-82266572D01*
X112187249Y-82032359D01*
X112295046Y-81772116D01*
X112350000Y-81495843D01*
X112350000Y-81270000D01*
X127161928Y-81270000D01*
X127174188Y-81394482D01*
X127210498Y-81514180D01*
X127269463Y-81624494D01*
X127348815Y-81721185D01*
X127445506Y-81800537D01*
X127555820Y-81859502D01*
X127675518Y-81895812D01*
X127800000Y-81908072D01*
X128714250Y-81905000D01*
X128873000Y-81746250D01*
X128873000Y-80197000D01*
X129127000Y-80197000D01*
X129127000Y-81746250D01*
X129285750Y-81905000D01*
X130200000Y-81908072D01*
X130324482Y-81895812D01*
X130444180Y-81859502D01*
X130554494Y-81800537D01*
X130651185Y-81721185D01*
X130730537Y-81624494D01*
X130789502Y-81514180D01*
X130825812Y-81394482D01*
X130838072Y-81270000D01*
X130835000Y-80355750D01*
X130676250Y-80197000D01*
X129127000Y-80197000D01*
X128873000Y-80197000D01*
X127323750Y-80197000D01*
X127165000Y-80355750D01*
X127161928Y-81270000D01*
X112350000Y-81270000D01*
X112350000Y-81214157D01*
X112295046Y-80937884D01*
X112187249Y-80677641D01*
X112030753Y-80443428D01*
X111831572Y-80244247D01*
X111597359Y-80087751D01*
X111385000Y-79999788D01*
X111385000Y-78870000D01*
X127161928Y-78870000D01*
X127165000Y-79784250D01*
X127323750Y-79943000D01*
X128873000Y-79943000D01*
X128873000Y-78393750D01*
X129127000Y-78393750D01*
X129127000Y-79943000D01*
X130676250Y-79943000D01*
X130835000Y-79784250D01*
X130838072Y-78870000D01*
X130825812Y-78745518D01*
X130789502Y-78625820D01*
X130730537Y-78515506D01*
X130651185Y-78418815D01*
X130554494Y-78339463D01*
X130444180Y-78280498D01*
X130324482Y-78244188D01*
X130200000Y-78231928D01*
X129285750Y-78235000D01*
X129127000Y-78393750D01*
X128873000Y-78393750D01*
X128714250Y-78235000D01*
X127800000Y-78231928D01*
X127675518Y-78244188D01*
X127555820Y-78280498D01*
X127445506Y-78339463D01*
X127348815Y-78418815D01*
X127269463Y-78515506D01*
X127210498Y-78625820D01*
X127174188Y-78745518D01*
X127161928Y-78870000D01*
X111385000Y-78870000D01*
X111385000Y-72389268D01*
X127165000Y-72389268D01*
X127165000Y-72750732D01*
X127235518Y-73105250D01*
X127373844Y-73439199D01*
X127574662Y-73739744D01*
X127830256Y-73995338D01*
X128130801Y-74196156D01*
X128464750Y-74334482D01*
X128819268Y-74405000D01*
X129180732Y-74405000D01*
X129516611Y-74338189D01*
X140265000Y-85086579D01*
X140265000Y-85645478D01*
X140235241Y-85665363D01*
X140068661Y-85831943D01*
X140039502Y-85735820D01*
X139980537Y-85625506D01*
X139901185Y-85528815D01*
X139804494Y-85449463D01*
X139694180Y-85390498D01*
X139574482Y-85354188D01*
X139450000Y-85341928D01*
X138935750Y-85345000D01*
X138777000Y-85503750D01*
X138777000Y-86653000D01*
X138797000Y-86653000D01*
X138797000Y-86907000D01*
X138777000Y-86907000D01*
X138777000Y-88056250D01*
X138935750Y-88215000D01*
X139450000Y-88218072D01*
X139574482Y-88205812D01*
X139694180Y-88169502D01*
X139804494Y-88110537D01*
X139901185Y-88031185D01*
X139980537Y-87934494D01*
X140039502Y-87824180D01*
X140068661Y-87728057D01*
X140235241Y-87894637D01*
X140470273Y-88051680D01*
X140731426Y-88159853D01*
X141008665Y-88215000D01*
X141291335Y-88215000D01*
X141568574Y-88159853D01*
X141829727Y-88051680D01*
X142064759Y-87894637D01*
X142264637Y-87694759D01*
X142421680Y-87459727D01*
X142529853Y-87198574D01*
X142585000Y-86921335D01*
X142585000Y-86638665D01*
X142529853Y-86361426D01*
X142421680Y-86100273D01*
X142264637Y-85865241D01*
X142064759Y-85665363D01*
X142035000Y-85645479D01*
X142035000Y-84763469D01*
X142039281Y-84720000D01*
X142035000Y-84676531D01*
X142035000Y-84676523D01*
X142022195Y-84546510D01*
X141971589Y-84379687D01*
X141889411Y-84225941D01*
X141878299Y-84212401D01*
X157551400Y-84212401D01*
X157551400Y-84507599D01*
X157608990Y-84797125D01*
X157721958Y-85069853D01*
X157885961Y-85315302D01*
X158094698Y-85524039D01*
X158340147Y-85688042D01*
X158612875Y-85801010D01*
X158902401Y-85858600D01*
X159197599Y-85858600D01*
X159487125Y-85801010D01*
X159759853Y-85688042D01*
X160005302Y-85524039D01*
X160214039Y-85315302D01*
X160320000Y-85156719D01*
X160425961Y-85315302D01*
X160634698Y-85524039D01*
X160705001Y-85571014D01*
X160705001Y-85680113D01*
X160700719Y-85723579D01*
X160705001Y-85767068D01*
X160705001Y-85767077D01*
X160708039Y-85797925D01*
X160717801Y-85897068D01*
X160717805Y-85897082D01*
X160717806Y-85897090D01*
X160736186Y-85957680D01*
X160768403Y-86063893D01*
X160768410Y-86063906D01*
X160768412Y-86063913D01*
X160799031Y-86121198D01*
X160850577Y-86217640D01*
X160850585Y-86217650D01*
X160850590Y-86217659D01*
X160892055Y-86268184D01*
X160933453Y-86318630D01*
X160933467Y-86318644D01*
X160961184Y-86352417D01*
X160994940Y-86380120D01*
X164976458Y-90361835D01*
X165004173Y-90395607D01*
X165037937Y-90423317D01*
X165037979Y-90423352D01*
X165805000Y-91190228D01*
X165805001Y-94185209D01*
X165711495Y-94247688D01*
X165497688Y-94461495D01*
X165329701Y-94712905D01*
X165213989Y-94992257D01*
X165155000Y-95288816D01*
X165155000Y-95591184D01*
X165213989Y-95887743D01*
X165329701Y-96167095D01*
X165497688Y-96418505D01*
X165711495Y-96632312D01*
X165962905Y-96800299D01*
X166242257Y-96916011D01*
X166538816Y-96975000D01*
X166841184Y-96975000D01*
X167137743Y-96916011D01*
X167417095Y-96800299D01*
X167668505Y-96632312D01*
X167882312Y-96418505D01*
X168050299Y-96167095D01*
X168166011Y-95887743D01*
X168225000Y-95591184D01*
X168225000Y-95288816D01*
X168166011Y-94992257D01*
X168050299Y-94712905D01*
X167948132Y-94560000D01*
X169891928Y-94560000D01*
X169891928Y-96160000D01*
X169904188Y-96284482D01*
X169940498Y-96404180D01*
X169999463Y-96514494D01*
X170078815Y-96611185D01*
X170175506Y-96690537D01*
X170285820Y-96749502D01*
X170405518Y-96785812D01*
X170530000Y-96798072D01*
X172130000Y-96798072D01*
X172254482Y-96785812D01*
X172374180Y-96749502D01*
X172484494Y-96690537D01*
X172581185Y-96611185D01*
X172660537Y-96514494D01*
X172719502Y-96404180D01*
X172735117Y-96352702D01*
X173016903Y-96352702D01*
X173088486Y-96596671D01*
X173343996Y-96717571D01*
X173618184Y-96786300D01*
X173900512Y-96800217D01*
X174180130Y-96758787D01*
X174446292Y-96663603D01*
X174571514Y-96596671D01*
X174643097Y-96352702D01*
X173830000Y-95539605D01*
X173016903Y-96352702D01*
X172735117Y-96352702D01*
X172755812Y-96284482D01*
X172768072Y-96160000D01*
X172768072Y-96152785D01*
X172837298Y-96173097D01*
X173650395Y-95360000D01*
X174009605Y-95360000D01*
X174822702Y-96173097D01*
X175066671Y-96101514D01*
X175187571Y-95846004D01*
X175256300Y-95571816D01*
X175270217Y-95289488D01*
X175228787Y-95009870D01*
X175133603Y-94743708D01*
X175066671Y-94618486D01*
X174822702Y-94546903D01*
X174009605Y-95360000D01*
X173650395Y-95360000D01*
X172837298Y-94546903D01*
X172768072Y-94567215D01*
X172768072Y-94560000D01*
X172755812Y-94435518D01*
X172735118Y-94367298D01*
X173016903Y-94367298D01*
X173830000Y-95180395D01*
X174643097Y-94367298D01*
X174571514Y-94123329D01*
X174316004Y-94002429D01*
X174041816Y-93933700D01*
X173759488Y-93919783D01*
X173479870Y-93961213D01*
X173213708Y-94056397D01*
X173088486Y-94123329D01*
X173016903Y-94367298D01*
X172735118Y-94367298D01*
X172719502Y-94315820D01*
X172660537Y-94205506D01*
X172581185Y-94108815D01*
X172484494Y-94029463D01*
X172374180Y-93970498D01*
X172254482Y-93934188D01*
X172130000Y-93921928D01*
X170530000Y-93921928D01*
X170405518Y-93934188D01*
X170285820Y-93970498D01*
X170175506Y-94029463D01*
X170078815Y-94108815D01*
X169999463Y-94205506D01*
X169940498Y-94315820D01*
X169904188Y-94435518D01*
X169891928Y-94560000D01*
X167948132Y-94560000D01*
X167882312Y-94461495D01*
X167668505Y-94247688D01*
X167575000Y-94185210D01*
X167575000Y-90867025D01*
X167579281Y-90823515D01*
X167571529Y-90744886D01*
X167562195Y-90650110D01*
X167562182Y-90650067D01*
X167562178Y-90650027D01*
X167538127Y-90570771D01*
X167511589Y-90483287D01*
X167511568Y-90483248D01*
X167511556Y-90483208D01*
X167472217Y-90409626D01*
X167429411Y-90329541D01*
X167429382Y-90329506D01*
X167429363Y-90329470D01*
X167373059Y-90260877D01*
X167318817Y-90194783D01*
X167285013Y-90167041D01*
X166884647Y-89766751D01*
X172515045Y-84136533D01*
X172548817Y-84108817D01*
X172621965Y-84019687D01*
X172659402Y-83974071D01*
X172659404Y-83974068D01*
X172659411Y-83974059D01*
X172717201Y-83865941D01*
X172741583Y-83820327D01*
X172741585Y-83820321D01*
X172741589Y-83820313D01*
X172768627Y-83731183D01*
X172792192Y-83653505D01*
X172792193Y-83653497D01*
X172792195Y-83653490D01*
X172805000Y-83523477D01*
X172805000Y-83523476D01*
X172809281Y-83480015D01*
X172807793Y-83464904D01*
X172990179Y-83367417D01*
X173219345Y-83179345D01*
X173407417Y-82950179D01*
X173547166Y-82688725D01*
X173633224Y-82405032D01*
X173662282Y-82110000D01*
X173633224Y-81814968D01*
X173547166Y-81531275D01*
X173407417Y-81269821D01*
X173219345Y-81040655D01*
X172990179Y-80852583D01*
X172962331Y-80837698D01*
X173098903Y-80748256D01*
X173310536Y-80540494D01*
X173477571Y-80295437D01*
X173593588Y-80022502D01*
X173611302Y-79930031D01*
X173490246Y-79697000D01*
X172047000Y-79697000D01*
X172047000Y-79717000D01*
X171793000Y-79717000D01*
X171793000Y-79697000D01*
X170349754Y-79697000D01*
X170228698Y-79930031D01*
X170246412Y-80022502D01*
X170362429Y-80295437D01*
X170529464Y-80540494D01*
X170741097Y-80748256D01*
X170877669Y-80837698D01*
X170849821Y-80852583D01*
X170620655Y-81040655D01*
X170432583Y-81269821D01*
X170292834Y-81531275D01*
X170206776Y-81814968D01*
X170177718Y-82110000D01*
X170206776Y-82405032D01*
X170292834Y-82688725D01*
X170432583Y-82950179D01*
X170620655Y-83179345D01*
X170812015Y-83336391D01*
X165633026Y-88515216D01*
X162593650Y-85475691D01*
X162754039Y-85315302D01*
X162918042Y-85069853D01*
X163031010Y-84797125D01*
X163088600Y-84507599D01*
X163088600Y-84212401D01*
X163031010Y-83922875D01*
X162918042Y-83650147D01*
X162754039Y-83404698D01*
X162545302Y-83195961D01*
X162379897Y-83085441D01*
X162478488Y-83026817D01*
X162696854Y-82830293D01*
X162872684Y-82594944D01*
X162999222Y-82329814D01*
X163044958Y-82179026D01*
X162923817Y-81947000D01*
X161717000Y-81947000D01*
X161717000Y-81967000D01*
X161463000Y-81967000D01*
X161463000Y-81947000D01*
X159177000Y-81947000D01*
X159177000Y-81967000D01*
X158923000Y-81967000D01*
X158923000Y-81947000D01*
X157716183Y-81947000D01*
X157595042Y-82179026D01*
X157640778Y-82329814D01*
X157767316Y-82594944D01*
X157943146Y-82830293D01*
X158161512Y-83026817D01*
X158260103Y-83085441D01*
X158094698Y-83195961D01*
X157885961Y-83404698D01*
X157721958Y-83650147D01*
X157608990Y-83922875D01*
X157551400Y-84212401D01*
X141878299Y-84212401D01*
X141806532Y-84124953D01*
X141806530Y-84124951D01*
X141778817Y-84091183D01*
X141745051Y-84063472D01*
X138514281Y-80832702D01*
X140186903Y-80832702D01*
X140258486Y-81076671D01*
X140513996Y-81197571D01*
X140788184Y-81266300D01*
X141070512Y-81280217D01*
X141350130Y-81238787D01*
X141616292Y-81143603D01*
X141741514Y-81076671D01*
X141813097Y-80832702D01*
X141000000Y-80019605D01*
X140186903Y-80832702D01*
X138514281Y-80832702D01*
X137592091Y-79910512D01*
X139559783Y-79910512D01*
X139601213Y-80190130D01*
X139696397Y-80456292D01*
X139763329Y-80581514D01*
X140007298Y-80653097D01*
X140820395Y-79840000D01*
X141179605Y-79840000D01*
X141992702Y-80653097D01*
X142236671Y-80581514D01*
X142357571Y-80326004D01*
X142426300Y-80051816D01*
X142440217Y-79769488D01*
X142398787Y-79489870D01*
X142303603Y-79223708D01*
X142236671Y-79098486D01*
X141992702Y-79026903D01*
X141179605Y-79840000D01*
X140820395Y-79840000D01*
X140007298Y-79026903D01*
X139763329Y-79098486D01*
X139642429Y-79353996D01*
X139573700Y-79628184D01*
X139559783Y-79910512D01*
X137592091Y-79910512D01*
X136528877Y-78847298D01*
X140186903Y-78847298D01*
X141000000Y-79660395D01*
X141813097Y-78847298D01*
X141741514Y-78603329D01*
X141486004Y-78482429D01*
X141211816Y-78413700D01*
X140929488Y-78399783D01*
X140649870Y-78441213D01*
X140383708Y-78536397D01*
X140258486Y-78603329D01*
X140186903Y-78847298D01*
X136528877Y-78847298D01*
X130768189Y-73086611D01*
X130835000Y-72750732D01*
X130835000Y-72389268D01*
X130764482Y-72034750D01*
X130626156Y-71700801D01*
X130425338Y-71400256D01*
X130169744Y-71144662D01*
X129885000Y-70954402D01*
X129885000Y-65536578D01*
X132550809Y-62870770D01*
X132751859Y-63005107D01*
X133231399Y-63203739D01*
X133740475Y-63305000D01*
X134259525Y-63305000D01*
X134768601Y-63203739D01*
X135248141Y-63005107D01*
X135679715Y-62716738D01*
X136046738Y-62349715D01*
X136335107Y-61918141D01*
X136533739Y-61438601D01*
X136635000Y-60929525D01*
X136635000Y-60570000D01*
X140357319Y-60570000D01*
X140387970Y-60881204D01*
X140478745Y-61180449D01*
X140626155Y-61456235D01*
X140824537Y-61697963D01*
X140997609Y-61840000D01*
X140824537Y-61982037D01*
X140626155Y-62223765D01*
X140478745Y-62499551D01*
X140387970Y-62798796D01*
X140357319Y-63110000D01*
X140387970Y-63421204D01*
X140478745Y-63720449D01*
X140626155Y-63996235D01*
X140824537Y-64237963D01*
X141066265Y-64436345D01*
X141115001Y-64462395D01*
X141115001Y-64519021D01*
X141110719Y-64562500D01*
X141127805Y-64735990D01*
X141178412Y-64902813D01*
X141260590Y-65056559D01*
X141343468Y-65157546D01*
X141343471Y-65157549D01*
X141371184Y-65191317D01*
X141404952Y-65219030D01*
X146115000Y-69929079D01*
X146115000Y-69971928D01*
X146100000Y-69971928D01*
X145975518Y-69984188D01*
X145855820Y-70020498D01*
X145745506Y-70079463D01*
X145648815Y-70158815D01*
X145569463Y-70255506D01*
X145510498Y-70365820D01*
X145474188Y-70485518D01*
X145461928Y-70610000D01*
X145461928Y-72410000D01*
X145474188Y-72534482D01*
X145510498Y-72654180D01*
X145569463Y-72764494D01*
X145648815Y-72861185D01*
X145745506Y-72940537D01*
X145855820Y-72999502D01*
X145975518Y-73035812D01*
X146100000Y-73048072D01*
X147900000Y-73048072D01*
X148024482Y-73035812D01*
X148144180Y-72999502D01*
X148254494Y-72940537D01*
X148351185Y-72861185D01*
X148430537Y-72764494D01*
X148489502Y-72654180D01*
X148495056Y-72635873D01*
X148561495Y-72702312D01*
X148655001Y-72764791D01*
X148655000Y-76876531D01*
X148650719Y-76920000D01*
X148655000Y-76963469D01*
X148655000Y-76963476D01*
X148661552Y-77030000D01*
X148667805Y-77093490D01*
X148683157Y-77144096D01*
X148718411Y-77260312D01*
X148800589Y-77414058D01*
X148911183Y-77548817D01*
X148944956Y-77576534D01*
X150169513Y-78801091D01*
X150045363Y-78925241D01*
X149888320Y-79160273D01*
X149780147Y-79421426D01*
X149725000Y-79698665D01*
X149725000Y-79981335D01*
X149780147Y-80258574D01*
X149888320Y-80519727D01*
X150045363Y-80754759D01*
X150245241Y-80954637D01*
X150480273Y-81111680D01*
X150741426Y-81219853D01*
X151018665Y-81275000D01*
X151301335Y-81275000D01*
X151578574Y-81219853D01*
X151839727Y-81111680D01*
X152074759Y-80954637D01*
X152274637Y-80754759D01*
X152431680Y-80519727D01*
X152539853Y-80258574D01*
X152595000Y-79981335D01*
X152595000Y-79698665D01*
X152583137Y-79639026D01*
X157595042Y-79639026D01*
X157640778Y-79789814D01*
X157767316Y-80054944D01*
X157943146Y-80290293D01*
X158161512Y-80486817D01*
X158267770Y-80550000D01*
X158161512Y-80613183D01*
X157943146Y-80809707D01*
X157767316Y-81045056D01*
X157640778Y-81310186D01*
X157595042Y-81460974D01*
X157716183Y-81693000D01*
X158923000Y-81693000D01*
X158923000Y-79407000D01*
X159177000Y-79407000D01*
X159177000Y-81693000D01*
X161463000Y-81693000D01*
X161463000Y-79407000D01*
X161717000Y-79407000D01*
X161717000Y-81693000D01*
X162923817Y-81693000D01*
X163044958Y-81460974D01*
X162999222Y-81310186D01*
X162872684Y-81045056D01*
X162696854Y-80809707D01*
X162478488Y-80613183D01*
X162372230Y-80550000D01*
X162478488Y-80486817D01*
X162696854Y-80290293D01*
X162872684Y-80054944D01*
X162999222Y-79789814D01*
X163044958Y-79639026D01*
X162923817Y-79407000D01*
X161717000Y-79407000D01*
X161463000Y-79407000D01*
X159177000Y-79407000D01*
X158923000Y-79407000D01*
X157716183Y-79407000D01*
X157595042Y-79639026D01*
X152583137Y-79639026D01*
X152539853Y-79421426D01*
X152431680Y-79160273D01*
X152274637Y-78925241D01*
X152074759Y-78725363D01*
X152045000Y-78705479D01*
X152045000Y-78583469D01*
X152049281Y-78540000D01*
X152045000Y-78496531D01*
X152045000Y-78496523D01*
X152032195Y-78366510D01*
X151981589Y-78199687D01*
X151899411Y-78045941D01*
X151853379Y-77989851D01*
X151816532Y-77944953D01*
X151816530Y-77944951D01*
X151788817Y-77911183D01*
X151755049Y-77883470D01*
X150970605Y-77099026D01*
X157595042Y-77099026D01*
X157640778Y-77249814D01*
X157767316Y-77514944D01*
X157943146Y-77750293D01*
X158161512Y-77946817D01*
X158267770Y-78010000D01*
X158161512Y-78073183D01*
X157943146Y-78269707D01*
X157767316Y-78505056D01*
X157640778Y-78770186D01*
X157595042Y-78920974D01*
X157716183Y-79153000D01*
X158923000Y-79153000D01*
X158923000Y-76867000D01*
X159177000Y-76867000D01*
X159177000Y-79153000D01*
X161463000Y-79153000D01*
X161463000Y-76867000D01*
X161717000Y-76867000D01*
X161717000Y-79153000D01*
X162923817Y-79153000D01*
X163044958Y-78920974D01*
X162999222Y-78770186D01*
X162872684Y-78505056D01*
X162696854Y-78269707D01*
X162478488Y-78073183D01*
X162372230Y-78010000D01*
X162478488Y-77946817D01*
X162696854Y-77750293D01*
X162872684Y-77514944D01*
X162999222Y-77249814D01*
X163044958Y-77099026D01*
X162923817Y-76867000D01*
X161717000Y-76867000D01*
X161463000Y-76867000D01*
X159177000Y-76867000D01*
X158923000Y-76867000D01*
X157716183Y-76867000D01*
X157595042Y-77099026D01*
X150970605Y-77099026D01*
X150425000Y-76553422D01*
X150425000Y-72764790D01*
X150518505Y-72702312D01*
X150732312Y-72488505D01*
X150900299Y-72237095D01*
X151016011Y-71957743D01*
X151075000Y-71661184D01*
X151075000Y-71358816D01*
X151016011Y-71062257D01*
X151008697Y-71044600D01*
X153279396Y-71044600D01*
X157029456Y-74795032D01*
X157057183Y-74828817D01*
X157121251Y-74881397D01*
X157191904Y-74939386D01*
X157191923Y-74939396D01*
X157191941Y-74939411D01*
X157271115Y-74981730D01*
X157345646Y-75021572D01*
X157345667Y-75021578D01*
X157345687Y-75021589D01*
X157434081Y-75048404D01*
X157512467Y-75072186D01*
X157512487Y-75072188D01*
X157512510Y-75072195D01*
X157549534Y-75075841D01*
X157560588Y-75188082D01*
X157596898Y-75307780D01*
X157655863Y-75418094D01*
X157735215Y-75514785D01*
X157831906Y-75594137D01*
X157942220Y-75653102D01*
X158006574Y-75672624D01*
X157943146Y-75729707D01*
X157767316Y-75965056D01*
X157640778Y-76230186D01*
X157595042Y-76380974D01*
X157716183Y-76613000D01*
X158923000Y-76613000D01*
X158923000Y-76593000D01*
X159177000Y-76593000D01*
X159177000Y-76613000D01*
X161463000Y-76613000D01*
X161463000Y-76593000D01*
X161717000Y-76593000D01*
X161717000Y-76613000D01*
X162923817Y-76613000D01*
X163044958Y-76380974D01*
X162999222Y-76230186D01*
X162872684Y-75965056D01*
X162696854Y-75729707D01*
X162478488Y-75533183D01*
X162379897Y-75474559D01*
X162545302Y-75364039D01*
X162754039Y-75155302D01*
X162801013Y-75085000D01*
X162910531Y-75085000D01*
X162954000Y-75089281D01*
X162997469Y-75085000D01*
X162997477Y-75085000D01*
X163127490Y-75072195D01*
X163294313Y-75021589D01*
X163448059Y-74939411D01*
X163582817Y-74828817D01*
X163610534Y-74795044D01*
X165430579Y-72975000D01*
X166613422Y-72975000D01*
X170181928Y-76543507D01*
X170181928Y-77650001D01*
X170198992Y-77823255D01*
X170249528Y-77989851D01*
X170331595Y-78143387D01*
X170442038Y-78277962D01*
X170576613Y-78388405D01*
X170685314Y-78446507D01*
X170529464Y-78599506D01*
X170362429Y-78844563D01*
X170246412Y-79117498D01*
X170228698Y-79209969D01*
X170349754Y-79443000D01*
X171793000Y-79443000D01*
X171793000Y-79423000D01*
X172047000Y-79423000D01*
X172047000Y-79443000D01*
X173490246Y-79443000D01*
X173611302Y-79209969D01*
X173593588Y-79117498D01*
X173477571Y-78844563D01*
X173310536Y-78599506D01*
X173154686Y-78446507D01*
X173263387Y-78388405D01*
X173397962Y-78277962D01*
X173508405Y-78143387D01*
X173590472Y-77989851D01*
X173641008Y-77823255D01*
X173658072Y-77650001D01*
X173658072Y-76409999D01*
X173641008Y-76236745D01*
X173590472Y-76070149D01*
X173508405Y-75916613D01*
X173397962Y-75782038D01*
X173263387Y-75671595D01*
X173109851Y-75589528D01*
X172943255Y-75538992D01*
X172770001Y-75521928D01*
X171663507Y-75521928D01*
X167865000Y-71723422D01*
X167865000Y-66010200D01*
X172421568Y-66010200D01*
X172465070Y-66014481D01*
X172542728Y-66006827D01*
X172638490Y-65997395D01*
X172638525Y-65997384D01*
X172638559Y-65997381D01*
X172714562Y-65974318D01*
X172805313Y-65946789D01*
X172805349Y-65946770D01*
X172805378Y-65946761D01*
X172871231Y-65911555D01*
X172959059Y-65864611D01*
X172959090Y-65864585D01*
X172959117Y-65864571D01*
X173021459Y-65813400D01*
X173093817Y-65754017D01*
X173121556Y-65720218D01*
X173553667Y-65288038D01*
X173588665Y-65295000D01*
X173871335Y-65295000D01*
X174148574Y-65239853D01*
X174409727Y-65131680D01*
X174644759Y-64974637D01*
X174844637Y-64774759D01*
X175001680Y-64539727D01*
X175109853Y-64278574D01*
X175165000Y-64001335D01*
X175165000Y-63718665D01*
X175109853Y-63441426D01*
X175001680Y-63180273D01*
X174844637Y-62945241D01*
X174644759Y-62745363D01*
X174409727Y-62588320D01*
X174148574Y-62480147D01*
X173871335Y-62425000D01*
X173588665Y-62425000D01*
X173311426Y-62480147D01*
X173050273Y-62588320D01*
X172815241Y-62745363D01*
X172648661Y-62911943D01*
X172619502Y-62815820D01*
X172560537Y-62705506D01*
X172481185Y-62608815D01*
X172384494Y-62529463D01*
X172274180Y-62470498D01*
X172154482Y-62434188D01*
X172030000Y-62421928D01*
X171515750Y-62425000D01*
X171357000Y-62583750D01*
X171357000Y-63733000D01*
X171377000Y-63733000D01*
X171377000Y-63987000D01*
X171357000Y-63987000D01*
X171357000Y-64007000D01*
X171103000Y-64007000D01*
X171103000Y-63987000D01*
X169953750Y-63987000D01*
X169795000Y-64145750D01*
X169794436Y-64240200D01*
X168518072Y-64240200D01*
X168518072Y-63060000D01*
X169791928Y-63060000D01*
X169795000Y-63574250D01*
X169953750Y-63733000D01*
X171103000Y-63733000D01*
X171103000Y-62583750D01*
X170944250Y-62425000D01*
X170430000Y-62421928D01*
X170305518Y-62434188D01*
X170185820Y-62470498D01*
X170075506Y-62529463D01*
X169978815Y-62608815D01*
X169899463Y-62705506D01*
X169840498Y-62815820D01*
X169804188Y-62935518D01*
X169791928Y-63060000D01*
X168518072Y-63060000D01*
X168518072Y-63050000D01*
X168505812Y-62925518D01*
X168469502Y-62805820D01*
X168410537Y-62695506D01*
X168331185Y-62598815D01*
X168234494Y-62519463D01*
X168124180Y-62460498D01*
X168004482Y-62424188D01*
X167880000Y-62411928D01*
X166080000Y-62411928D01*
X165955518Y-62424188D01*
X165835820Y-62460498D01*
X165725506Y-62519463D01*
X165628815Y-62598815D01*
X165549463Y-62695506D01*
X165490498Y-62805820D01*
X165454188Y-62925518D01*
X165441928Y-63050000D01*
X165441928Y-64850000D01*
X165454188Y-64974482D01*
X165490498Y-65094180D01*
X165549463Y-65204494D01*
X165628815Y-65301185D01*
X165725506Y-65380537D01*
X165835820Y-65439502D01*
X165955518Y-65475812D01*
X166080000Y-65488072D01*
X166095001Y-65488072D01*
X166095000Y-71205000D01*
X165107469Y-71205000D01*
X165064000Y-71200719D01*
X165020531Y-71205000D01*
X165020523Y-71205000D01*
X164890510Y-71217805D01*
X164723686Y-71268411D01*
X164569941Y-71350589D01*
X164468953Y-71433468D01*
X164468951Y-71433470D01*
X164435183Y-71461183D01*
X164407470Y-71494951D01*
X162705881Y-73196540D01*
X162545302Y-73035961D01*
X162299853Y-72871958D01*
X162027125Y-72758990D01*
X161737599Y-72701400D01*
X161442401Y-72701400D01*
X161152875Y-72758990D01*
X160880147Y-72871958D01*
X160634698Y-73035961D01*
X160520636Y-73150023D01*
X160503102Y-73092220D01*
X160444137Y-72981906D01*
X160364785Y-72885215D01*
X160268094Y-72805863D01*
X160157780Y-72746898D01*
X160038082Y-72710588D01*
X159913600Y-72698328D01*
X158186400Y-72698328D01*
X158061918Y-72710588D01*
X157942220Y-72746898D01*
X157831906Y-72805863D01*
X157735215Y-72885215D01*
X157684569Y-72946928D01*
X154302548Y-69564573D01*
X154274817Y-69530783D01*
X154198574Y-69468211D01*
X154140095Y-69420214D01*
X154140079Y-69420206D01*
X154140059Y-69420189D01*
X154048577Y-69371291D01*
X153986354Y-69338029D01*
X153986337Y-69338024D01*
X153986313Y-69338011D01*
X153889759Y-69308721D01*
X153819533Y-69287414D01*
X153819513Y-69287412D01*
X153819490Y-69287405D01*
X153716742Y-69277285D01*
X153646044Y-69270319D01*
X153602555Y-69274600D01*
X147837489Y-69274600D01*
X147821589Y-69222187D01*
X147739411Y-69068441D01*
X147628817Y-68933683D01*
X147595051Y-68905972D01*
X143039019Y-64349941D01*
X143175463Y-64237963D01*
X143373845Y-63996235D01*
X143479367Y-63798816D01*
X155285000Y-63798816D01*
X155285000Y-64101184D01*
X155343989Y-64397743D01*
X155459701Y-64677095D01*
X155627688Y-64928505D01*
X155841495Y-65142312D01*
X156092905Y-65310299D01*
X156372257Y-65426011D01*
X156668816Y-65485000D01*
X156971184Y-65485000D01*
X157267743Y-65426011D01*
X157547095Y-65310299D01*
X157798505Y-65142312D01*
X158012312Y-64928505D01*
X158180299Y-64677095D01*
X158296011Y-64397743D01*
X158355000Y-64101184D01*
X158355000Y-63798816D01*
X158296011Y-63502257D01*
X158180299Y-63222905D01*
X158012312Y-62971495D01*
X157798505Y-62757688D01*
X157547095Y-62589701D01*
X157267743Y-62473989D01*
X156971184Y-62415000D01*
X156668816Y-62415000D01*
X156372257Y-62473989D01*
X156092905Y-62589701D01*
X155841495Y-62757688D01*
X155627688Y-62971495D01*
X155459701Y-63222905D01*
X155343989Y-63502257D01*
X155285000Y-63798816D01*
X143479367Y-63798816D01*
X143521255Y-63720449D01*
X143612030Y-63421204D01*
X143642681Y-63110000D01*
X143612030Y-62798796D01*
X143521255Y-62499551D01*
X143373845Y-62223765D01*
X143175463Y-61982037D01*
X143002391Y-61840000D01*
X143175463Y-61697963D01*
X143373845Y-61456235D01*
X143521255Y-61180449D01*
X143612030Y-60881204D01*
X143642681Y-60570000D01*
X143612030Y-60258796D01*
X143521255Y-59959551D01*
X143373845Y-59683765D01*
X143270554Y-59557905D01*
X143354494Y-59513037D01*
X143451185Y-59433685D01*
X143530537Y-59336994D01*
X143589502Y-59226680D01*
X143625812Y-59106982D01*
X143638072Y-58982500D01*
X143635000Y-58315750D01*
X143476250Y-58157000D01*
X142127000Y-58157000D01*
X142127000Y-58177000D01*
X141873000Y-58177000D01*
X141873000Y-58157000D01*
X140523750Y-58157000D01*
X140365000Y-58315750D01*
X140361928Y-58982500D01*
X140374188Y-59106982D01*
X140410498Y-59226680D01*
X140469463Y-59336994D01*
X140548815Y-59433685D01*
X140645506Y-59513037D01*
X140729446Y-59557905D01*
X140626155Y-59683765D01*
X140478745Y-59959551D01*
X140387970Y-60258796D01*
X140357319Y-60570000D01*
X136635000Y-60570000D01*
X136635000Y-60410475D01*
X136533739Y-59901399D01*
X136335107Y-59421859D01*
X136046738Y-58990285D01*
X135679715Y-58623262D01*
X135248141Y-58334893D01*
X134768601Y-58136261D01*
X134259525Y-58035000D01*
X133740475Y-58035000D01*
X133231399Y-58136261D01*
X132751859Y-58334893D01*
X132320285Y-58623262D01*
X131953262Y-58990285D01*
X131664893Y-59421859D01*
X131466261Y-59901399D01*
X131365000Y-60410475D01*
X131365000Y-60929525D01*
X131466261Y-61438601D01*
X131470232Y-61448189D01*
X128404952Y-64513470D01*
X128371184Y-64541183D01*
X128343471Y-64574951D01*
X128343468Y-64574954D01*
X128260590Y-64675941D01*
X128178412Y-64829687D01*
X128127805Y-64996510D01*
X128110719Y-65170000D01*
X128115001Y-65213479D01*
X128115000Y-70954402D01*
X127830256Y-71144662D01*
X127574662Y-71400256D01*
X127373844Y-71700801D01*
X127235518Y-72034750D01*
X127165000Y-72389268D01*
X111385000Y-72389268D01*
X111385000Y-63155525D01*
X111748141Y-63005107D01*
X112179715Y-62716738D01*
X112546738Y-62349715D01*
X112835107Y-61918141D01*
X113033739Y-61438601D01*
X113135000Y-60929525D01*
X113135000Y-60410475D01*
X113033739Y-59901399D01*
X112835107Y-59421859D01*
X112546738Y-58990285D01*
X112179715Y-58623262D01*
X111748141Y-58334893D01*
X111268601Y-58136261D01*
X110759525Y-58035000D01*
X110240475Y-58035000D01*
X109731399Y-58136261D01*
X109251859Y-58334893D01*
X108820285Y-58623262D01*
X108453262Y-58990285D01*
X108164893Y-59421859D01*
X107966261Y-59901399D01*
X107865000Y-60410475D01*
X79117742Y-60410475D01*
X79120959Y-57077500D01*
X140361928Y-57077500D01*
X140365000Y-57744250D01*
X140523750Y-57903000D01*
X141873000Y-57903000D01*
X141873000Y-56601250D01*
X142127000Y-56601250D01*
X142127000Y-57903000D01*
X143476250Y-57903000D01*
X143635000Y-57744250D01*
X143638072Y-57077500D01*
X143625812Y-56953018D01*
X143589502Y-56833320D01*
X143530537Y-56723006D01*
X143451185Y-56626315D01*
X143354494Y-56546963D01*
X143244180Y-56487998D01*
X143124482Y-56451688D01*
X143000000Y-56439428D01*
X142285750Y-56442500D01*
X142127000Y-56601250D01*
X141873000Y-56601250D01*
X141714250Y-56442500D01*
X141000000Y-56439428D01*
X140875518Y-56451688D01*
X140755820Y-56487998D01*
X140645506Y-56546963D01*
X140548815Y-56626315D01*
X140469463Y-56723006D01*
X140410498Y-56833320D01*
X140374188Y-56953018D01*
X140361928Y-57077500D01*
X79120959Y-57077500D01*
X79126887Y-50937000D01*
X177092754Y-50937000D01*
X176953811Y-122920000D01*
M02*
